<svg fill="#bdbdbd" viewBox="0 0 48 48" xmlns="http://www.w3.org/2000/svg"><path d="m10 0c-2.21 0-4 1.79-4 4v28c0 2.21 1.79 4 4 4h28c2.21 0 4-1.79 4-4v-24l-8-8h-24m0 4h20v8h-20v-8m14 16c3.31 0 6 2.69 6 6 0 3.31-2.69 6-6 6-3.31 0-6-2.69-6-6 0-3.31 2.69-6 6-6m-12 20c-2.21 0-4 1.79-4 4 0 2.21 1.79 4 4 4 2.21 0 4-1.79 4-4 0-2.21-1.79-4-4-4m12 0c-2.21 0-4 1.79-4 4 0 2.21 1.79 4 4 4 2.21 0 4-1.79 4-4 0-2.21-1.79-4-4-4m12 0c-2.21 0-4 1.79-4 4 0 2.21 1.79 4 4 4 2.21 0 4-1.79 4-4 0-2.21-1.79-4-4-4"/></svg>