<svg fill="#bdbdbd" viewBox="0 0 48 48" xmlns="http://www.w3.org/2000/svg"><path d="m10.855 10.279c-1.037 0-1.857.526-2.398 1.322l-8.123 12.197 8.123 12.197c.541.797 1.361 1.338 2.398 1.338h6c-1.037 0-1.857-.541-2.398-1.338l-8.123-12.197 8.123-12.197c.541-.797 1.361-1.322 2.398-1.322h-6"/><path d="m44.994 10.279h-22.545c-1.037 0-1.856.526-2.397 1.323l-8.124 12.197 8.124 12.197c.541.797 1.36 1.338 2.397 1.338h22.545c1.661 0 3.01-1.345 3.01-3.01v-21.04c0-1.661-1.345-3.01-3.01-3.01m-4.509 18.915l-2.127 2.127-5.388-5.388-5.388 5.388-2.127-2.127 5.388-5.388-5.388-5.388 2.127-2.127 5.388 5.388 5.388-5.388 2.127 2.127-5.388 5.388 5.388 5.388"/></svg>