<svg fill="#8C776C" viewBox="0 0 48 48" xmlns="http://www.w3.org/2000/svg"><path d="m30.857 20h-1.143v-2.286c0-3.154-2.56-5.714-5.714-5.714-3.154 0-5.714 2.56-5.714 5.714v2.286h-1.143c-1.263 0-2.286 1.023-2.286 2.286v11.429c0 1.263 1.023 2.286 2.286 2.286h13.714c1.263 0 2.286-1.023 2.286-2.286v-11.429c0-1.263-1.023-2.286-2.286-2.286m-6.857 10.286c-1.263 0-2.286-1.023-2.286-2.286 0-1.263 1.023-2.286 2.286-2.286 1.263 0 2.286 1.023 2.286 2.286 0 1.263-1.023 2.286-2.286 2.286zm3.543-10.286h-7.086v-2.286c0-1.954 1.589-3.543 3.543-3.543 1.954 0 3.543 1.589 3.543 3.543v2.286m10.457-10v28h-28v-28h28m0-4h-28c-2.21 0-4 1.79-4 4v28c0 2.21 1.79 4 4 4h28c2.21 0 4-1.79 4-4v-28c0-2.21-1.79-4-4-4"/></svg>