<svg fill="#8C776C" viewBox="0 0 48 48" xmlns="http://www.w3.org/2000/svg"><path d="m13.698 21.542c0 0-.611.675-1.077 1.142-.78.78-1.335 1.841-1.335 2.573h-2.573c0-1.335.74-2.452 1.495-3.208l1.495-1.52c.434-.434.708-1.037.708-1.705 0-1.335-1.077-2.412-2.412-2.412-1.335 0-2.412 1.077-2.412 2.412h-2.412c0-2.661 2.163-4.824 4.824-4.824 2.661 0 4.824 2.163 4.824 4.824 0 1.061-.426 2.026-1.126 2.718m-2.171 8.458h-3.055v-3.055h3.055v3.055m18.472-18.2c2.32 0 4.2 1.88 4.2 4.2 0 2.32-1.88 4.2-4.2 4.2-2.32 0-4.2-1.88-4.2-4.2 0-2.32 1.88-4.2 4.2-4.2m0 18c5.95 0 12.2 2.91 12.2 4.2v2.2h-24.4v-2.2c0-1.29 6.25-4.2 12.2-4.2m0-21.8c-4.42 0-8 3.58-8 8 0 4.41 3.58 8 8 8 4.42 0 8-3.59 8-8 0-4.42-3.58-8-8-8zm0 18c-5.33 0-16 2.67-16 8v6h32v-6c0-5.33-10.67-8-16-8"/></svg>