<svg fill="#8C776C" viewBox="0 0 48 48" xmlns="http://www.w3.org/2000/svg"><path d="m2.719 19.477l5.764 5.764 5.764-5.764h-4.322-2.881-4.324m16.791-12.967c-7.169 0-12.978 5.803-12.996 12.967h.529 2.881.592c.019-4.954 4.04-8.967 8.994-8.967 4.97 0 9 4.03 9 9 0 4.97-4.03 9-9 9-1.894 0-3.65-.588-5.1-1.588l-2.758 2.797c2.092 1.455 5.111 2.791 7.857 2.791 3.23 0 6.179-1.181 8.449-3.131l.551.551v1.58l10 9.98 2.98-2.98-9.98-10h-1.59l-.551-.551c1.96-2.27 3.141-5.219 3.141-8.449 0-7.18-5.82-13-13-13m0 10.09c-1.605 0-2.904 1.301-2.904 2.906 0 1.605 1.299 2.904 2.904 2.904 1.605 0 2.906-1.299 2.906-2.904 0-1.605-1.301-2.906-2.906-2.906"/></svg>