<svg fill="#8C776C" height="48" version="1.1" viewBox="0 0 48 48" width="48" xmlns="http://www.w3.org/2000/svg"><path d="m18 42l4 0L22 38l-4 0 0 4zM6 18l4 0 0-4-4 0 0 4zM36 42C38.21 42 40 40.21 40 38l-4 0 0 4zM36 36l4 0 0-4-4 0 0 4zM4 42L4 38 0 38c0 2.21 1.79 4 4 4zM10 38l-4 0 0 4 4 0L10 38ZM4 14c-2.21 0-4 1.79-4 4l4 0 0-4zM4 32l-4 0 0 4 4 0 0-4zm0-6l-4 0L0 30 4 30 4 26Zm0-6l-4 0 0 4 4 0 0-4zM16 38l-4 0 0 4 4 0L16 38Zm8 4l4 0L28 38l-4 0 0 4zm6 0l4 0L34 38l-4 0 0 4zM11.636719 6C9.622173 6 8 7.561 8 9.5l0 21c0 1.939 1.622173 3.5 3.636719 3.5l32.726563 0C46.377827 34 48 32.439 48 30.5l0-21C48 7.561 46.377827 6 44.363281 6L11.636719 6ZM12 10l32 0 0 20-32 0 0-20z" fill="#8C776C"/></svg>