<svg height="48" version="1.1" viewBox="0 0 47.999575 47.999832" width="48" xmlns="http://www.w3.org/2000/svg"><path d="m31.652455 19.328486c0 0-.589616-5.497308-6.044051-5.650396-5.454435-.152655-8.255273 4.122765-8.255273 10.231125 0 6.108361 3.095863 10.9944 8.402515 10.9944 5.307193 0 5.897242-6.108361 5.897242-6.108361l10.171579.610728c0 0 .598927 5.51658-3.657654 9.725524-4.257014 4.208511-9.481926 4.895783-13.130486 4.867526-3.648668-.029124-8.707825.057164-13.599277-4.95338-4.892535-5.010545-5.722285-9.878179-5.722285-14.6592 0-4.782104.92773-11.115658 6.744964-15.919415 3.95322-3.264216 7.96079-4.46705 11.968793-4.46705 16.732491 0 17.856291 15.432218 17.856291 15.432218L31.653104 19.327078" fill="#a8b9cc"/></svg>