<svg viewBox="0 0 65.67 65.67" xmlns="http://www.w3.org/2000/svg"><g transform="matrix(1.02609 0 0 1.02609 -338.61 -357.72)"><circle cx="258.57" cy="-63.04" fill="#04a" r="13.304" transform="matrix(2.40537 0 0 2.40537 -259.96 532.25)"/><g fill="#fff" transform="matrix(1.6 0 0 1.6 -197.59 -247.94)"><g transform="translate(.446 -.045)"><path d="m355.84 380.4c-.06.037-.085.069-.07.045-.679 1.148-.685 2.652-.992 4a .498222.498222 0 0 1 0 .070313c-.151 1.478-.634 2.982-.246 4.4a.498222.498222 0 0 1  .039063.089844c.072.093.163.178.217.189.04.008.1-.01.24-.107.151-.105.249-.299.293-.576a.498222.498222 0 0 1  .085938-.208984c.606-2.403 1.038-4.928.877-7.398a.498222.498222 0 0 1 0-.025391c-.021-.114-.057-.182-.166-.314-.075-.091-.121-.139-.141-.152-.019-.013-.003-.016-.072-.012a.498222.498222 0 0 1 -.064453-.001953"/><path d="m361.90234 381.83789a.466814.466814 0 0 1 -.050781.003906c-1.042.507-1.578 1.732-2.299 2.717A.466814.466814 0 0 1 359.5 384.69727c-.908 1.609-2.064 3.204-2.186 5.064.006.294.173.462.348.5.164.035.465-.072.588-.256.011-.027.002-.053.018-.076a.466814.466814 0 0 1  .011719-.017578c1.646-2.262 2.89-4.944 3.912-7.551a.466814.466814 0 0 1  .001953-.007813c.071-.171.075-.238.012-.367-.019-.038-.203-.161-.303-.148" transform="translate(-.491 -.268)"/></g><path d="m345.67 382.28c-.167.031-.416.181-.594.25-.628.238-.975.777-1.125 1.406-.153.644-.102 1.361 0 2.094.102.731.248 1.486.406 2.063.136.498.234.741.281.906v.125c0 .055-.026.05-.063.094-.02.011.02.063 0 .063-.045.035-.1.063-.156.063-.111.007-.198-.033-.313-.063-.078-.018-.18-.081-.156-.063-.036-.022-.101-.024-.125-.063 0 .015.022.014 0-.031-.025-.047-.054-.166-.094-.25-.089-.189-.159-.409-.281-.688-.244-.555-.558-1.236-.906-1.875-.35-.641-.762-1.224-1.219-1.625-.228-.201-.51-.402-.781-.469-.262-.065-.573-.01-.844.125-.7.388-1.096 1.024-1.25 1.688-.155.673-.082 1.449.031 2.125.115.675.292 1.231.406 1.688.049.193.109.372.125.469 0 .096-.039.345-.063.438-.118.409-.406 1.094-.406 1.094 0 0-5.453 14.483 6.25 13.469.096-.007.315-.063.406-.063 2.298-.463 4.473-1.158 6.406-1.938.38-.182.878-.363 1.438-.625 1.119-.524 2.525-1.196 3.875-1.938 1.351-.742 2.605-1.533 3.563-2.375.96-.843 1.66-1.767 1.531-2.688-.204-1.483-1.189-2.586-2.5-3.438-1.316-.855-2.957-1.445-4.594-1.875-1.636-.43-3.224-.78-4.438-.969-.607-.094-1.175-.122-1.531-.188-.105-.018-.162-.044-.219-.063-.031-.004-.033-.013-.063-.031-.036-.022-.103-.024-.125-.063-.02-.036 0-.083 0-.125 0-.016 0-.041 0-.063v-.906c-.02-.748-.064-1.736-.219-2.656-.156-.925-.398-1.809-.906-2.406-.302-.355-.73-.589-1.25-.625-.156-.018-.331-.031-.5 0"/></g></g></svg>