<svg height="21.2" viewBox="0 0 36 21.203562" xmlns="http://www.w3.org/2000/svg"><path d="m .863 21.19c0-.008.304-.945.676-2.084.372-1.139.757-2.319.856-2.624l.18-.554h11.02 11.02l.136-.41c.315-.95 3.36-10.229 3.36-10.238 0-.005-4.958-.01-11.02-.01-6.06 0-11.02-.005-11.02-.011 0-.006.356-1.102.791-2.435.435-1.333.82-2.515.856-2.626l.065-.203 12.452.005c12.01.005 12.459.006 12.65.038.601.101 1.051.275 1.523.59.722.482 1.212 1.19 1.437 2.079.211.83.184 1.71-.079 2.608-.116.398-3.469 10.601-3.543 10.784-.393.967-1.024 1.874-1.898 2.728-.91.889-1.852 1.51-2.959 1.95-.475.189-.911.308-1.405.384-.195.03-.865.032-12.66.037-6.849.003-12.453-.001-12.453-.009m-.863-8.119c0-.007.384-1.123.852-2.48l.851-2.466 6.547-.005c3.601-.002 6.547.002 6.547.009 0 .018-1.688 4.915-1.702 4.938-.013.021-13.1.025-13.1.004" fill="#1c75bc"/></svg>