<svg viewBox="0 0 937 937" xmlns="http://www.w3.org/2000/svg"><path d="M880.401 266.182A456.668 456.668 0 1 1 722.223 90.5071" fill="none" stroke="#808080" stroke-dasharray="39.8522" stroke-width="10.597"/><circle cx="473.5" cy="473.5" fill="#000080" r="353.21"/><circle cx="619.81" cy="327.2" fill="#fff" r="103.45"/><circle cx="826.72" cy="120.29" fill="#000080" r="103.45"/><g fill="#fff"><path d="m377.82 650.11v-26.07h-114.44v-205.68h-29.564v231.75h144.01"/><path d="m536.7 650.11v-166.58h-26.385v91.87c0 34.01-17.802 56.27-45.46 56.27-20.981 0-34.33-12.716-34.33-32.743v-115.4h-26.385v125.89c0 27.657 20.663 45.46 53.09 45.46 24.478 0 40.05-8.583 55.632-30.518v25.75h23.842"/><path d="m730.5 649.47v-20.03c-2.861.636-4.133.636-5.722.636-9.219 0-14.305-4.768-14.305-13.03v-92.83c0-29.564-21.617-45.46-62.63-45.46-40.37 0-65.17 15.577-66.758 54.04h26.703c2.225-20.345 14.305-29.564 39.1-29.564 23.842 0 37.19 8.901 37.19 24.796v6.994c0 11.126-6.676 15.895-27.657 18.438-37.512 4.768-43.23 6.04-53.41 10.173-19.392 7.947-29.25 22.888-29.25 43.23 0 30.2 20.981 48 54.678 48 21.299 0 41.962-8.901 56.59-24.478 2.861 12.716 14.305 21.935 27.339 21.935 5.404 0 9.537-.636 18.12-2.861m-46.41-56.903c0 23.842-24.16 39.1-49.91 39.1-20.663 0-32.743-7.312-32.743-25.432 0-17.484 11.762-25.11 40.05-29.25 27.975-3.815 33.697-5.086 42.598-9.219v24.796"/></g></svg>