<svg height="39.718582" version="1.1" viewBox="0 0 40.723747 39.718582" width="40.723747" xml:space="preserve" xmlns="http://www.w3.org/2000/svg"><g transform="matrix(1.25 0 0 -1.25 -95.276251 309.515534)"><path d="m84.214867 240.892272c-.176992-.008096-.2625-.035938-.2625-.035938-.886-2.243-.325813-3.898938-.157812-4.310938-1.042-1.139-1.678125-2.592312-1.678125-4.370313 0-6.242 3.803313-7.640563 7.420313-8.051562-.466-.407-.886375-1.124563-1.034375-2.176563-.928-.417-3.287625-1.135875-4.740625 1.353125 0 0-.860313 1.563125-2.495313 1.678125 0 0-1.589938.020938-.110937-.989062 0 0 1.068375-.500813 1.809375-2.382813 0 0 .954938-3.168375 5.485938-2.184375.008-1.359.021875-2.384313.021875-2.770313 0-.373011-.222904-.7975-.807813-.810937l0-.003125 9.71875 0c-.610107-.003514-.834375.432563-.834375.814063 0 .534.020313 2.290188.020313 4.467188 0 1.52-.52125 2.514188-1.10625 3.017188 3.629.403 7.4375 1.781063 7.4375 8.039063 0 1.778-.631 3.231313-1.675 4.370313.168.412.728063 2.067938-.160938 4.310938 0 0-1.365.437687-4.475-1.670313-1.301.362-2.695125.542438-4.078125.548438-1.385-.006-2.779125-.186438-4.078125-.548438-2.334 1.581-3.687773 1.730537-4.21875 1.70625z" fill="#231f20" stroke-opacity=".541176" stroke-width="1.6"/></g></svg>