<svg enable-background="new 0 0 192 192" height="192" version="1.1" viewBox="0 0 192 192" width="192" x="0" xml:space="preserve" xmlns="http://www.w3.org/2000/svg" xmlns:xlink="http://www.w3.org/1999/xlink" y="0"><defs><clipPath id="a"><use height="100%" overflow="visible" width="100%" x="0" xlink:href="#b" y="0"/></clipPath><path id="b" d="M172.06 84C172.06 42.03 137.97 8 96 8 54.03 8 20 42.03 20 84 20 123.76 56.24 156 96 156l0 0 0 28C142.18 160.58 172.06 122.89 172.06 84Z"/></defs><path clip-path="url(#a)" d="M172.06 84C172.06 42.03 137.97 8 96 8 54.03 8 20 42.03 20 84 20 123.76 56.24 156 96 156l0 0 0 28C142.18 160.58 172.06 122.89 172.06 84Z" fill="#212121"/></svg>