<svg xmlns="http://www.w3.org/2000/svg" viewBox="0 0 248.41 157.15"><g transform="translate(-72.796-75.42)" fill="#73ba25"><path d="m290.12 115.08c-5.461-.201-9.747-4.804-9.565-10.272.084-2.648 1.216-5.095 3.139-6.901 1.931-1.806 4.453-2.746 7.101-2.647 5.468.191 9.756 4.787 9.572 10.264-.083 2.639-1.199 5.086-3.13 6.901-1.94 1.798-4.462 2.739-7.118 2.656m2.298-8.983c2.43 0 4.403-1.315 4.403-2.93 0-1.623-1.972-2.939-4.403-2.939-2.432 0-4.396 1.315-4.396 2.939 0 1.615 1.965 2.93 4.396 2.93"/><path d="m177.78 172.03l.351-.033.057-.416c-.09-.327-.302-.62-.629-4.671-.278-3.585-.841-13.416 4.107-18.291 1.92-1.903 4.85-3.593 7.162-4.14 9.48-2.311 21.786-.711 32.29 11.44 5.423 6.279 8.08 9.145 9.415 10.427l.457.424.556.4c.433.245 18.06 8.362 18.06 8.362l.359-.09.009-.383c-.114-.131-11.17-14.413-9.211-26.18 1.552-9.374 9.01-8.533 19.328-7.357 3.372.384 7.21.825 11.179.915 11.08.065 23.02-1.968 30.376-5.185 4.76-2.082 7.798-3.454 9.701-5.185.685-.563 1.044-1.494 1.412-2.474l.254-.661c.31-.792.759-2.491.955-3.413.09-.408.131-.849-.156-1.07l-1.02.188c-3.225 1.935-11.302 5.626-18.862 5.773-9.366.195-28.24-9.424-30.21-10.444l-.188-.22c-.474-1.127-3.308-7.831-3.904-9.243 13.588 8.949 24.856 13.898 33.487 14.665 9.603.857 17.09-4.385 20.292-6.623.628-.424 1.102-.768 1.298-.841l.204-.335c-.532-3.372-5.553-19.704-9.342-23.623-1.053-1.078-1.894-2.123-3.593-3.119-13.726-8-46.32-12.837-47.842-13.06l-.261.074-.098.228c0 0-.123 6.761-.14 7.513-3.332-1.111-27.525-8.926-50.21-9.717-19.229-.678-45.498-1.592-82.62 21.22l-1.094.686c-17.458 10.893-29.51 24.317-35.814 39.93-1.976 4.907-4.638 15.989-2.01 26.416 1.143 4.565 3.258 9.137 6.117 13.237 6.443 9.259 17.262 15.409 28.914 16.445 16.445 1.469 28.906-5.92 33.34-19.753 3.046-9.545 0-23.549-11.677-30.694-9.497-5.822-19.72-4.491-25.64-.58-5.144 3.413-8.06 8.704-8 14.527.114 10.313 9.01 15.8 15.392 15.809 1.861 0 3.723-.318 5.83-1 .744-.229 1.453-.506 2.229-.988l.237-.155.155-.09-.057.025c1.462-.98 2.343-2.596 2.343-4.328 0-.474-.074-.955-.204-1.437-.751-2.605-3.332-4.189-6.01-3.699l-.359.074-.49.163-.711.237c-1.47.367-2.581.392-2.809.4-.751-.049-4.434-1.151-4.434-5.185v-.049c.009-1.478.605-2.515.931-3.079 1.135-1.797 4.271-3.56 8.508-3.185 5.553.473 9.554 3.323 12.208 8.697 2.466 4.997 1.821 11.138-1.658 15.645-3.454 4.467-9.602 6.361-17.785 5.471-8.247-.906-15.22-5.65-19.12-13.04-3.821-7.219-4.03-15.784-.547-22.365 8.353-15.76 24.12-15.597 32.768-14.1 12.804 2.213 24.423 12.46 29.592 26.09.825 2.172 1.249 3.895 1.616 5.463l.556 2.36 14.461 7.06.197.139m102.79-76.92c-2.726 2.531-4.287 5.985-4.418 9.709-.252 7.675 5.774 14.14 13.449 14.429 3.74.122 7.284-1.193 10-3.74 2.719-2.539 4.279-5.985 4.418-9.701.261-7.684-5.765-14.159-13.456-14.436-3.724-.122-7.276 1.192-9.995 3.74" fill-rule="evenodd"/><path d="m320.78 191.07h-.162c-.187 0-.349-.162-.349-.349v-2.501l-.548.834c-.062.087-.174.124-.274.124h-.062c-.099 0-.212-.037-.274-.124l-.56-.834v2.501c0 .187-.162.349-.361.349h-.162c-.187 0-.349-.162-.349-.349v-2.987h-1.68v2.987c0 .187-.174.349-.373.349h-.149c-.187 0-.349-.162-.349-.349v-2.987h-1.257c-.187 0-.336-.125-.336-.323v-.174c0-.199.149-.324.336-.324h4.406c.174 0 .286.062.349.162l.834 1.257.834-1.257c.062-.087.162-.162.349-.162h.56v3.833c0 .187-.174.349-.373.349"/><path d="m176.73 185.83c-6.02 0-9.359 5.102-9.359 8.637v4.53c0 5.19 4.244 8.413 8.189 8.413h13.814c1.73 0 2.091 1.132 2.091 2.091v2.925c0 .311-.05 3.124-2.091 3.124h-18.854c-1.867 0-3.223 1.294-3.223 3.074v.809c0 1.767 1.344 3.074 3.223 3.074h19.888c5.19 0 8.55-3.609 8.55-9.21v-4.891c0-5.252-3.783-7.604-7.529-7.604h-13.59c-2.054 0-2.974-1.518-2.974-2.613v-2.688c0-1.705 1.132-2.676 3.124-2.676h15.06c1.842 0 3.223-1.319 3.223-3.074v-.809c0-1.742-1.406-3.074-3.285-3.074h-16.229"/><path d="m233.27 185.83c-1.78 0-3.223 1.444-3.223 3.223v23.15c0 1.842-1.506 3.335-3.335 3.335h-10.504c-1.842 0-3.335-1.494-3.335-3.335v-23.15c0-1.78-1.431-3.223-3.223-3.223h-1.02c-1.792 0-3.223 1.419-3.223 3.223v24.03c0 5.588 4.393 9.645 10.454 9.645h11.226c6.06 0 10.454-4.057 10.454-9.645v-24.03c0-1.805-1.419-3.223-3.223-3.223h-1.02"/><path d="m253.39 185.83c-6.02 0-9.359 5.102-9.359 8.637v4.53c0 5.19 4.256 8.413 8.189 8.413h13.814c1.73 0 2.103 1.132 2.103 2.091v2.925c0 .311-.062 3.124-2.103 3.124h-18.854c-1.867 0-3.223 1.294-3.223 3.074v.809c0 1.767 1.356 3.074 3.223 3.074h19.875c5.202 0 8.55-3.609 8.55-9.21v-4.891c0-5.252-3.771-7.604-7.529-7.604h-13.59c-2.053 0-2.974-1.518-2.974-2.613v-2.688c0-1.705 1.132-2.676 3.111-2.676h15.06c1.829 0 3.223-1.319 3.223-3.074v-.809c0-1.742-1.406-3.074-3.298-3.074h-16.216"/><path d="m285.16 185.83c-1.779 0-3.148 1.319-3.148 3.074v30.528c0 1.742 1.319 3.074 3.086 3.074h24.33c1.867 0 3.224-1.294 3.224-3.074v-.809c0-1.767-1.344-3.074-3.224-3.074 0 0-19.03 0-19.925 0 0-.797 0-6.982 0-7.778.896 0 14.599 0 14.599 0 1.867 0 3.223-1.294 3.223-3.087v-.796c0-1.78-1.357-3.086-3.223-3.086 0 0-13.702 0-14.599 0 0-.796 0-7.193 0-7.99.896 0 18.917 0 18.917 0 1.867 0 3.224-1.294 3.224-3.074v-.809c0-1.78-1.357-3.074-3.224-3.074h-23.25"/><path d="m78.31 200.36c-3.037 0-5.513 2.365-5.513 5.289v11.512c0 2.962 2.389 5.376 5.327 5.376h7.442c2.937 0 5.339-2.414 5.339-5.376v-11.512c0-2.912-2.477-5.289-5.513-5.289h-7.081m-1.605 16.353v-10.504c0-1.232 1.01-2.24 2.24-2.24h5.799c1.207 0 2.24 1.021 2.24 2.24v10.504c0 1.232-1.01 2.24-2.24 2.24h-5.849c-1.232 0-2.19-.983-2.19-2.24"/><path d="m107.78 200.22c-2.153 0-3.759.772-5.065 1.394-.784.373-1.469.697-2 .697-.224 0-.436-.099-.548-.274l-.485-.946c-.112-.249-.61-.734-1.232-.734h-.722c-.697 0-1.269.623-1.269 1.406v29.18c0 .908.709 1.63 1.63 1.63h.635c.896 0 1.63-.734 1.63-1.63v-9.683c0-.286.187-.585.361-.585.535 0 1.22.299 2.02.672 1.294.585 2.912 1.331 5.065 1.331h.672c3.796 0 6.16-2.165 6.16-5.65v-11.139c0-3.435-2.414-5.662-6.16-5.662h-.684v-.012m-7.442 16.266v-10.04c0-1.381 1.083-2.464 2.464-2.464h5.426c1.381 0 2.464 1.083 2.464 2.464v10.04c0 1.357-1.095 2.464-2.464 2.464h-5.426c-1.357 0-2.464-1.108-2.464-2.464"/><path d="m125.65 200.36c-3.037 0-5.513 2.365-5.513 5.289v11.425c0 2.962 2.402 5.476 5.239 5.476h7.679c.946 0 1.63-.647 1.63-1.543v-.498c0-.896-.685-1.543-1.63-1.543h-6.297c-1.767 0-2.701-.859-2.701-2.514 0 0 0-2.875 0-3.335.51 0 11.375 0 11.375 0 1.817 0 2.912-1.12 2.912-3.01v-4.43c0-2.912-2.476-5.289-5.513-5.289h-7.168l-.013-.025m-1.605 5.799c0-1.22.958-2.19 2.19-2.19h5.986c1.232 0 2.19.958 2.19 2.19 0 0 0 3.099 0 3.559-.485 0-9.881 0-10.367 0 0-.46 0-3.559 0-3.559"/><path d="m154.18 200.22c-2.141 0-3.759.759-5.05 1.381-.809.373-1.506.709-2.066.709-.249 0-.349-.025-.535-.361l-.448-.821c-.249-.51-.684-.772-1.282-.772h-.635c-.759 0-1.307.585-1.307 1.406v19.14c0 .909.722 1.643 1.63 1.643h.635c.896 0 1.63-.734 1.63-1.643v-14.486c0-1.357 1.108-2.464 2.464-2.464h5.426c1.357 0 2.464 1.108 2.464 2.464v14.486c0 .909.722 1.643 1.631 1.643h.635c.896 0 1.63-.734 1.63-1.643v-15.02c0-3.435-2.414-5.662-6.16-5.662h-.684"/></g></svg>