<svg height="2072" version="1.1" width="2072" xmlns="http://www.w3.org/2000/svg" xmlns:xlink="http://www.w3.org/1999/xlink"><defs><linearGradient id="a"><stop offset="0" stop-color="#32691d"/><stop offset=".020122" stop-color="#01d200" stop-opacity="0"/><stop offset="1" stop-color="#fff" stop-opacity="0"/></linearGradient><linearGradient id="b"><stop offset="0" stop-color="#ebebec"/><stop offset=".005183" stop-color="#d3d3d3" stop-opacity="0"/><stop offset="1" stop-color="#fff" stop-opacity="0"/></linearGradient><linearGradient id="c"><stop offset="0" stop-color="#cbf595"/><stop offset=".018269" stop-color="#01da00" stop-opacity="0"/><stop offset="1" stop-color="#fff" stop-opacity="0"/></linearGradient><linearGradient id="d"><stop offset="0" stop-color="#321e1d"/><stop offset=".015467" stop-color="#555548" stop-opacity="0"/><stop offset="1" stop-color="#fff" stop-opacity="0"/></linearGradient><linearGradient id="e"><stop offset="0" stop-color="#321e1d"/><stop offset=".020122" stop-color="#5a5bd7" stop-opacity="0"/><stop offset="1" stop-color="#fff" stop-opacity="0"/></linearGradient><linearGradient id="f"><stop offset="0" stop-color="#f6b1b2"/><stop offset=".028216" stop-color="#c51f1f" stop-opacity="0"/><stop offset="1" stop-color="#fff" stop-opacity="0"/></linearGradient><linearGradient id="g"><stop offset="0" stop-color="#321e1d"/><stop offset=".020122" stop-color="#555548" stop-opacity="0"/><stop offset="1" stop-color="#fff" stop-opacity="0"/></linearGradient><linearGradient id="h"><stop offset="0" stop-color="#cbcaf2"/><stop offset=".026368" stop-color="#5555d2" stop-opacity="0"/><stop offset="1" stop-color="#fff" stop-opacity="0"/></linearGradient><linearGradient id="i"><stop offset="0" stop-color="#848484"/><stop offset="1" stop-color="#d2d2d2"/></linearGradient><linearGradient id="j"><stop offset="0" stop-color="#01a300"/><stop offset="1" stop-color="#01df00"/></linearGradient><linearGradient id="k"><stop offset="0" stop-color="#b40e0e"/><stop offset="1" stop-color="#ff5959"/></linearGradient><linearGradient id="l"><stop offset="0" stop-color="#1011a1"/><stop offset="1" stop-color="#6969e1"/></linearGradient><linearGradient id="m" gradientTransform="translate(2104 48)" gradientUnits="userSpaceOnUse" x1="-1527.3507" x2="-1086.1161" xlink:href="#l" y1="1387.5206" y2="454.13968"/><linearGradient id="n" gradientTransform="translate(2104 48)" gradientUnits="userSpaceOnUse" x1="-933.38092" x2="-316.78384" xlink:href="#k" y1="680.41388" y2="1721.275"/><linearGradient id="o" gradientTransform="translate(2104 48)" gradientUnits="userSpaceOnUse" x1="-678.82251" x2="-1549.978" xlink:href="#j" y1="1794.8141" y2="1721.275"/><linearGradient id="p" gradientTransform="translate(2104 48)" gradientUnits="userSpaceOnUse" x1="-984.2926" x2="-995.60632" xlink:href="#i" y1="1472.3735" y2="1093.3643"/><filter id="q"><feGaussianBlur stdDeviation="9.076659"/></filter><linearGradient id="r" gradientTransform="matrix(1.9188939 .98349385 -.45611308 .88992183 3476.0418 1285.266)" gradientUnits="userSpaceOnUse" x1="-1238.0465" x2="-555.82379" xlink:href="#h" y1="919.71448" y2="917.51282"/><linearGradient id="s" gradientTransform="matrix(-1.9407023 .93972781 -.43581582 -.90003588 -412.21511 3168.6506)" gradientUnits="userSpaceOnUse" x1="-1238.0465" x2="-552.84039" xlink:href="#g" y1="919.71448" y2="913.40582"/><linearGradient id="t" gradientTransform="matrix(.02700295 -2.1560608 .90368745 .01314507 114.37039 -755.42907)" gradientUnits="userSpaceOnUse" x1="-1238.0465" x2="-555.83728" xlink:href="#g" y1="919.71448" y2="915.30005"/><linearGradient id="u" gradientTransform="matrix(3.1362513 .00261809 .06431073 .7601511 4936.1356 68.133286)" gradientUnits="userSpaceOnUse" x1="-1238.0465" x2="-554.89746" xlink:href="#f" y1="919.71448" y2="917.6181"/><linearGradient id="v" gradientTransform="matrix(-2.1510215 -.07025797 -.03821188 -.48210687 -1498.469 1058.0104)" gradientUnits="userSpaceOnUse" x1="-1229.327" x2="-555.82379" xlink:href="#e" y1="918.44379" y2="917.51282"/><linearGradient id="w" gradientTransform="matrix(-1.3798164 -1.6569612 .7684458 -.63991489 -2195.6367 413.8935)" gradientUnits="userSpaceOnUse" x1="-1237.1112" x2="-555.82379" xlink:href="#d" y1="920.41797" y2="917.51282"/><linearGradient id="x"><stop offset="0" stop-color="#321e1d"/><stop offset=".017393" stop-color="#555548" stop-opacity="0"/><stop offset="1" stop-color="#fff" stop-opacity="0"/></linearGradient><linearGradient id="y" gradientTransform="matrix(.85312044 -1.9803029 .91840135 .39565006 2182.2918 -885.93458)" gradientUnits="userSpaceOnUse" x1="-1242.2334" x2="-551.12549" xlink:href="#x" y1="915.73645" y2="910.64618"/><linearGradient id="z" gradientTransform="matrix(1.3829904 1.654313 -.7672176 .6413869 2529.8389 3432.8719)" gradientUnits="userSpaceOnUse" x1="-1238.0465" x2="-555.86682" xlink:href="#c" y1="919.71448" y2="915.4801"/><linearGradient id="A" gradientTransform="matrix(1.3829904 1.654313 -.7672176 .6413869 2930.535 3096.9376)" gradientUnits="userSpaceOnUse" x1="-1242.5582" x2="-866.86804" xlink:href="#b" y1="918.09875" y2="917.18665"/><linearGradient id="B" gradientTransform="matrix(-.83179183 1.989334 -.83312221 -.35033011 1447.5752 4603.6836)" gradientUnits="userSpaceOnUse" x1="-1238.0465" x2="-555.82379" xlink:href="#a" y1="919.71448" y2="917.51282"/></defs><g><path d="m1971.5575 1939.9137l-1797.08691-.1258c-11.0291-1.2221-8.5403-6.713-5.9958-12.2215L1069.3546 128.0808c3.3139-5.2772 6.2883-4.4372 9.0861-.4108l900.8561 1799.4363c4.5781 9.1667 1.5811 13.1503-7.7393 12.8074z" fill="none" filter="url(#q)" opacity=".539749" stroke="#3a393b" stroke-width="22.5"/><path d="M1143.3083 1084.3217L158.69119 1926.0618 1060.5107 124.10214 1143.3083 1084.3217z" fill="url(#m)" stroke="#000"/><path d="m1060.5637 125.61959c13.4152 80.71591 11.94 94.79031-18.0349 140.07316L245.92029 1844.832 161.31739 1921.7588 1060.5637 125.61959z" fill="url(#r)"/><path d="m1147.188 1083.1536l-50.1671 40.0537-52.7887-888.7261c-4.0533-47.4341-6.2416-43.17076-6.5492-68.17004l25.1004-48.95208 84.4046 965.79452z" fill="url(#v)"/><path d="M1188.9362 1609.9939L1060.9788 123.94021 1963.9529 1926.2261 1188.9362 1609.9939z" fill="url(#n)" stroke="#000"/><path d="m1060.9071 120.07731c24.1749 30.04558 39.608 75.93991 48.9654 112.17843l179.3742 1415.10436-98.4276-38.4391-129.912-1488.84369z" fill="url(#u)"/><path d="M743.40929 1423.8349L1964.8794 1926.0085 158.92799 1925.81 743.40929 1423.8349z" fill="url(#o)" stroke="#000"/><path d="m1963.6891 1926.5277l-56.7139-24.6169-795.9854-1603.05217c-21.9472-24.37845-34.3449-39.62306-41.2192-51.95192-1.1264-32.3188-2.943-61.0813-9.9138-126.2626l903.8323 1805.88359z" fill="url(#s)"/><path d="m745.26609 1425.0475l397.42281-339.0381 55.3298 523.5716-452.75261-184.5335z" fill="url(#p)" stroke="#000" stroke-width="4"/><path d="m742.72829 1426.2554c17.4821 6.7504 20.8419 8.2827 35.806 14.4205-16.1593 13.8305-69.88 86.4885-91.4281 103.8499l-428.4072 362.6992-98.8195 18.3883 582.8488-499.3579z" fill="url(#z)"/><path d="m1962.8676 1925.4594l-68.0643-1.0486-1174.86681-479.6332 23.5048-18.7167 470.76241 191.9416 748.6639 307.4569z" fill="url(#B)"/><path d="m159.98259 1925.4405l50.2958-42.8864 1643.00831.1531 110.3276 42.727-1803.63171.01z" fill="url(#t)"/><path d="m1199.8469 1610.9874l-2.1608-22.3386 610.5884 235.1678c39.4555 18.7661 69.1058 27.2993 88.8249 43.327 12.6947 5.2081 34.7241 12.6345 46.1135 16.4736 13.9264 9.2219 11.5065 23.9583 20.3177 41.5431l-763.6837-314.1729z" fill="url(#y)"/><path d="m1958.5868 1931.807l-1797.08691-.1258c-11.0291-1.2221-8.5403-6.713-5.9958-12.2215L1056.3839 119.97408c3.3139-5.27718 6.2883-4.43721 9.0861-.4108l900.8561 1799.43632c4.5781 9.1667 1.5811 13.1503-7.7393 12.8074z" fill="none" stroke="#000" stroke-width="12.2"/><path d="m160.09059 1924.1505l25.5248-54.5322 52.0681-38.5691 899.32641-780.8749c4.7998 18.518 1.8803 6.9336 6.1315 33.989l-983.05081 839.9872z" fill="url(#w)"/><path d="m1141.0494 1090.571c-7.8922 86.6075-17.7158 81.5443-53.2471 118.0205l-263.40721 244.6992-74.9445-29.2367 391.59881-333.483z" fill="url(#A)"/></g></svg>