<svg viewBox="0 0 47.999998 48" xmlns="http://www.w3.org/2000/svg"><g fill-rule="evenodd" transform="matrix(.13619 0 0 .13619 3.999 6.071)"><path d="m136.69 263.3c-54.615 0-102.01-41.4-102.01-95.97l-.049-56.42v-16.895h-34.626v-94.02l146.02.688 45.676.098c54.664 0 102.01 41.35 102.01 95.97v166.55h-157.02" fill="#4c7523"/><path d="m273.55 220.05c0-36.21 0-121.62 0-121.62 0-40.632-35.633-73.57-79.6-73.57h-45.631v-.098l-123.42-.539v44.38c0 0 10.08 0 18.945 0 13.224 0 15.56 9.129 15.56 21.764l.098 78.45c0 40.632 35.633 73.57 79.55 73.57h108.43c13.901 0 26.06-8.803 26.06-22.332" fill="#87cf3e"/><path d="m164.45 71.05c-9.895 0-18.687 3.674-25.751 10.81-7.06 7.132-10.768 16.04-10.768 26.08v50.792h23.04v-50.792c0-3.851 1.257-6.863 4.01-9.641 2.759-2.787 5.68-4.048 9.474-4.048 3.873 0 6.751 1.255 9.516 4.048 2.75 2.778 4.01 5.789 4.01 9.641v50.792h23.04v-50.792c0-3.851 1.257-6.863 4.01-9.641 2.765-2.793 5.643-4.048 9.516-4.048 3.794 0 6.715 1.262 9.474 4.048 2.75 2.778 4.01 5.789 4.01 9.641l.125 59.35c0 12.66-12.06 23.33-27.545 23.33l-74.29-.292c-11.953 0-22.16-11.634-22.16-26.585v-111.76h-21.786v116.06c0 12.314 4.506 23.11 13.272 31.844 7.492 7.395 16.503 12.189 26.627 13.272h82.72c12.711 0 23.878-4.726 32.887-13.898h.042c7.662-7.872 12.142-17.305 13.23-27.921l-.083-63.4c0-10.05-3.707-18.952-10.768-26.08-7.06-7.136-15.856-10.81-25.751-10.81-9.713 0-18.211 3.612-25.08 10.225-6.852-6.603-15.291-10.225-25-10.225" fill="#fff"/><path d="m138.34 259.22c-52.37 0-97.81-39.699-97.81-92.02l-.047-63.53v-16.2h-33.2v-80.72l140.01.659 43.796.094c52.41 0 97.81 39.652 97.81 92.02v159.69h-150.56m129.22-42.837c0-34.788 0-116.85 0-116.85 0-39.04-34.24-70.69-76.48-70.69h-43.843v-.094l-118.58-.518v37.91c0 0 4.763 0 13.283 0 9.02 0 19.87 8.475 19.87 20.911l.094 80.1c0 39.04 34.24 70.69 76.43 70.69h104.18c13.356 0 25.04-8.458 25.04-21.457" fill="#c7f994"/></g></svg>