<svg xmlns="http://www.w3.org/2000/svg" fill="#435813" viewBox="0 0 48 48"><path d="m8 8c-2.21 0-3.98 1.79-3.98 4l-.02 24c0 2.21 1.79 4 4 4h32c2.21 0 4-1.79 4-4v-20c0-2.21-1.79-4-4-4h-16l-4-4h-12m18.09 9c.106 0 .212.04.293.121l1.238 1.238c.671-.333 1.421-.525 2.221-.525.796 0 1.542.192 2.209.521l1.232-1.229c.162-.162.425-.162.588 0 .162.162.162.423 0 .586l-1.088 1.088c1.246.908 2.059 2.375 2.059 4.03h-10c0-1.654.809-3.121 2.047-4.03l-1.092-1.092c-.162-.162-.162-.425 0-.588.081-.081.187-.121.293-.121m1.252 3.334v.834h.834v-.834h-.834m4.166 0v.834h.834v-.834h-.834m-8.748 3.334c.692 0 1.248.558 1.248 1.25v5.832c0 .692-.556 1.25-1.248 1.25-.692 0-1.25-.558-1.25-1.25v-5.832c0-.692.558-1.25 1.25-1.25m2.082 0h10v8.332c0 .458-.376.834-.834.834h-.832v2.916c0 .692-.558 1.25-1.25 1.25-.692 0-1.25-.558-1.25-1.25v-2.916h-1.668v2.916c0 .692-.558 1.25-1.25 1.25-.692 0-1.25-.558-1.25-1.25v-2.916h-.832c-.458 0-.834-.376-.834-.834v-8.332m12.08 0c.692 0 1.25.558 1.25 1.25v5.832c0 .692-.558 1.25-1.25 1.25-.692 0-1.248-.558-1.248-1.25v-5.832c0-.692.556-1.25 1.248-1.25"/></svg>