<?xml version="1.0" encoding="UTF-8"?>
<svg xmlns="http://www.w3.org/2000/svg" xmlns:xlink="http://www.w3.org/1999/xlink" width="333pt" height="333pt" viewBox="0 0 333 333" version="1.1">
<g id="surface1">
<path style=" stroke:none;fill-rule:nonzero;fill:#171b24;fill-opacity:1;" d="M 20.246094 11.914062 L 316.082031 11.914062 C 320.671875 11.914062 324.414062 15.625 324.414062 20.246094 L 324.414062 316.082031 C 324.414062 320.671875 320.671875 324.414062 316.082031 324.414062 L 20.246094 324.414062 C 15.625 324.414062 11.914062 320.671875 11.914062 316.082031 L 11.914062 20.246094 C 11.914062 15.625 15.625 11.914062 20.246094 11.914062 Z M 20.246094 11.914062 "/>
<path style=" stroke:none;fill-rule:nonzero;fill:#101319;fill-opacity:1;" d="M 41.667969 0 C 18.585938 0 0 18.585938 0 41.667969 L 0 291.667969 C 0 314.746094 18.585938 333.332031 41.667969 333.332031 L 291.667969 333.332031 C 314.746094 333.332031 333.332031 314.746094 333.332031 291.667969 L 333.332031 41.667969 C 333.332031 18.585938 314.746094 0 291.667969 0 Z M 41.667969 17.121094 L 291.667969 17.121094 C 303.222656 17.121094 316.960938 30.109375 316.960938 41.667969 L 316.960938 291.667969 C 316.960938 303.222656 303.222656 316.960938 291.667969 316.960938 L 41.667969 316.960938 C 30.109375 316.960938 17.121094 303.222656 17.121094 291.667969 L 17.121094 41.667969 C 17.121094 30.109375 30.109375 17.121094 41.667969 17.121094 Z M 41.667969 17.121094 "/>
<path style=" stroke:none;fill-rule:nonzero;fill:#f4f3ee;fill-opacity:0.30;" d="M 41.667969 0 C 18.585938 0 0 18.585938 0 41.667969 L 0 291.667969 C 0 314.746094 18.585938 333.332031 41.667969 333.332031 L 291.667969 333.332031 C 314.746094 333.332031 333.332031 314.746094 333.332031 291.667969 L 333.332031 41.667969 C 333.332031 18.585938 314.746094 0 291.667969 0 Z M 41.667969 17.121094 L 291.667969 17.121094 C 303.222656 17.121094 316.960938 30.109375 316.960938 41.667969 L 316.960938 291.667969 C 316.960938 303.222656 303.222656 316.960938 291.667969 316.960938 L 41.667969 316.960938 C 30.109375 316.960938 17.121094 303.222656 17.121094 291.667969 L 17.121094 41.667969 C 17.121094 30.109375 30.109375 17.121094 41.667969 17.121094 Z M 41.667969 17.121094 "/>
<path style=" stroke:none;fill-rule:nonzero;fill:#956dca;fill-opacity:1;" d="M 242.773438 81.640625 C 235.15625 81.835938 227.636719 85.027344 222.234375 90.527344 L 138.3125 170.441406 L 109.503906 138.183594 C 99.25 124.511719 76.789062 123.046875 64.910156 135.253906 C 53.027344 147.492188 54.6875 170.378906 68.164062 180.695312 L 117.839844 234.015625 C 137.335938 253.546875 146.160156 250.945312 165.851562 231.21875 C 165.851562 231.21875 233.5625 149.773438 273.273438 122.234375 C 282.03125 113.898438 285.710938 111.589844 281.121094 100.324219 C 276.5625 89.03125 254.753906 81.21875 242.773438 81.640625 Z M 242.773438 81.640625 "/>
</g>
</svg>
