<svg height="1557.94" viewBox="0 0 1364.077531 1557.944266" width="1364.08" xmlns="http://www.w3.org/2000/svg"><g transform="translate(3342.3 370.32)"><path d="m-2677.8 1184.84c-5.587-1.906-21.723-10.678-53.5-29.09-25.03-14.497-67.1-38.825-93.5-54.06-26.4-15.237-70.05-40.44-97-56.01-26.95-15.566-64.975-37.523-84.5-48.793-38.06-21.972-101.94-58.845-180-103.91-26.675-15.4-66.28-38.25-88-50.788-21.725-12.533-41.35-24.06-43.62-25.608-9.959-6.817-19.279-21.15-21.555-33.15-.689-3.632-1.606-6.385-2.039-6.118-.432.267-.786-165.17-.786-367.63 0-209.68.376-367.89.874-367.58.481.297 1.176-1.736 1.545-4.517 1.436-10.823 8.449-23.14 17.946-31.509 3.456-3.047 34.23-21.4 85.76-51.15 44.21-25.518 102.42-59.12 129.37-74.68 26.95-15.557 70.825-40.885 97.5-56.29 26.675-15.4 64.47-37.22 84-48.49 19.525-11.271 55.975-32.32 81-46.771 116.03-67.01 155.8-89.89 159.5-91.75 5.86-2.949 14.645-5.266 19.963-5.266 2.849 0 4.415-.388 4.04-1-.369-.596.843-1 3-1 1.99 0 3.392.366 3.115.814-.277.448 2.734 1.36 6.691 2.028 3.957.667 10.119 2.669 13.694 4.449 3.575 1.78 31.7 17.815 62.5 35.634 30.8 17.819 76.03 43.957 100.5 58.08 24.475 14.13 82.53 47.642 129 74.48 46.48 26.837 106.33 61.39 133 76.79 26.675 15.399 70.32 40.6 97 56 26.675 15.402 62.22 35.895 79 45.541 28.322 16.286 31.08 18.12 38.611 25.674 8.747 8.773 13.241 16.508 15.284 26.302 1.59 7.627 1.57 740.91-.021 748.4-1.987 9.351-7.415 18.582-15.759 26.799-6.919 6.814-10.909 9.39-43.615 28.16-19.8 11.365-57.37 33-83.5 48.09-26.12 15.08-65.05 37.556-86.5 49.939-21.45 12.383-61.05 35.25-88 50.816-26.95 15.565-70.71 40.833-97.25 56.15-60.53 34.941-131.43 75.868-190.06 109.71-24.921 14.386-47.587 27.31-50.37 28.719-11.867 6.01-30.06 7.092-43.32 2.567" fill="#2e2e2c"/><path d="m-2555.8 560.58c55.822-7.05 100.61-48.711 109.95-102.29 1.987-11.393 2.031-35.584.085-46.743-4.315-24.744-16.183-47.568-34.01-65.4-25.19-25.2-58.86-38.623-97.03-38.674-34.78-.047-63.11 9.532-88.46 29.907-20.2 16.236-34.567 38.678-41.681 65.11-3.502 13.01-4.463 40.535-1.925 55.15 9.983 57.49 58.01 99.27 119.57 104.02 10.49.809 21.327.46 33.5-1.076" fill="#f7dc3f"/><path d="m-2586.49 507.59c-26.06-3.46-48.38-22.14-56.31-47.12-5.491-17.313-5.452-35.11.116-51.77 12.37-37.02 52.06-56.43 88.67-43.37 21.929 7.823 37.436 25.17 43.865 49.06 2.955 10.983 2.942 29.618-.028 40.796-8.213 30.906-31.55 50.43-63.13 52.808-3.575.269-9.511.09-13.191-.398" fill="#2e2e2c"/><g fill="#f7dc3f"><path d="m-2738.8 532.18v-23l-17-.5-17-.5-.5-97-.5-97h-49-49v23 23l18 .5 18 .5v73.5 73.5l-17 .5-17 .5-.27 21.976c-.149 12.09-.049 22.553.221 23.257.394 1.027 13.443 1.23 65.77 1.024l65.28-.257v-23"/><path d="m-2774.53 273.85c.982-.623 1.207-6.856 1-27.735l-.267-26.931-30.432-.265c-23.68-.206-30.61.016-31.23 1-.442.696-.81 12.595-.818 26.444-.013 21.57.21 25.404 1.556 26.75 1.356 1.356 5.498 1.569 30.25 1.556 15.773-.008 29.25-.377 29.945-.819"/></g></g></svg>