<svg xmlns="http://www.w3.org/2000/svg" viewBox="0 0 35.18 18.38"><g transform="translate(-6.411-14.811)" fill-rule="evenodd" stroke="#bdbdbd"><path d="m6.552 14.937c.109-.018 2.831 1.418 4.66 1.915 3.262.834 6.24 3.343 7.68 4.784.107.123 1.236-.846 2.418-.776 1.615.098 6.611 1.503 7.278.546.405-.562.376-1.251.881-1.533.272-.076-1.01-2.422.352-3.173.972-.486 1.795 2.234 2.045 2.538.112.136.705.17.635-.141-.076-.337-1.035-2.947.141-3.385 1.911-.757 1.572 3.339 1.622 3.455.106.248 6.654.439 7.05 3.385.23 1.621-5.246 3.716-5.782 4.09-.535.373-.491.97-.282 1.34.24.401 1.835 1.753 1.622 2.397-.147.372-3.124-.992-3.314-.705-.434.548 2.168 1.918 1.269 2.891-.356.233-4.453-1.715-4.443-1.692-.11.042-5.789 1.037-10.154-.282-.154-.043-2.802 2.558-3.103 2.468-.412-.151.607-2.262.494-2.68-.185-.233-1.877.944-1.974.353-.116-.777 1.485-1.671 1.41-2.186-.413-2.927.184-4.636 1.199-6.06.338-.526-3.975-3.783-7.098-5.069-3.123-1.286-4.793-2.375-4.608-2.477" fill="#bdbdbd" stroke-width=".254"/><g stroke-width=".152"><g fill="#fff"><path d="m34.614 24.723c-.034-.12 2.131-1.429 2.444-1.128.564.205-2.425 1.28-2.444 1.128z"/><path d="m35.648 25.914c-.191-.115 1.296-1.849 1.661-1.661.533.529-1.686 1.702-1.661 1.661z"/></g><path d="m41.509 17.89c-.181-.15-1.598 2.087-1.285 2.319.188.141 1.366-2.24 1.285-2.319z" fill="#bdbdbd"/></g><ellipse ry=".644" rx=".565" cy="21.09" cx="35.1" fill="#fff" stroke-width=".141"/><g stroke-width=".152"><path d="m39.879 17.577c-.089-.104-.564 2.307-.345 2.413.188.141.517-2.288.345-2.413z" fill="#bdbdbd"/><path d="m33.828 20.839c-.562.397.309 2.647 1.741 1.333-1.125.033-1.501-.296-1.741-1.333z" fill="#fff"/></g></g></svg>