<svg xmlns="http://www.w3.org/2000/svg" viewBox="0 0 232.98 62.7"><defs><clipPath id="0"><path d="m0 501.6v-501.6h1863.85v501.6h-1863.85"/></clipPath></defs><g transform="matrix(1.25 0 0-1.25 0 62.7)"><g clip-path="url(#0)" transform="scale(.1)"><g fill-rule="evenodd"><g fill="#404137"><path d="m279.48 235.03c0 5.418-2.847 10.399-7.527 13.09l-124.69 71.76c-2.11 1.238-4.473 1.883-6.868 1.98-.21 0-1.113 0-1.289 0-2.379-.097-4.746-.742-6.882-1.98l-124.69-71.76c-4.648-2.687-7.539-7.668-7.539-13.09l.273-193.22c0-2.688 1.395-5.188 3.758-6.504 2.316-1.387 5.176-1.387 7.484 0l74.1 42.43c4.688 2.785 7.543 7.695 7.543 13.07v90.27c0 5.383 2.852 10.363 7.52 13.04l31.551 18.17c2.351 1.359 4.921 2.023 7.546 2.023 2.571 0 5.207-.664 7.493-2.023l31.543-18.17c4.668-2.676 7.531-7.656 7.531-13.04v-90.27c0-5.371 2.89-10.313 7.547-13.07l74.08-42.43c2.324-1.387 5.222-1.387 7.527 0 2.297 1.316 3.742 3.816 3.742 6.504l.242 193.22"/><path d="m933.71 134.43c0-1.344-.719-2.59-1.887-3.258l-42.824-24.688c-1.164-.668-2.598-.668-3.762 0l-42.828 24.688c-1.164.668-1.883 1.914-1.883 3.258v49.45c0 1.34.719 2.586 1.879 3.262l42.828 24.734c1.168.676 2.602.676 3.77 0l42.828-24.734c1.16-.676 1.879-1.922 1.879-3.262v-49.45m11.57 366.22c-2.332 1.301-5.179 1.27-7.484-.082-2.301-1.351-3.715-3.824-3.715-6.492v-191.36c0-1.879-1.01-3.621-2.633-4.563-1.629-.945-3.64-.945-5.273 0l-31.23 17.992c-4.656 2.684-10.39 2.68-15.05-.003l-124.74-71.989c-4.664-2.691-7.531-7.66-7.531-13.04v-144c0-5.379 2.867-10.352 7.527-13.05l124.73-72.04c4.664-2.691 10.406-2.691 15.07 0l124.75 72.04c4.66 2.695 7.53 7.668 7.53 13.05v358.96c0 5.461-2.96 10.492-7.73 13.156l-74.23 41.42"/><path d="m1391.55 185.17c4.64 2.695 7.49 7.656 7.49 13.02v34.895c0 5.367-2.85 10.332-7.5 13.03l-123.93 71.961c-4.67 2.707-10.42 2.711-15.1.02l-124.69-71.989c-4.66-2.691-7.53-7.66-7.53-13.04v-143.96c0-5.414 2.91-10.41 7.61-13.09l123.92-70.61c4.57-2.609 10.17-2.637 14.77-.082l74.95 41.66c2.38 1.32 3.86 3.816 3.87 6.531.02 2.715-1.43 5.23-3.78 6.582l-125.48 72.02c-2.35 1.34-3.79 3.836-3.79 6.531v45.12c0 2.691 1.44 5.179 3.77 6.523l39.06 22.516c2.32 1.343 5.19 1.343 7.52 0l39.07-22.516c2.33-1.344 3.77-3.832 3.77-6.523v-35.497c0-2.695 1.44-5.187 3.77-6.531 2.34-1.347 5.21-1.336 7.54.016l74.69 43.41"/></g><path d="m506.3 318.85c4.656 2.691 10.398 2.691 15.05 0l124.72-71.973c4.664-2.688 7.535-7.66 7.535-13.05v-144.05c0-5.383-2.871-10.352-7.527-13.05l-124.72-72.03c-4.664-2.691-10.406-2.691-15.07 0l-124.69 72.03c-4.661 2.695-7.532 7.664-7.532 13.05v144.06c0 5.379 2.871 10.351 7.535 13.04l124.7 71.973" fill="#83cd29"/></g><g fill="#83cd29"><path d="m1633.71 2.641c-4.3 0-8.57 1.125-12.33 3.301l-39.27 23.23c-5.86 3.281-3 4.441-1.07 5.117 7.83 2.715 9.41 3.34 17.76 8.07.87.488 2.02.305 2.92-.223l30.16-17.91c1.1-.605 2.64-.605 3.65 0l117.6 67.879c1.1.625 1.8 1.887 1.8 3.184v135.72c0 1.328-.7 2.57-1.82 3.242l-117.56 67.824c-1.09.633-2.53.633-3.63 0l-117.53-67.844c-1.14-.652-1.86-1.933-1.86-3.222v-135.72c0-1.297.72-2.527 1.85-3.145l32.22-18.613c17.48-8.738 28.19 1.555 28.19 11.894v134c0 1.894 1.52 3.39 3.41 3.39h14.92c1.86 0 3.4-1.496 3.4-3.39v-134c0-23.328-12.7-36.707-34.82-36.707-6.8 0-12.15 0-27.09 7.363l-30.84 17.754c-7.62 4.402-12.33 12.637-12.33 21.453v135.72c0 8.82 4.71 17.05 12.33 21.437l117.61 67.957c7.44 4.211 17.33 4.211 24.71 0l117.6-67.957c7.62-4.406 12.35-12.617 12.35-21.437v-135.72c0-8.816-4.73-17.02-12.35-21.453l-117.6-67.902c-3.76-2.176-8.02-3.301-12.38-3.301"/><path d="m1670.04 96.15c-51.47 0-62.25 23.622-62.25 43.44 0 1.883 1.52 3.387 3.4 3.387h15.21c1.7 0 3.11-1.219 3.38-2.879 2.29-15.481 9.14-23.293 40.26-23.293 24.77 0 35.32 5.605 35.32 18.75 0 7.578-2.99 13.203-41.49 16.972-32.18 3.184-52.08 10.293-52.08 36.04 0 23.73 20 37.882 53.53 37.882 37.68 0 56.32-13.08 58.68-41.13.09-.969-.25-1.895-.89-2.618-.65-.675-1.55-1.086-2.49-1.086h-15.27c-1.58 0-2.98 1.125-3.3 2.657-3.66 16.289-12.57 21.496-36.73 21.496-27.05 0-30.19-9.426-30.19-16.485 0-8.554 3.71-11.05 40.23-15.878 36.14-4.778 53.31-11.543 53.31-36.946 0-25.625-21.37-40.3-58.63-40.3"/><path d="m1832.21 320.1v-3.485h-9.9v-25.793h-3.99v25.793h-9.86v3.485h23.75"/><path d="m1835.74 320.1h5.69l8.4-24.747 8.37 24.747h5.65v-29.28h-3.79v17.278c0 .605.01 1.589.03 2.957.04 1.406.06 2.89.06 4.464l-8.37-24.699h-3.93l-8.44 24.699v-.878c0-.723 0-1.817.05-3.301.03-1.457.07-2.539.07-3.242v-17.278h-3.79v29.28"/><path d="m1258.22 191.91c.9.52 2 .52 2.89 0l23.94-13.809c.89-.515 1.44-1.468 1.44-2.503v-27.637c0-1.035-.55-1.988-1.44-2.504l-23.94-13.809c-.89-.519-1.99-.519-2.89 0l-23.91 13.809c-.9.516-1.45 1.469-1.45 2.504v27.637c0 1.035.55 1.988 1.45 2.503l23.91 13.809" fill-rule="evenodd"/></g></g></g></svg>