<svg height="48" version="1.1" viewBox="0 0 48 47.999998" width="48" xmlns="http://www.w3.org/2000/svg"><g transform="matrix(.19898023 0 0 .19898023 -18.226589 -30.234448)"><path d="m126.93 296.67l-35.33-15.363 0-8.508L126.93 257.506l0 10.02-24.645 9.422 24.645 9.773 0 9.949" fill="#00f" transform="translate(0 2.94)"/><path d="m225.55 312.54l13.465-19.23-12.902-18.11 12.06 0 6.609 10.266L251.743 275.2 263.345 275.2l-12.656 17.684 13.816 19.652-12.13 0-7.594-11.566-7.664 11.566-11.566 0m44.09-37.34l9.105 0 0 5.098c3.258-3.961 7.137-5.941 11.637-5.941 2.391 0 4.465.492 6.223 1.477 1.758.984 3.199 2.473 4.324 4.465 1.641-1.992 3.41-3.48 5.309-4.465 1.898-.984 3.926-1.477 6.082-1.477 2.742 0 5.062.557 6.961 1.67 1.898 1.113 3.316 2.748 4.254 4.904.68 1.594 1.019 4.172 1.02 7.734l0 23.871-9.879 0 0-21.34c0-3.703-.34-6.094-1.02-7.172-.914-1.406-2.32-2.109-4.219-2.109-1.383 0-2.684.422-3.902 1.266-1.219.844-2.098 2.08-2.637 3.709-.539 1.629-.809 4.201-.809 7.717l0 17.93-9.879 0 0-20.461c0-3.633-.176-5.977-.527-7.03-.352-1.055-.897-1.84-1.635-2.355-.738-.516-1.74-.773-3.01-.773-1.523 0-2.895.41-4.113 1.23-1.219.82-2.092 2-2.619 3.551-.527 1.547-.791 4.113-.791 7.699l0 18.14-9.879 0 0-37.34m64.723 37.34l0-51.54 9.879 0 0 51.54-9.879 0" fill="#d40000" transform="translate(-90.57 -14.08)"/><g fill="#00f"><path d="m367.77 289.1l12.762-53.3 7.418 0-12.902 53.3-7.277 0" transform="translate(-93.71 9.714)"/><path d="m297.46 299.6l0-9.949 24.68-9.703-24.68-9.598 0-9.879 35.37 15.293 0 8.438-35.37 15.398"/></g></g></svg>