<svg viewBox="0 0 48 48" xmlns="http://www.w3.org/2000/svg"><g fill-rule="evenodd" transform="matrix(.61646 0 0 .61646 72.987 -9.325)"><g fill="#0074bd"><path d="m-86.68 70.02c0 0-2.23 1.298 1.589 1.736 4.628.528 6.993.452 12.09-.511 0 0 1.343.84 3.216 1.568-11.433 4.898-25.875-.284-16.896-2.793"/><path d="m-88.08 63.63c0 0-2.502 1.852 1.32 2.247 4.944.51 8.847.552 15.604-.748 0 0 .932.947 2.401 1.465-13.821 4.04-29.21.318-19.326-2.964"/></g><path d="m-76.3 52.781c2.819 3.244-.739 6.162-.739 6.162 0 0 7.152-3.692 3.868-8.317-3.068-4.311-5.421-6.453 7.315-13.839 0 0-19.992 4.992-10.444 15.994" fill="#ea2d2e"/><g fill="#0074bd"><path d="m-61.18 74.75c0 0 1.651 1.361-1.819 2.414-6.597 1.998-27.465 2.601-33.26.08-2.082-.907 1.824-2.164 3.053-2.429 1.281-.277 2.01-.227 2.01-.227-2.317-1.632-14.977 3.205-6.43 4.592 23.308 3.778 42.488-1.702 36.442-4.429"/><path d="m-85.61 57c0 0-10.613 2.522-3.758 3.438 2.895.387 8.663.298 14.04-.153 4.393-.369 8.802-1.157 8.802-1.157 0 0-1.548.664-2.669 1.429-10.78 2.835-31.6 1.515-25.605-1.384 5.067-2.452 9.19-2.173 9.19-2.173"/><path d="m-66.57 67.64c10.957-5.692 5.89-11.163 2.354-10.426-.865.18-1.253.337-1.253.337 0 0 .322-.505.936-.722 6.996-2.458 12.375 7.253-2.256 11.1 0 0 .168-.152.219-.288"/></g><path d="m-73.17 24.859c0 0 6.067 6.07-5.756 15.402-9.481 7.489-2.162 11.757-.003 16.636-5.535-4.993-9.595-9.39-6.871-13.48 3.999-6 15.08-8.916 12.631-18.558" fill="#ea2d2e"/><path d="m-84.53 83.07c10.515.672 26.667-.374 27.05-5.35 0 0-.735 1.886-8.691 3.383-8.976 1.69-20.05 1.493-26.614.409 0 0 1.345 1.113 8.256 1.558" fill="#0074bd"/></g></svg>