<svg xmlns="http://www.w3.org/2000/svg" viewBox="0 0 39.792058 39.79255"><path d="m23.303 1008.48c-.377.015-.068.027.686.027.753 0 1.06-.012.684-.027-.377-.015-.993-.015-1.369 0m.682.18c-1.077 0-2.152.054-2.814.158-4.311.678-8.117 2.616-11.141 5.672-1.64 1.657-2.676 3.1-3.709 5.174-1.408 2.827-2.036 5.513-2.035 8.711.001 3.16.598 5.738 1.986 8.59.999 2.051 2.107 3.598 3.775 5.273 3.363 3.376 7.703 5.412 12.363 5.799 2.186.181 4.204 0 6.508-.58 5.481-1.385 10.257-5.3 12.795-10.488 2.068-4.227 2.549-8.813 1.408-13.408-1.902-7.663-8.376-13.516-16.311-14.744-.67-.104-1.749-.157-2.826-.156m-.709 1.828c.04 0 .086.032.135.09.221.266-.042 5.26-.422 8.03-.461 3.363-1.056 5.319-2.475 8.129-.828 1.639-1.128 2.502-1.264 3.631-.29 2.418.34 4.616 2.266 7.897.385.655.782 1.334.883 1.51.244.425.512 1.233.512 1.545 0 .23-.024.252-.279.252-.925 0-2.924-1.743-4.246-3.701-1.389-2.058-2.046-4.111-2.059-6.424-.012-2.332.42-3.505 2.43-6.592 1.703-2.615 2.459-4.124 3.113-6.207.669-2.129 1.202-5.446 1.205-7.502.001-.422.08-.661.201-.656m-1.234 1.217c.031-.019.065-.011.1.023.035.035.06.462.057.949-.011 1.628-.57 3.784-1.475 5.688-.825 1.737-1.633 2.983-3.818 5.894-1.756 2.34-2.486 3.419-2.998 4.424-1.249 2.451-1.249 4.36 0 6.953 1.19 2.472 3.943 5.332 6.246 6.49.534.269.763.428.746.518-.079.415-2.763-.224-4.42-1.053-4.216-2.108-6.368-5.473-6.383-9.98-.006-1.882.262-3.121.988-4.564.809-1.607 2.01-2.955 4.896-5.488 1.757-1.544 3.068-2.849 3.717-3.697 1.211-1.584 1.929-3.371 2.123-5.287.053-.519.128-.813.221-.869m2.563 1.565c.119.017.217.279.322.838.289 1.526.933 3.098 1.65 4.02.414.534 1.068 1.033 3.594 2.734 1 .677 2.275 1.568 2.822 1.981 1.141.86 3.225 2.898 3.803 3.721 1.16 1.65 1.642 3.082 1.646 4.887.006 2.816-1.117 5.251-3.537 7.672-1.899 1.899-3.999 3.159-5.953 3.57-.316.067-.771.121-1.01.121-.405 0-.457-.026-.803-.379-.665-.679-1.157-.911-2.941-1.385l-.414-.109-.307-.785c-.676-1.735-1.206-3.859-1.393-5.576-.126-1.158-.107-3.418.039-4.672.163-1.399.273-2.02.914-5.273.895-4.537 1.149-6.424 1.279-9.447.042-.976.115-1.812.16-1.857.046-.046.087-.068.127-.062m1.08 6.474c-.023 0-.005.068.039.15.222.414.869 1.152 2.465 2.807 2.635 2.731 3.03 3.205 3.908 4.662.557.927.933 1.816 1.211 2.871.147.557.176.914.178 2.084.002 1.275-.02 1.495-.227 2.293-.403 1.555-.933 2.671-2.18 4.594l-.16.25.373-.291c.723-.563 2.267-2.125 2.791-2.822 1.417-1.884 1.923-3.755 1.488-5.518-.198-.802-.924-2.26-1.57-3.154-.619-.855-2.408-2.764-3.746-3.992-.996-.915-4.503-3.934-4.57-3.934m18.201 7.992c-.016-.356-.029-.087-.029.598 0 .685.012.975.027.647.016-.329.018-.888.002-1.244m-39.773 0c-.005.093-.008.299-.008.596 0 .593.013.848.029.564.016-.283.016-.77 0-1.08-.008-.155-.016-.174-.021-.08m20.12 14.576c.169.01.341.186.523.537.231.443.228 1.311-.006 1.967-.091.257-.21.677-.264.934-.086.412-.121.467-.299.467-.154 0-.201-.045-.201-.188 0-.103-.113-.58-.25-1.059-.318-1.114-.321-1.582-.016-2.168.174-.334.342-.498.512-.49m-1.199.17c.177 0 .207.036.207.272 0 .418-.224 1.204-.514 1.803-.302.624-1.239 1.617-1.787 1.896-.581.296-.744.219-.646-.303.087-.466.233-.691.955-1.471.654-.706 1.164-1.387 1.441-1.928.1-.194.196-.27.344-.27m2.25.098c.142-.02.238.085.484.525.351.628.851 1.272 1.541 1.99.537.559.714.863.793 1.359l.055.342h-.279c-.328 0-.939-.392-1.459-.926-.707-.726-1.252-1.915-1.291-2.809-.018-.406-.003-.456.156-.479zm-1.65 5.65c-.194.018-.034.031.354.031.388 0 .547-.014.354-.031-.194-.018-.513-.018-.707 0" fill="#40426c" transform="translate(-4.104-1008.47)"/></svg>