<svg height="147.242233" version="1.1" viewBox="0 0 150.970001 147.242233" width="150.970001" xml:space="preserve" xmlns="http://www.w3.org/2000/svg"><g transform="matrix(1.25 0 0 -1.25 -135.999999 309.515534)"><path d="m147.896874 149.910997c.718.014 1.307813-.38725 1.307813-.88125.017-.498-.56325-.90975-1.28125-.91875-.722-.017-1.307625.386563-1.315625.876562 0 .503.568062.910438 1.289063.923438zm4.976563.582813c.485203-.052969.861438-.31075.929688-.68125.086-.485-.413563-.984188-1.126563-1.117188-.701-.129-1.350063.172125-1.439063.653125-.087.498.420875.997562 1.121875 1.126563.1785.031.352328.036406.514063.01875zm-10.10625.217188c.163047-.001875.334-.029063.50625-.082813.682-.206 1.131062-.754938.989063-1.235938-.147-.473-.825375-.686938-1.509375-.485938-.683.207-1.130187.7595-.992188 1.2375.1065.35775.517109.572812 1.00625.567187zm-4.395313 2.623438c.335449.015762.734375-.139688 1.059375-.448438.524-.486.68325-1.18275.33125-1.54375-.331-.365-1.037125-.26675-1.553125.23125-.528.487-.67475 1.17875-.34375 1.54375.126.13725.30498.20773.50625.217188zm-2.896875 3.432812c.343453.018375.750125-.211938 1.034375-.610938.369-.546.368625-1.190125-.009375-1.453125-.37-.258-.976-.016688-1.35.520312-.37.538-.369625 1.181063.009375 1.439063.0935.0645.201141.098563.315625.104687zm-2.267188 3.08125c.246604-.032572.516875-.175688.739063-.4125.396-.426.472875-.984688.171875-1.254688-.288-.267-.851813-.143875-1.232813.278125-.396.421-.468563.984687-.176563 1.254687.07425.06675.163375.110437.2625.129688.074344.014438.153736.015545.235938.004688zm-2.635938 2.08125c.074203.00679.153469.004258.234375-.007813.107875-.016094.220188-.050063.329688-.101563.438-.197.6885-.609938.5375-.910938-.133-.301-.605938-.391375-1.035938-.184375-.439.197-.684188.606812-.542188.907812.073125.17325.253953.276506.476563.296875zm8.420313 60.776563c-1.032979.020586-1.528125-.1375-1.528125-.1375-3.28-8.318-1.212938-14.45925-.585938-15.98125-3.863-4.229-6.221875-9.615812-6.221875-16.207813 0-23.139 14.0995-28.31775 27.5125-29.84375-1.727-1.508-3.291375-4.173-3.834375-8.075-3.446-1.543-12.187437-4.21225-17.573438 5.01875 0 0-3.19225 5.797438-9.25625 6.223437 0 0-5.8915.077688-.4125-3.670313 0 0 3.957688-1.856937 6.704688-8.835938 0 0 3.545312-10.778 20.345313-7.125.026-5.046.08125-9.80475.08125-11.24375 0-1.386787-.839738-2.979654-3.042188-3.004687l0-.004688 36.075 0c-2.258498-.014861-3.089063 1.602375-3.089063 3.009375 0 1.989.06875 8.491875.06875 16.571875 0 5.634-1.930875 9.308813-4.096875 11.182813 13.447 1.495 27.575 6.601875 27.575 29.796875 0 6.592-2.342062 11.978813-6.214063 16.207813.627 1.522 2.69325 7.66325-.59375 15.98125 0 0-5.063062 1.622375-16.589063-6.190625-4.826 1.338-9.996125 2.008813-15.128125 2.032813-5.132-.024-10.298625-.694812-15.115625-2.032813-7.933062 5.371437-12.808697 6.282837-15.08125 6.328125z" fill="#231f20"/></g></svg>