<svg fill="#212121" height="48" version="1.1" viewBox="0 0 48 48" width="48" xmlns="http://www.w3.org/2000/svg"><path d="M12 6C11.07 6 10.239453 6.429844 9.689453 7.089844L6.919922 10.449219C6.339922 11.149219 6 12.03 6 13L6 38C6 40.21 7.79 42 10 42L38 42C40.21 42 42 40.21 42 38L42 13C42 12.03 41.659844 11.149219 41.089844 10.449219L38.320313 7.089844C37.760313 6.429844 36.93 6 36 6L12 6zM11.880859 8L35.880859 8 37.75 10 10.25 10 11.880859 8zM12 20L36 20 36 23 12 23 12 20zM16.5 26L31.5 26 31.5 29 16.5 29 16.5 26zM21 32L27 32 27 35 21 35 21 32z"/></svg>