<svg height="45.373199mm" version="1.1" viewBox="0 0 129.367582 160.771179" width="36.510406mm" xmlns="http://www.w3.org/2000/svg"><g transform="translate(-139.40633 -733.660198)"><g fill="#d8d8d8" fill-rule="evenodd" transform="matrix(.17893165 0 0 .17893165 139.495796 733.814178)"><g><path d="M0 0L0 485 361 690.78502 361 550.90277 119.49609 413.23549 119.49609 197 361 334.66728 361 205.78502 0 0Zm0 0" fill="#002a41" stroke="#848484"/><path d="M722 0L722 485 361 690.78502 361 550.90277 602.50391 413.23549 602.50391 197 361 334.66728 361 205.78502 722 0Zm0 0" fill="#0071b5" stroke="#848484"/><path d="M0 896.78502L0 411.78502 361 206l0 139.88225-241.50391 137.66728 0 205.23549L361 551.11775 361 691 0 896.78502Zm0 0" fill="#0071b5" stroke="#848484"/><path d="M722 896.78502L722 411.78502 361 206l0 139.88225 241.50391 137.66728 0 205.23549L361 551.11775 361 691 722 896.78502Zm0 0" fill="#002a41" stroke="#848484"/></g></g></g></svg>