<svg xmlns="http://www.w3.org/2000/svg" xmlns:xlink="http://www.w3.org/1999/xlink" viewBox="0 0 267 267"><path d="m266.63 133.51c0-73.52-59.6-133.13-133.13-133.13-73.49 0-133.07 59.56-133.12 133.04v103.02c.04 16.684 13.571 30.19 30.27 30.19h102.91c73.5-.029 133.07-59.61 133.07-133.12" fill="#294172"/><path d="m77.13 142.1c0 0 47.845 0 47.845 0 0 0 0 47.845 0 47.845 0 26.41-21.434 47.845-47.845 47.845-26.41 0-47.845-21.434-47.845-47.845 0-26.41 21.434-47.845 47.845-47.845z" id="0" fill="none" stroke="#3c6eb4" stroke-width="29.21"/><use transform="matrix(-1 0 0-1 249.71 284.29)" xlink:href="#0"/><path d="m139.61 127.53v62.35c0 34.504-27.975 62.48-62.48 62.48-5.235 0-8.956-.591-13.802-1.858-7.07-1.849-12.84-7.643-12.843-14.381 0-8.145 5.912-14.07 14.75-14.07 4.206 0 5.733.808 11.895.808 18.19 0 32.948-14.735 32.98-32.927v-28.657c0-2.568-2.087-4.648-4.659-4.648l-21.665-.004c-8.07 0-14.594-6.438-14.594-14.533-.004-8.145 6.589-14.557 14.748-14.557" id="1" fill="#fff"/><use transform="matrix(-1 0 0-1 249.71 284.29)" xlink:href="#1"/><path d="m243.65 243.58c0 0 0-5.531 0-5.531l-2.529 5.798c0 0-2.461-5.798-2.461-5.798v5.531h-1.418v-8.735h1.487c0 0 2.434 5.581 2.434 5.581l2.397-5.581h1.505v8.735h-1.416m-10.333-7.272v7.272h-1.482v-7.272h-2.485v-1.463h6.449v1.463" fill="#3c6eb4"/></svg>