<svg xmlns="http://www.w3.org/2000/svg" viewBox="0 0 286.12 144.66"><g transform="translate(-53.791-76.42)" fill="#73ba25"><path d="m309.62 124.89c-6.673-.245-11.912-5.871-11.689-12.554.103-3.236 1.486-6.226 3.836-8.434 2.36-2.207 5.442-3.356 8.678-3.235 6.683.234 11.923 5.85 11.698 12.543-.101 3.225-1.465 6.216-3.825 8.434-2.371 2.198-5.453 3.347-8.698 3.246m2.809-10.978c2.97 0 5.381-1.607 5.381-3.58 0-1.984-2.411-3.591-5.381-3.591-2.972 0-5.373 1.608-5.373 3.591 0 1.973 2.401 3.58 5.373 3.58"/><path d="m172.32 194.49l.429-.04.07-.509c-.11-.399-.369-.758-.769-5.708-.34-4.381-1.028-16.395 5.02-22.353 2.346-2.325 5.928-4.391 8.753-5.059 11.586-2.824 26.624-.868 39.467 13.981 6.627 7.674 9.88 11.176 11.507 12.743l.558.519.679.489c.529.299 22.07 10.219 22.07 10.219l.439-.11.011-.468c-.14-.16-13.651-17.614-11.257-31.994 1.896-11.456 11.02-10.428 23.621-8.992 4.121.469 8.812 1.01 13.662 1.118 13.541.08 28.13-2.405 37.12-6.337 5.818-2.544 9.53-4.221 11.855-6.337.837-.688 1.276-1.826 1.726-3.02l.31-.808c.378-.968.927-3.044 1.168-4.172.11-.499.16-1.038-.191-1.307l-1.247.229c-3.941 2.365-13.812 6.876-23.05 7.06-11.446.239-34.518-11.517-36.923-12.764l-.229-.269c-.58-1.378-4.04-9.571-4.771-11.296 16.606 10.937 30.377 16.985 40.925 17.923 11.736 1.047 20.887-5.359 24.799-8.094.768-.519 1.347-.938 1.586-1.027l.25-.409c-.65-4.121-6.787-24.08-11.417-28.87-1.287-1.317-2.315-2.594-4.391-3.812-16.775-9.779-56.6-15.688-58.47-15.957l-.319.09-.119.279c0 0-.15 8.263-.171 9.181-4.072-1.358-33.639-10.908-61.36-11.876-23.5-.828-55.6-1.946-100.97 25.936l-1.337.838c-21.335 13.312-36.06 29.718-43.769 48.799-2.415 5.997-5.668 19.54-2.455 32.28 1.397 5.579 3.982 11.167 7.475 16.177 7.874 11.316 21.1 18.831 35.34 20.1 20.1 1.796 35.33-7.235 40.745-24.14 3.722-11.666 0-28.78-14.27-37.511-11.606-7.115-24.1-5.489-31.33-.709-6.287 4.171-9.849 10.637-9.779 17.753.14 12.604 11.01 19.31 18.811 19.32 2.275 0 4.55-.389 7.125-1.227.909-.28 1.776-.619 2.724-1.208l.29-.189.189-.11-.07.03c1.786-1.198 2.864-3.173 2.864-5.289 0-.579-.09-1.168-.25-1.757-.918-3.183-4.072-5.119-7.345-4.521l-.439.09-.599.199-.868.29c-1.796.449-3.154.479-3.433.488-.918-.06-5.419-1.406-5.419-6.336v-.06c.011-1.806.739-3.074 1.138-3.762 1.387-2.196 5.219-4.351 10.398-3.892 6.787.578 11.676 4.062 14.919 10.628 3.01 6.107 2.226 13.611-2.026 19.12-4.221 5.459-11.735 7.774-21.735 6.686-10.08-1.107-18.601-6.905-23.371-15.936-4.67-8.822-4.93-19.29-.668-27.333 10.209-19.26 29.478-19.06 40.05-17.234 15.647 2.704 29.848 15.228 36.16 31.884 1.01 2.655 1.526 4.76 1.975 6.676l.679 2.884 17.672 8.632.24.17m125.62-94c-3.332 3.093-5.239 7.315-5.399 11.865-.308 9.38 7.06 17.284 16.436 17.634 4.571.15 8.902-1.458 12.224-4.571 3.323-3.103 5.23-7.315 5.399-11.855.319-9.39-7.05-17.304-16.445-17.643-4.551-.15-8.892 1.457-12.215 4.57" fill-rule="evenodd"/><path d="m270.66 195.87h-.197c-.228 0-.426-.198-.426-.426v-3.057l-.669 1.019c-.076.106-.213.152-.334.152h-.076c-.121 0-.259-.046-.334-.152l-.685-1.019v3.057c0 .228-.198.426-.441.426h-.197c-.228 0-.426-.198-.426-.426v-3.65h-2.054v3.65c0 .228-.213.426-.456.426h-.183c-.228 0-.426-.198-.426-.426v-3.65h-1.536c-.228 0-.411-.152-.411-.395v-.213c0-.243.183-.396.411-.396h5.384c.213 0 .35.076.426.198l1.019 1.536 1.019-1.536c.076-.107.198-.198.426-.198h.685v4.684c0 .228-.213.426-.456.426"/></g></svg>