<svg height="39.792549" version="1.1" viewBox="0 0 39.792058 39.79255" width="39.792057" xmlns="http://www.w3.org/2000/svg"><g transform="translate(-4.103973 -1008.4651)"><path d="m23.30318 1008.4763c-.376556.015-.06757.027.685547.027.753107 0 1.06015-.012.683593-.027-.376556-.015-.992583-.015-1.36914 0zm .68164.1797c-1.076857.0004-2.151964.054-2.814453.1582-4.311242.6782-8.117026 2.616-11.140625 5.6719-1.639731 1.6572-2.675936 3.1002-3.708984 5.1738-1.408312 2.8269-2.035772 5.5129-2.035156 8.711.000608 3.1601.597702 5.7384 1.986328 8.5898.998588 2.0505 2.10686 3.598 3.77539 5.2734 3.362551 3.3764 7.703035 5.4123 12.363282 5.7988 2.186389.1814 4.203642 0 6.507812-.58 5.480758-1.3851 10.256555-5.2998 12.794922-10.4883 2.067921-4.2269 2.548794-8.8128 1.408203-13.4082-1.902058-7.6634-8.375658-13.5158-16.310547-14.7441-.670277-.1038-1.749314-.1567-2.826172-.1563zm-.708984 1.8281c.04037 0 .08646.032.134766.09.220677.2659-.04215 5.2598-.421875 8.0293-.46111 3.3632-1.05588 5.3188-2.47461 8.1289-.827657 1.6394-1.128011 2.5018-1.263671 3.6309-.29046 2.4176.340018 4.6163 2.265624 7.8965.38477.6554.782296 1.3344.882813 1.5098.243861.4253.511719 1.2331.511719 1.5449 0 .2302-.0242.2519-.279297.2519-.924839 0-2.924179-1.7425-4.246094-3.7011-1.388652-2.0576-2.046264-4.1114-2.058594-6.4239-.01243-2.332.420065-3.5048 2.429688-6.5918 1.702651-2.6154 2.458927-4.1239 3.113281-6.207.668648-2.1286 1.201578-5.4463 1.205078-7.5019.000711-.4215.08005-.661.201172-.6563zm-1.234375 1.2168c.031-.019.06487-.011.09961.023.03499.035.05984.4625.05664.9493-.01083 1.6284-.569957 3.7843-1.474609 5.6875-.825488 1.7366-1.63273 2.9831-3.81836 5.8945-1.756499 2.3398-2.486031 3.4187-2.998046 4.4238-1.24871 2.4515-1.249082 4.3599 0 6.9531 1.190478 2.4716 3.942792 5.3319 6.246093 6.4902.53446.2688.763084.4279.746094.5176-.07861.4152-2.763137-.2243-4.419922-1.0527-4.216044-2.1081-6.368382-5.4732-6.382812-9.9805-.006-1.8819.261666-3.1208.988281-4.5644.809031-1.6074 2.013351-2.955 4.896484-5.4883 1.756747-1.5436 3.068095-2.8487 3.716797-3.6973 1.211354-1.5844 1.928836-3.371 2.123047-5.2871.05263-.5192.127697-.8133.220703-.8691zm2.5625 1.5645c.119417.017.21656.2787.322266.8379.288509 1.5261.933346 3.0981 1.65039 4.0234.414048.5343 1.067681 1.0325 3.59375 2.7344 1.00415.6765 2.274548 1.5676 2.822266 1.9805 1.141213.8602 3.2246 2.8984 3.802734 3.7207 1.160169 1.6501 1.642385 3.0818 1.646485 4.8867.0064 2.8156-1.116868 5.2514-3.53711 7.6719-1.898703 1.8988-3.998575 3.1591-5.953125 3.5702-.316344.067-.771215.1211-1.009765.1211-.405236 0-.457064-.026-.802735-.3789-.665107-.6788-1.157439-.9108-2.941406-1.3847l-.414062-.1094-.306641-.7851c-.676123-1.7351-1.206088-3.8589-1.392578-5.5762-.125748-1.1579-.10728-3.4179.03906-4.6719.163211-1.3985.272625-2.0209.914063-5.2734.894654-4.5365 1.148983-6.4239 1.279297-9.4473.04209-.9765.115006-1.8122.160156-1.8574.04614-.046.08715-.068.126953-.062zm1.080078 6.4746c-.02283 0-.0052.068.03906.1504.221754.4144.868721 1.1522 2.464844 2.8066 2.634726 2.731 3.032363 3.2049 3.908203 4.6621.557113.927.932883 1.8156 1.210937 2.8711.146655.5568.176035.9142.177734 2.084.0019 1.2747-.01996 1.4952-.226562 2.293-.402741 1.5552-.932837 2.6712-2.179688 4.5937l-.160156.25.373047-.291c.722955-.5635 2.26672-2.1254 2.791016-2.8222 1.417426-1.8839 1.922606-3.7555 1.488281-5.5176-.197528-.8015-.923685-2.2599-1.570312-3.1543-.618524-.8555-2.408349-2.7635-3.746094-3.9922-.996125-.915-4.503343-3.9336-4.570313-3.9336zm18.201172 7.9922c-.01559-.3558-.02921-.087-.0293.5976-.00012.6847.01163.9754.02734.6465.01575-.3288.01754-.8883.002-1.2441zm-39.773437 0c-.0053.093-.0077.299-.0078.5957-.000145.5934.01314.8478.0293.5644.01616-.2833.01601-.7701 0-1.08-.008-.155-.01616-.1735-.02148-.08zm20.123046 14.5761c.16939.01.340806.1864.523438.5371.230766.4431.227904 1.3109-.0059 1.9668-.0915.2568-.210372.6769-.263672.9336-.08561.4124-.12075.4668-.298828.4668-.153786 0-.201172-.045-.201172-.1875 0-.1028-.113071-.5795-.25-1.0586-.318483-1.1142-.320919-1.5825-.01563-2.1679.174393-.3345.342329-.498.511718-.4903zm-1.199218.1699c.176848 0 .207031.036.207031.2715 0 .4177-.223966 1.2041-.513672 1.8028-.301938.6239-1.238542 1.6171-1.787109 1.8964-.58131.296-.744285.2186-.646485-.3027.08748-.4663.232736-.691.955079-1.4707.653579-.7055 1.163617-1.3872 1.441406-1.9277.09984-.1943.195844-.2696.34375-.2696zm2.25.098c.142033-.02.237854.085.484375.5254.351242.6281.851175 1.2724 1.541015 1.9903.537103.5589.713529.8626.792969 1.3593l.05469.3418-.279297 0c-.327646 0-.939264-.3917-1.458985-.9257-.706843-.7264-1.252325-1.9146-1.291015-2.8086-.01757-.4061-.0026-.4559.15625-.4786zm-1.650391 5.6504c-.193984.018-.03445.031.353516.031.387967 0 .547498-.014.353515-.031-.193984-.018-.513048-.018-.707031 0z" fill="#40426c"/></g></svg>