<svg height="48" version="1.0" width="48" xmlns="http://www.w3.org/2000/svg"><g transform="matrix(.75 0 0 .75 6 6)"><path d="M23.714192.000393C21.734949.00949 19.844816.176446 18.181694.46752 13.282344 1.32362 12.392812 3.11551 12.392811 6.42006l0 4.364306 11.577765 0 0 1.454769-11.577765 0-4.345035 0c-3.364821 0-6.311154 2.00036-7.23273 5.805728-1.063025 4.361836-1.110176 7.083692 0 11.638149.82299 3.390162 2.788398 5.805727 6.153218 5.805728l3.9807 0 0-5.231829c0-3.779688 3.306391-7.113685 7.232729-7.113685l11.564271 0c3.219083 0 5.788884-2.621537 5.788882-5.819075l0-10.904092c0-3.103366-2.646954-5.434601-5.788882-5.95254C27.757078.140061 25.693435-.008704 23.714192.000393ZM17.453023 3.510523c1.195904 0 2.172518.981724 2.172518 2.188826-.000001 1.202823-.976614 2.17548-2.172518 2.17548-1.200191-.000001-2.172518-.972657-2.172518-2.17548 0-1.207102.972327-2.188826 2.172518-2.188826z" fill="#3776ab"/><path d="m36.978692 12.239135l0 5.085017c0 3.942345-3.379256 7.260496-7.232728 7.260497l-11.564271 0c-3.167647 0-5.788882 2.681465-5.788882 5.819075l0 10.904094c0 3.103365 2.728396 4.928731 5.788882 5.819073 3.66487 1.065845 7.179288 1.25847 11.564271 0 2.914749-.834697 5.788884-2.514528 5.788882-5.819073l0-4.364306-11.564271 0 0-1.45477 11.564271 0 5.788881 0c3.364821 0 4.618695-2.321398 5.788882-5.805728 1.208764-3.587064 1.157332-7.036607 0-11.638149-.831561-3.313111-2.419782-5.805728-5.788882-5.805728l-4.345035 0zm-6.504057 27.613914c1.200192 0 2.172518.972659 2.172518 2.17548 0 1.207099-.972327 2.188825-2.172518 2.188825-1.195904 0-2.172517-.981726-2.172518-2.188825.000001-1.202821.976611-2.17548 2.172518-2.17548z" fill="#ffd343"/></g></svg>