<svg fill="#956449" height="48" version="1.1" viewBox="0 0 48 48" width="48" xmlns="http://www.w3.org/2000/svg"><path d="M24.099609 0C10.839609 0 .099609 10.74.099609 24 .099609 37.26 10.839609 48 24.099609 48 37.359609 48 48.099609 37.26 48.099609 24 48.099609 10.74 37.359609 0 24.099609 0zM24.099609 4.800781C34.683609 4.800781 43.300781 13.416 43.300781 24 43.300781 34.584 34.683609 43.199219 24.099609 43.199219 13.515609 43.199219 4.900391 34.584 4.900391 24 4.900391 13.416 13.515609 4.800781 24.099609 4.800781z" fill="#956449"/><path d="m17.010156 29.92c-.38 0-.73-.05-1.05-.17-.31-.11-.58-.27-.8-.47-.22-.2-.39-.45-.51-.73-.12-.29-.18-.6-.18-.94l-2.6 0c0 .72.14 1.35.42 1.9.28.55.65 1.01 1.12 1.37.47.37 1.01.64 1.63.83.62.2 1.26.29 1.94.29.74 0 1.43-.1 2.07-.3.64-.2 1.19-.5 1.66-.89.47-.39.83-.87 1.1-1.44.26-.57.4-1.22.4-1.95 0-.39-.05-.76-.14-1.12-.1-.36-.25-.7-.45-1.02-.21-.32-.48-.6-.81-.86-.33-.25-.74-.46-1.21-.63.4-.18.75-.4 1.05-.66.3-.26.55-.54.75-.83.2-.3.35-.6.45-.92.1-.32.15-.64.15-.95 0-.73-.12-1.37-.36-1.92-.24-.55-.58-1.01-1.02-1.38-.44-.37-.96-.65-1.58-.84-.64-.2-1.32-.29-2.06-.29-.72 0-1.39.11-2 .32-.61.21-1.13.51-1.57.89-.44.38-.78.83-1.03 1.35-.25.52-.37 1.09-.37 1.7l2.6 0c0-.34.06-.64.18-.9.12-.27.29-.5.5-.68.21-.19.47-.34.76-.44.29-.1.61-.16.95-.16.8 0 1.39.21 1.78.62.39.41.58.99.58 1.73 0 .36-.05.68-.16.97-.11.29-.27.54-.49.75-.22.21-.5.37-.82.49-.33.12-.72.18-1.16.18l-1.54 0 0 2.05 1.54 0c .44 0 .84.05 1.19.15.35.1.65.25.9.47.25.21.44.48.58.8.13.32.2.7.2 1.14 0 .81-.23 1.43-.7 1.86-.45.42-1.08.63-1.89.63z"/><path d="m24.200156 16l0 16L28.79 32c1.11 0 2.109531-.179063 3.019531-.539063.91-.36 1.680313-.87125 2.320313-1.53125.64-.66 1.140469-1.460625 1.480469-2.390625.35-.93.519531-1.978672.519531-3.138672l0-.791016c0-1.16-.179297-2.198672-.529297-3.138672-.35-.94-.840703-1.740391-1.470703-2.400391-.63-.66-1.389531-1.17125-2.269531-1.53125C30.970313 16.179063 30.000625 16 28.930625 16l-4.730469 0zm2.779297 2.240234l1.951172 0c1.44 0 2.529062.459141 3.289063 1.369141.75.92 1.130859 2.240469 1.130859 3.980469l0 .820313-.009766 0c0 .83-.091016 1.59-.291016 2.25-.19.67-.469609 1.229453-.849609 1.689453-.38.46-.849922.810547-1.419922 1.060547-.57.24-1.230234.369141-1.990234.369141l-1.810547 0 0-11.539063z"/></svg>