<svg fill="#480062" height="48" version="1.1" viewBox="0 0 48 48" width="48" xmlns="http://www.w3.org/2000/svg"><path d="m8 12l-4 0 0 28c0 2.21 1.79 4 4 4l28 0 0-4-28 0 0-28z" fill="#294172"/><path d="m16 4c-2.21 0-4 1.79-4 4l0 24c0 2.21 1.79 4 4 4l24 0c2.21 0 4-1.79 4-4L44 8C44 5.79 42.21 4 40 4L16 4Z" fill="#294172"/><path d="m23.42136 19.567029c0 0 4.153482 0 4.153482 0 0 0 0 4.153482 0 4.153482 0 2.292684-1.860711 4.153482-4.153482 4.153482-2.292684 0-4.153482-1.860711-4.153482-4.153482 0-2.292684 1.860711-4.153482 4.153482-4.153482z" fill="none" stroke="#3c6eb4" stroke-width="2.535755"/><path d="m31.70749 19.574842c0 0-4.153482 0-4.153482 0 0 0 0-4.153482 0-4.153482 0-2.292684 1.860711-4.153482 4.153482-4.153482 2.292684 0 4.153482 1.860711 4.153482 4.153482 0 2.292684-1.860711 4.153482-4.153482 4.153482z" fill="none" stroke="#3c6eb4" stroke-width="2.535755"/><path d="m28.845324 18.30219l0 5.412679c0 2.995334-2.428544 5.423964-5.423964 5.423964-.454457 0-.777481-.051305-1.198168-.161295-.613755-.160514-1.114656-.663498-1.114916-1.248432 0-.707077.513228-1.221434 1.280465-1.221434.365128 0 .497689.070143 1.032619.070143 1.579096 0 2.860256-1.279163 2.863034-2.858433l0-2.487749c0-.222931-.181175-.403498-.404453-.403498l-1.880765-.000347c-.700566 0-1.266923-.558891-1.266923-1.261627-.000347-.707077.571999-1.263711 1.280292-1.263711" fill="#fff"/><path d="m26.283525 20.839681l0-5.412679c0-2.995334 2.428544-5.423964 5.423964-5.423964.454457 0 .777481.051305 1.198168.161295.613755.160514 1.114656.663498 1.114916 1.248432 0 .707077-.513228 1.221434-1.280465 1.221434-.365128 0-.497689-.070143-1.032619-.070143-1.579096 0-2.860256 1.279163-2.863034 2.858433l0 2.487749c0 .222931.181175.403498.404453.403498l1.880765.000347c.700566 0 1.266923.558891 1.266923 1.261627.000347.707077-.571999 1.263711-1.280292 1.263711" fill="#fff"/><path d="m37.877162 28.37663c0 0 0-.480153 0-.480153l-.219546.503331c0 0-.213642-.503331-.213642-.503331l0 .480153-.123098 0 0-.758296.129088 0c0 0 .211298.484493.211298.484493l.208086-.484493.130651 0 0 .758296-.122925 0m-.89702-.631291l0 .631291-.128654 0 0-.631291-.215726 0 0-.127005.559845 0 0 .127005" fill="#3c6eb4"/></svg>