<svg fill="#480062" height="48" version="1.1" viewBox="0 0 48 48" width="48" xmlns="http://www.w3.org/2000/svg"><path d="m8 12l-4 0 0 28c0 2.21 1.79 4 4 4l28 0 0-4-28 0 0-28z" fill="#87cf3e"/><path d="m16 4c-2.21 0-4 1.79-4 4l0 24c0 2.21 1.79 4 4 4l24 0c2.21 0 4-1.79 4-4L44 8C44 5.79 42.21 4 40 4L16 4Z" fill="#87cf3e"/><path d="m36.857917 26.105627c0-2.564268 0-8.613363 0-8.613363 0-2.877623-2.523568-5.210292-5.637251-5.210292l-3.231702 0 0-.006951-8.740524-.038192 0 3.142733c0 0 .713674 0 1.341724 0 .936554 0 1.102006.646519 1.102006 1.541377l.006951 5.555995c0 2.877624 2.523578 5.21029 5.633786 5.21029l7.679096 0c .984466 0 1.845919-.623454 1.845919-1.581605z" fill="#c7f994" fill-rule="evenodd"/><path d="m29.130925 15.553522c-.700771 0-1.323426.260173-1.823719.765554-.500043.505111-.762596 1.135703-.762594 1.847347l0 3.597207 1.631595 0 0-3.597207c0-.272763.089001-.486043.283753-.682774.195393-.19736.402303-.286706.670965-.286706.274292 0 .478098.088896.673918.286706.194754.196731.283756.410011.283756.682774l0 3.597207 1.631593 0 0-3.597207c0-.272763.089002-.486043.283758-.682774.195818-.197809.399624-.286706.673921-.286706.268664 0 .475568.089346.670958.286706.194754.196731.283756.410011.283756.682774l.008867 4.203155c0 .896612-.853858 1.652273-1.950819 1.652273l-5.261297-.020686c-.846524 0-1.569524-.82396-1.569524-1.882839l0-7.915136-1.542919 0 0 8.219577c0 .872095.319121 1.636858.93994 2.255275.530629.523762 1.168784.863277 1.88579.939956l5.858369-.000014c.900225 0 1.691114-.334731 2.329159-.984301l.002961 0c .542651-.557528.859887-1.225569.936983-1.9774l-.005905-4.489861c0-.711644-.262544-1.342237-.762594-1.847347-.500287-.505381-1.122948-.765554-1.823715-.765554-.687862 0-1.289743.255785-1.77643.724164-.485264-.467607-1.082938-.724164-1.770516-.724164z" fill="#4c7523" fill-rule="evenodd" overflow="visible"/><path d="m27.281844 28.880003c-3.708742 0-6.927207-2.811577-6.927207-6.516995l-.003327-4.499177 0-1.147287-2.35131 0L18 11l9.915534.046696 3.101735.006672c3.712075 0 6.927205 2.80823 6.927205 6.516976l0 11.309657-10.662624 0 0 0 0 0zm9.151772-3.033812c0-2.463786 0-8.275845 0-8.275845 0-2.764861-2.42468-5.006124-5.416353-5.006124l-3.105067 0 0-.006672-8.39802-.036695 0 2.684837c0 0 .337305 0 .940745 0 .638687 0 1.407224.600201 1.407224 1.480977l.006672 5.67303c0 2.764863 2.424692 5.006122 5.413026 5.006122l7.378186 0c .945888 0 1.773586-.599024 1.773586-1.51963z" fill="#4c7523" fill-rule="evenodd" overflow="visible"/></svg>