<?xml version="1.0" encoding="UTF-8"?>
<svg xmlns="http://www.w3.org/2000/svg" xmlns:xlink="http://www.w3.org/1999/xlink" width="133pt" height="133pt" viewBox="0 0 133 133" version="1.1">
<g id="surface1">
<path style=" stroke:none;fill-rule:nonzero;fill:#101319;fill-opacity:1;" d="M 14.550781 5.695312 L 118.78125 5.695312 C 123.371094 5.695312 127.117188 9.441406 127.117188 14.03125 L 127.117188 118.75 C 127.117188 123.371094 123.371094 127.082031 118.78125 127.082031 L 14.550781 127.082031 C 9.960938 127.082031 6.21875 123.371094 6.21875 118.75 L 6.21875 14.03125 C 6.21875 9.441406 9.960938 5.695312 14.550781 5.695312 Z M 14.550781 5.695312 "/>
<path style=" stroke:none;fill-rule:nonzero;fill:#101319;fill-opacity:1;" d="M 16.667969 0 C 7.421875 0 0 7.421875 0 16.667969 L 0 116.667969 C 0 125.910156 7.421875 133.332031 16.667969 133.332031 L 116.667969 133.332031 C 125.910156 133.332031 133.332031 125.910156 133.332031 116.667969 L 133.332031 16.667969 C 133.332031 7.421875 125.910156 0 116.667969 0 Z M 16.667969 8.332031 L 116.667969 8.332031 C 121.289062 8.332031 125 12.042969 125 16.667969 L 125 116.667969 C 125 121.289062 121.289062 125 116.667969 125 L 16.667969 125 C 12.042969 125 8.332031 121.289062 8.332031 116.667969 L 8.332031 16.667969 C 8.332031 12.042969 12.042969 8.332031 16.667969 8.332031 Z M 16.667969 8.332031 "/>
<path style=" stroke:none;fill-rule:nonzero;fill:#f4f3ee;fill-opacity:0.15;" d="M 16.667969 0 C 7.421875 0 0 7.421875 0 16.667969 L 0 116.667969 C 0 125.910156 7.421875 133.332031 16.667969 133.332031 L 116.667969 133.332031 C 125.910156 133.332031 133.332031 125.910156 133.332031 116.667969 L 133.332031 16.667969 C 133.332031 7.421875 125.910156 0 116.667969 0 Z M 16.667969 8.332031 L 116.667969 8.332031 C 121.289062 8.332031 125 12.042969 125 16.667969 L 125 116.667969 C 125 121.289062 121.289062 125 116.667969 125 L 16.667969 125 C 12.042969 125 8.332031 121.289062 8.332031 116.667969 L 8.332031 16.667969 C 8.332031 12.042969 12.042969 8.332031 16.667969 8.332031 Z M 16.667969 8.332031 "/>
<path style=" stroke:none;fill-rule:nonzero;fill:#f4f3ee;fill-opacity:0.3;" d="M 97.101562 32.648438 C 94.074219 32.746094 91.046875 34.015625 88.898438 36.199219 L 55.304688 68.164062 L 43.816406 55.273438 C 39.714844 49.804688 30.730469 49.21875 25.976562 54.101562 C 21.222656 58.984375 21.875 68.164062 27.277344 72.265625 L 47.136719 93.621094 C 54.949219 101.433594 58.464844 100.390625 66.339844 92.480469 C 66.339844 92.480469 93.425781 59.894531 109.308594 48.894531 C 112.824219 45.574219 114.289062 44.628906 112.433594 40.136719 C 110.613281 35.613281 101.886719 32.488281 97.101562 32.648438 Z M 97.101562 32.648438 "/>
</g>
</svg>
