<?xml version="1.0" encoding="UTF-8"?>
<svg xmlns="http://www.w3.org/2000/svg" xmlns:xlink="http://www.w3.org/1999/xlink" width="133pt" height="133pt" viewBox="0 0 133 133" version="1.1">
<g id="surface1">
<path style=" stroke:none;fill-rule:nonzero;fill:#171b24;fill-opacity:1;" d="M 16.667969 8.332031 L 116.667969 8.332031 C 121.257812 8.332031 125 12.078125 125 16.667969 L 125 116.667969 C 125 121.257812 121.257812 125 116.667969 125 L 16.667969 125 C 12.078125 125 8.332031 121.257812 8.332031 116.667969 L 8.332031 16.667969 C 8.332031 12.078125 12.078125 8.332031 16.667969 8.332031 Z M 16.667969 8.332031 "/>
<path style=" stroke:none;fill-rule:nonzero;fill:#101319;fill-opacity:1;" d="M 16.667969 0 C 7.421875 0 0 7.421875 0 16.667969 L 0 116.667969 C 0 125.910156 7.421875 133.332031 16.667969 133.332031 L 116.667969 133.332031 C 125.910156 133.332031 133.332031 125.910156 133.332031 116.667969 L 133.332031 16.667969 C 133.332031 7.421875 125.910156 0 116.667969 0 Z M 16.667969 8.332031 L 116.667969 8.332031 C 121.289062 8.332031 125 12.042969 125 16.667969 L 125 116.667969 C 125 121.289062 121.289062 125 116.667969 125 L 16.667969 125 C 12.042969 125 8.332031 121.289062 8.332031 116.667969 L 8.332031 16.667969 C 8.332031 12.042969 12.042969 8.332031 16.667969 8.332031 Z M 16.667969 8.332031 "/>
<path style=" stroke:none;fill-rule:nonzero;fill:#f4f3ee;fill-opacity:0.30;" d="M 16.667969 0 C 7.421875 0 0 7.421875 0 16.667969 L 0 116.667969 C 0 125.910156 7.421875 133.332031 16.667969 133.332031 L 116.667969 133.332031 C 125.910156 133.332031 133.332031 125.910156 133.332031 116.667969 L 133.332031 16.667969 C 133.332031 7.421875 125.910156 0 116.667969 0 Z M 16.667969 8.332031 L 116.667969 8.332031 C 121.289062 8.332031 125 12.042969 125 16.667969 L 125 116.667969 C 125 121.289062 121.289062 125 116.667969 125 L 16.667969 125 C 12.042969 125 8.332031 121.289062 8.332031 116.667969 L 8.332031 16.667969 C 8.332031 12.042969 12.042969 8.332031 16.667969 8.332031 Z M 16.667969 8.332031 "/>
<path style=" stroke:none;fill-rule:nonzero;fill:#69bfce;fill-opacity:1;" d="M 33.332031 58.332031 L 100 58.332031 L 100 75 L 33.332031 75 Z M 33.332031 58.332031 "/>
</g>
</svg>
