<?xml version="1.0" encoding="UTF-8"?>
<svg xmlns="http://www.w3.org/2000/svg" xmlns:xlink="http://www.w3.org/1999/xlink" width="133pt" height="133pt" viewBox="0 0 133 133" version="1.1">
<g id="surface1">
<path style=" stroke:none;fill-rule:nonzero;fill:#101319;fill-opacity:1;" d="M 13.933594 5.175781 L 118.878906 5.175781 C 123.730469 5.175781 127.636719 9.015625 127.636719 13.800781 L 127.636719 117.414062 C 127.636719 122.199219 123.730469 126.042969 118.878906 126.042969 L 13.933594 126.042969 C 9.082031 126.042969 5.175781 122.199219 5.175781 117.414062 L 5.175781 13.800781 C 5.175781 9.015625 9.082031 5.175781 13.933594 5.175781 Z M 13.933594 5.175781 "/>
<path style=" stroke:none;fill-rule:nonzero;fill:#101319;fill-opacity:1;" d="M 16.667969 0 C 7.421875 0 0 7.421875 0 16.667969 L 0 116.667969 C 0 125.910156 7.421875 133.332031 16.667969 133.332031 L 116.667969 133.332031 C 125.910156 133.332031 133.332031 125.910156 133.332031 116.667969 L 133.332031 16.667969 C 133.332031 7.421875 125.910156 0 116.667969 0 Z M 16.667969 8.332031 L 116.667969 8.332031 C 121.289062 8.332031 125 12.042969 125 16.667969 L 125 116.667969 C 125 121.289062 121.289062 125 116.667969 125 L 16.667969 125 C 12.042969 125 8.332031 121.289062 8.332031 116.667969 L 8.332031 16.667969 C 8.332031 12.042969 12.042969 8.332031 16.667969 8.332031 Z M 16.667969 8.332031 "/>
<path style=" stroke:none;fill-rule:nonzero;fill:#f4f3ee;fill-opacity:0.15;" d="M 16.667969 0 C 7.421875 0 0 7.421875 0 16.667969 L 0 116.667969 C 0 125.910156 7.421875 133.332031 16.667969 133.332031 L 116.667969 133.332031 C 125.910156 133.332031 133.332031 125.910156 133.332031 116.667969 L 133.332031 16.667969 C 133.332031 7.421875 125.910156 0 116.667969 0 Z M 16.667969 8.332031 L 116.667969 8.332031 C 121.289062 8.332031 125 12.042969 125 16.667969 L 125 116.667969 C 125 121.289062 121.289062 125 116.667969 125 L 16.667969 125 C 12.042969 125 8.332031 121.289062 8.332031 116.667969 L 8.332031 16.667969 C 8.332031 12.042969 12.042969 8.332031 16.667969 8.332031 Z M 16.667969 8.332031 "/>
</g>
</svg>
