<?xml version="1.0" encoding="UTF-8"?>
<svg xmlns="http://www.w3.org/2000/svg" xmlns:xlink="http://www.w3.org/1999/xlink" width="133pt" height="133pt" viewBox="0 0 133 133" version="1.1">
<g id="surface1">
<path style=" stroke:none;fill-rule:nonzero;fill:#101319;fill-opacity:1;" d="M 67.21875 6.835938 C 101.171875 6.835938 128.710938 33.722656 128.710938 66.863281 C 128.710938 100 101.171875 126.855469 67.21875 126.855469 C 33.269531 126.855469 5.730469 100 5.730469 66.863281 C 5.730469 33.722656 33.269531 6.835938 67.21875 6.835938 Z M 67.21875 6.835938 "/>
<path style=" stroke:none;fill-rule:nonzero;fill:#101319;fill-opacity:1;" d="M 66.667969 0 C 29.851562 0 0 29.851562 0 66.667969 C 0 103.484375 29.851562 133.332031 66.667969 133.332031 C 103.484375 133.332031 133.332031 103.484375 133.332031 66.667969 C 133.332031 29.851562 103.484375 0 66.667969 0 Z M 66.667969 8.332031 C 98.894531 8.332031 125 34.441406 125 66.667969 C 125 98.894531 98.894531 125 66.667969 125 C 34.441406 125 8.332031 98.894531 8.332031 66.667969 C 8.332031 34.441406 34.441406 8.332031 66.667969 8.332031 Z M 66.667969 8.332031 "/>
<path style=" stroke:none;fill-rule:nonzero;fill:#f4f3ee;fill-opacity:0.15;" d="M 66.667969 0 C 29.851562 0 0 29.851562 0 66.667969 C 0 103.484375 29.851562 133.332031 66.667969 133.332031 C 103.484375 133.332031 133.332031 103.484375 133.332031 66.667969 C 133.332031 29.851562 103.484375 0 66.667969 0 Z M 66.667969 8.332031 C 98.894531 8.332031 125 34.441406 125 66.667969 C 125 98.894531 98.894531 125 66.667969 125 C 34.441406 125 8.332031 98.894531 8.332031 66.667969 C 8.332031 34.441406 34.441406 8.332031 66.667969 8.332031 Z M 66.667969 8.332031 "/>
<path style=" stroke:none;fill-rule:nonzero;fill:#f4f3ee;fill-opacity:0.3;" d="M 33.332031 58.332031 L 100 58.332031 L 100 75 L 33.332031 75 Z M 33.332031 58.332031 "/>
</g>
</svg>
