<?xml version="1.0" encoding="UTF-8"?>
<svg xmlns="http://www.w3.org/2000/svg" xmlns:xlink="http://www.w3.org/1999/xlink" width="133pt" height="133pt" viewBox="0 0 133 133" version="1.1">
<g id="surface1">
<path style=" stroke:none;fill-rule:nonzero;fill:#101319;fill-opacity:1;" d="M 66.144531 5.175781 C 100.976562 5.175781 129.199219 32.714844 129.199219 66.667969 C 129.199219 100.617188 100.976562 128.15625 66.144531 128.15625 C 31.316406 128.15625 3.058594 100.617188 3.058594 66.667969 C 3.058594 32.714844 31.316406 5.175781 66.144531 5.175781 Z M 66.144531 5.175781 "/>
<path style=" stroke:none;fill-rule:nonzero;fill:#101319;fill-opacity:1;" d="M 66.667969 0 C 29.851562 0 0 29.851562 0 66.667969 C 0 103.484375 29.851562 133.332031 66.667969 133.332031 C 103.484375 133.332031 133.332031 103.484375 133.332031 66.667969 C 133.332031 29.851562 103.484375 0 66.667969 0 Z M 66.667969 8.332031 C 98.894531 8.332031 125 34.441406 125 66.667969 C 125 98.894531 98.894531 125 66.667969 125 C 34.441406 125 8.332031 98.894531 8.332031 66.667969 C 8.332031 34.441406 34.441406 8.332031 66.667969 8.332031 Z M 66.667969 8.332031 "/>
<path style=" stroke:none;fill-rule:nonzero;fill:#f4f3ee;fill-opacity:0.15;" d="M 66.667969 0 C 29.851562 0 0 29.851562 0 66.667969 C 0 103.484375 29.851562 133.332031 66.667969 133.332031 C 103.484375 133.332031 133.332031 103.484375 133.332031 66.667969 C 133.332031 29.851562 103.484375 0 66.667969 0 Z M 66.667969 8.332031 C 98.894531 8.332031 125 34.441406 125 66.667969 C 125 98.894531 98.894531 125 66.667969 125 C 34.441406 125 8.332031 98.894531 8.332031 66.667969 C 8.332031 34.441406 34.441406 8.332031 66.667969 8.332031 Z M 66.667969 8.332031 "/>
</g>
</svg>
