<svg fill="#956449" height="48" version="1.1" viewBox="0 0 48 48" width="48" xmlns="http://www.w3.org/2000/svg"><path d="m20 0c-11.05 0-20 8.95-20 20 0 11.05 8.95 20 20 20 11.05 0 20-8.95 20-20 0-11.05-8.95-20-20-20zm0 29c-4.97 0-9-4.03-9-9 0-4.97 4.03-9 9-9 4.97 0 9 4.03 9 9 0 4.97-4.03 9-9 9zm0-11c-1.1 0-2 .9-2 2 0 1.1.9 2 2 2 1.1 0 2-.9 2-2 0-1.1-.9-2-2-2z"/><path d="m48 32l-6 0L42 43c0 2.76-2.24 5-5 5-2.76 0-5-2.24-5-5 0-2.76 2.24-5 5-5 1.13 0 2.16.39 3 1.02L40 28l8 0 0 4z" fill="#956449"/></svg>