<svg fill="#956449" height="48" version="1.1" viewBox="0 0 48 48" width="48" xmlns="http://www.w3.org/2000/svg"><path d="M11.636719 6C9.622173 6 8 7.561 8 9.5L8 14 12 14 12 10 44 10 44 30 40 30 40 34 44.363281 34C46.377827 34 48 32.439 48 30.5L48 9.5C48 7.561 46.377827 6 44.363281 6L11.636719 6z" fill="#956449" stroke-width="4"/><path d="m3.636719 14c-2.014546 0-3.636719 1.561-3.636719 3.5l0 21c0 1.939 1.622173 3.5 3.636719 3.5l32.726563 0c2.014546 0 3.636719-1.561 3.636719-3.5l0-21c0-1.939-1.622173-3.5-3.636719-3.5l-32.726563 0zm .363281 4l32 0 0 20-32 0 0-20z" fill="#956449" stroke-width="4"/></svg>