<svg fill="#956449" height="48" version="1.1" viewBox="0 0 48 48" width="48" xmlns="http://www.w3.org/2000/svg"><path d="m3.636719 14c-2.014546 0-3.636719 1.561-3.636719 3.5l0 21c0 1.939 1.622173 3.5 3.636719 3.5l32.726563 0c2.014546 0 3.636719-1.561 3.636719-3.5l0-21c0-1.939-1.622173-3.5-3.636719-3.5l-32.726563 0zm .363281 4l32 0 0 20-32 0 0-20zM14 10l4 0 0-4-4 0 0 4zm30 24c2.21 0 4-1.79 4-4l-4 0 0 4zm0-18l4 0L48 12l-4 0 0 4zm0 12l4 0 0-4-4 0 0 4zM24 6l-4 0L20 10l4 0 0-4zm20 0L44 10 48 10C48 7.79 46.21 6 44 6Zm-32 0C9.79 6 8 7.79 8 10l4 0 0-4zM32 10l4 0 0-4-4 0L32 10Zm6 0l4 0 0-4-4 0L38 10Zm-12 0l4 0 0-4-4 0L26 10Zm-14 2l-4 0 0 4 4 0 0-4zM44 22l4 0 0-4-4 0L44 22Zm-6 12l4 0 0-4-4 0 0 4z" stroke-width="4"/></svg>