<svg fill="#435813" height="48" version="1.1" viewBox="0 0 48 48" width="48" xmlns="http://www.w3.org/2000/svg"><g fill="#f36f24" transform="matrix(2.99999869 0 0 2.99999869 -1682.999844 -902.999594)"><ellipse color="#000" cx="323.0625" cy="97.1875" enable-background="new" fill="#f36f24" overflow="visible" rx="2" ry="3.236068" stroke-width="1.696027" transform="matrix(1.0000007 0 0 .61803426 241.93747 252.93479)"/><path color="#000" d="m563.0002 303l0 1c0 .55016.45347 1 1 1 4.97056 0 9 4.02944 9 9 0 .55016.45347 1 1 1l1 0 0-1c0-6.07513-4.92487-11-11-11l-1 0zm0 4l0 1c0 .55016.45347 1 1 1 2.76143 0 5 2.23857 5 5 0 .55016.45347 1 1 1l1 0 0-1c0-3.866-3.134-7-7-7l-1 0z" enable-background="new" fill="#f36f24" overflow="visible" stroke-width="1.333335"/></g></svg>