<svg fill="#435813" height="48" version="1.1" viewBox="0 0 48 48" width="48" xmlns="http://www.w3.org/2000/svg"><path d="M41.09 10.45L38.32 7.09C37.76 6.43 36.93 6 36 6L12 6C11.07 6 10.24 6.43 9.69 7.09L6.92 10.45C6.34 11.15 6 12.03 6 13l0 25c0 2.21 1.79 4 4 4l28 0c2.21 0 4-1.79 4-4l0-25c0-.97-.34-1.85-.91-2.55z"/><path d="m10.25 10l1.63-2 24 0 1.87 2-27.5 0z" fill="#fff"/><text fill="#fff" font-family="Roboto" font-size="12.5" font-weight="500" letter-spacing="0" line-height="120%" text-anchor="middle" word-spacing="0" writing-mode="lr" x="23.966894" xml:space="preserve" y="33.6875"><tspan x="23.966894" y="33.6875">lzo</tspan></text></svg>