<svg height="48" version="1.1" viewBox="0 0 48 48.301887" width="48" xmlns="http://www.w3.org/2000/svg" xmlns:xlink="http://www.w3.org/1999/xlink"><defs><linearGradient id="a" gradientUnits="userSpaceOnUse" x1="150" x2="299" y1="84" y2="84"><stop offset="0" stop-color="#dddce9"/><stop offset=".37" stop-color="#5664a3"/><stop offset="1"/></linearGradient><radialGradient id="b" cx="77.914261" cy="-48.544521" fx="77.914261" fy="-48.544521" gradientTransform="matrix(1.5089497 0 0 1.3582164 -39.028917 76.957747)" gradientUnits="userSpaceOnUse" r="146" xlink:href="#a"/></defs><g transform="matrix(.12176947 0 0 .12176947 5.73458 14.409387)"><ellipse cx="150" cy="80" fill="#6c7eb7" rx="146" ry="76" stroke="url(#b)" stroke-width="5.5"/><path id="c" d="m45 125l16-81 37 0c16 1 24 9 24 23 0 24-19 38-36 37l-18 0-4 21-19 0zm27-36l5-30 13 0c7 0 12 3 12 9-1 17-9 20-18 21l-12 0z" fill-rule="evenodd" stroke="#fff" stroke-linejoin="round" stroke-width="2"/><path d="m116 104l16-81 19 0-4 21 18 0c16 1 22 9 20 19l-7 41-20 0 7-37c1-5 1-8-6-8l-15 0-9 45-19 0z" stroke="#fff" stroke-linejoin="round" stroke-width="2"/><use height="100%" transform="translate(134)" width="100%" x="0" xlink:href="#c" y="0"/></g></svg>