<svg xmlns="http://www.w3.org/2000/svg" width="16" height="16">
  <path d="M8 0C3.6 0 0 3.6 0 8s3.6 8 8 8 8-3.6 8-8-3.6-8-8-8zm0 2c-.03 0 .03-.02.2.2.2.21.43.63.63 1.19.16.45.29 1 .4 1.61H6.77c.11-.6.24-1.16.4-1.61.2-.56.44-.98.62-1.2.18-.21.24-.19.21-.19zm-2.67.63l-.04.08A12.8 12.8 0 004.73 5H2.81a6 6 0 012.52-2.37zm5.34 0A6 6 0 0113.2 5h-1.92a12.8 12.8 0 00-.56-2.29l-.04-.08zM2.1 7h2.45c-.02.33-.04.66-.04 1 0 .34.02.67.04 1H2.09a6.04 6.04 0 010-2zm4.45 0h2.92c.02.33.04.66.04 1 0 .34-.02.67-.04 1H6.54c-.02-.33-.04-.66-.04-1 0-.34.02-.67.04-1zm4.92 0h2.45a6.04 6.04 0 010 2h-2.45c.02-.33.04-.66.04-1 0-.34-.02-.67-.04-1zm-8.65 4h1.92c.13.84.32 1.61.56 2.29l.04.08A6 6 0 012.8 11zm3.96 0h2.46c-.11.6-.24 1.16-.4 1.61-.2.56-.44.98-.62 1.2-.18.21-.24.19-.21.19s-.03.02-.2-.2a4.11 4.11 0 01-.63-1.19c-.16-.45-.29-1-.4-1.61zm4.5 0h1.92a6 6 0 01-2.52 2.37l.04-.08c.24-.68.43-1.45.56-2.29z"/>
</svg>
