<svg fill="#8C776C" height="48" version="1.1" viewBox="0 0 48 48" width="48" xmlns="http://www.w3.org/2000/svg"><path d="M8 8C5.79 8 4.019531 9.79 4.019531 12L4 36C4 38.21 5.79 40 8 40L40 40C42.21 40 44 38.21 44 36L44 16C44 13.79 42.21 12 40 12L24 12 20 8 8 8zM28.037109 16A10 10 0 0 1 37.238281 22.173828 10 10 0 0 1  33.556641 34.314453 10 10 0 0 1  20.929688 33.070313L22.345703 31.654297A8 8 0 0 0 28 34 8 8 0 0 0  36 26 8 8 0 0 0  28 18 8 8 0 0 0  20 26L23 26 19 30 15 26 18 26A10 10 0 0 1 26.048828 16.191406 10 10 0 0 1  28.037109 16zM27 22L29 22 29 26.664063 33.308594 28.449219 32.542969 30.296875 27 28 27 22z"/></svg>