<svg fill="#480062" height="38.183594" version="1.1" viewBox="0 0 38.183594 38.183594" width="38.183594" xmlns="http://www.w3.org/2000/svg"><path d="M2.828125 0L0 2.828125l12.183594 12.183594 0 3.171875c0 3.31 2.69 6 6 6 .926272 0 1.799515-.215175 2.580078-.591797L23.921875 26.75c-1.693292 1.039857-3.680109 1.632813-5.738281 1.632813-5.52 0-10.599609-4.199219-10.599609-10.199219l-3.400391 0c0 6.83 5.44 12.469453 12 13.439453l0 6.560547 4 0 0-6.560547c2.23218-.330063 4.330285-1.204634 6.130859-2.480469l9.041016 9.041016 2.828125-2.828125-8.953125-8.953125L26.882813 24.054688 23.582031 20.753906 12.183594 9.355469 2.828125 0Zm15.355469.183594c-2.572001 0-4.763114 1.621179-5.615234 3.900391l11.599609 11.599609.015625-9.5c0-3.32-2.68-6-6-6zm10.599609 18c0 .666177-.072715 1.305315-.191406 1.923828L31.304688 22.820313c.560994-1.447191.878906-3.006657.878906-4.636719l-3.400391 0z"/></svg>