<svg fill="#480062" height="48" version="1.1" viewBox="0 0 48 48" width="48" xmlns="http://www.w3.org/2000/svg"><path d="m22 2.069336c-7.89.98-14 7.701328-14 15.861328l14 0 0-15.861328zm4 0l0 15.861328 14 0C40 9.770664 33.89 3.049336 26 2.069336Zm-18 19.861328l0 8c0 2.91856.792558 5.644895 2.15625 8l27.6875 0c1.363692-2.355105 2.15625-5.08144 2.15625-8l0-8-32 0z" opacity=".3"/><path d="m10.15625 37.930664c2.766783 4.77825 7.92231 8 13.84375 8 5.92144 0 11.076967-3.22175 13.84375-8l-27.6875 0z"/></svg>