<svg fill="#480062" height="48" version="1.1" viewBox="0 0 48 48" width="48" xmlns="http://www.w3.org/2000/svg"><path d="M4.007813 26L4 34c0 2.21 1.79 4 4 4l32 0c2.21 0 4-1.79 4-4L44 26 4.007813 26ZM16 30l16 0 0 4-16 0 0-4z"/><path d="M8 10C5.79 10 4.021484 11.79 4.021484 14L4.007813 26 10 26l0-4 4 0 0 4 2 0 0-4 4 0 0 4 2 0 0-4 4 0 0 4 2 0 0-4 4 0 0 4 2 0 0-4 4 0 0 4 6 0 0-12c0-2.21-1.79-4-4-4L8 10Zm2 6l4 0 0 4-4 0 0-4zm6 0l4 0 0 4-4 0 0-4zm6 0l4 0 0 4-4 0 0-4zm6 0l4 0 0 4-4 0 0-4zm6 0l4 0 0 4-4 0 0-4z" opacity=".3"/></svg>