<svg fill="#480062" height="48" version="1.1" viewBox="0 0 48 48" width="48" xmlns="http://www.w3.org/2000/svg"><path d="M4.019531 14L4 34c0 2.21 1.79 4 4 4l32 0c2.21 0 4-1.79 4-4L44 14 4.019531 14ZM10 16l4 0 0 4-4 0 0-4zm6 0l4 0 0 4-4 0 0-4zm6 0l4 0 0 4-4 0 0-4zm6 0l4 0 0 4-4 0 0-4zm6 0l4 0 0 4-4 0 0-4zm-24 6l4 0 0 4-4 0 0-4zm6 0l4 0 0 4-4 0 0-4zm6 0l4 0 0 4-4 0 0-4zm6 0l4 0 0 4-4 0 0-4zm6 0l4 0 0 4-4 0 0-4zm-18 8l16 0 0 4-16 0 0-4z"/><path d="M8 10C5.79 10 4.021484 11.79 4.021484 14L44 14c0-2.21-1.79-4-4-4L8 10Z" opacity=".3"/></svg>