<svg fill="#480062" height="48" version="1.1" viewBox="0 0 48 48" width="48" xmlns="http://www.w3.org/2000/svg"><path d="M32 34.02V20h-4v14.02h-6L30 42l8-7.98h-6zM18 6l-8 7.98h6V28h4V13.98h6L18 6z"/><path d="m41.491821 99.694029c.56 0 1.09.08 1.63.16l5.37-7.16c-6.69-5.02-15-8-24-8-9 0-17.31 2.98-24 8l24 32 7-9.33 0-5.67c0-5.52 4.48-10 10-10z" fill="#480062"/><path d="m46.491821 112.694029l0-3c0-2.76-2.24-5-5-5-2.76 0-5 2.24-5 5l0 3c-1.1 0-2 .9-2 2l0 8c0 1.1.9 2 2 2l10 0c1.1 0 2-.9 2-2l0-8c0-1.1-.9-2-2-2z" fill="#480062"/><path d="m44.491821 112.694029l-6 0 0-3c0-1.66 1.34-3 3-3 1.66 0 3 1.34 3 3l0 3z" fill="#480062"/><path d="m43 32c-1.971429 0-3.571429 1.792-3.571429 4l0 2.4C38.642857 38.4 38 39.12 38 40l0 6.4C38 47.28 38.642857 48 39.428571 48l7.142857 0C47.357143 48 48 47.28 48 46.4L48 40c0-.88-.642857-1.6-1.428571-1.6l0-2.4c0-2.208-1.6-4-3.571429-4zm0 1.6c1.185714 0 2.142857 1.072 2.142857 2.4l0 2.4-4.285714 0 0-2.4c0-1.328.957143-2.4 2.142857-2.4z" fill="#480062"/></svg>