<svg fill="#480062" height="48" version="1.1" viewBox="0 0 48 48" width="48" xmlns="http://www.w3.org/2000/svg"><path d="M24 2L6 10 6 22C6 33.11 13.67 43.47 24 46 34.33 43.47 42 33.11 42 22l0-12zm0 4.380859l14 6.21875L38 23.980469 38 24 37.996094 24C36.929854 32.231958 31.444034 39.561443 24 41.849609 16.555966 39.561443 11.070146 32.231957 10.003906 24L10 24 10 23.980469 10 12.599609Z" fill="#f44336"/><g transform="translate(.005 -2.995)"><path d="m25.995 35.995l-4 0L21.995 31.995l4 0 0 4z" fill="#f44336"/><path d="m25.995 27.995l-4 0L21.995 17.995l4 0 0 10z" fill="#f44336"/></g></svg>