<svg fill="#480062" height="48" version="1.1" viewBox="0 0 48 48" width="48" xmlns="http://www.w3.org/2000/svg"><path d="M18.8 21L28.33 4.49C26.94 4.18 25.49 4 24 4c-4.8 0-9.19 1.69-12.64 4.51L18.69 21.2 18.8 21ZM43.08 18C41.24 12.15 36.78 7.48 31.09 5.32L23.77 18 43.08 18Zm .52 2l-14.98 0 .58 1 9.53 16.5C41.99 33.94 44 29.21 44 24 44 22.63 43.86 21.29 43.6 20ZM17.07 24L9.27 10.5C6.01 14.06 4 18.79 4 24c0 1.37.14 2.71.4 4L19.38 28 17.07 24ZM4.92 30C6.76 35.85 11.22 40.52 16.91 42.68L24.23 30 4.92 30ZM27.46 30L19.66 43.51c1.4.31 2.85.49 4.34.49 4.8 0 9.19-1.69 12.64-4.51L29.31 26.8 27.46 30Z"/></svg>