<svg height="48" version="1.1" width="48" xmlns="http://www.w3.org/2000/svg"><g transform="translate(-63.357422 -349)"/><g transform="translate(-63.357422 -349)"/><g transform="translate(-63.357422 -349)"><path d="m76.428223 355c-2.870821 0-5.176758 2.292572-5.176758 5.141602l0 25.716797C71.251465 388.710271 73.560244 391 76.428223 391l21.858398 0c2.870821 0 5.176758-2.292572 5.176758-5.141602l0-25.716797C103.463379 357.289729 101.1546 355 98.286621 355l-21.858398 0zm-1.480957 4.535156l24.820313 0 0 6.679688-24.820313 0 0-6.679688zm.421875 8.929688l3.65625 0c .2493 0 .421875.172575.421875.421875l0 3.65625c0 .2493-.172575.421875-.421875.421875l-3.65625 0c-.2493 0-.421875-.172575-.421875-.421875l0-3.65625c0-.2493.172575-.421875.421875-.421875zm6.75 0l3.65625 0c .2493 0 .421875.172575.421875.421875l0 3.65625c0 .2493-.172575.421875-.421875.421875l-3.65625 0c-.2493 0-.421875-.172575-.421875-.421875l0-3.65625c0-.2493.172575-.421875.421875-.421875zm6.75 0l3.65625 0c .2493 0 .421875.172575.421875.421875l0 3.65625c0 .2493-.172575.421875-.421875.421875l-3.65625 0c-.2493 0-.421875-.172575-.421875-.421875l0-3.65625c0-.2493.172575-.421875.421875-.421875zm6.75 0l3.65625 0c .2493 0 .421875.172575.421875.421875l0 3.65625c0 .2493-.172575.421875-.421875.421875l-3.65625 0c-.2493 0-.421875-.172575-.421875-.421875l0-3.65625c0-.2493.172575-.421875.421875-.421875zm-20.25 6.75l3.65625 0c .2493 0 .421875.172575.421875.421875l0 3.65625c0 .2493-.172575.421875-.421875.421875l-3.65625 0c-.2493 0-.421875-.172575-.421875-.421875l0-3.65625c0-.2493.172575-.421875.421875-.421875zm6.75 0l3.65625 0c .2493 0 .421875.172575.421875.421875l0 3.65625c0 .2493-.172575.421875-.421875.421875l-3.65625 0c-.2493 0-.421875-.172575-.421875-.421875l0-3.65625c0-.2493.172575-.421875.421875-.421875zm6.75 0l3.65625 0c .2493 0 .421875.172575.421875.421875l0 3.65625c0 .2493-.172575.421875-.421875.421875l-3.65625 0c-.2493 0-.421875-.172575-.421875-.421875l0-3.65625c0-.2493.172575-.421875.421875-.421875zm6.75 0l3.65625 0c .2493 0 .421875.172575.421875.421875l0 3.65625c0 .2493-.172575.421875-.421875.421875l-3.65625 0c-.2493 0-.421875-.172575-.421875-.421875l0-3.65625c0-.2493.172575-.421875.421875-.421875zm-20.25 6.75l3.65625 0c .2493 0 .421875.172575.421875.421875l0 3.65625c0 .2493-.172575.421875-.421875.421875l-3.65625 0c-.2493 0-.421875-.172575-.421875-.421875l0-3.65625c0-.2493.172575-.421875.421875-.421875zm6.75 0l3.65625 0c .2493 0 .421875.172575.421875.421875l0 3.65625c0 .2493-.172575.421875-.421875.421875l-3.65625 0c-.2493 0-.421875-.172575-.421875-.421875l0-3.65625c0-.2493.172575-.421875.421875-.421875zm6.75 0l3.65625 0c .2493 0 .421875.172575.421875.421875l0 3.65625c0 .2493-.172575.421875-.421875.421875l-3.65625 0c-.2493 0-.421875-.172575-.421875-.421875l0-3.65625c0-.2493.172575-.421875.421875-.421875zm6.75 0l3.65625 0c .2493 0 .421875.172575.421875.421875l0 3.65625c0 .2493-.172575.421875-.421875.421875l-3.65625 0c-.2493 0-.421875-.172575-.421875-.421875l0-3.65625c0-.2493.172575-.421875.421875-.421875z" fill="#480062"/></g><g transform="translate(-63.357422 -349)"/><g transform="translate(-63.357422 -349)"/><g transform="translate(-63.357422 -349)"/><g transform="translate(-63.357422 -349)"/></svg>