<svg fill="#435813" height="48" version="1.1" viewBox="0 0 48 48" width="48" xmlns="http://www.w3.org/2000/svg"><path d="M4.001953 32L4 34c0 2.21 1.79 4 4 4l32 0c2.21 0 4-1.79 4-4l0-2-12 0 0 2-16 0 0-2-11.998047 0z"/><path d="M8 10C5.79 10 4.019531 11.79 4.019531 14L4.001953 32 16 32l0-2 16 0 0 2 12 0 0-18c0-2.21-1.79-4-4-4L8 10Zm2 6l4 0 0 4-4 0 0-4zm6 0l4 0 0 4-4 0 0-4zm6 0l4 0 0 4-4 0 0-4zm6 0l4 0 0 4-4 0 0-4zm6 0l4 0 0 4-4 0 0-4zm-24 6l4 0 0 4-4 0 0-4zm6 0l4 0 0 4-4 0 0-4zm6 0l4 0 0 4-4 0 0-4zm6 0l4 0 0 4-4 0 0-4zm6 0l4 0 0 4-4 0 0-4z" opacity=".3"/></svg>