<svg fill="#435813" height="48" version="1.1" viewBox="0 0 48 40" width="48" xmlns="http://www.w3.org/2000/svg"><path d="M34 0L14 0c-2.21 0-4 1.79-4 4l0 32c0 2.21 1.79 3.98 4 3.98L34 40c2.21 0 4-1.79 4-4L38 4C38 1.79 36.21 0 34 0ZM24 4c2.21 0 4 1.79 4 4C28 10.21 26.21 12 24 12 21.79 12 20 10.21 20 8 20 5.79 21.79 4 24 4Zm0 32c-5.52 0-10-4.48-10-10 0-5.52 4.48-10 10-10 5.52 0 10 4.48 10 10 0 5.52-4.48 10-10 10zm0-16c-3.31 0-6 2.69-6 6 0 3.31 2.69 6 6 6 3.31 0 6-2.69 6-6 0-3.31-2.69-6-6-6z" opacity=".3"/></svg>