<svg height="48" version="1.1" width="48" xmlns="http://www.w3.org/2000/svg"><path d="M42 24A18 18 0 0 1 6 24 18 18 0 1 1  42 24Z"/><path d="m37.5 24a13.5 13.5 0 0 1 -27 0 13.5 13.5 0 1 1  27 0z" fill="#d9d9d9"/><path d="m24.328125 16.39455c-.341476.000011-.722096.010781-1.136719.035156-.390255.000014-.737625.087095-1.054688.257813-.121962.000011-.361672.010781-.703125.035156-.317083.000011-.523541.010781-.621094.035156-.219521.024405-.447514.056706-.691406.105469-.219488.024375-.425963.12225-.621075.29295l-.773438.773438c-.07317800000000001.121964-.137774.252108-.210938.398438-.048788.146354-.082038.309749-.082031.480469-.000007.390255.152622.726859.445313 1.019531.317066.268303.664436.398449 1.054688.398438.146333.000011.309728-.010755.480469-.035156C20.584805 20.167028 20.7482 20.134727 20.89455 20.085938l2.519531 0c .219501.00001.425959.065559.621094.1875.195109.121961.292956.284404.292969.503906-.000013.195132-.076327.347761-.222656.445313-.121964.07318-.27364.127011-.46875.175781-.195134.024401-.390829.057649-.585938.082031-.195134.000009-.347763.021544-.445313.070313-.048791.024398-.157404.067463-.328125.140625-.146352.048789-.244199.092805-.292969.117188-.341473.12196-.688845.186555-1.054688.210938-.365863.000009-.72495.097855-1.066406.292969-.487815.292691-.943796.662546-1.382813 1.101563-.414641.414641-.762964.871575-1.03125 1.359375-.048786.048787-.102616.124148-.175781.246094C17.224668 25.141488 17.191419 25.217798 17.191425 25.242188l0 1.828125c-.000006.000004.054777.163399.152344.480469.097555.292685.173867.520676.222656.691406.146336.487808.41739.91149.832031 1.277344.439016.341465.851936.645769 1.242188.914063-.000008.024386.03324.057641.082031.082031.073162.024386.116224.035156.140625.035156.121943.048781.361653.135861.703125.257813.365845.121951.604601.186548.726563.210938l.292969 0 .257813 0c .04877.02439.125085.013628.222656-.035156.04877-.02439.157382-.078221.328125-.175781.195111-.097561.314492-.163114.363281-.1875.414623-.170732.827543-.334127 1.242188-.480469.439013-.170731.895946-.246093 1.359375-.246094l.246094 0c .146327 0 .244173.010766.292969.035156.341448.146342.700538.308785 1.066406.503906.365838.170732.74646.257813 1.136719.257813.292666 0 .563723-.05383.832031-.175781.292665-.121951.564675-.296112.808594-.515625.243884-.219512.439579-.458269.585938-.726563.146322-.268291.222637-.551066.222656-.84375l0-.222656c-.024338-.097725-.079125-.282638-.152288-.55095-.0732-.268275-.11625-.453225-.140625-.5508l0-.105469c-.000019-.268289.010748-.540296.035156-.808594.048762-.268288.091829-.528578.140625-.796875-.000019-.024386-.000019-.079168 0-.152344-.000019-.097556-.000019-.195402 0-.292969.024368-.121946.046856-.230559.046875-.328125-.000019-.097555-.000019-.163106 0-.1875.048762-.170726.102591-.322402.175781-.46875.073152-.170725.117169-.355652.117188-.550781-.000019-.268285-.03327-.540293-.082031-.808594-.024409-.268284-.056706-.528574-.105469-.796875-.09758-.75609-.227724-1.408718-.398438-1.945313-.17075099999999999-.560963-.421226-1.039433-.738281-1.429688-.317091-.390233-.730009-.71607-1.242188-.984375-.487875-.292725-1.0965-.54225-1.828162-.761775C25.671581 16.492144 24.986681 16.394306 24.328144 16.394306Zm-1.019531 8.51955l1.347656 0c .097548.000006.184629.065555.257813.1875.097548.097567.163095.184647.1875.257813l0 .363281c-.000014.073175-.000014.171023 0 .292969-.000014.121956-.033263.219803-.082031.292969-.048794.048785-.14664.135866-.292969.257813-.121965.121956-.197324.197318-.246094.246094-.000013.048781-.04403.082035-.117188.082031l-.398438 0c-.341475.000004-.635018-.076311-.878906-.222656-.243914-.170727-.363293-.453502-.363281-.84375-.000011-.146336.043053-.331264.140625-.550781.09755-.243897.250179-.363275.445313-.363281z"/></svg>