<svg height="24" version="1.1" viewBox="0 0 24 24" width="24" xml:space="preserve" xmlns="http://www.w3.org/2000/svg" xmlns:xlink="http://www.w3.org/1999/xlink"><filter id="a" color-interpolation-filters="sRGB"><feGaussianBlur stdDeviation="1.71"/></filter><g display="none" transform="translate(-2 -70)"><g display="inline" filter="url(#a)" opacity=".9"><linearGradient id="b" gradientTransform="matrix(1.0059 0 0 -.9942 9.9104 69.4184)" gradientUnits="userSpaceOnUse" x1="37.867699" x2="37.867699" y1="-22.7129" y2="62.785599"><stop offset="0"/><stop offset="1" stop-opacity=".5882"/></linearGradient><path d="m12 7l72 0c3.866 0 7 3.134 7 7l0 71c0 3.866-3.134 7-7 7L12 92C8.134 92 5 88.866 5 85L5 14C5 10.134 8.134 7 12 7Z" fill="url(#b)"/></g></g><path d="M12.583593 7.689031L10.284375 13.110937l3.171093 0zM5 3C3.892 3 3 3.892 3 5l0 14c0 1.108.892 2 2 2l14 0c1.108 0 2-.892 2-2L21 5C21 3.892 20.108 3 19 3L5 3Zm6.753906 1.974609c.0093-.00103.018014-.00103.027344 0l2.763672 0c .05987-.000184.116756.046899.126953.105469l2.277344 12.847656c.01196.07254-.050958.146603-.125.146484l-2.490234 0c-.05987.000184-.116757-.046901-.126953-.105469l-.492188-2.882813-4.316406 0-1.349609 2.917969c-.020817.04138-.066697.069563-.113281.070313l-2.109375 0c-.085527-.0017-.148822-.105303-.111328-.181641l5.955078-12.847656c.01575-.034289.047234-.060854.083984-.070313z" fill="#f44336"/></svg>