<svg fill="#8C776C" height="34" version="1.1" viewBox="0 0 34 34" width="34" xmlns="http://www.w3.org/2000/svg"><path d="m4 4l0 6 6 0 0-6-6 0z" fill="#d50f25"/><path d="m14 4l0 6 6 0 0-6-6 0z" fill="#d50f25"/><path d="m24 4l0 6 6 0 0-6-6 0z" fill="#d50f25"/><path d="m4 14l0 6 6 0 0-6-6 0z" fill="#009925"/><path d="m14 14l0 6 6 0 0-6-6 0z" fill="#3369e8"/><path d="m24 14l0 6 6 0 0-6-6 0z" fill="#eeb211"/><path d="m4 24l0 6 6 0 0-6-6 0z" fill="#009925"/><path d="m14 24l0 6 6 0 0-6-6 0z" fill="#eeb211"/><path d="m24 24l0 6 6 0 0-6-6 0z" fill="#eeb211"/></svg>