<svg fill="#8C776C" height="24" version="1.1" viewBox="0 0 34 24" width="34" xmlns="http://www.w3.org/2000/svg"><path d="M12.709091 14.818182C11.809091 12.276364 9.392727 10.454545 6.545455 10.454545 2.929091 10.454545 0 13.383636 0 17c0 3.616364 2.929091 6.545455 6.545455 6.545455 2.847273 0 5.263636-1.821818 6.163636-4.363636l4.745455 0 0 4.363636 4.363636 0 0-4.363636 2.181818 0 0-4.363636-11.290909 0zm-6.163636 4.363636c-1.205455 0-2.181818-.976364-2.181818-2.181818 0-1.205455.976364-2.181818 2.181818-2.181818 1.205455 0 2.181818.976364 2.181818 2.181818 0 1.205455-.976364 2.181818-2.181818 2.181818z"/><path d="M22.709091 4.818182C21.809091 2.276364 19.392727.454545 16.545455.454545 12.929091.454545 10 3.383636 10 7c0 3.616364 2.929091 6.545455 6.545455 6.545455 2.847273 0 5.263636-1.821818 6.163636-4.363636l4.745455 0 0 4.363636 4.363636 0 0-4.363636 2.181818 0 0-4.363636-11.290909 0zM16.545455 9.181818c-1.205455 0-2.181818-.976364-2.181818-2.181818 0-1.205455.976364-2.181818 2.181818-2.181818 1.205455 0 2.181818.976364 2.181818 2.181818 0 1.205455-.976364 2.181818-2.181818 2.181818z"/></svg>