<svg fill="#bdbdbd" height="48" version="1.1" viewBox="0 0 48 48" width="48" xmlns="http://www.w3.org/2000/svg"><path d="m24 20c-2.21 0-4 1.79-4 4 0 2.21 1.79 4 4 4 2.21 0 4-1.79 4-4 0-2.21-1.79-4-4-4zM38 6L10 6C7.79 6 6 7.79 6 10l0 28c0 2.21 1.79 4 4 4l28 0c2.21 0 4-1.79 4-4L42 10C42 7.79 40.21 6 38 6Zm-3.5 18c0 .46-.04.92-.1 1.37l2.96 2.32c.26.21.34.59.16.89L34.72 33.43c-.17.3-.54.42-.86.3L30.37 32.32C29.65 32.88 28.86 33.34 28 33.7l-.52 3.71C27.44 37.74 27.15 38 26.8 38l-5.6 0c-.35 0-.64-.26-.69-.59L19.99 33.7c-.85-.35-1.64-.82-2.37-1.38l-3.48 1.4c-.32.12-.68 0-.86-.3l-2.8-4.85c-.18-.3-.1-.68.16-.89l2.96-2.31c-.06-.45-.1-.9-.1-1.37 0-.46.04-.92.1-1.37l-2.96-2.31c-.26-.21-.34-.59-.16-.89l2.8-4.85c.18-.3.54-.42.86-.3l3.48 1.4c.72-.55 1.51-1.02 2.37-1.38l.52-3.71c.05-.33.34-.59.69-.59L26.8 10c .35 0 .64.26.69.59l.52 3.71c.85.35 1.64.82 2.37 1.38l3.48-1.4c.32-.12.68 0 .86.3l2.8 4.85c.18.3.1.68-.16.89l-2.96 2.32c.06.44.1.9.1 1.36z"/></svg>