<svg fill="#8C776C" height="48" version="1.1" viewBox="0 0 48 48" width="48" xmlns="http://www.w3.org/2000/svg"><g><path d="M8 4C5.784 4 4 5.784 4 8L4 23 4 25 4 40C4 42.216 5.784 44 8 44L23 44 25 44 40 44C42.216 44 44 42.216 44 40L44 8C44 5.784 42.216 4 40 4L25 4 23 4 8 4zM8 8L23 8 23 23 8 23 8 8zM25 8L40 8 40 23 25 23 25 8zM8 25L23 25 23 40 8 40 8 25zM25 25L40 25 40 40 25 40 25 25z" fill="#8C776C" stroke-width="3"/><path d="M8 8H23V23H8Z" fill="#8C776C" opacity=".3" stroke-width="3"/></g></svg>