<svg height="48" version="1.1" viewBox="0 0 48 48" width="48" xmlns="http://www.w3.org/2000/svg" xmlns:xlink="http://www.w3.org/1999/xlink"><defs><linearGradient id="a" gradientTransform="matrix(.16113666 0 0 .16109493 3.416919 3.446971)" gradientUnits="userSpaceOnUse" x1="164" x2="109" xlink:href="#b" y1="161" y2="217"/><linearGradient id="b" gradientUnits="userSpaceOnUse" x2="0" y1="140" y2="60"><stop offset="0%" stop-opacity=".15"/><stop offset="30%" stop-opacity=".06"/><stop offset="100%" stop-opacity=".03"/></linearGradient><linearGradient id="c" gradientTransform="matrix(.16113666 0 0 .16109493 3.416919 3.446971)" gradientUnits="userSpaceOnUse" x1="139" x2="147" xlink:href="#b" y1="179" y2="100"/><linearGradient id="d" gradientTransform="matrix(.16113666 0 0 .16109493 3.416919 3.446971)" gradientUnits="userSpaceOnUse" x2="0" xlink:href="#b" y1="140" y2="60"/></defs><ellipse cx="24.042412" cy="24.067122" fill="#fff" rx="17.725033" ry="17.720442"/><ellipse cx="24.042412" cy="24.067122" fill="#3369e8" rx="6.606603" ry="6.604892"/><path d="M40.156077 16.012376A18.047306 18.042632 0 0 0 9.056702 13.918142L16.307852 26.483546a8.056833 8.054746 0 0 1 7.573423-10.47117" fill="#d50f25"/><path d="M9.056702 13.918142A18.047306 18.042632 0 0 0 22.592181 41.948658L30.165604 29.061064A8.056833 8.054746 0 0 1 16.307852 26.483546" fill="#009925"/><path d="M22.592181 41.948658A18.047306 18.042632 0 0 0 40.156077 16.012376l-16.274803 0a8.056833 8.054746 0 0 1 6.28433 13.048689" fill="#eeb211"/><path d="M9.056702 13.918142L16.307852 26.483546a8.056833 8.054746 0 0 1  .322273-5.477227L9.378975 13.434857" fill="url(#d)"/><path d="M22.592181 41.948658L30.165604 29.061064A8.056833 8.054746 0 0 1 25.492641 31.799678L22.269908 41.948658" fill="url(#a)"/><path d="m40.156077 16.012376l-16.274803 0a8.056833 8.054746 0 0 1 6.28433 3.060804l10.312746-2.577519" fill="url(#c)"/></svg>