<svg height="734" version="1.1" viewBox="0 0 602 734" width="602" xmlns="http://www.w3.org/2000/svg" xmlns:xlink="http://www.w3.org/1999/xlink"><defs><linearGradient id="a" x1="50%" x2="50%" y1="0%" y2="100%"><stop offset="0%" stop-color="#16b0ed" stop-opacity=".800236"/><stop offset="100%" stop-color="#0f59b2" stop-opacity=".837"/></linearGradient><linearGradient id="b" x1="50%" x2="50%" y1="0%" y2="100%"><stop offset="0%" stop-color="#7db643"/><stop offset="100%" stop-color="#367533"/></linearGradient><linearGradient id="c" x1="50%" x2="50%" y1="0%" y2="100%"><stop offset="0%" stop-color="#88c649" stop-opacity=".8"/><stop offset="100%" stop-color="#439240" stop-opacity=".84"/></linearGradient></defs><g fill="none" fill-rule="evenodd"><g transform="translate(2 3)"><path d="M0 155.5704L155-1 154.999997 727 0 572.237919 0 155.5704Z" fill="url(#a)"/><path d="M443.060403 156.982405L600-1 596.818792 727 442 572.219941 443.060403 156.982405Z" fill="url(#b)" transform="matrix(-1 0 0 1 1042 0)"/><path d="M154.986294 0L558 615.189696 445.224605 728 42 114.172017 154.986294 0Z" fill="url(#c)"/><path d="M155 283.83232L154.786754 308 31 124.710606 42.461949 113 155 283.83232Z" fill="#000" fill-opacity=".13"/></g></g></svg>