<svg fill="#8C776C" height="48" version="1.1" viewBox="0 0 48 48" width="48" xmlns="http://www.w3.org/2000/svg"><path d="m44 11.58l-9.19-7.71-2.57 3.06 9.19 7.71 2.57-3.06z"/><path d="m15.76 6.92l-2.57-3.06L4 11.57 6.57 14.63 15.76 6.92Z"/><path d="M23.990234 8.14C14.040234 8.14 6 16.2 6 26.14c0 9.94 8.040234 18 17.990234 18C33.940234 44.14 42 36.08 42 26.14 42 16.2 33.940234 8.14 23.990234 8.14ZM24 12.14c7.73 0 14 6.27 14 14 0 7.73-6.26 14-14 14-7.73 0-14-6.27-14-14 0-7.73 6.27-14 14-14z"/><text fill="#8C776C" font-family="Roboto" font-size="15" letter-spacing="0" line-height="125%" text-anchor="middle" word-spacing="0" x="23.939575" xml:space="preserve" y="33.849998"><tspan font-family="Roboto" font-size="22.5" font-weight="bold" line-height="125%" text-anchor="middle" x="23.939575" y="33.849998">Z</tspan></text></svg>