<svg height="48" version="1.1" viewBox="0 0 36 35.999999" width="48" xmlns="http://www.w3.org/2000/svg"><path d="m11.622519 12l18.75496 0c .621891 0 1.12252.340285 1.12252.762857l0 4.474285c0 .422572-.500629.762857-1.12252.762857l-18.75496 0c-.621891 0-1.12252-.340285-1.12252-.762857l0-4.474285c0-.422572.500629-.762857 1.12252-.762857m0-7.5l18.75496 0c .621891 0 1.12252.340286 1.12252.762857l0 4.474285c0 .422572-.500629.762857-1.12252.762857l-18.75496 0c-.621891 0-1.12252-.340285-1.12252-.762857l0-4.474285c0-.422571.500629-.762857 1.12252-.762857m0 15l18.75496 0c .621891 0 1.12252.340285 1.12252.762857l0 4.474285c0 .422572-.500629.762857-1.12252.762857l-18.75496 0c-.621891 0-1.12252-.340285-1.12252-.762857l0-4.474285c0-.422572.500629-.762857 1.12252-.762857M4.5 7.500001l0 20.999999c0 1.657498 1.3425 2.999998 3 2.999998l20.999999 0 0-2.999998-20.999999 0 0-20.999999-3 0z" fill="#8C776C"/></svg>