<svg height="111.092995" version="1.0" width="111.092995" xmlns="http://www.w3.org/2000/svg" xmlns:xlink="http://www.w3.org/1999/xlink"><defs><linearGradient id="a" gradientTransform="scale(1.0058652 .994169)" gradientUnits="userSpaceOnUse" x1="45.447727" x2="45.447727" y1="92.539597" y2="7.01654"><stop offset="0"/><stop offset="1" stop-opacity=".588235"/></linearGradient><filter id="b" color-interpolation-filters="sRGB"><feGaussianBlur stdDeviation="1.71"/></filter><filter id="c" color-interpolation-filters="sRGB"><feGaussianBlur stdDeviation="1.71"/></filter><linearGradient id="d" gradientTransform="scale(1.0058652 .994169)" gradientUnits="userSpaceOnUse" x1="45.447727" x2="45.447727" xlink:href="#a" y1="92.539597" y2="7.01654"/><linearGradient id="e" gradientTransform="scale(1.0058652 .994169)" gradientUnits="userSpaceOnUse" x1="45.447727" x2="45.447727" xlink:href="#a" y1="92.539597" y2="7.01654"/></defs><g transform="matrix(1.32253562 0 0 1.32253562 -7.935211 -7.935211)"><rect height="63.522396" rx="7.058044" ry="7.058044" stroke-width="2" transform="matrix(.70710678 -.70710678 .70710678 .70710678 0 0)" width="63.522396" x="-31.761198" y="36.121052"/><rect fill="#000080" height="60.49752" rx="6.721947" ry="6.721947" stroke-width="2" transform="matrix(.70710678 -.70710678 .70710678 .70710678 0 0)" width="60.49752" x="-30.24876" y="37.633492"/><path d="m48 8c-1.718258 0-3.437288.657991-4.753906 1.974609L9.974609 43.246094c-2.633236 2.633236-2.633236 6.874576 0 9.507813L25.222656 68 68 25.222656 52.753906 9.974609C51.437288 8.657991 49.718258 8 48 8Z" fill="#0f0" stroke-width="2"/><g fill="#008000" transform="matrix(1.12886935 -1.12886935 1.12886935 1.12886935 7.360703 48)"><rect fill="#008000" height="36" rx="4" ry="4" stroke-width="2" width="36" x="0" y="0"/></g></g><path d="m10.62317 21.430463l26.43427 0 1.61049 1.612652 0 4.949186-1.277286 1.557044-2.887778 0 0 24.5791 24.879311-24.5791-4.109529 0-1.44389-1.557044 0-5.227229 1.332822-1.223393 26.767474 0 1.332819 1.334611 0 4.893576-60.532249 62.170654999999999-6.886238 0-1.993252-1.15235 0-59.461259-3.33803 0-1.22175-1.223393 0-5.227229 1.332817-1.445826z" fill="#c0c0c0" stroke="#000" stroke-width="4.401037"/><path d="m37.338397 23.946027l1.492207-.786427-1.531475-1.533533-26.663373 0-1.354768 1.356586 0 5.13144 1.502024 1.504042.716654-1.504042-.942445-.943714 0-3.617567.706834-.62914 25.446048 0 .628295 1.022355z" fill="#fff" stroke="#000" stroke-width=".220052"/><path d="m15.621248 27.9923l0 60.057518.777478.889742-.609701 1.163555-1.722734-1.719644 0-58.834127z" fill="#fff" stroke="#000" stroke-width=".220052"/><path d="m11.31359 27.9923l-.444275 1.445828 3.220984 0 1.777094-1.445828-4.553803 0z" fill="#808080" stroke="#000" stroke-width=".220052"/><path d="m55.559026 29.61617l.706834-1.45489-1.020984-.943714 0-3.224351 1.178059-1.179645 24.582138 0 .942445 1.258286 1.335132-.943714-1.3744-1.376248-26.427764 0-1.315495 1.317267 0 5.170758 1.364583 1.287778m-21.357205 24.828497l-2.567185 6.23735 28.980221-29.097813 0-3.46028-26.413036 26.320743z" fill="#fff" stroke="#000" stroke-width=".220052"/><path d="m37.279573 23.766031l1.277288-.834132 0 5.060401-1.471656 1.473633-2.86001 0 0 24.940551-2.610108 6.172581 0-32.586766 4.775941 0 .888544-.722914 0-3.503355z" fill="#808080" stroke="#000" stroke-width=".220052"/><path d="m81.947519 23.788742l1.341424-.775513 0 4.864934-60.842003 62.254702-6.459499 0 .617141-1.227933 4.947844 0 60.316557-62.363692z" fill="#808080" stroke="#000" stroke-width=".220052"/><path d="m60.465094 28.075711l-1.360584 1.418026-3.55419 0 .833014-1.418026c.027768 0 4.081761 0 4.081761 0z" fill="#808080" stroke="#000" stroke-width=".220052"/><g fill="#c0c0c0" transform="matrix(.21990411 0 0 .22019967 -41.956726 -60.136832)"><path d="m400.03125 559.986328a1.23301 1.23301 0 0 0 -.802734.296875l-5.3125 4.5625a1.23301 1.23301 0 0 0 -.357422.521484l-5.3125 14.875a1.23301 1.23301 0 0 0  .289063 1.285156l4.0625 4.0625a1.23301 1.23301 0 0 0  .871094.361328l16.40625 0a1.23301 1.23301 0 0 0  .875-.363281l4.28125-4.3125a1.23301 1.23301 0 0 0  .308594-.523438l4.5625-15.65625a1.23301 1.23301 0 0 0 -.3125-1.216797l-3.53125-3.53125A1.23301 1.23301 0 0 0 415.1875 559.986328l-15.15625 0zm-30.0625 41.9375a1.23301 1.23301 0 0 0 -1.195313.931641l-2.03125 8.0625a1.23301 1.23301 0 0 0 1.195313 1.533203l9.636719 0-23.925781 68.328125a1.23301 1.23301 0 0 0 1.164063 1.640625l34.84375 0a1.23301 1.23301 0 0 0 1.177734-.867188l2.28125-7.34375A1.23301 1.23301 0 0 0 391.9375 672.611328l-7.867188 0 23.689453-69.054688a1.23301 1.23301 0 0 0 -1.166016-1.632813l-36.625 0zm110.875.25a1.23301 1.23301 0 0 0 -.923828.416016l-7.226563 8.177734-11.544922 0-7.699219-7.96875a1.23301 1.23301 0 0 0 -.886719-.375l-27.53125 0a1.23301 1.23301 0 0 0 -1.169922.841797l-2.53125 7.5625A1.23301 1.23301 0 0 0 422.5 612.451172l7.373047 0-22.947266 67.589844a1.23301 1.23301 0 0 0 1.167969 1.628906l29.3125 0a1.23301 1.23301 0 0 0 1.166016-.833984l2.25-6.59375A1.23301 1.23301 0 0 0 439.65625 672.611328l-5.126953 0 14.623047-46.003906 26.482422 0-16.6875 53.462891A1.23301 1.23301 0 0 0 460.125 681.669922l28.28125 0a1.23301 1.23301 0 0 0 1.138672-.757813l2.53125-6.0625A1.23301 1.23301 0 0 0 490.9375 673.142578l-5.126953 0 14.873047-46.785156 25.197266 0-16.931641 53.708984A1.23301 1.23301 0 0 0 510.125 681.669922l31.0625 0a1.23301 1.23301 0 0 0 1.150391-.791016l2.53125-6.59375A1.23301 1.23301 0 0 0 543.71875 672.611328l-6.173828 0 18.726563-60.779297a1.23301 1.23301 0 0 0 -.189453-1.099609l-5.8125-7.8125a1.23301 1.23301 0 0 0 -.988281-.496094l-22.21875 0a1.23301 1.23301 0 0 0 -.912109.402344l-6.976563 7.660156-12.287109 0-7.226563-7.912109A1.23301 1.23301 0 0 0 498.75 602.173828l-17.90625 0z" fill="#c0c0c0" stroke="#000" stroke-miterlimit="10" stroke-width="8"/><path d="m400.03125 561.21875l-5.3125 4.5625-5.3125 14.875 4.0625 4.0625 16.40625 0 4.28125-4.3125 4.5625-15.65625-3.53125-3.53125-15.15625 0zm-30.0625 41.9375l-2.03125 8.0625 11.375 0-24.5 69.96875 34.84375 0 2.28125-7.34375-9.59375 0 24.25-70.6875-36.625 0zm110.875.25L473.25 612l-12.625 0-8.0625-8.34375-27.53125 0-2.53125 7.5625 9.09375 0-23.5 69.21875 29.3125 0 2.25-6.59375-6.8125 0 15.40625-48.46875 29.0625 0-17.1875 55.0625 28.28125 0 2.53125-6.0625-6.8125 0 15.65625-49.25 27.78125 0-17.4375 55.3125 31.0625 0 2.53125-6.59375-7.84375 0 19.21875-62.375-5.8125-7.8125-22.21875 0-7.34375 8.0625-13.375 0-7.59375-8.3125-17.90625 0z" fill="#c0c0c0" stroke="#000" stroke-miterlimit="10"/></g><g display="none" transform="translate(-5.999933 7.546498)"><rect fill="url(#e)" filter="url(#b)" height="85" opacity=".9" rx="6" ry="6" width="86" x="5" y="7"/></g><g transform="matrix(1.2476977 -1.2476977 1.2476977 1.2476977 -2.917049 55.5465)"/><g display="none" transform="translate(-375.907262 -86.755618)"><rect fill="url(#d)" filter="url(#c)" height="85" opacity=".9" rx="6" ry="6" width="86" x="5" y="7"/></g><g transform="matrix(1.2476977 -1.2476977 1.2476977 1.2476977 -372.824378 -38.755617)"/><g fill="#c0c0c0" stroke="#000" stroke-width="2.107143" transform="matrix(1.24767497 0 0 .94536204 -391.828109 -86.635178)"/></svg>