<svg height="256" version="1.1" width="256" xmlns="http://www.w3.org/2000/svg"><g transform="translate(0 -796.36218)"><path d="m31-39a128 128 0 1 1 -256 0 128 128 0 1 1  256 0z" fill="#00aade" transform="matrix(0 1 -1 0 89 1021.3622)"/><path d="m176.71247 843.52721c-8.77257 1.33197-13.05793 55.65997-9.13767 63.00177 6.7093-4.38075 16.71593-25.32353 19.83835-32.46275-2.43538 6.62425-5.4897 38.0344-4.23218 38.40222 2.65019 3.54452 38.60951-55.74065 28.15842-59.9719-1.50218-.60818-11.59641 17.93248-20.00667 36.8392.0957-8.08746 6.62958-32.52417 3.96767-39.94119-5.32564-1.57757-15.44977 21.63041-19.59787 32.48678-1.29688-5.51301 5.68984-35.67969 1.00995-38.35413zm-79.329316 5.72306c-2.6597.0628-4.74579.86988-5.482598.86568-17.025673 2.39218-11.927898 26.2669-4.713109 48.64601.615974 5.72855-5.331508 3.33036-9.2098-2.66916-13.080129-32.0118-18.860516-30.97873-22.507501-31.90966-3.493318-.72011-15.635249 5.66221-15.365698 18.61196.04563 3.72012 4.678483 21.25015 4.71311 26.69159-15.33458 26.33824-21.576876 52.40121-2.356554 79.35337 19.381796 25.68224 77.066126 26.53944 87.384886 20.48754 3.9367-2.7652 62.80616-31.76936 76.3716-43.01909 20.22336-16.72493-.52536-37.7963-5.41045-40.73473-41.89997-27.40422-84.72782-21.69628-85.29285-26.04233-.29633-5.02342-.12001-18.98917-.84162-23.95029-2.84387-23.08666-11.43809-26.46909-17.289416-26.33089zm56.821816 85.67759c-1.47518 8.05817-17.65675 26.06496-22.67583 31.28447 3.77395-4.25868 33.34163-20.2391 34.19409-19.18909 4.29397 1.07196-35.12111 52.22068-43.06724 44.22154-1.14214-1.14976 8.7295-15.3481 24.8881-27.77375-7.42024 3.21806-28.96994 15.02195-36.8392 15.43783-3.51566-4.30015 19.0979-18.66837 23.92625-26.93204-5.58533.9377-35.086916 14.79849-39.364076 11.51826-2.1668-8.60449 49.555876-23.6654 58.937906-28.56722z" fill="#fff" fill-rule="evenodd"/></g></svg>