<svg fill="#956449" height="48" version="1.1" viewBox="0 0 48 48" width="48" xmlns="http://www.w3.org/2000/svg"><path d="m8 12l-4 0 0 28c0 2.21 1.79 4 4 4l28 0 0-4-28 0 0-28z"/><path d="m16 4c-2.21 0-4 1.79-4 4l0 24c0 2.21 1.79 4 4 4l24 0c2.21 0 4-1.79 4-4L44 8C44 5.79 42.21 4 40 4L16 4Z"/><path d="m18 11l9.943359.046875 3.109375.005859C34.774824 11.052734 38 13.868784 38 17.587891l0 11.341797-10.693359 0c-3.719249 0-6.945313-2.819387-6.945313-6.535156l-.003906-4.511719 0-1.150391-2.357422 0L18 11Z" fill="#fff"/><path d="m19.517578 12.525391l0 2.691406.943359 0c .640589 0 1.412109.601187 1.412109 1.484375L21.878906 22.390625c0 2.77257 2.431456 5.019531 5.427734 5.019531l7.398438 0c .948526 0 1.779297-.600266 1.779297-1.523438l0-8.298828c0-2.77257-2.431811-5.019531-5.431641-5.019531l-3.113281 0 0-.007813-8.421875-.035156z" fill="#956449"/><path d="m23.332031 14.212891l1.548828 0 0 7.9375c0 1.0618.723379 1.886719 1.572266 1.886719l5.277344.021484c1.099724 0 1.955078-.757153 1.955078-1.65625L33.677734 18.1875c0-.273564-.089855-.488257-.285156-.685547C33.196638 17.304095 32.988195 17.214844 32.71875 17.214844c-.275055 0-.479415.088754-.675781.287109-.195514.19729-.283203.412054-.283203.685547l0 3.605469-1.636719 0 0-3.605469c0-.273564-.089855-.488257-.285156-.685547-.196367-.198355-.400726-.287109-.675781-.287109-.269445 0-.475934.08918-.671875.287109-.195514.19729-.285156.412054-.285156.685547l0 3.605469-1.636719 0 0-3.605469c0-.713028.26228-1.34701.763672-1.853516.501676-.506789 1.127348-.767578 1.830078-.767578l.001953 0c .68952 0 1.2887710000000002.257626 1.775391.726563.487827-.469647 1.091445-.726563 1.78125-.726563.70273 0 1.326733.260789 1.828125.767578C35.050291 16.840206 35.3125 17.473762 35.3125 18.1875l.005859 4.501953c-.077268.753934-.395308 1.423363-.939453 1.982422l-.001953 0c-.639807.651383-1.433219.988281-2.335938.988281l-5.875 0c-.718993-.076913-1.358553-.418176-1.890625-.943359-.62255-.620277-.943359-1.387195-.943359-2.261719l0-8.242187z" fill="#fff"/></svg>