<svg fill="#956449" height="48" version="1.1" viewBox="0 0 48 48" width="48" xmlns="http://www.w3.org/2000/svg" xmlns:xlink="http://www.w3.org/1999/xlink"><defs><clipPath id="a" clipPathUnits="userSpaceOnUse"><g><path d="M-35.559658-105.49365H464.646212V208.61667H-35.559658Z" fill="#fff" fill-rule="evenodd" stroke="#fff" stroke-width="2"/></g></clipPath><clipPath id="b" clipPathUnits="userSpaceOnUse"><g><path d="M-35.559658-105.49365H464.646212V208.61667H-35.559658Z" fill="#fff" fill-rule="evenodd" stroke="#fff" stroke-width="2"/></g></clipPath><clipPath id="c" clipPathUnits="userSpaceOnUse"><g><path d="M-35.559658-105.49365H464.646212V208.61667H-35.559658Z" fill="#fff" fill-rule="evenodd" stroke="#fff" stroke-width="2"/></g></clipPath><clipPath id="d" clipPathUnits="userSpaceOnUse"><g><path d="M-35.559658-105.49365H464.646212V208.61667H-35.559658Z" fill="#fff" fill-rule="evenodd" stroke="#fff" stroke-width="2"/></g></clipPath><clipPath id="e" clipPathUnits="userSpaceOnUse"><g><path d="M-35.559658-105.49365H464.646212V208.61667H-35.559658Z" fill="#fff" fill-rule="evenodd" stroke="#fff" stroke-width="2"/></g></clipPath><clipPath id="f" clipPathUnits="userSpaceOnUse"><g><path d="M-35.559658-105.49365H464.646212V208.61667H-35.559658Z" fill="#fff" fill-rule="evenodd" stroke="#fff" stroke-width="2"/></g></clipPath><clipPath id="g" clipPathUnits="userSpaceOnUse"><g><path d="M-35.559658-105.49365H464.646212V208.61667H-35.559658Z" fill="#fff" fill-rule="evenodd" stroke="#fff" stroke-width="2"/></g></clipPath><clipPath id="h" clipPathUnits="userSpaceOnUse"><g><path d="M-35.559658-105.49365H464.646212V208.61667H-35.559658Z" fill="#fff" fill-rule="evenodd" stroke="#fff" stroke-width="2"/></g></clipPath><clipPath id="i" clipPathUnits="userSpaceOnUse"><g><path d="M-35.559658-105.49365H464.646212V208.61667H-35.559658Z" fill="#fff" fill-rule="evenodd" stroke="#fff" stroke-width="2"/></g></clipPath><clipPath id="j" clipPathUnits="userSpaceOnUse"><g><path d="M-35.559658-105.49365H464.646212V208.61667H-35.559658Z" fill="#fff" fill-rule="evenodd" stroke="#fff" stroke-width="2"/></g></clipPath><clipPath id="k" clipPathUnits="userSpaceOnUse"><g><path d="M-35.559658-105.49365H464.646212V208.61667H-35.559658Z" fill="#fff" fill-rule="evenodd" stroke="#fff" stroke-width="2"/></g></clipPath><clipPath id="l" clipPathUnits="userSpaceOnUse"><g><path d="M-35.559658-105.49365H464.646212V208.61667H-35.559658Z" fill="#fff" fill-rule="evenodd" stroke="#fff" stroke-width="2"/></g></clipPath><clipPath id="m" clipPathUnits="userSpaceOnUse"><g><path d="M-35.559658-105.49365H464.646212V208.61667H-35.559658Z" fill="#fff" fill-rule="evenodd" stroke="#fff" stroke-width="2"/></g></clipPath><clipPath id="n" clipPathUnits="userSpaceOnUse"><g><path d="M-35.559658-105.49365H464.646212V208.61667H-35.559658Z" fill="#fff" fill-rule="evenodd" stroke="#fff" stroke-width="2"/></g></clipPath><clipPath id="o" clipPathUnits="userSpaceOnUse"><g><path d="M-35.559658-105.49365H464.646212V208.61667H-35.559658Z" fill="#fff" fill-rule="evenodd" stroke="#fff" stroke-width="2"/></g></clipPath><clipPath id="p" clipPathUnits="userSpaceOnUse"><g><path d="M-35.559658-105.49365H464.646212V208.61667H-35.559658Z" fill="#fff" fill-rule="evenodd" stroke="#fff" stroke-width="2"/></g></clipPath><clipPath id="q" clipPathUnits="userSpaceOnUse"><g><path d="M-35.559658-105.49365H464.646212V208.61667H-35.559658Z" fill="#fff" fill-rule="evenodd" stroke="#fff" stroke-width="2"/></g></clipPath><clipPath id="r" clipPathUnits="userSpaceOnUse"><g><path d="M-35.559658-105.49365H464.646212V208.61667H-35.559658Z" fill="#fff" fill-rule="evenodd" stroke="#fff" stroke-width="2"/></g></clipPath></defs><path clip-rule="evenodd" d="M16 4C13.79 4 12 5.79 12 8L12 32C12 34.21 13.79 36 16 36L40 36C42.21 36 44 34.21 44 32L44 8C44 5.79 42.21 4 40 4L16 4zM27.873047 12.634766C31.275926 12.634766 34.518775 12.99894 36.863281 15.019531 37.530608 14.555167 38.186019 14.372386 38.783203 14.394531 41.383825 14.490971 42.884788 18.439683 39.535156 19.615234 40.172433 21.988224 40.315698 24.431685 40.353516 26.896484L29.980469 26.896484C30.032355 26.847649 30.088098 26.805566 30.128906 26.740234 30.311848 25.868484 30.122409 24.957003 30.099609 24.128906 29.615728 23.97416 29.11266 23.765526 28.580078 23.652344 28.581662 23.62813 28.584479 23.604317 28.585938 23.580078 28.511896 23.585974 28.432344 23.605276 28.355469 23.617188 28.216893 23.596097 28.078656 23.572794 27.935547 23.570312 27.847377 23.560413 27.748561 23.574925 27.654297 23.578125 27.650539 23.643678 27.643354 23.708068 27.638672 23.773438 27.27525 23.874757 26.900004 23.993847 26.533203 24.083984 26.312105 24.139414 26.095194 24.183684 25.884766 24.205078 25.883666 24.205188 25.881959 24.204969 25.880859 24.205078 25.59855 25.098855 25.789613 26.29116 26.320312 26.896484L16.103516 26.896484C15.941692 24.601072 15.906377 22.316908 16.492188 20.056641 13.100077 18.923238 14.613205 15.092038 17.214844 14.904297 17.822407 14.860457 18.488059 15.017828 19.164062 15.453125 21.380102 13.509984 24.545213 12.898032 27.873047 12.634766zM32.607422 14.236328C30.320917 14.280782 27.976976 15.957184 28.150391 18.800781 29.078005 24.254049 37.892987 22.812421 36.626953 17.3125 36.13028 15.154775 34.385814 14.201753 32.607422 14.236328zM23.408203 14.640625C20.909417 14.55824 18.264875 16.341594 18.912109 19.623047 20.115611 24.37099 27.639059 23.155236 27.355469 18.392578 27.206809 15.897068 25.351704 14.704702 23.408203 14.640625zM32.570312 15.248047C33.913902 15.222217 35.230228 15.934902 35.605469 17.546875 36.561967 21.655704 29.903945 22.732179 29.203125 18.658203 29.072109 16.533835 30.842841 15.281257 32.570312 15.248047zM38.474609 15.490234C38.172399 15.465934 37.845692 15.544014 37.515625 15.65625 38.028762 16.214057 38.49047 16.867379 38.884766 17.642578 38.969966 17.851751 39.039644 18.062908 39.115234 18.273438 39.783195 17.795329 40.143774 17.176036 39.652344 16.289062 39.361245 15.763685 38.946297 15.528166 38.474609 15.490234zM23.328125 15.650391C24.794952 15.698257 26.194442 16.588946 26.306641 18.453125 26.520676 22.010894 20.841918 22.919823 19.933594 19.373047 19.445104 16.921758 21.442205 15.588848 23.328125 15.650391zM36.960938 15.873047L36.974609 15.896484 36.976562 15.896484 36.962891 15.873047 36.960938 15.873047zM16.986328 16.091797C16.514654 16.129727 16.099685 16.365222 15.808594 16.890625 15.223179 17.947317 15.850653 18.622607 16.767578 19.130859 17.139989 18.038609 17.654508 17.139256 18.273438 16.384766 17.832559 16.190261 17.38894 16.059418 16.986328 16.091797zM30.583984 17.3125A1.096343 1.207616 0 0 0 29.486328 18.519531 1.096343 1.207616 0 0 0  30.583984 19.726562 1.096343 1.207616 0 0 0  31.679688 18.519531 1.096343 1.207616 0 0 0  30.583984 17.3125zM21.242188 17.613281A1.114914 1.207616 0 0 0 20.126953 18.820312 1.114914 1.207616 0 0 0  21.242188 20.027344 1.114914 1.207616 0 0 0  22.357422 18.820312 1.114914 1.207616 0 0 0  21.242188 17.613281zM38.988281 18.351562C38.834462 18.45486 38.678134 18.556535 38.5 18.646484L38.501953 18.648438C38.680028 18.558528 38.832497 18.453874 38.988281 18.351562zM31.064453 18.486328A.258485.306904 0 0 1 31.082031 18.486328.258485.306904 0 0 1  31.339844 18.792969.258485.306904 0 0 1  31.082031 19.099609.258485.306904 0 0 1  30.824219 18.792969.258485.306904 0 0 1  31.064453 18.486328zM21.730469 18.787109A.262846.306904 0 0 1 21.748047 18.787109.262846.306904 0 0 1  22.011719 19.09375.262846.306904 0 0 1  21.748047 19.400391.262846.306904 0 0 1  21.486328 19.09375.262846.306904 0 0 1  21.730469 18.787109zM28.5 24.652344C28.509021 24.652417 28.518785 24.651213 28.527344 24.652344 28.808628 24.658144 29.065183 24.796773 29.308594 24.888672 29.316794 25.241261 29.384309 25.628824 29.318359 26 29.225139 26.176188 29.042407999999999 26.196381 28.884766 26.267578 28.710361 26.240226 28.573157 26.130326 28.474609 25.988281 28.447741 25.54125 28.463641 25.096244 28.5 24.652344zM27.566406 24.666016C27.528414 25.113406 27.511091 25.561375 27.537109 26.011719 26.873151 26.673027 26.497709 25.589207 26.6875 24.900391L26.689453 24.900391C26.769073 24.891091 26.851887 24.873649 26.935547 24.849609 27.149669 24.789286 27.365377 24.710309 27.566406 24.666016z" fill="#956449" fill-rule="evenodd" stroke-linecap="round" stroke-width="1.05"/><path d="m8 12l-4 0 0 28c0 2.21 1.79 4 4 4l28 0 0-4-28 0 0-28z"/><path clip-path="url(#a)" clip-rule="evenodd" d="m10.634 300.493c.764 15.751 16.499 8.463 23.626 3.539 6.765-4.675 8.743-.789 9.337-10.015.389-6.064 1.088-12.128.744-18.216-10.23-.927-21.357 1.509-29.744 7.602-4.32 3.139-12.42 13.158-3.963 17.09" fill="#fff" fill-rule="evenodd" stroke="#000" stroke-linecap="round" stroke-width="3" transform="translate(-408.00683 -161.49519)"/><path clip-path="url(#b)" clip-rule="evenodd" d="m10.634 300.493c2.29-.852 4.717-1.457 6.271-3.528" fill="#c6b198" fill-rule="evenodd" stroke="#000" stroke-linecap="round" stroke-width="3" transform="translate(-408.00683 -161.49519)"/><path clip-path="url(#c)" clip-rule="evenodd" d="m325.161 494.343c12.123 7.501 34.282 30.182 16.096 41.18-17.474 15.999-27.254-17.561-42.591-22.211 6.605-8.97 14.977-17.149 26.495-18.969z" fill="#fff" fill-rule="evenodd" stroke="#000" stroke-linecap="round" stroke-width="3" transform="translate(-408.00683 -161.49519)"/><path clip-path="url(#d)" clip-rule="evenodd" d="m341.257 535.522c-2.696-5.361-3.601-11.618-8.102-15.939" fill="none" fill-rule="evenodd" stroke="#000" stroke-linecap="round" stroke-width="3" transform="translate(-408.00683 -161.49519)"/><path clip-path="url(#e)" clip-rule="evenodd" d="m108.579 519.975c-14.229 2.202-22.238 15.039-34.1 21.558-11.178 6.665-15.454-2.134-16.461-3.92-1.752-.799-1.605.744-4.309-1.979-10.362-16.354 10.797-28.308 21.815-36.432 15.346-3.102 24.963 10.202 33.055 20.773z" fill="#fff" fill-rule="evenodd" stroke="#000" stroke-linecap="round" stroke-width="3" transform="translate(-408.00683 -161.49519)"/><path clip-path="url(#f)" clip-rule="evenodd" d="m58.019 537.612c.542-6.233 5.484-10.407 7.838-15.677" fill="none" fill-rule="evenodd" stroke="#000" stroke-linecap="round" stroke-width="3" transform="translate(-408.00683 -161.49519)"/><path clip-path="url(#g)" clip-rule="evenodd" d="m392.475 298.493c-.764 15.751-16.499 8.463-23.626 3.539-6.765-4.675-8.743-.789-9.337-10.015-.389-6.064-1.088-12.128-.744-18.216 10.23-.927 21.357 1.509 29.744 7.602 4.319 3.139 12.42 13.158 3.963 17.09" fill="#fff" fill-rule="evenodd" stroke="#000" stroke-linecap="round" stroke-width="3" transform="translate(-408.00683 -161.49519)"/><path clip-path="url(#h)" clip-rule="evenodd" d="m392.475 298.493c-2.29-.852-4.717-1.457-6.271-3.528" fill="#c6b198" fill-rule="evenodd" stroke="#000" stroke-linecap="round" stroke-width="3" transform="translate(-408.00683 -161.49519)"/><path clip-path="url(#i)" clip-rule="evenodd" d="m10.634 300.493c.764 15.751 16.499 8.463 23.626 3.539 6.765-4.675 8.743-.789 9.337-10.015.389-6.064 1.088-12.128.744-18.216-10.23-.927-21.357 1.509-29.744 7.602-4.32 3.139-12.42 13.158-3.963 17.09" fill="#fff" fill-rule="evenodd" stroke="#000" stroke-linecap="round" stroke-width="3" transform="translate(-444.14712 -114.88503)"/><path clip-path="url(#j)" clip-rule="evenodd" d="m10.634 300.493c2.29-.852 4.717-1.457 6.271-3.528" fill="#c6b198" fill-rule="evenodd" stroke="#000" stroke-linecap="round" stroke-width="3" transform="translate(-444.14712 -114.88503)"/><path clip-path="url(#k)" clip-rule="evenodd" d="m325.161 494.343c12.123 7.501 34.282 30.182 16.096 41.18-17.474 15.999-27.254-17.561-42.591-22.211 6.605-8.97 14.977-17.149 26.495-18.969z" fill="#fff" fill-rule="evenodd" stroke="#000" stroke-linecap="round" stroke-width="3" transform="translate(-444.14712 -114.88503)"/><path clip-path="url(#l)" clip-rule="evenodd" d="m341.257 535.522c-2.696-5.361-3.601-11.618-8.102-15.939" fill="none" fill-rule="evenodd" stroke="#000" stroke-linecap="round" stroke-width="3" transform="translate(-444.14712 -114.88503)"/><path clip-path="url(#m)" clip-rule="evenodd" d="m108.579 519.975c-14.229 2.202-22.238 15.039-34.1 21.558-11.178 6.665-15.454-2.134-16.461-3.92-1.752-.799-1.605.744-4.309-1.979-10.362-16.354 10.797-28.308 21.815-36.432 15.346-3.102 24.963 10.202 33.055 20.773z" fill="#fff" fill-rule="evenodd" stroke="#000" stroke-linecap="round" stroke-width="3" transform="translate(-444.14712 -114.88503)"/><path clip-path="url(#n)" clip-rule="evenodd" d="m58.019 537.612c.542-6.233 5.484-10.407 7.838-15.677" fill="none" fill-rule="evenodd" stroke="#000" stroke-linecap="round" stroke-width="3" transform="translate(-444.14712 -114.88503)"/><path clip-path="url(#o)" clip-rule="evenodd" d="m392.475 298.493c-.764 15.751-16.499 8.463-23.626 3.539-6.765-4.675-8.743-.789-9.337-10.015-.389-6.064-1.088-12.128-.744-18.216 10.23-.927 21.357 1.509 29.744 7.602 4.319 3.139 12.42 13.158 3.963 17.09" fill="#fff" fill-rule="evenodd" stroke="#000" stroke-linecap="round" stroke-width="3" transform="translate(-444.14712 -114.88503)"/><path clip-path="url(#p)" clip-rule="evenodd" d="m392.475 298.493c-2.29-.852-4.717-1.457-6.271-3.528" fill="#c6b198" fill-rule="evenodd" stroke="#000" stroke-linecap="round" stroke-width="3" transform="translate(-444.14712 -114.88503)"/><path clip-path="url(#q)" clip-rule="evenodd" d="m27.542969 29.197266c-.784486.08109-1.515992.523252-1.482422 1.308593.003.02404.01565.04362.02148.06641-.862859.140253-1.539025 1.16507-1.083984 1.988281.624258 1.129574 2.016909-.09956 2.884765.01563.998829.02045 1.816921 1.056409 2.619141.1875.842999-.913112-.248344-1.789813-1.212891-2.240234.07344-.138549.100033-.294836.05273-.470704-.176834-.657377-1.014342-.936555-1.798828-.855468z" fill="#fff" fill-rule="evenodd" stroke="#956449" stroke-linecap="round" stroke-width="1.05" transform="translate(.415021 -8.478523)"/><path clip-path="url(#r)" clip-rule="evenodd" d="M28.298828 20.179688C27.140085 20.163759 25.921245 20.841859 25.970703 22.179688 26.163786 23.942255 30.729559 23.482255 30.267578 21.496094 30.064945 20.625106 29.200072 20.192076 28.298828 20.179688zM28.003906 21.039062C28.539361 20.983716 29.10977 21.174351 29.230469 21.623047 29.471251 22.518335 27.090868 22.72614 26.990234 21.931641 26.967321 21.395602 27.468451 21.094409 28.003906 21.039062z" fill="#956449" fill-rule="evenodd" stroke-width="13.965613"/></svg>