<svg fill="#435813" viewBox="0 0 48 48" xmlns="http://www.w3.org/2000/svg"><path d="m4 4c-2.21 0-3.98 1.79-3.98 4l-.02 24c0 2.21 1.79 4 4 4h21.16a13 13 0 0 1 -.164063-2 13 13 0 0 1  13-13 13 13 0 0 1  2 .171875v-13.172c0-2.21-1.79-4-4-4h-32m0 4l16 10 16-10v4l-16 10-16-10v-4m34 16a10 10 0 0 0 -10 10 10 10 0 0 0  10 10 10 10 0 0 0  10-10 10 10 0 0 0 -10-10m0 4a6 6 0 0 1 2.580078.589844l-7.99 7.992a6 6 0 0 1 -.589844-2.582031 6 6 0 0 1  6-6m5.410156 3.417969a6 6 0 0 1  .589844 2.582031 6 6 0 0 1 -6 6 6 6 0 0 1 -2.580078-.591797l7.99-7.99"/></svg>