<svg fill="#435813" viewBox="0 0 48 48" xmlns="http://www.w3.org/2000/svg"><path d="m10 6c-2.21 0-4 1.79-4 4v28c0 2.21 1.79 4 4 4h28c2.21 0 4-1.79 4-4v-28c0-2.21-1.79-4-4-4h-28m14 4c3.68 0 6.666 2.986 6.666 6.666v2.668h1.334c1.473 0 2.666 1.193 2.666 2.666v13.334c0 1.473-1.193 2.666-2.666 2.666h-16c-1.473 0-2.666-1.193-2.666-2.666v-13.334c0-1.473 1.193-2.666 2.666-2.666h1.334v-2.668c0-3.68 2.986-6.666 6.666-6.666m0 2.533c-2.28 0-4.133 1.853-4.133 4.133v2.668h8.266v-2.668c0-2.28-1.853-4.133-4.133-4.133m0 13.467c-1.473 0-2.666 1.193-2.666 2.666 0 1.473 1.193 2.668 2.666 2.668 1.473 0 2.666-1.195 2.666-2.668 0-1.473-1.193-2.666-2.666-2.666"/></svg>