<svg fill="#bdbdbd" version="1.1" viewBox="0 0 48 48" xmlns="http://www.w3.org/2000/svg"><path d="M24 0C21.39 0 19.189141 1.68 18.369141 4L10 4C7.79 4 6 5.79 6 8L6 40C6 42.21 7.79 44 10 44L38 44C40.21 44 42 42.21 42 40L42 8C42 5.79 40.21 4 38 4L29.630859 4C28.810859 1.68 26.61 0 24 0zM24 4C25.1 4 26 4.89 26 6 26 7.11 25.1 8 24 8 22.9 8 22 7.11 22 6 22 4.89 22.9 4 24 4zM10 8L14 8 14 14 34 14 34 8 38 8 38 40 10 40 10 8zM21.945313 16.671875L14.003906 38 18.677734 38 20.142578 33.605469 27.847656 33.605469 29.328125 38 34 38 26.015625 16.671875 21.945313 16.671875zM23.980469 22.0625L26.660156 30.046875 21.328125 30.046875 23.980469 22.0625z" fill="#bdbdbd"/></svg>