<svg fill="#bdbdbd" xmlns="http://www.w3.org/2000/svg" viewBox="0 0 48 48"><path d="m12 26c-1.1 0-2 .9-2 2s.9 2 2 2 2-.9 2-2-.9-2-2-2m0 8c-1.1 0-2 .9-2 2s.9 2 2 2 2-.9 2-2-.9-2-2-2m0-16c-1.1 0-2 .9-2 2s.9 2 2 2 2-.9 2-2-.9-2-2-2m-6 1c-.55 0-1 .45-1 1s.45 1 1 1 1-.45 1-1-.45-1-1-1m6-9c-1.1 0-2 .9-2 2s.9 2 2 2 2-.9 2-2-.9-2-2-2m30 11c.55 0 1-.45 1-1s-.45-1-1-1-1 .45-1 1 .45 1 1 1m-14-7c1.1 0 2-.9 2-2s-.9-2-2-2-2 .9-2 2 .9 2 2 2m0-7c.55 0 1-.45 1-1s-.45-1-1-1-1 .45-1 1 .45 1 1 1m-22 20c-.55 0-1 .45-1 1s.45 1 1 1 1-.45 1-1-.45-1-1-1m14 14c-.55 0-1 .45-1 1s.45 1 1 1 1-.45 1-1-.45-1-1-1m0-34c.55 0 1-.45 1-1s-.45-1-1-1-1 .45-1 1 .45 1 1 1m0 7c1.1 0 2-.9 2-2s-.9-2-2-2-2 .9-2 2 .9 2 2 2m0 11c-1.66 0-3 1.34-3 3s1.34 3 3 3 3-1.34 3-3-1.34-3-3-3m16 1c-1.1 0-2 .9-2 2s.9 2 2 2 2-.9 2-2-.9-2-2-2m0 8c-1.1 0-2 .9-2 2s.9 2 2 2 2-.9 2-2-.9-2-2-2m0-16c-1.1 0-2 .9-2 2s.9 2 2 2 2-.9 2-2-.9-2-2-2m0-8c-1.1 0-2 .9-2 2s.9 2 2 2 2-.9 2-2-.9-2-2-2m6 17c-.55 0-1 .45-1 1s.45 1 1 1 1-.45 1-1-.45-1-1-1m-14 7c-1.1 0-2 .9-2 2s.9 2 2 2 2-.9 2-2-.9-2-2-2m0 7c-.55 0-1 .45-1 1s.45 1 1 1 1-.45 1-1-.45-1-1-1m-8-24c-1.66 0-3 1.34-3 3s1.34 3 3 3 3-1.34 3-3-1.34-3-3-3m0 17c-1.1 0-2 .9-2 2s.9 2 2 2 2-.9 2-2-.9-2-2-2m8-9c-1.66 0-3 1.34-3 3s1.34 3 3 3 3-1.34 3-3-1.34-3-3-3m0-8c-1.66 0-3 1.34-3 3s1.34 3 3 3 3-1.34 3-3-1.34-3-3-3"/></svg>