<svg fill="#480062" viewBox="0 0 48 48" xmlns="http://www.w3.org/2000/svg"><path d="m14 48h4v-4h-4v4"/><path d="m22 48h4v-4h-4v4"/><path d="m30 48h4v-4h-4v4"/><path d="m24 7c-9.388 0-17 7.612-17 17h-5.667l7.556 7.556 7.556-7.556h-5.667c0-7.301 5.922-13.222 13.222-13.222 7.301 0 13.222 5.922 13.222 13.222 0 7.301-5.922 13.222-13.222 13.222-2.862 0-5.497-.916-7.669-2.465l-2.673 2.711c2.871 2.21 6.451 3.532 10.342 3.532 9.388 0 17-7.612 17-17 0-9.388-7.612-17-17-17m3.778 17c0-2.087-1.691-3.778-3.778-3.778-2.087 0-3.778 1.691-3.778 3.778 0 2.087 1.691 3.778 3.778 3.778 2.087 0 3.778-1.691 3.778-3.778z"/></svg>