<svg fill="#bdbdbd" height="48" version="1.1" viewBox="0 0 48 48" width="48" xmlns="http://www.w3.org/2000/svg"><path d="m8.005 40.5l0 7.5L15.505 48 37.635 25.87 30.135 18.37 8.005 40.5ZM43.415 20.09C44.195 19.31 44.195 18.04 43.415 17.26L38.745 12.59c-.78-.78-2.05-.78-2.83 0L32.255 16.25l7.5 7.5 3.66-3.66zM8 0c-2.21 0-3.980469 1.79-3.980469 4l-.019531 32c0 1.300526.623259 2.443385 1.578125 3.173828L12.751953 32 12 32l0-4 4.753906 0 4-4L12 24 12 20 24.753906 20 30.380859 14.373047 30.753906 14 22 14 22 3l9.876953 9.876953 2.5-2.5L24 0l-16 0zM36 31.255859L27.255859 40 32 40c2.21 0 4-1.79 4-4l0-4.744141z" fill="#bdbdbd"/></svg>