<svg height="48" version="1.1" width="48" xmlns="http://www.w3.org/2000/svg"><path d="m24.826793 5.617758c-.839835.000028-1.775941.026516-2.795673.086464-.959802.000035-1.814133.214202-2.593924.63407-.299955.000028-.889504.026516-1.729282.086464-.779841.000028-1.28761.026516-1.527533.086464-.539896.060022-1.100626.139463-1.700461.259392-.539813.059948-1.047668.300711-1.527533.720534l-1.902211 1.902211c-.179976.299961-.338845.620041-.518785.979927-.119991.359946-.201767.761805-.20175 1.181676-.000018.959802.375363 1.787654 1.095212 2.507459.779799.659871 1.63413.979954 2.593924.979927.359895.000028.761753-.026451 1.181676-.086464.419881-.059958.821738-.1394 1.181676-.259392l6.196595 0c .539845.000025 1.047613.161238 1.527533.461142.479856.299954.720502.699469.720534 1.239319-.000032.479912-.187721.855291-.547606 1.095212-.299961.17998-.672997.312375-1.152855.432321-.479917.060013-.961214.141783-1.441069.20175-.479916.000022-.855297.052985-1.095212.172928-.119998.060004-.387123.165921-.806998.345856-.359942.119993-.600589.228247-.720534.288214-.839827.299952-1.694162.458818-2.593924.518785-.899812.000021-1.782959.240667-2.622745.720534-1.199744.719851-2.321195 1.629482-3.400922 2.709209-1.019779 1.019779-1.876451 2.143572-2.536281 3.343279-.119986.119987-.252377.305333-.432321.605249-.11999.299943-.201764.487621-.20175.547606l0 4.496134c-.000015.000009.134721.401867.374678 1.181676.239929.719837.427613 1.280564.547606 1.700461.359902 1.199725 1.026539 2.24174 2.046317 3.14153 1.079727.839806 2.095272 1.588219 3.055066 2.248067-.000019.059976.081751.141764.20175.20175.179937.059976.285843.086464.345856.086464.299909.119973.889458.334141 1.729282.63407.899767.29993 1.486971.458799 1.786925.518785l.720534 0 .63407 0c .119947.059985.307637.033516.547606-.086464.119947-.059985.38707-.192377.806998-.432321.479861-.239943.773469-.401166.893463-.461142 1.019732-.419901 2.035278-.821759 3.055066-1.181676 1.079718-.419899 2.203512-.605247 3.343279-.605249l.605249 0c .359881 0 .600525.026479.720534.086464.839766.359918 1.722919.759433 2.622745 1.239319.899751.419901 1.835862.63407 2.795673.63407.71979 0 1.386433-.132391 2.046317-.432321.719787-.299929 1.388775-.728265 1.988675-1.26814.599814-.539872 1.08111-1.127077 1.441069-1.786925.359869-.659841.547559-1.355305.547606-2.075139l0-.547606c-.059856-.240347-.19474-.69471-.374678-1.354605-.18003-.659802-.285908-1.114626-.345856-1.354605l0-.259392c-.000046-.659836.026433-1.328817.086464-1.988675.119926-.659833.225847-1.299996.345856-1.959853-.000047-.059976-.000047-.194707 0-.374678-.000047-.23993-.000047-.480576 0-.720534.05993-.299916.115238-.567041.115285-.806998-.000047-.239929-.000047-.401147 0-.461142.119926-.419887.252316-.792923.432321-1.152855.179912-.419885.288168-.8747.288214-1.354605-.000046-.659826-.081825-1.328808-.20175-1.988675-.060031-.659825-.139464-1.299987-.259392-1.959853C39.977416 17.073687 39.657335 15.468599 39.23748 14.148885 38.817531 12.76924 38.201506 11.592479 37.421733 10.632677 36.641873 9.67293 35.626332 8.871557 34.366667 8.211682 33.166776 7.491747 31.670001 6.878197 29.870532999999999 6.338292 28.130829 5.858428 26.446416 5.617758 24.826793 5.617758Zm-2.507459 20.953138l3.314458 0c .239911.000015.454081.161226.63407.461142.239912.239958.40112.454125.461142.63407l0 .893463c-.000033.179969-.000033.420617 0 .720534-.000033.299941-.081807.540588-.20175.720534-.120004.119983-.360651.334152-.720534.63407l-.605249.605249c-.000032.119973-.108288.20176-.288214.20175l-.979927 0c-.839833.00001-1.561777-.18768-2.161603-.547606-.599889-.419891-.89349-1.115355-.893463-2.075139-.000028-.359903.105886-.814718.345856-1.354605.239916-.599846.615297-.893448 1.095212-.893463z" fill="#435813"/></svg>