<svg height="48" version="1.1" width="48" xmlns="http://www.w3.org/2000/svg"><g transform="matrix(.16015817 0 0 .16055678 -77.641676 4.052917)"><path d="m737.928664 80.092548c0 15.673918-19.79135 34.931518-45.84395 34.931518-26.0526 0-59.92241-16.08123-59.92241-31.755152 0-15.673924 21.11981-28.38015 47.17241-28.38015 19.90254 0 46.36122 18.293224 56.45971 20.3521.79179 1.710571 1.36862 2.925087 2.13424 4.851684z" fill="#b2cde9"/><path d="m544.578103 57.943649c12.38148-9.610993 35.314514-1.245318 51.289554 19.334679 15.975027 20.579998 17.694937 51.065068 5.31349 60.676058-12.38147 9.61099-34.17571-5.29155-50.15074-25.87156-12.20392-15.72181-4.05062-41.19089-8.61646-50.430553.61589-1.122052 1.381696-2.456607 2.164156-3.708624z" fill="#2e5c91"/><path d="m735.799554 75.233891c-7.0081-.03265-61.07025.289575-107.66568.0654-17.371 5.108098-31.704627 13.258827-39.181777 29.154945-5.33639-4.54237-40.74576-42.215609-44.40678-46.440684 31.38983-41.648805 74.528017-45.559321 82.915257-45.559321 8.38724 0 70.64407-8.631855 108.33898 62.77966z" fill="#527fab"/><path d="m622.880624 235.940276c-12.49835-9.45851-14.5752-36.93927 1.14635-57.71356 15.72155-20.77428 41.03582-34.94753 53.53417-25.48904 12.49834 9.4585 7.44792 38.96701-8.27364 59.74129-12.01027 15.87024-35.4911 16.88498-43.22681 23.69505-1.23894-.0455-1.95523-.0605-3.18007-.23374z" fill="#699dd3"/><path d="m626.059284 236.173156c3.58354-6.02268 28.85859-52.8991 52.69131-92.9389 4.41104-17.56095 5.34663-33.64185-4.5584-48.14993 6.62173-2.29412 58.23852-13.976353 63.73684-14.987686 19.9656 48.180076 1.44992 87.338276-2.80522 94.565966-4.25515 7.22768-28.40179 65.25666-109.06453 61.51055z" fill="#cadef0"/><path d="m542.452937 61.61465c3.46858 6.089612 30.72312 52.780196 53.77852 93.272576 13.094367 12.50527 27.684997 19.48512 45.191737 18.03328-1.2738 6.89113-16.62898 57.75037-18.4638 63.03126-51.756237-6.42158-76.669777-41.85476-80.854757-49.1233-4.18497-7.26855-42.72975-56.91452.3483-125.213816z" fill="#89b7e1"/><path d="m680.06572 123.972016c0 25.342884-20.458618 45.887355-45.695605 45.887355-25.236979 0-45.695597-20.544471-45.695597-45.887355 0-25.342889 20.458618-45.88736 45.695597-45.88736 25.236987 0 45.695605 20.54447 45.695605 45.88736z" fill="#3b79bc" stroke="#fff" stroke-width="7.8"/></g></svg>