<svg fill="#435813" height="48" version="1.1" viewBox="0 0 48 48" width="48" xmlns="http://www.w3.org/2000/svg"><path d="M8 4C5.79 4 4.019531 5.79 4.019531 8L4 44 12 36 40 36C42.21 36 44 34.21 44 32L44 8C44 5.79 42.21 4 40 4L8 4zM24 8A12 12 0 0 1 36 20 12 12 0 0 1  24 32 12 12 0 0 1  12 20 12 12 0 0 1  24 8zM24 10A10 10 0 0 0 14 20 10 10 0 0 0  24 30 10 10 0 0 0  34 20 10 10 0 0 0  24 10zM20 14A2 2 0 0 1 22 16 2 2 0 0 1  20 18 2 2 0 0 1  18 16 2 2 0 0 1  20 14zM28 14A2 2 0 0 1 30 16 2 2 0 0 1  28 18 2 2 0 0 1  26 16 2 2 0 0 1  28 14zM17.298828 22L30.705078 22A7 7 0 0 1 24 27 7 7 0 0 1  17.298828 22z"/></svg>