<svg fill="#435813" height="48" version="1.1" viewBox="0 0 48 40" width="48" xmlns="http://www.w3.org/2000/svg"><path d="M12 0C9.79 0 8.019531 1.79 8.019531 4L8 36c0 2.21 1.770469 4 3.980469 4L36 40c2.21 0 4-1.79 4-4L40 12 28 0 12 0ZM26 3L37 14 26 14 26 3Zm-5.589844 17.964844l1.541016 1.275391-4.351563 5.238281 4.351563 5.246094L20.410156 34 15 27.478516 20.410156 20.964844Zm7.080078 0l5.410156 6.519531L27.490234 34 25.951172 32.724609 30.300781 27.484375l-4.349609-5.244141 1.539063-1.275391z" fill="#435813"/></svg>