<svg version="1.1" viewBox="0 0 256 256" xmlns="http://www.w3.org/2000/svg" xmlns:xlink="http://www.w3.org/1999/xlink"><defs><linearGradient id="a" gradientUnits="userSpaceOnUse" x1="164" x2="109" xlink:href="#b" y1="161" y2="217"/><linearGradient id="b" gradientUnits="userSpaceOnUse" x2="0" y1="140" y2="60"><stop offset="0%" stop-opacity=".15"/><stop offset="30%" stop-opacity=".06"/><stop offset="100%" stop-opacity=".03"/></linearGradient><linearGradient id="c" gradientUnits="userSpaceOnUse" x1="139" x2="147" xlink:href="#b" y1="179" y2="100"/><linearGradient id="d" gradientUnits="userSpaceOnUse" x1="187" x2="138" y1="220" y2="102"><stop offset="0%" stop-color="#e4b022"/><stop offset="30%" stop-color="#fcd209"/></linearGradient><linearGradient id="e" gradientUnits="userSpaceOnUse" x2="0" y1="16" y2="107"><stop offset="0%" stop-color="#f06b59"/><stop offset="100%" stop-color="#df2227"/></linearGradient><linearGradient id="f" gradientUnits="userSpaceOnUse" x1="87" x2="87" y1="87" y2="169"><stop offset="0%" stop-color="#81b4e0"/><stop offset="100%" stop-color="#0c5a94"/></linearGradient><linearGradient id="g" gradientUnits="userSpaceOnUse" x1="72" x2="118" y1="225" y2="149"><stop offset="0%" stop-color="#388b41"/><stop offset="100%" stop-color="#4cb749"/></linearGradient><linearGradient id="h" gradientUnits="userSpaceOnUse" x2="0" xlink:href="#b" y1="140" y2="60"/></defs><g transform="translate(.2632 .41666)"><circle cx="128" cy="128" fill="#fff" r="110"/><g fill-opacity=".1"><path d="m198 148a70 70 0 0 0 -140 0l20 0a50 50 0 0 1 100 0"/><circle cx="133" cy="142" r="38"/></g><circle cx="128" cy="128" fill="url(#f)" r="41"/><path d="M228 78A112 112 0 0 0 35 65l45 78a50 50 0 0 1 47-65" fill="url(#e)"/><path d="m35 65a112 112 0 0 0 84 174l47-80A50 50 0 0 1 80 143" fill="url(#g)"/><path d="M119 239A112 112 0 0 0 228 78l-101 0a50 50 0 0 1 39 81" fill="url(#d)"/><path d="m35 65l45 78a50 50 0 0 1 2-34L37 62" fill="url(#h)"/><path d="m119 239l47-80a50 50 0 0 1 -29 17l-20 63" fill="url(#a)"/><path d="m228 78l-101 0a50 50 0 0 1 39 19l64-16" fill="url(#c)"/></g></svg>