<svg height="48" version="1.0" width="48" xmlns="http://www.w3.org/2000/svg" xmlns:xlink="http://www.w3.org/1999/xlink"><defs><linearGradient id="a"><stop offset="0" stop-color="#fff"/><stop offset=".25" stop-color="#babdb6"/><stop offset=".375" stop-color="#eeeeec"/><stop offset=".5" stop-color="#babdb6"/><stop offset="1" stop-color="#eeeeec"/></linearGradient><linearGradient id="b"><stop offset="0" stop-color="#fff" stop-opacity="0"/><stop offset="1" stop-color="#fff"/></linearGradient><linearGradient id="c"><stop offset="0"/><stop offset="1" stop-opacity="0"/></linearGradient><linearGradient id="d"><stop offset="0" stop-color="#d3d7cf"/><stop offset=".5" stop-color="#babdb6"/><stop offset="1" stop-color="#eeeeec" stop-opacity="0"/></linearGradient><linearGradient id="e"><stop offset="0" stop-color="#fff"/><stop offset=".5" stop-color="#fff"/><stop offset="1" stop-color="#888a85"/></linearGradient><linearGradient id="f"><stop offset="0" stop-color="#fff"/><stop offset="1" stop-color="#fff" stop-opacity="0"/></linearGradient><linearGradient id="g"><stop offset="0" stop-color="#ef2929"/><stop offset="1" stop-color="#c00"/></linearGradient><linearGradient id="h"><stop offset="0" stop-color="#fcaf3e"/><stop offset="1" stop-color="#f57900"/></linearGradient><linearGradient id="i"><stop offset="0" stop-color="#8ae234"/><stop offset="1" stop-color="#73d216"/></linearGradient><linearGradient id="j"><stop offset="0" stop-color="#2f302e"/><stop offset="1" stop-color="#555753"/></linearGradient><linearGradient id="k"><stop offset="0" stop-color="#fff" stop-opacity="0"/><stop offset=".5" stop-color="#fff"/><stop offset="1" stop-color="#fff" stop-opacity="0"/></linearGradient><linearGradient id="l"><stop offset="0" stop-color="#fdfdfc"/><stop offset="1" stop-color="#fff" stop-opacity=".371212"/></linearGradient><linearGradient id="m"><stop offset="0" stop-color="#555753"/><stop offset="1" stop-color="#2e3436"/></linearGradient><linearGradient id="n"><stop offset="0" stop-color="#fff"/><stop offset="1" stop-color="#555753"/></linearGradient><linearGradient id="o"><stop offset="0" stop-color="#d0d0cb"/><stop offset="1" stop-color="#babdb6"/></linearGradient><linearGradient id="p"><stop offset="0" stop-color="#babdb6"/><stop offset="1" stop-color="#2e3436"/></linearGradient><linearGradient id="q"><stop offset="0"/><stop offset="1" stop-color="#fff"/></linearGradient><linearGradient id="r"><stop offset="0" stop-color="#fff"/><stop offset=".5" stop-color="#fff"/><stop offset="1" stop-color="#cccfca"/></linearGradient><linearGradient id="s"><stop offset="0" stop-color="#eeeeec"/><stop offset="1" stop-color="#888a85"/></linearGradient><linearGradient id="t"><stop offset="0" stop-color="#babdb6"/><stop offset="1" stop-color="#555753"/></linearGradient><linearGradient id="u" gradientUnits="userSpaceOnUse" x1="21.9375" x2="21.9375" xlink:href="#c" y1="39" y2="37.995617"/><linearGradient id="v" gradientTransform="matrix(.602867 -.797841 .797841 .602867 -41.12611 44.62773)" gradientUnits="userSpaceOnUse" x1="40.617188" x2="40.710938" xlink:href="#q" y1="30.554688" y2="30.359375"/><linearGradient id="w" gradientUnits="userSpaceOnUse" x1="40.617188" x2="40.710938" xlink:href="#q" y1="30.554688" y2="30.359375"/><radialGradient id="x" cx="7.517773" cy="30.573555" fx="7.517773" fy="30.573555" gradientTransform="matrix(1.662477 0 0 1.61358 -4.989175 -18.65647)" gradientUnits="userSpaceOnUse" r=".53125" xlink:href="#p"/><radialGradient id="y" cx="7.533601" cy="30.307562" fx="7.533601" fy="30.307562" gradientTransform="matrix(1.569487 0 0 1.523325 -4.288627 -15.92107)" gradientUnits="userSpaceOnUse" r=".53125" xlink:href="#s"/><radialGradient id="z" cx="7.517773" cy="30.573555" fx="7.517773" fy="30.573555" gradientTransform="matrix(1.662477 0 0 1.61358 -4.989175 -18.65647)" gradientUnits="userSpaceOnUse" r=".53125" xlink:href="#p"/><linearGradient id="A" gradientTransform="matrix(1 0 0 .995556 0 -3.931113)" gradientUnits="userSpaceOnUse" x1="24.748737" x2="24.998737" xlink:href="#l" y1="35.354588" y2="14.997767"/><radialGradient id="B" cx="7.519144" cy="30.304251" fx="7.519144" fy="30.304251" gradientTransform="matrix(1.389748 0 0 1.348872 -2.91982 -10.63815)" gradientUnits="userSpaceOnUse" r=".53125" xlink:href="#r"/><radialGradient id="C" cx="25.251999" cy="16.47991" fx="25.251999" fy="16.47991" gradientTransform="matrix(1.032991 -.596398 .575121 .99614 -12.23456 11.55448)" gradientUnits="userSpaceOnUse" r="21.980215" xlink:href="#o"/><linearGradient id="D" gradientTransform="translate(0 50)" gradientUnits="userSpaceOnUse" x1="53.812813" x2="-2.813893" xlink:href="#m" y1="43.573235" y2="35.500015"/><linearGradient id="E" gradientUnits="userSpaceOnUse" x1="12.5" x2="12.5" xlink:href="#f" y1="43.1875" y2="34.045513"/><linearGradient id="F" gradientTransform="matrix(1 0 0 1.42294 10.5 -14.95703)" gradientUnits="userSpaceOnUse" x1="15.335379" x2="20.329321" xlink:href="#k" y1="33.06237" y2="36.37693"/><linearGradient id="G" gradientTransform="matrix(1 0 0 1.42294 -.875 -15.04578)" gradientUnits="userSpaceOnUse" x1="15.335379" x2="20.329321" xlink:href="#k" y1="33.06237" y2="36.37693"/><linearGradient id="H" gradientTransform="matrix(.459833 0 -.391165 1.370105 40.62503 -13.29892)" gradientUnits="userSpaceOnUse" x1="15.335379" x2="20.329321" xlink:href="#k" y1="33.06237" y2="36.37693"/><linearGradient id="I" gradientTransform="translate(0 3.001212)" gradientUnits="userSpaceOnUse" x1="35.722687" x2="11.953137" xlink:href="#n" y1="33.221653" y2="14.982971"/><linearGradient id="J" gradientTransform="translate(0 3.001212)" gradientUnits="userSpaceOnUse" x1="50.505718" x2="2.39964" xlink:href="#t" y1="37.468567" y2="8.447991"/><linearGradient id="K" gradientTransform="matrix(1.0029382 0 0 1.0690426 -.11753 -1.915373)" gradientUnits="userSpaceOnUse" x1="8.09375" x2="20.501734" xlink:href="#j" y1="13.796185" y2="29.455748"/><radialGradient id="L" cx="25.251999" cy="16.47991" fx="25.251999" fy="16.47991" gradientTransform="matrix(.29978113 -.25514914 .16690409 .42616552 -2.085584 27.055878)" gradientUnits="userSpaceOnUse" r="21.980215" xlink:href="#o"/><radialGradient id="M" cx="7.625" cy="30.578125" fx="7.625" fy="30.578125" gradientTransform="matrix(1.3511662 -.00000379 .00000117 1.5765217 -2.677678 -17.628922)" gradientUnits="userSpaceOnUse" r=".53125" xlink:href="#f"/><radialGradient id="N" cx="7.519144" cy="30.304251" fx="7.519144" fy="30.304251" gradientTransform="matrix(1.389748 0 0 1.348872 -2.91982 -10.63815)" gradientUnits="userSpaceOnUse" r=".53125" xlink:href="#e"/><radialGradient id="O" cx="7.625" cy="30.578125" fx="7.625" fy="30.578125" gradientTransform="matrix(.9999996 -3.6e-7 9e-8 .97058851 0 .899351)" gradientUnits="userSpaceOnUse" r=".53125" xlink:href="#d"/><radialGradient id="P" cx="21.885324" cy="21.091515" fx="21.885324" fy="21.091515" gradientTransform="matrix(.68596186 -.9212505 1.444828 .71285424 -25.655926 33.736687)" gradientUnits="userSpaceOnUse" r="10.682883" xlink:href="#b"/><radialGradient id="Q" cx="23.570951" cy="22.565657" fx="23.570951" fy="22.565657" gradientTransform="matrix(1 0 0 .61209071 0 8.753428)" gradientUnits="userSpaceOnUse" r="11.15492" xlink:href="#i"/><radialGradient id="R" cx="25.525513" cy="26.023817" fx="25.525513" fy="26.023817" gradientTransform="matrix(.52341584 -.91271001 1.0252793 .67462715 -12.879236 29.477642)" gradientUnits="userSpaceOnUse" r="6.53498" xlink:href="#h"/><radialGradient id="S" cx="21.366146" cy="28.457472" fx="21.366146" fy="28.457472" gradientTransform="matrix(1.1542747 -1.6047814 1.4632662 1.2076031 -43.596086 25.552294)" gradientUnits="userSpaceOnUse" r="4.620929" xlink:href="#g"/><radialGradient id="T" cx="22.518518" cy="27.786009" fx="22.518518" fy="27.786009" gradientTransform="matrix(1 0 0 .45222929 0 15.220362)" gradientUnits="userSpaceOnUse" r="10.337449" xlink:href="#f"/><radialGradient id="U" cx="24.690754" cy="23.189171" fx="24.690754" fy="23.189171" gradientTransform="matrix(.68596186 -.9212505 1.444828 .71285424 -25.655926 33.736687)" gradientUnits="userSpaceOnUse" r="10.682883" xlink:href="#f"/><radialGradient id="V" cx="24" cy="30.265625" fx="24" fy="30.265625" gradientTransform="matrix(1 0 0 .3046875 0 21.044067)" gradientUnits="userSpaceOnUse" r="14" xlink:href="#c"/><linearGradient id="W" gradientUnits="userSpaceOnUse" x1="19.679014" x2="23.185186" xlink:href="#a" y1="20.903482" y2="32.096901"/></defs><g transform="translate(-318 -42)"><g transform="translate(318 -3.996258)"><path color="#000" d="m4.518229 80.500013l38.963539 0c .564099 0 1.018229.45413 1.018229 1.018229l0 2.963543c0 1.315584-.450231 3.018228-2.455729 3.018228L40.5 87.5l0 1-33 0 0-1-1.856771.000013c-1.271205 0-2.143228-.884627-2.143228-2.255665l0-3.726106c0-.564099.45413-1.018229 1.018228-1.018229z" fill="url(#D)" overflow="visible" stroke="#2e3436" stroke-dashoffset="1.4" stroke-linecap="square" stroke-linejoin="round"/><path color="#000" d="m4.59375 31.59375l0 3.729743c0 .599619.375651 1.104854.886328 1.104854l36.946329 0c .512469 0 .979843-.507235.979843-1.016466l0-3.818131-38.8125 0z" fill="none" opacity=".1" overflow="visible" stroke="url(#E)" stroke-dashoffset="1.4" stroke-linecap="square" transform="translate(0 50)"/><g opacity=".5" transform="translate(0 50)"><path d="m26.144738 32.088747c0 0-1.502602 5.533939-3.226175 5.911253 0 0 6.231378-.125771 6.231378-.125771 1.387072-.317461 3.358758-5.785482 3.358758-5.785482l-6.363961 0z" fill="url(#F)" fill-rule="evenodd" opacity=".109524"/><path d="m14.769738 32c0 0-1.502602 5.533939-3.226175 5.911253 0 0 6.231378-.125771 6.231378-.125771C19.162013 37.468021 21.133699 32 21.133699 32l-6.363961 0z" fill="url(#G)" fill-rule="evenodd" opacity=".109524"/><path d="m34.886139 32c0 0-2.212224 5.328458-3.108503 5.691761 0 0 2.899969-.121101 2.899969-.121101C35.402697 37.264987 37.8125 32 37.8125 32l-2.926361 0z" fill="url(#H)" fill-rule="evenodd" opacity=".109524"/></g></g><path d="m11.693127 10.498788l24.572566 0c1.68417 0 2.396517.117479 3.040019 2.385005l5.074491 17.881119c.501024 1.765471-1.355848 2.735101-3.040018 2.735101l-34.721554 0c-1.868408 0-3.489383-1.181417-3.040018-2.735101L8.829045 12.611497c.568301-1.964905 1.179912-2.112709 2.864082-2.112709z" fill="url(#C)" stroke="#888a85" stroke-linecap="round" transform="translate(318 45.001212)"/><path color="#000" d="M14.3125 15.53125L10.46875 18.09375 6.84375 30.6875C8.290621 31.387249 10.632675 32.16518 10.4375 34.53125L12.5 34.53125 12.5 30.5C15.236722 32.934807 19.588342 34.5 24.5 34.5 32.278123 34.5 38.690048 30.55511 39.4375 25.5L39.65625 25.5 37.5 18.09375 32.34375 15.53125 14.3125 15.53125z" fill="url(#J)" overflow="visible" stroke-linecap="round" stroke-linejoin="round" transform="translate(318 42)"/><path color="#000" d="M14.25 20L10.375 22.75 8 31.53125c1.246456.670958 2.489039 1.591357 2.34375 3.46875 0 0 14.15625-.5 14.15625-.5 6.703235 0 12.389849-2.923325 14.3125-6.96875L37.5 22.75 32.3125 20 14.25 20z" fill="url(#K)" overflow="visible" stroke-width=".91991" transform="translate(318 42)"/><path color="#000" d="m24 16c-7.728 0-14 3.584001-14 8l0 8.8125c.304858.464446.49599 1.009687.4375 1.71875 0 0 14.0625-.03125 14.0625-.03125 5.854688 0 10.995851-2.23874 13.5-5.5l0-5c0-4.415999-6.272001-8-14-8z" fill="url(#W)" overflow="visible" stroke="#555753" stroke-width=".965641" transform="matrix(.96652645 0 0 .97471764 318.80337 42.87315)"/><path color="#000" d="M10 25L10 32.8125C10.304858 33.276946 10.49599 33.822187 10.4375 34.53125 10.4375 34.53125 24.5 34.5 24.5 34.5 30.354688 34.5 35.495851 32.26126 38 29L38 25C38 29.415999 31.727999 33 24 33 16.272 33 10 29.415999 10 25z" fill="#555753" overflow="visible" transform="translate(318 42)"/><path color="#000" d="M10 26L10 32.8125C10.304858 33.276946 10.49599 33.822187 10.4375 34.53125 10.4375 34.53125 24.5 34.5 24.5 34.5 30.354688 34.5 35.495851 32.26126 38 29L38 26C38 30.415999 31.727999 34 24 34 16.272 34 10 30.415999 10 26z" fill="url(#V)" overflow="visible" transform="translate(318 42)"/><path color="#000" d="m10.330132 31.20256l3.570187 0 0 3.716507-3.570187 0 0-3.716507z" fill="#babdb6" overflow="visible" transform="matrix(1.4004865 0 0 1.0762795 312.53279 39.417324)"/><path color="#000" d="m32.855967 27.786009c0 2.580543-4.631177 4.674897-10.337449 4.674897-5.706271 0-10.337448-2.094354-10.337448-4.674897 0-2.580543 4.631177-4.674897 10.337448-4.674897 5.706272 0 10.337449 2.094354 10.337449 4.674897z" fill="#555753" overflow="visible" transform="matrix(.33857511 0 0 .42781677 320.87579 62.112679)"/><path color="#000" d="m8.15625 30.578125c0 .284625-.238.515625-.53125.515625-.29325 0-.53125-.231-.53125-.515625 0-.284625.238-.515625.53125-.515625.29325 0 .53125.231.53125.515625z" fill="#d3d7cf" overflow="visible" transform="matrix(6.5882368 0 0 -3.8787869 278.2647 191.60603)"/><path color="#000" d="m8.15625 30.578125c0 .284625-.238.515625-.53125.515625-.29325 0-.53125-.231-.53125-.515625 0-.284625.238-.515625.53125-.515625.29325 0 .53125.231.53125.515625z" fill="url(#M)" overflow="visible" transform="matrix(4.7058792 0 0 -2.9090911 292.61767 161.45455)"/><path color="#000" d="M7.5 31C6.032208 29.683128 5.819387 30.305642 4.648834 34.173068 5.002887 35.894701 6.478588 35.599283 8 36c1.656 0 3.175583.04044 2.736626-1.765889C10.216043 32.678552 9.062924 31.461221 7.5 31z" fill="url(#L)" overflow="visible" stroke-width="2.538411" transform="translate(318 42)"/><path d="m11.6875 11.500005c-.803124 0-1.097168.07051-1.21875.155556-.121582.08504-.357707.40212-.6875 1.306667l-5.25 18.137786c-.13372.366765-.054827.533865.3125.84.367327.306136 1.066693.56 1.78125.560001l34.71875 0c .639793 0 1.393345-.237954 1.78125-.52889.387905-.290935.488311-.382809.3125-.871111L38.375 13.242228c-.377206-1.04766-.68208-1.439297-.84375-1.555556-.16167-.116259-.443711-.186667-1.25-.186667l-24.59375 0z" fill="none" stroke="url(#A)" stroke-linecap="round" transform="translate(318 45.001212)"/><g opacity=".302857" transform="translate(325 44.001212)"><path color="#000" d="m19.251297 35.500008l12.497402 0c .416221 0 .751301.333216.751301.747122l0 .505747C32.5 37.166783 32.16492 37.5 31.748699 37.5l-12.497402 0c-.416221 0-.751301-.333217-.751301-.747123l0-.505747c0-.413906.33508-.747122.751301-.747122z" fill="#fff" overflow="visible" stroke="#eeeeec" stroke-dashoffset="1.4" stroke-linecap="square"/><path color="#000" d="m19 36l1 0 0 1-1 0 0-1z" overflow="visible"/><path color="#000" d="m22 36l1 0 0 1-1 0 0-1z" overflow="visible"/><path color="#000" d="m24 36l1 0 0 1-1 0 0-1z" overflow="visible"/><path color="#000" d="m26 36l1 0 0 1-1 0 0-1z" overflow="visible"/><path color="#000" d="m29 36l2 0 0 1-2 0 0-1z" overflow="visible"/></g><path color="#000" d="m8.15625 30.578125c0 .284625-.238.515625-.53125.515625-.29325 0-.53125-.231-.53125-.515625 0-.284625.238-.515625.53125-.515625.29325 0 .53125.231.53125.515625z" fill="url(#y)" overflow="visible" stroke-width=".462594" transform="matrix(-2.628602 0 0 1.777765 378.79309 21.223822)"/><path color="#000" d="m8.15625 30.578125c0 .284625-.238.515625-.53125.515625-.29325 0-.53125-.231-.53125-.515625 0-.284625.238-.515625.53125-.515625.29325 0 .53125.231.53125.515625z" fill="url(#x)" overflow="visible" transform="matrix(1.411772 0 0 .969697 347.98523 45.849697)"/><path d="m40.328109 30.261401l.874999.430332" fill="none" opacity=".4" stroke="url(#w)" stroke-linecap="round" stroke-width=".3" transform="translate(318 45.001212)"/><path color="#000" d="m8 38l32.03125 0 0 1L8 39 8 38z" fill="url(#u)" opacity=".12" overflow="visible" stroke-width=".681836" transform="translate(318 45.001212)"/><path color="#000" d="m8.15625 30.578125c0 .284625-.238.515625-.53125.515625-.29325 0-.53125-.231-.53125-.515625 0-.284625.238-.515625.53125-.515625.29325 0 .53125.231.53125.515625z" fill="url(#B)" overflow="visible" transform="matrix(-2.628602 0 0 1.777765 345.79309 21.223822)"/><path color="#000" d="m8.15625 30.578125c0 .284625-.238.515625-.53125.515625-.29325 0-.53125-.231-.53125-.515625 0-.284625.238-.515625.53125-.515625.29325 0 .53125.231.53125.515625z" fill="url(#z)" overflow="visible" transform="matrix(1.411772 0 0 .969697 314.98523 45.849697)"/><path d="M7.330186 30.695906L8.201031 30.257228" fill="none" opacity=".4" stroke="url(#v)" stroke-linecap="round" stroke-width=".3" transform="translate(318 45.001212)"/><path color="#000" d="m32.855967 27.786009c0 2.580543-4.631177 4.674897-10.337449 4.674897-5.706271 0-10.337448-2.094354-10.337448-4.674897 0-2.580543 4.631177-4.674897 10.337448-4.674897 5.706272 0 10.337449 2.094354 10.337449 4.674897z" fill="url(#T)" overflow="visible" stroke-width=".681673" transform="matrix(-1.3542993 0 0 1.7112675 372.49682 18.450707)"/><path color="#000" d="m24.131688 31.736626c-3.607309 0-6.691105-.781854-9.241857-2.343146l9.241856-5.656854z" fill="url(#S)" opacity=".882591" overflow="visible" transform="matrix(-1.0711586 0 0 1 367.84887 42.263374)"/><path color="#000" d="m14.889831 29.39348c-5.101505-3.122584-5.101505-8.191125 0-11.313709 5.101504-3.122583 13.382207-3.122583 18.483712 0l-9.241856 5.656855z" fill="url(#Q)" opacity=".765182" overflow="visible" transform="matrix(-1.0711586 0 0 1 367.84887 42.263374)"/><path color="#000" d="m33.373543 18.079771c2.550753 1.561292 3.828103 3.448855 3.828103 5.656855l-13.069959 0z" fill="url(#R)" opacity=".906883" overflow="visible" transform="matrix(-1.0711586 0 0 1 367.84887 42.263374)"/><path color="#000" d="M39.546875 25.5L37.5 18.09375l-5.15625-2.5625-18.03125 0-3.84375 2.5625-3.625 12.59375c1.446871.699749 3.788925 1.47768 3.59375 3.84375 0 0 14.0625-.03125 14.0625-.03125 7.778123 0 14.299423-3.94489 15.046875-9z" fill="none" overflow="visible" stroke="url(#I)" stroke-linecap="round" stroke-linejoin="round" transform="translate(318 42)"/><path color="#000" d="m8.15625 30.578125c0 .284625-.238.515625-.53125.515625-.29325 0-.53125-.231-.53125-.515625 0-.284625.238-.515625.53125-.515625.29325 0 .53125.231.53125.515625z" fill="url(#N)" overflow="visible" transform="matrix(-7.529413 0 0 -3.8787893 399.41177 184.6061)"/><path color="#000" d="m8.15625 30.578125c0 .284625-.238.515625-.53125.515625-.29325 0-.53125-.231-.53125-.515625 0-.284625.238-.515625.53125-.515625.29325 0 .53125.231.53125.515625z" fill="url(#O)" overflow="visible" transform="matrix(-5.6470566 0 0 2.9090912 385.05881 -22.454553)"/><path color="#000" d="m32.855967 27.786009c0 2.580543-4.631177 4.674897-10.337449 4.674897-5.706271 0-10.337448-2.094354-10.337448-4.674897 0-2.580543 4.631177-4.674897 10.337448-4.674897 5.706272 0 10.337449 2.094354 10.337449 4.674897z" fill="none" opacity=".668016" overflow="visible" stroke="url(#P)" stroke-width=".771225" transform="matrix(-1.2091958 0 0 1.3904051 369.2293 27.366192)"/><path color="#000" d="m32.855967 27.786009c0 2.580543-4.631177 4.674897-10.337449 4.674897-5.706271 0-10.337448-2.094354-10.337448-4.674897 0-2.580543 4.631177-4.674897 10.337448-4.674897 5.706272 0 10.337449 2.094354 10.337449 4.674897z" fill="none" opacity=".263158" overflow="visible" stroke="#000" stroke-width=".690868" transform="matrix(-1.3059315 0 0 1.6043135 371.40764 21.422531)"/><path color="#000" d="m32.855967 27.786009c0 2.580543-4.631177 4.674897-10.337449 4.674897-5.706271 0-10.337448-2.094354-10.337448-4.674897 0-2.580543 4.631177-4.674897 10.337448-4.674897 5.706272 0 10.337449 2.094354 10.337449 4.674897z" fill="none" overflow="visible" stroke="url(#U)" stroke-width="2.072604" transform="matrix(-.43531041 0 0 .5347712 351.80254 51.140842)"/><path color="#000" d="m32.855967 27.786009c0 2.580543-4.631177 4.674897-10.337449 4.674897-5.706271 0-10.337448-2.094354-10.337448-4.674897 0-2.580543 4.631177-4.674897 10.337448-4.674897 5.706272 0 10.337449 2.094354 10.337449 4.674897z" fill="none" opacity=".202429" overflow="visible" stroke="#000" stroke-width="1.711397" transform="matrix(-.53204623 0 0 .64172535 353.98089 47.669014)"/></g></svg>