<svg fill="#bdbdbd" height="48" version="1.1" viewBox="0 0 48 48" width="48" xmlns="http://www.w3.org/2000/svg"><path d="m30 19l-12 0c-1.11 0-2 .9-2 2l0 24c0 1.1.89 2 2 2l12 0c1.11 0 2-.9 2-2l0-24c0-1.1-.89-2-2-2zm-6 12c-2.21 0-4-1.79-4-4 0-2.21 1.79-4 4-4 2.21 0 4 1.79 4 4 0 2.21-1.79 4-4 4zm-9.9-17.9l2.83 2.83C18.74 14.12 21.24 13 24 13c2.76 0 5.26 1.12 7.07 2.93L33.9 13.1C31.37 10.57 27.87 9 24 9 20.13 9 16.63 10.57 14.1 13.1ZM24 1c-6.07 0-11.57 2.46-15.56 6.44L11.27 10.27C14.53 7.01 19.03 5 24 5c4.97 0 9.47 2.01 12.73 5.27L39.56 7.44C35.57 3.46 30.07 1 24 1Z"/></svg>