<svg viewBox="0 0 48 48" xmlns="http://www.w3.org/2000/svg"><path d="m151.97 495.29c-2.21 0-4 1.79-4 4v28c0 2.21 1.79 4 4 4h28c2.21 0 4-1.79 4-4v-28c0-2.21-1.79-4-4-4h-28m0 4h28v28h-28v-28m16.953125 5.01382a1.125112 1.125112 0 0 0 -.773438.773438l-3.797 13.711-1.969-2.672a1.125112 1.125112 0 0 0 -.914063-.492188h-5.625-1.125v2.25h1.125 5.063l2.953 4.01a1.125112 1.125112 0 0 0 1.96875-.351563l3.445-12.234 2.391 7.805a1.125112 1.125112 0 0 0 1.054688.773438h3.375 1.125v-2.25h-1.125-2.531l-3.234-10.547a1.125112 1.125112 0 0 0 -1.40625-.773438" fill="#bdbdbd" transform="translate(-141.97 -489.29)"/></svg>