<svg version="1.1" viewBox="0 0 48.13 48" xmlns="http://www.w3.org/2000/svg" xmlns:xlink="http://www.w3.org/1999/xlink"><defs><linearGradient id="a" gradientUnits="userSpaceOnUse" x1="125.44" x2="279.02" y1="77.52" y2="-80.39"><stop stop-color="#bd0012"/><stop stop-color="#bd0012"/><stop offset=".07" stop-color="#fff"/><stop offset=".17" stop-color="#fff"/><stop offset=".27" stop-color="#c82f1c"/><stop offset=".33" stop-color="#820c01"/><stop offset=".46" stop-color="#a31601"/><stop offset=".72" stop-color="#b31301"/><stop offset=".99" stop-color="#e82609"/><stop offset="1" stop-color="#e82609"/></linearGradient><linearGradient id="b" gradientUnits="userSpaceOnUse" x1="3.903" x2="7.17" y1="113.55" y2="146.26"><stop stop-color="#fff"/><stop stop-color="#fff"/><stop offset=".31" stop-color="#de4024"/><stop offset=".99" stop-color="#bf190b"/><stop offset="1" stop-color="#bf190b"/></linearGradient><linearGradient id="c" gradientUnits="userSpaceOnUse" x1="298.64" x2="336.04" y1="-67.782" y2="-51.27"><stop stop-color="#b31000"/><stop stop-color="#b31000"/><stop offset=".44" stop-color="#910f08"/><stop offset=".99" stop-color="#791c12"/><stop offset="1" stop-color="#791c12"/></linearGradient><linearGradient id="d" gradientUnits="userSpaceOnUse" x1="243.07" x2="196.82" y1="93.45" y2="82.04"><stop stop-color="#8c0c01"/><stop stop-color="#8c0c01"/><stop offset=".54" stop-color="#990c00"/><stop offset=".99" stop-color="#a80d0e"/><stop offset="1" stop-color="#a80d0e"/></linearGradient><linearGradient id="e" gradientUnits="userSpaceOnUse" x1="147.1" x2="156.31" y1="25.521" y2="65.22"><stop stop-color="#fff"/><stop stop-color="#fff"/><stop offset=".18" stop-color="#e46342"/><stop offset=".4" stop-color="#c82410"/><stop offset=".99" stop-color="#a80d00"/><stop offset="1" stop-color="#a80d00"/></linearGradient><linearGradient id="f" gradientUnits="userSpaceOnUse" x1="170.67" x2="153.99" y1="119.76" y2="63.16"><stop stop-color="#8b2114"/><stop stop-color="#8b2114"/><stop offset=".43" stop-color="#9e100a"/><stop offset=".99" stop-color="#b3100c"/><stop offset="1" stop-color="#b3100c"/></linearGradient><linearGradient id="g" gradientUnits="userSpaceOnUse" x1="322.53" x2="281.43" y1="37.935" y2="1.104"><stop stop-color="#7e110b"/><stop stop-color="#7e110b"/><stop offset=".99" stop-color="#9e0c00"/><stop offset="1" stop-color="#9e0c00"/></linearGradient><linearGradient id="h" gradientUnits="userSpaceOnUse" x1="337.62" x2="317.15" y1="-29.643" y2="-51.53"><stop stop-color="#79130d"/><stop stop-color="#79130d"/><stop offset=".99" stop-color="#9e120b"/><stop offset="1" stop-color="#9e120b"/></linearGradient><linearGradient id="i" gradientUnits="userSpaceOnUse" x1="118.98" x2="158.67" y1="11.542" y2="-8.305"><stop stop-color="#fff"/><stop stop-color="#fff"/><stop offset=".54" stop-color="#c81f11"/><stop offset=".99" stop-color="#bf0905"/><stop offset="1" stop-color="#bf0905"/></linearGradient><linearGradient id="j" gradientUnits="userSpaceOnUse" x1="174.07" x2="132.28" y1="215.55" y2="141.75"><stop stop-color="#fb7655"/><stop stop-color="#fb7655"/><stop offset=".41" stop-color="#e42b1e"/><stop offset=".99" stop-color="#900"/><stop offset="1" stop-color="#900"/></linearGradient><linearGradient id="k" gradientUnits="userSpaceOnUse" x1="96.13" x2="99.21" y1="76.72" y2="132.1"><stop stop-color="#fff"/><stop stop-color="#fff"/><stop offset=".23" stop-color="#e4714e"/><stop offset=".56" stop-color="#be1a0d"/><stop offset=".99" stop-color="#a80d00"/><stop offset="1" stop-color="#a80d00"/></linearGradient><linearGradient id="l" gradientUnits="userSpaceOnUse" x1="38.696" x2="47.05" y1="127.39" y2="181.66"><stop stop-color="#fff"/><stop stop-color="#fff"/><stop offset=".23" stop-color="#e57252"/><stop offset=".46" stop-color="#de3b20"/><stop offset=".99" stop-color="#a60003"/><stop offset="1" stop-color="#a60003"/></linearGradient><linearGradient id="m" gradientUnits="userSpaceOnUse" x1="194.9" x2="141.03" y1="153.56" y2="117.41"><stop stop-color="#871101"/><stop stop-color="#871101"/><stop offset=".99" stop-color="#911209"/><stop offset="1" stop-color="#911209"/></linearGradient><linearGradient id="n" gradientUnits="userSpaceOnUse" x1="151.8" x2="97.93" xlink:href="#m" y1="217.79" y2="181.64"/><radialGradient id="o" cx="218.09" cy="68.17" gradientUnits="userSpaceOnUse" r="66.944"><stop stop-color="#a30c00"/><stop stop-color="#a30c00"/><stop offset=".99" stop-color="#800e08"/><stop offset="1" stop-color="#800e08"/></radialGradient><radialGradient id="p" cx="218.09" cy="68.17" gradientUnits="userSpaceOnUse" r="66.944" xlink:href="#o"/><radialGradient id="q" cx="287.83" cy="1.808" gradientUnits="userSpaceOnUse" r="50.36"><stop stop-color="#a80d00"/><stop stop-color="#a80d00"/><stop offset=".99" stop-color="#7e0e08"/><stop offset="1" stop-color="#7e0e08"/></radialGradient><radialGradient id="r" cx="287.83" cy="1.808" gradientUnits="userSpaceOnUse" r="50.36" xlink:href="#q"/><linearGradient id="s" gradientUnits="userSpaceOnUse" x1="194.9" x2="141.03" xlink:href="#m" y1="153.56" y2="117.41"/></defs><g fill-rule="evenodd" transform="matrix(.20244862 0 0 .20244862 -25.140962 19.705802)"><path d="M198.13 39.95L153.5 130.41 40.38 197.58 186.85 187.64Z" fill="url(#j)" transform="translate(144 -77.58)"/><path d="m140.21 145.93l46.88 41.61-12.59-86.89z" fill="url(#s)" transform="translate(144 -77.58)"/><path d="M40.87 197.39L187.26 187.54l-92.23-7.24z" fill="url(#n)" transform="translate(144 -77.58)"/><path d="M13.34 132.77L41 197.41 64.04 121.93Z" fill="url(#l)" transform="translate(144 -77.58)"/><path d="M58.33 120.01L140.2 146.18 119 63.14Z" fill="url(#k)" transform="translate(144 -77.58)"/><path d="M120 69.1L193.32 64.31 135.97 17.47Z" fill="url(#e)" transform="translate(144 -77.58)"/><path d="M111.49.52L166.5.77 132.77 19.41Z" fill="url(#i)" transform="translate(144 -77.58)"/><path d="M2.7 101.62L0 158.09 14.13 132.32Z" fill="url(#b)" transform="translate(144 -77.58)"/><path d="m145.94 23.07l11.5 32.62 49.97-11.211 57.05-53.02 16.1-51.14L255.209-77.581l-43.1 16.13c-13.579 12.63-39.929 37.62-40.879 38.09-.94.48-17.4 31.59-25.29 46.43" fill="#fff"/><path d="M186.32-35.53C215.75-64.71 253.69-81.95 268.25-67.26c14.551 14.69-.88 50.39-30.31 79.56-29.43 29.17-66.9 47.36-81.45 32.67C141.93 30.29 156.89-6.36 186.32-35.53" fill="url(#a)"/><path d="M185 119.8L207.86 44.08 283.78 68.47C256.33 94.21 225.8 115.97 185 119.8" fill="url(#d)"/><path d="M264.56-8.69L284.05 68.51c22.93-24.11 43.51-50.03 53.589-82.09l-73.08 4.89" fill="url(#g)"/><path d="m337.44-13.19c7.8-23.54 9.6-57.31-27.18-63.58L280.08-60.1 337.44-13.19" fill="url(#h)"/><path d="M144 80.17C145.08 119.021 173.11 119.6 185.05 119.941L157.47 55.531 144 80.171" fill="#9e1209"/><path d="M264.67-8.57C282.29 2.26 317.8 24.01 318.521 24.41c1.119.63 15.31-23.93 18.53-37.81l-72.38 4.83" fill="url(#r)"/><path d="M207.83 44.08L238.39 103.04c18.07-9.8 32.22-21.74 45.18-34.53l-75.74-24.43" fill="url(#p)"/><path d="m157.35 55.61l-4.33 51.56c8.17 11.16 19.41 12.13 31.2 11.26-8.53-21.23-25.57-63.68-26.87-62.82" fill="url(#f)"/><path d="m279.9-59.97l60.71 8.52c-3.24-13.73-13.19-22.59-30.15-25.36l-30.56 16.84" fill="url(#c)"/></g></svg>