<svg viewBox="0 0 256 256" xmlns="http://www.w3.org/2000/svg"><path d="m128 0c-11.395 27.937-18.313 46.24-31 73.34 7.778 8.245 17.338 17.812 32.844 28.656-16.67-6.86-28.03-13.729-36.531-20.875-16.236 33.88-41.691 82.12-93.31 174.88 40.563-23.418 72.01-37.862 101.31-43.37-1.254-5.404-1.924-11.278-1.875-17.375l.031-1.281c.644-25.994 14.169-45.982 30.19-44.625 16.02 1.357 28.488 23.537 27.844 49.53-.121 4.896-.69 9.601-1.656 13.969 28.99 5.673 60.14 20.05 100.16 43.16-7.892-14.53-14.961-27.62-21.688-40.09-10.596-8.213-21.643-18.897-44.19-30.469 15.496 4.03 26.602 8.683 35.25 13.875-68.4-127.34-73.921-144.27-97.37-199.31" fill-rule="evenodd" transform="translate(.002 -.001)"/></svg>