<svg viewBox="0 0 48 48" xmlns="http://www.w3.org/2000/svg"><g transform="matrix(.75 0 0 .75 6 6)"><path d="m23.714 0c-1.979.009-3.869.176-5.532.467-4.899.856-5.789 2.648-5.789 5.953v4.364h11.578v1.455h-11.578-4.345c-3.365 0-6.311 2-7.233 5.806-1.063 4.362-1.11 7.084 0 11.638.823 3.39 2.788 5.806 6.153 5.806h3.981v-5.232c0-3.78 3.306-7.114 7.233-7.114h11.564c3.219 0 5.789-2.622 5.789-5.819v-10.904c0-3.103-2.647-5.435-5.789-5.953-1.989-.327-4.053-.476-6.03-.467m-6.261 3.51c1.196 0 2.173.982 2.173 2.189 0 1.203-.977 2.175-2.173 2.175-1.2 0-2.173-.973-2.173-2.175 0-1.207.972-2.189 2.173-2.189z" fill="#3776ab"/><path d="m36.979 12.239v5.085c0 3.942-3.379 7.26-7.233 7.26h-11.564c-3.168 0-5.789 2.681-5.789 5.819v10.904c0 3.103 2.728 4.929 5.789 5.819 3.665 1.066 7.179 1.258 11.564 0 2.915-.835 5.789-2.515 5.789-5.819v-4.364h-11.564v-1.455h11.564 5.789c3.365 0 4.619-2.321 5.789-5.806 1.209-3.587 1.157-7.04 0-11.638-.832-3.313-2.42-5.806-5.789-5.806h-4.345m-6.504 27.614c1.2 0 2.173.973 2.173 2.175 0 1.207-.972 2.189-2.173 2.189-1.196 0-2.173-.982-2.173-2.189 0-1.203.977-2.175 2.173-2.175" fill="#ffd343"/></g></svg>