<svg viewBox="0 0 41.686 40.12" xmlns="http://www.w3.org/2000/svg"><g fill="#212121"><path d="m17.784 40.12c-.538 0-1.071-.141-1.541-.413l-4.909-2.904c-.733-.41-.375-.555-.134-.64.979-.339 1.176-.417 2.22-1.01.109-.061.252-.038.365.028l3.77 2.239c.137.076.33.076.456 0l14.7-8.485c.137-.078.225-.236.225-.398v-16.965c0-.166-.087-.321-.227-.405l-14.695-8.478c-.136-.079-.316-.079-.454 0l-14.691 8.481c-.143.082-.232.242-.232.403v16.965c0 .162.09.316.231.393l4.03 2.327c2.185 1.092 3.524-.194 3.524-1.487v-16.751c0-.237.19-.424.426-.424h1.865c.232 0 .425.187.425.424v16.751c0 2.916-1.588 4.588-4.352 4.588-.85 0-1.519 0-3.386-.92l-3.855-2.219c-.952-.55-1.541-1.58-1.541-2.682v-16.965c0-1.103.589-2.131 1.541-2.68l14.701-8.495c.93-.526 2.166-.526 3.089 0l14.7 8.495c.952.551 1.544 1.577 1.544 2.68v16.965c0 1.102-.591 2.127-1.544 2.682l-14.7 8.488c-.47.272-1 .413-1.548.413"/><path d="m22.325 28.428c-6.434 0-7.781-2.953-7.781-5.43 0-.235.19-.423.425-.423h1.901c.212 0 .389.152.423.36.286 1.935 1.143 2.912 5.03 2.912 3.096 0 4.415-.701 4.415-2.344 0-.947-.374-1.65-5.186-2.121-4.02-.398-6.51-1.287-6.51-4.505 0-2.966 2.5-4.735 6.691-4.735 4.71 0 7.04 1.635 7.335 5.141.011.121-.031.237-.111.327-.081.084-.194.136-.311.136h-1.909c-.197 0-.372-.141-.412-.332-.458-2.036-1.571-2.687-4.591-2.687-3.381 0-3.774 1.178-3.774 2.061 0 1.069.464 1.381 5.03 1.985 4.518.597 6.664 1.443 6.664 4.618 0 3.203-2.671 5.04-7.329 5.04"/><path d="m38.72 6.891v.327h-.928v2.418h-.374v-2.418h-.924v-.327h2.227"/><path d="m39.05 6.891h.533l.788 2.32.785-2.32h.53v2.745h-.355v-1.62c0-.057.001-.149.003-.277.004-.132.006-.271.006-.419l-.785 2.316h-.368l-.791-2.316v.082c0 .068 0 .17.005.309.003.137.007.238.007.304v1.62h-.355v-2.745"/></g></svg>