<svg xmlns="http://www.w3.org/2000/svg" viewBox="0 0 256 256"><g transform="matrix(1.34737 0 0 1.34737-902.4-586.94)" fill-rule="evenodd" fill-opacity=".118"><path d="m128 0c-11.395 27.937-18.313 46.24-31 73.34 7.778 8.245 17.338 17.812 32.844 28.656-16.67-6.86-28.03-13.729-36.531-20.875-16.236 33.88-41.691 82.12-93.31 174.88 40.563-23.418 72.01-37.862 101.31-43.37-1.254-5.404-1.924-11.278-1.875-17.375l.031-1.281c.644-25.994 14.169-45.982 30.19-44.625 16.02 1.357 28.488 23.537 27.844 49.53-.121 4.896-.69 9.601-1.656 13.969 28.99 5.673 60.14 20.05 100.16 43.16-7.892-14.53-14.961-27.62-21.688-40.09-10.596-8.213-21.643-18.897-44.19-30.469 15.496 4.03 26.602 8.683 35.25 13.875-68.4-127.34-73.921-144.27-97.37-199.31" transform="matrix(.74219 0 0 .74219 669.75 435.62)"/><path d="m818.23 548.55c-41.18-55.895-50.727-100.94-53.14-111.7 21.967 50.669 21.817 51.29 53.14 111.7"/><path d="m765.1 436.43c-1.056 2.597-2.086 5.117-3.062 7.515-1.081 2.656-2.109 5.191-3.131 7.677-1.022 2.486-2.034 4.912-3.038 7.306-1 2.394-2.01 4.762-3.038 7.144-1.028 2.382-2.062 4.788-3.154 7.236-1.093 2.448-2.233 4.945-3.433 7.538-1.199 2.593-2.456 5.278-3.804 8.094-.187.39-.413.834-.603 1.229 5.755 6.096 12.841 13.15 24.283 21.15-12.34-5.078-20.765-10.158-27.07-15.447-.327.668-.614 1.264-.951 1.948-.444.9-.976 1.923-1.438 2.853-.81 1.66-1.656 3.366-2.528 5.126-.335.667-.629 1.243-.974 1.925-5.507 11.05-12.34 24.283-21.13 40.728 24.1-13.576 50.09-33.16 97.3-16.305-2.367-4.483-4.543-8.688-6.587-12.64-2.044-3.953-3.942-7.655-5.706-11.156-1.763-3.5-3.392-6.801-4.917-9.927-1.525-3.126-2.938-6.076-4.268-8.906-1.329-2.83-2.581-5.553-3.757-8.164-1.176-2.611-2.297-5.113-3.363-7.584-1.066-2.471-2.087-4.897-3.085-7.306-.998-2.409-1.973-4.812-2.946-7.236-.348-.866-.696-1.769-1.044-2.644-2.663-6.253-5.398-12.732-8.558-20.16"/></g></svg>