<svg fill="#435813" viewBox="0 0 48 48" xmlns="http://www.w3.org/2000/svg"><path d="m23.99 4c-11.05 0-19.99 8.95-19.99 20 0 11.05 8.94 20 19.99 20 11.05 0 20.01-8.95 20.01-20 0-11.05-8.96-20-20.01-20m .01 4c8.84 0 16 7.16 16 16 0 8.84-7.16 16-16 16-8.84 0-16-7.16-16-16 0-8.84 7.16-16 16-16m6.464844 18.677734a7 7 0 0 1 -6.464844 4.322266 7 7 0 0 1 -2.447266-.451172l-1.404 3.754a11 11 0 0 0 14.01367-6.09375l-3.697-1.531zm-8.465-10.678h4v2h-4zm-7.458988 0a4 4 0 0 0 -.050781.082031 4 4 0 0 0 -.173828.361328 4 4 0 0 0 -.136719.375 4 4 0 0 0 -.099609.386719 4 4 0 0 0 -.058594.396484 4 4 0 0 0 -.021484.398438 4 4 0 0 0  .009766.283203 4 4 0 0 0  .048828.396484 4 4 0 0 0  .087891.390625 4 4 0 0 0  .126953.378906 4 4 0 0 0  .162109.365234 4 4 0 0 0  .199219.347656 4 4 0 0 0  .232422.324219 4 4 0 0 0  .263672.300781 4 4 0 0 0  .292969.273438 4 4 0 0 0  .318359.242188 4 4 0 0 0  .339844.208984 4 4 0 0 0  .361328.173828 4 4 0 0 0  .375.136719 4 4 0 0 0  .386719.097656 4 4 0 0 0  .396484.060547 4 4 0 0 0  .398438.019531 4 4 0 0 0  .283203-.009766 4 4 0 0 0  .396484-.046875 4 4 0 0 0  .390625-.087891 4 4 0 0 0  .378906-.126953 4 4 0 0 0  .365234-.162109 4 4 0 0 0  .347656-.199219 4 4 0 0 0  .324219-.232422 4 4 0 0 0  .300781-.265625 4 4 0 0 0  .273438-.291016 4 4 0 0 0  .242188-.318359 4 4 0 0 0  .208984-.341797 4 4 0 0 0  .173828-.359375 4 4 0 0 0  .136719-.375 4 4 0 0 0  .099609-.388672 4 4 0 0 0  .058594-.394531 4 4 0 0 0  .019531-.400391 4 4 0 0 0 -.009766-.283203 4 4 0 0 0 -.046875-.396484 4 4 0 0 0 -.087891-.390625 4 4 0 0 0 -.126953-.378906 4 4 0 0 0 -.162109-.365234 4 4 0 0 0 -.107422-.185547h-6.918m0 0h-.541v2a4 4 0 0 1  .021484-.398438 4 4 0 0 1  .058594-.396484 4 4 0 0 1  .099609-.386719 4 4 0 0 1  .136719-.375 4 4 0 0 1  .173828-.361328 4 4 0 0 1  .050781-.082031m7.459 2v-2h-.541a4 4 0 0 1  .107422.185547 4 4 0 0 1  .162109.365234 4 4 0 0 1  .126953.378906 4 4 0 0 1  .087891.390625 4 4 0 0 1  .046875.396484 4 4 0 0 1  .009766.283203m4.541078-2a4 4 0 0 0 -.050781.082031 4 4 0 0 0 -.173828.361328 4 4 0 0 0 -.136719.375 4 4 0 0 0 -.099609.386719 4 4 0 0 0 -.058594.396484 4 4 0 0 0 -.021484.398438 4 4 0 0 0  .009766.283203 4 4 0 0 0  .048828.396484 4 4 0 0 0  .087891.390625 4 4 0 0 0  .126953.378906 4 4 0 0 0  .162109.365234 4 4 0 0 0  .199219.347656 4 4 0 0 0  .232422.324219 4 4 0 0 0  .263672.300781 4 4 0 0 0  .292969.273438 4 4 0 0 0  .318359.242188 4 4 0 0 0  .339844.208984 4 4 0 0 0  .361328.173828 4 4 0 0 0  .375.136719 4 4 0 0 0  .386719.097656 4 4 0 0 0  .396484.060547 4 4 0 0 0  .398438.019531 4 4 0 0 0  .283203-.009766 4 4 0 0 0  .396484-.046875 4 4 0 0 0  .390625-.087891 4 4 0 0 0  .378906-.126953 4 4 0 0 0  .365234-.162109 4 4 0 0 0  .347656-.199219 4 4 0 0 0  .324219-.232422 4 4 0 0 0  .300781-.265625 4 4 0 0 0  .273438-.291016 4 4 0 0 0  .242188-.318359 4 4 0 0 0  .208984-.341797 4 4 0 0 0  .173828-.359375 4 4 0 0 0  .136719-.375 4 4 0 0 0  .099609-.388672 4 4 0 0 0  .058594-.394531 4 4 0 0 0  .019531-.400391 4 4 0 0 0 -.009766-.283203 4 4 0 0 0 -.046875-.396484 4 4 0 0 0 -.087891-.390625 4 4 0 0 0 -.126953-.378906 4 4 0 0 0 -.162109-.365234 4 4 0 0 0 -.107422-.185547h-6.918m0 0h-.541v2a4 4 0 0 1  .021484-.398438 4 4 0 0 1  .058594-.396484 4 4 0 0 1  .099609-.386719 4 4 0 0 1  .136719-.375 4 4 0 0 1  .173828-.361328 4 4 0 0 1  .050781-.082031m7.459 2v-2h-.541a4 4 0 0 1  .107422.185547 4 4 0 0 1  .162109.365234 4 4 0 0 1  .126953.378906 4 4 0 0 1  .087891.390625 4 4 0 0 1  .046875.396484 4 4 0 0 1  .009766.283203" fill="#212121"/></svg>