<svg xmlns="http://www.w3.org/2000/svg" fill="#435813" viewBox="0 0 48 48"><path d="M27.5 31.5A3.5 3.5 0 0 1 24 35 3.5 3.5 0 0 1 20.5 31.5 3.5 3.5 0 0 1 24 28 3.5 3.5 0 0 1 27.5 31.5M17 22c1.66 0 3-1.34 3-3 0-1.66-1.34-3-3-3-1.66 0-3 1.34-3 3 0 1.66 1.34 3 3 3zm14 0c1.66 0 3-1.34 3-3 0-1.66-1.34-3-3-3-1.66 0-3 1.34-3 3 0 1.66 1.34 3 3 3M23.99 4C12.94 4 4 12.95 4 24 4 35.05 12.94 44 23.99 44 35.04 44 44 35.05 44 24 44 12.95 35.04 4 23.99 4M24 8C32.84 8 40 15.16 40 24 40 32.84 32.84 40 24 40 15.16 40 8 32.84 8 24 8 15.16 15.16 8 24 8" fill="#212121"/></svg>