<svg height="44.468021mm" version="1.1" viewBox="0 0 122.536068 157.563855" width="34.582401mm" xmlns="http://www.w3.org/2000/svg" xmlns:xlink="http://www.w3.org/1999/xlink"><defs><linearGradient id="a"><stop offset="0" stop-color="#fff"/><stop offset="1" stop-color="#c0815e"/></linearGradient><linearGradient id="b"><stop offset="0" stop-color="#fff"/><stop offset="1" stop-color="#a94436"/></linearGradient><radialGradient id="c" cx="346.786346" cy="514.245422" fx="346.786346" fy="514.245422" gradientTransform="matrix(1 0 0 1.5816993 808.870573 -484.065588)" gradientUnits="userSpaceOnUse" r="48.528633" xlink:href="#b"/><linearGradient id="d" gradientTransform="translate(808.870573 -184.929358)" gradientUnits="userSpaceOnUse" x1="366.085907" x2="394.530853" xlink:href="#a" y1="502.287292" y2="487.388611"/></defs><g transform="translate(-1082.143703 -251.025192)"><path d="m1084.104053 406.750002c0 0 .23769-37.32232.23769-75.2629 0-73.48834-6.19225-78.96191 26.78086-78.96191 32.97311 0 91.77880999999999 0 91.77880999999999 0 0 0 0 71.10587 0 106.00014 0 34.89428 6.52269 48.56371-30.14808 48.56371-36.67077 0-88.64928-.33904-88.64928-.33904z" fill="#a62c39"/><path d="m1159.773653 266.388772c0 0 5.88106 1.17621 10.97798 9.80176 5.09691 8.62555 32.14978 75.66961 32.14978 75.66961l0-54.4978-25.09251-40.77533 7.05726 8.62555 13.3304-10.97798-17.2511-1.17621z" fill="url(#d)"/><path d="m1107.628283 253.450442c0 0 38.81498 25.87666 57.63436 30.97357 18.81938 5.09692 38.42291 10.58591 38.42291 10.58591l-44.69604 109.77973 19.21146.78414 25.09251-61.94713-.78414-90.56829z" fill="url(#c)" opacity=".668224"/><path d="m1143.698763 369.111242l40.3775 38.83434-75.27177-1.58765c0 0-2.35242-23.9163-1.56828-36.46255.78414-12.54626 4.70485-12.54626 4.70485-12.54626z" fill="#fff" fill-opacity=".439614"/><path d="m1180.945463 407.142072l-36.46256-37.63876-33.32599-12.54626-25.87665-57.63436 27.44494-45.87225-18.42732-.78414-7.44934 7.05727-2.74449 5.48899-1.96035 142.71365z" fill-opacity=".362319"/><path d="m1203.293483 347.155292c0 0-36.85463 11.76211-58.81058 22.74009-21.95594 10.97797-33.71806 37.63876-33.71806 37.63876 0 0 47.04846-2.35242 64.69163-1.56828 17.64317.78414 25.87666.78414 27.44494-23.9163 1.56828-24.70044.39207-34.89427.39207-34.89427z" fill="#83222d" opacity=".5"/><path d="m1095.464323 370.570642l0 23.15625 5.90625 0 0-6.03125 5.375 5.375 9.0625 0-7.1875-7.1875c0 0 5.17087-.0835 5.5625-7.5625 0-6.86123-5.17717-7.75-11.15625-7.75l-7.5625 0zm6.1875 6.28125l5.09375 0 0 4.125-5.09375 0 0-4.125z" fill="#fff"/><path d="m1127.214323 370.664392c-3.23371-.0182-7.71875.28158-7.71875 6.375l0 16.09375 6.0625 0 0-3.9375 5.875 0 0 3.84375 6.09375 0 0-16.875c0-5.29295-5.88051-5.5-9.03125-5.5-.39384 0-.81929.003-1.28125 0zm-1.5625 5.8125l5.6875 0 0 6.34375-5.6875 0 0-6.34375z" fill="#fff"/><path d="M1143.600708 370.679535H1149.873836V392.831518H1143.600708Z" fill="#fff"/><path d="m1156.441053 370.973572l0 22.15198 15.09472 0 0-5.88105-8.9196 0 0-16.36895z" fill="#fff"/><path d="m1191.531363 370.777532l0 5.97908-10.09581 0 0 2.15639c0 0 2.05837 0 4.31277 0 2.25441 0 6.95925-.098 6.95925 6.95925 0 7.05727-3.23458 7.44934-9.80176 7.44934-6.56718 0-7.93942 0-7.93942 0l0-5.39097c0 0 6.37114 0 9.11563 0 2.7445 0 2.89586-.89341 2.89586-1.67192 0-.77852-1.40319-1.14064-4.2569-1.14064-2.85371 0-8.14667-1.4022-8.14667-6.89119 0-5.48898 2.7445-7.54735 8.23349-7.54735 5.48898 0 8.72356.098 8.72356.098z" fill="#fff"/><path d="m1100.963083 364.014322l52.14538 0c0 0-11.56608-26.26872-8.62556-50.38106 2.94053-24.11233 21.95595-35.09031 32.73789-36.26652 10.78194-1.17621 16.663 5.48899 16.663 5.48899l2.35242-3.52863c0 0-15.48679-15.68282-35.09031-13.91851-19.60352 1.76432-33.12996 14.70265-41.55947 30.38547-8.42952 15.68282-13.3304 26.66079-16.663 43.12775-3.3326 16.46696-1.96035 25.09251-1.96035 25.09251z" fill="#fff"/><path d="m1090.573213 337.745602l10.19384.78414-1.76432 10.19383-9.60573-1.17621z" fill="#fff"/><path d="m1106.648103 316.181722l2.7445-7.64537-9.01762-3.52864-2.94053 8.23348z" fill="#fff"/><path d="m1119.390393 289.913002l5.29296-6.27313-6.86124-4.50881-5.48898 6.07709z" fill="#fff"/><path d="m1133.308903 265.604632l4.70484 5.68502 6.46916-3.72467-4.70484-5.29295z" fill="#fff"/><path d="m1156.245023 259.135472l1.17621 5.68502 8.03745-.19604-.78415-5.09691z" fill="#fff"/><path d="m1183.493923 265.212562l-.19604 3.52863 5.48899 2.94053 1.17621-1.76432z" fill="#fff"/><path d="m1182.317713 280.307272l0 2.94053 5.29295.58811 0-2.35243z" fill="#fff"/><path d="m1165.458683 282.855732l2.54845 4.70485 3.72467-2.94053-.78414-3.13657z" fill="#fff"/><path d="m1157.421233 288.932822l3.92071 5.88106-2.35243 4.11674-5.68502-6.27313z" fill="#fff"/><path d="m1149.579823 305.203752l-2.54846 5.09691 6.6652 5.68503 1.56828-6.46917z" fill="#fff"/><path d="m1146.835333 323.042952l-.39207 6.86124 8.23348 3.52863-.39207-6.46916z" fill="#fff"/><path d="m1149.187753 347.351322l1.96035 7.05727 10.38987.58811-3.72467-7.64538z" fill="#fff"/><path d="m1084.104053 406.750002c0 0 .23769-37.32232.23769-75.2629 0-73.48834-6.19225-78.96191 26.78086-78.96191 32.97311 0 91.77880999999999 0 91.77880999999999 0 0 0 0 71.10587 0 106.00014 0 34.89428 4.9544 48.56371-30.14808 48.56371-35.10248 0-88.64928-.33904-88.64928-.33904z" fill="none" stroke="#5e000e" stroke-width="3"/></g></svg>