<svg xmlns="http://www.w3.org/2000/svg" viewBox="0 0 352.44 315.96"><defs><filter id="1" color-interpolation-filters="sRGB"><feGaussianBlur stdDeviation="1.62849"/></filter><filter id="2" color-interpolation-filters="sRGB"><feGaussianBlur stdDeviation=".40063"/></filter><filter id="0" color-interpolation-filters="sRGB"><feGaussianBlur stdDeviation=".15992"/></filter><linearGradient x1="78.01" y1="78.39" x2="225.64" y2="203.01" id="3" gradientUnits="userSpaceOnUse"><stop stop-color="#c7f994"/><stop offset="1" stop-color="#87cf3e"/></linearGradient><linearGradient x1="70.49" y1="496.39" x2="113.64" y2="455.88" id="4" gradientUnits="userSpaceOnUse"><stop stop-color="#3d3d3d"/><stop offset="1" stop-opacity=".114"/></linearGradient></defs><g fill-rule="evenodd"><path d="m331.79 510.93c-21.29 0-39.766-16.14-39.766-37.411l-.019-21.992v-6.586h-13.498v-36.651l56.92.268 17.806.038c21.309 0 39.766 16.12 39.766 37.411v64.923h-61.21" transform="matrix(2.56528 0 0 2.56528-685.08-1021.06)" opacity=".26" filter="url(#1)"/><path d="m302.92 246.38c0-36.21 0-121.62 0-121.62 0-40.632-35.633-73.57-79.6-73.57h-45.631v-.098l-123.42-.539v44.38c0 0 10.08 0 18.945 0 13.224 0 15.56 9.129 15.56 21.764l.098 78.45c0 40.632 35.633 73.57 79.55 73.57h108.43c13.901 0 26.06-8.803 26.06-22.332" fill="url(#3)"/></g><path d="m142.94 500.53c-10.752-7.409-18.367-15.92-24.781-27.19-12.644-23.358-9.688-34.953-41-37.688-9.04 0-15.05-2-24.563-2v3.313c0 0 3.759 1.907 7.06 1.907 4.927 0 5.781 3.418 5.781 8.125l.031 29.16c0 15.14 13.295 27.406 29.656 27.406h40.38c2.964 0 5.626-1.168 7.438-3.03" transform="matrix(2.57898 0 0 2.57898-76.47-1034.21)" opacity=".175" fill="url(#4)" filter="url(#2)"/><g fill-rule="evenodd"><path d="m105.52 438.54c-3.837 0-7.246 1.424-9.985 4.191-2.738 2.765-4.175 6.218-4.175 10.114v19.695h8.933v-19.695c0-1.493.487-2.661 1.554-3.738 1.07-1.081 2.203-1.57 3.674-1.57 1.502 0 2.618.487 3.69 1.57 1.066 1.077 1.554 2.245 1.554 3.738v19.695h8.933v-19.695c0-1.493.487-2.661 1.554-3.738 1.072-1.083 2.188-1.57 3.69-1.57 1.471 0 2.604.489 3.674 1.57 1.066 1.077 1.554 2.245 1.554 3.738l.049 23.01c0 4.909-4.675 9.05-10.681 9.05l-28.806-.113c-4.635 0-8.593-4.511-8.593-10.309v-43.34h-8.447v45c0 4.775 1.747 8.962 5.146 12.348 2.905 2.868 6.399 4.564 10.325 4.984v.162h32.07c4.929 0 9.259-1.833 12.752-5.389h.016c2.971-3.052 4.708-6.71 5.13-10.826l-.032-24.582c0-3.896-1.437-7.349-4.175-10.114-2.739-2.767-6.148-4.191-9.985-4.191-3.766 0-7.06 1.4-9.726 3.965-2.657-2.56-5.929-3.965-9.694-3.965" transform="matrix(2.57898 0 0 2.57898-76.47-1034.21)" filter="url(#0)" fill-opacity=".08"/><path d="m193.82 97.38c-9.895 0-18.687 3.674-25.751 10.81-7.06 7.132-10.768 16.04-10.768 26.08v50.792h23.04v-50.792c0-3.851 1.257-6.863 4.01-9.641 2.759-2.787 5.68-4.048 9.474-4.048 3.873 0 6.751 1.255 9.516 4.048 2.75 2.778 4.01 5.789 4.01 9.641v50.792h23.04v-50.792c0-3.851 1.257-6.863 4.01-9.641 2.765-2.793 5.643-4.048 9.516-4.048 3.794 0 6.715 1.262 9.474 4.048 2.75 2.778 4.01 5.789 4.01 9.641l.125 59.35c0 12.66-12.06 23.33-27.545 23.33l-74.29-.292c-11.953 0-22.16-11.634-22.16-26.585v-111.76h-21.786v116.06c0 12.314 4.506 23.11 13.272 31.844 7.492 7.395 16.503 12.189 26.627 13.272h82.72c12.711 0 23.878-4.726 32.887-13.898h.042c7.662-7.872 12.142-17.305 13.23-27.921l-.083-63.4c0-10.05-3.707-18.952-10.768-26.08-7.06-7.136-15.856-10.81-25.751-10.81-9.713 0-18.211 3.612-25.08 10.225-6.852-6.603-15.291-10.225-25-10.225" fill="#fff"/><path d="m180.27 216.74v22.752h54.11c12.711 0 23.812-4.741 32.821-13.913h.077c7.662-7.872 12.13-17.286 13.221-27.902v-12.913h-22.983v8.84c0 12.66-12.03 23.29-27.518 23.29l-49.732-.154" opacity=".3" fill="#52a800"/><path d="m167.71 285.55c-52.37 0-97.81-39.699-97.81-92.02l-.047-63.53v-16.2h-33.2v-80.72l140.01.659 43.796.094c52.41 0 97.81 39.652 97.81 92.02v159.69h-150.56m129.22-42.837c0-34.788 0-116.85 0-116.85 0-39.04-34.24-70.69-76.48-70.69h-43.843v-.094l-118.58-.518v37.91c0 0 4.763 0 13.283 0 9.02 0 19.87 8.475 19.87 20.911l.094 80.1c0 39.04 34.24 70.69 76.43 70.69h104.18c13.356 0 25.04-8.458 25.04-21.457" fill="#fff"/></g></svg>