<svg fill="#956449" viewBox="0 0 48 48" xmlns="http://www.w3.org/2000/svg"><path d="m27.25 34.588c.337 2.574-1.888 3.844-4.067 2.185-6.937-5.281 11.485-7.916 10.271-15.13-1.01-5.989-19.384-4.145-21.476 5.226-1.416 6.338 5.83 15.13 13.392 15.13 3.72 0 8.01-3.359 8.813-7.614.613-3.245-7.214-1.945-6.933.202m-9.918-17.434c1.899-.387 2-8.178-1.384-6.78-3.388 1.398-.514 7.168 1.384 6.78m-4.495 3.595c1.595-.702.205-7.571-2.507-5.698-2.712 1.874.912 6.4 2.507 5.698m10.281-5.405c2.243.137 4.704-8.561.488-8.01-4.215.547-2.732 7.877-.488 8.01m12.436-9.345c-7.489 0-8.894 10.667-4.681 10.667 4.212 0 12.17-10.667 4.681-10.667" fill="#bdbdbd"/></svg>