<svg xmlns="http://www.w3.org/2000/svg" viewBox="0 0 256 256"><defs><linearGradient id="0" gradientUnits="userSpaceOnUse" gradientTransform="matrix(-.52228 0 0 .52225 470.69 15.879)" x1="541.34" y1="104.51" x2="606.91" y2="303.14"><stop stop-color="#fff" stop-opacity="0"/><stop offset="1" stop-color="#fff" stop-opacity=".272"/></linearGradient><linearGradient id="1" gradientUnits="userSpaceOnUse" gradientTransform="matrix(.98744 0 0 .98827-84.14-228.23)" x1="200.96" y1="508.03" x2="301.54" y2="296.88"><stop stop-color="#35a6c2"/><stop offset="1" stop-color="#c1e5ee"/></linearGradient></defs><g transform="translate(-246.25-26.84)"><text x="485" y="211.09" font-family="Trebuchet MS" font-size="24"><tspan x="485" y="211.09"/></text><g transform="matrix(1.004 0 0 1.004 215.88 6.914)" fill-rule="evenodd"><g stroke-linejoin="round" stroke-linecap="round" stroke-miterlimit="10"><path d="m157.74 20.844c-11.261 27.61-18.08 45.693-30.615 72.48 7.687 8.149 17.13 17.599 32.459 28.316-16.475-6.779-27.698-13.562-36.1-20.624-16.05 33.483-41.22 81.16-92.24 172.83 39.91-23.04 70.898-37.31 99.75-42.815-1.226-5.309-1.892-11.06-1.844-17.05l.025-1.263c.634-25.614 13.947-45.31 29.718-43.977 15.77 1.337 28.05 23.21 27.419 48.827-.117 4.737-.671 9.264-1.591 13.501 28.8 5.534 59.729 19.803 99.52 42.777-7.799-14.359-14.797-27.305-21.445-39.632-10.472-8.116-21.381-18.674-43.661-30.11 15.314 3.979 26.286 8.584 34.833 13.716-67.59-125.85-73.06-142.58-96.24-196.97z" fill="url(#1)" stroke="#08a" stroke-width="1.992"/><path d="m157.74 24.08c-10.973 26.904-16.815 42.926-29.03 69.03 7.491 7.94 22.963 20.08 33.629 30.659-16.05-5.406-30.32-13.882-38.506-20.764-15.636 32.627-39.632 78.29-89.34 167.61 38.89-22.452 66.802-35.29 94.92-40.654-1.194-5.173-1.843-10.781-1.797-16.614l.025-2.297c.618-24.959 15.874-45.22 31.24-43.92 15.367 1.303 29.469 24.753 28.852 49.712-.114 4.616-.654 9.03-1.551 13.156 28.06 5.393 56.07 18.231 94.85 40.617-7.6-13.992-13.752-24.34-20.231-36.35-10.204-7.909-22.7-17.549-44.841-31.431 5.731-.718 25.664 6.764 34.813 11.437-65.866-122.63-70.43-137.18-93.02-190.19z" fill="none" stroke="#e1f3f7" stroke-width="1.793"/></g><path d="m228.96 171.21c-54.836-74.43-67.55-134.42-70.77-148.74 29.25 67.47 29.05 68.3 70.77 148.74" fill="#fff" fill-opacity=".456"/><path d="m158.22 21.933c-1.405 3.455-2.779 6.802-4.078 9.992-1.44 3.536-2.81 6.931-4.171 10.241-1.361 3.31-2.71 6.523-4.047 9.712-1.337 3.188-2.678 6.353-4.047 9.525-1.368 3.172-2.747 6.359-4.202 9.618-1.455 3.26-2.979 6.602-4.576 10.05-1.597 3.453-3.28 7.02-5.074 10.77-.245.512-.529 1.1-.778 1.619 7.666 8.12 17.1 17.507 32.34 28.17-16.441-6.765-27.653-13.528-36.05-20.575-.439.897-.824 1.696-1.276 2.615-.589 1.196-1.285 2.563-1.899 3.797-1.078 2.211-2.2 4.473-3.362 6.817-.45.894-.845 1.668-1.307 2.584-7.334 14.715-16.435 32.33-28.14 54.22 32.08-18.08 66.69-44.17 129.55-21.727-3.152-5.97-6.06-11.576-8.778-16.84-2.721-5.264-5.247-10.186-7.595-14.848-2.348-4.661-4.537-9.04-6.568-13.198-2.03-4.163-3.895-8.122-5.665-11.891-1.77-3.768-3.445-7.355-5.01-10.832-1.566-3.477-3.03-6.826-4.451-10.116-1.42-3.291-2.78-6.535-4.109-9.743-1.329-3.208-2.627-6.39-3.922-9.618-.349-.869-.709-1.771-1.058-2.646-3.666-8.595-7.38-17.472-11.735-27.703" fill="url(#0)"/></g></g></svg>