<svg fill="#bdbdbd" height="48" version="1.1" viewBox="0 0 48 48" width="48" xmlns="http://www.w3.org/2000/svg"><g fill="#bdbdbd"><path d="m24.909341 31.862637l-4.771978 0L18.357143 42l-4.524725 0 1.78022-10.137363-5.612637 0 0-4.252747 6.354396 0 1.236264-7.021978-5.736264 0 0-4.302198 6.502747 0 1.804945-10.285714 4.5 0-1.804945 10.285714 4.796703 0 1.804945-10.285714 4.524725 0-1.804945 10.285714 5.414835 0 0 4.302198-6.181319 0-1.236264 7.021978 5.538462 0 0 4.252747-6.28022 0L27.653846 42 23.129121 42 24.909341 31.862637Zm-4.03022-4.252747l4.771978 0 1.236264-7.021978-4.796703 0-1.211538 7.021978z" fill="#bdbdbd"/></g></svg>