<svg viewBox="0 0 47.999425 48.060259" xmlns="http://www.w3.org/2000/svg"><g transform="matrix(.01071 0 0 -.01071 6.205 44.03)"><g fill="#6596d4" fill-rule="evenodd"><path d="m1662.28 2418.01c-303.61 0-549.76-246.13-549.76-549.74 0-99.29 26.47-192.36 72.51-272.75l952.72 548.57c-95.23 163.74-272.43 273.92-475.47 273.92"/><path d="m558.24 1868.27c0 609.73 494.29 1104.02 1104.04 1104.02 408.42 0 765.01-221.81 956-551.51l665.48 383.19c-26.69 46.86-66.67 86.13-120.28 117.18-442.6 255.19-885.61 509.61-1328.07 765.07-119.28 68.87-234.93 66.37-353.33-3.49-176.16-103.9-1058.16-609.21-1320.98-761.44-108.24-62.66-160.91-158.56-160.93-283.19-.168-513.23 0-1026.44-.168-1539.67.023-61.46 12.891-115.89 38.867-162.83l665.59 383.24c-93 161.8-146.22 349.39-146.22 549.43"/></g><g fill="#224b8b"><path d="m1185.03 1595.52c94.76-165.43 272.9-277.01 477.25-277.01 205.62 0 384.77 112.99 479.05 280.19l-473.96 274.56-482.34-277.74"/><path d="m1662.28 764.23c-409.71 0-767.3 223.17-957.82 554.61l-665.59-383.24c26.703-48.26 67.24-88.61 122.09-120.37 262.84-152.23 1144.94-657.5 1321.07-761.42 118.45-69.887 234.1-72.39 353.42-3.5 442.47 255.47 885.51 509.88 1328.17 765.08 54.85 31.738 95.39 72.11 122.09 120.35l-664.57 384.98c-190.24-332.42-548.4-556.49-958.86-556.49"/></g><path d="m3235.41 1806.24h-126.46v-126.48h-126.49v126.48h-126.45v126.46h126.45v126.46h126.49v-126.46h126.46v-126.46m-461.45 0h-126.45v-126.48h-126.47v126.48h-126.46v126.46h126.46v126.46h126.47v-126.46h126.45v-126.46m550.43 831.74c-.02 62.83-13.46 118.34-40.63 165.99l-1616.39-930.71 1618.34-937.52c25.93 46.934 38.83 101.37 38.85 162.83 0 0 0 1026.17-.17 1539.41" fill="#2a5ea8"/><g fill="#fff"><path d="m3108.95 2059.16h-126.49v-126.46h-126.45v-126.46h126.45v-126.48h126.49v126.48h126.46v126.46h-126.46v126.46"/><path d="m2647.51 2059.16h-126.47v-126.46h-126.46v-126.46h126.46v-126.48h126.47v126.48h126.45v126.46h-126.45v126.46"/><path d="m2141.33 1598.7c-94.28-167.2-273.43-280.19-479.05-280.19-204.35 0-382.49 111.58-477.25 277.01-46.04 80.39-72.51 173.46-72.51 272.75 0 303.61 246.15 549.74 549.76 549.74 203.04 0 380.24-110.18 475.47-273.92l480.53 276.69c-190.99 329.7-547.58 551.51-956 551.51-609.75 0-1104.04-494.29-1104.04-1104.02 0-200.04 53.22-387.63 146.22-549.43 190.52-331.44 548.11-554.61 957.82-554.61 410.46 0 768.62 224.07 958.86 556.49l-479.81 277.98"/></g></g></svg>