<svg xmlns="http://www.w3.org/2000/svg" viewBox="0 0 217 223"><path d="m96.5 0c-53.27 0-96.5 43.23-96.5 96.5 0 32.23 15.828 60.783 40.13 78.31v28.875c0 10.571 8.522 19.09 19.09 19.09h138.56c10.571 0 19.09-8.522 19.09-19.09v-138.59c0-10.571-8.522-19.09-19.09-19.09h-19.06c-16.99-27.589-47.46-46-82.22-46" fill="#bdbdbd"/><g fill="#fff"><path d="m100 30.16c-38.571 0-69.844 31.27-69.844 69.844 0 38.574 31.27 69.844 69.844 69.844 38.571 0 69.844-31.27 69.844-69.844 0-38.574-31.27-69.844-69.844-69.844m.334 9.673c33.23 0 60.2 26.941 60.2 60.17 0 33.23-26.967 60.17-60.2 60.17-17.945 0-34.05-7.865-45.07-20.323 4.532-3.518 12.12-2.66 21.455-1.595 4.476.509 9.577 1.092 14.843 1.209 14.712.085 30.541-2.6 40.31-6.869 6.316-2.77 10.36-4.594 12.888-6.894.911-.748 1.39-1.997 1.878-3.293l.334-.875c.409-1.047.997-3.299 1.261-4.528.118-.538.175-1.116-.206-1.415l-1.363.257c-4.287 2.571-14.997 7.467-25.03 7.666-12.433.26-37.492-12.516-40.11-13.866l-.257-.309c-.627-1.495-4.377-10.398-5.171-12.271 18.04 11.878 32.992 18.452 44.45 19.474 12.743 1.132 22.683-5.825 26.934-8.798.83-.566 1.464-1.01 1.724-1.106l.283-.463c-.705-4.479-7.391-26.15-12.425-31.359-1.396-1.428-2.505-2.817-4.759-4.142-18.223-10.621-61.49-17.02-63.52-17.313l-.334.103-.129.283c0 0-.162 8.984-.18 9.981-1.485-.491-6.088-1.999-12.682-3.807 8.604-10.646 21.789-20.09 44.865-20.09m15.898 31.848c.307-.005.617-.01.926 0 10.208.367 18.228 8.964 17.879 19.17-.182 4.935-2.262 9.494-5.865 12.863-3.614 3.386-8.311 5.151-13.274 4.991-10.19-.381-18.21-8.979-17.879-19.17.174-4.942 2.266-9.531 5.891-12.888 3.385-3.174 7.717-4.896 12.322-4.965m-.489 5.454c-2.973.181-5.778 1.388-7.975 3.447-2.503 2.35-3.98 5.532-4.09 8.978-.235 7.121 5.337 13.11 12.451 13.377 3.457.107 6.737-1.104 9.261-3.447 2.517-2.361 3.983-5.571 4.09-9 .239-7.132-5.359-13.1-12.477-13.351-.431-.016-.836-.026-1.261 0m3.396 6.457c3.162 0 5.711 1.718 5.711 3.833 0 2.104-2.549 3.833-5.711 3.833-3.172 0-5.737-1.732-5.737-3.833 0-2.115 2.564-3.833 5.737-3.833" transform="matrix(1.19766 0 0 1.19766-23.927-22.643)"/><g transform="matrix(.61293 0 0 .61555-137.06 105.14)"><path d="m560.78 141.07h-.162c-.187 0-.349-.162-.349-.349v-2.501l-.548.834c-.062.087-.174.124-.274.124h-.063c-.099 0-.212-.037-.274-.124l-.56-.834v2.501c0 .187-.162.349-.361.349h-.162c-.187 0-.349-.162-.349-.349v-2.987h-1.68v2.987c0 .187-.174.349-.373.349h-.149c-.187 0-.349-.162-.349-.349v-2.987h-1.257c-.187 0-.336-.125-.336-.323v-.174c0-.199.149-.324.336-.324h4.406c.174 0 .286.062.349.162l.834 1.257.834-1.257c.062-.087.162-.162.349-.162h.56v3.833c0 .187-.174.349-.373.349"/><path d="m416.73 135.83c-6.02 0-9.359 5.102-9.359 8.637v4.53c0 5.19 4.244 8.413 8.189 8.413h13.814c1.73 0 2.091 1.132 2.091 2.091v2.925c0 .311-.05 3.124-2.091 3.124h-18.854c-1.867 0-3.223 1.294-3.223 3.074v.809c0 1.767 1.344 3.074 3.223 3.074h19.888c5.19 0 8.55-3.609 8.55-9.21v-4.891c0-5.252-3.783-7.604-7.529-7.604h-13.59c-2.054 0-2.974-1.518-2.974-2.613v-2.688c0-1.705 1.132-2.676 3.124-2.676h15.06c1.842 0 3.223-1.319 3.223-3.074v-.809c0-1.742-1.406-3.074-3.285-3.074h-16.229"/><path d="m473.27 135.83c-1.78 0-3.223 1.444-3.223 3.223v23.15c0 1.842-1.506 3.335-3.335 3.335h-10.504c-1.842 0-3.335-1.494-3.335-3.335v-23.15c0-1.78-1.431-3.223-3.223-3.223h-1.02c-1.792 0-3.223 1.419-3.223 3.223v24.03c0 5.588 4.393 9.645 10.454 9.645h11.226c6.06 0 10.454-4.057 10.454-9.645v-24.03c0-1.805-1.419-3.223-3.223-3.223h-1.02"/><path d="m493.39 135.83c-6.02 0-9.359 5.102-9.359 8.637v4.53c0 5.19 4.256 8.413 8.189 8.413h13.814c1.73 0 2.103 1.132 2.103 2.091v2.925c0 .311-.062 3.124-2.103 3.124h-18.854c-1.867 0-3.223 1.294-3.223 3.074v.809c0 1.767 1.356 3.074 3.223 3.074h19.875c5.202 0 8.55-3.609 8.55-9.21v-4.891c0-5.252-3.771-7.604-7.529-7.604h-13.59c-2.053 0-2.974-1.518-2.974-2.613v-2.688c0-1.705 1.132-2.676 3.111-2.676h15.06c1.829 0 3.223-1.319 3.223-3.074v-.809c0-1.742-1.406-3.074-3.298-3.074h-16.216"/><path d="m525.16 135.83c-1.779 0-3.148 1.319-3.148 3.074v30.528c0 1.742 1.319 3.074 3.086 3.074h24.33c1.867 0 3.224-1.294 3.224-3.074v-.809c0-1.767-1.344-3.074-3.224-3.074 0 0-19.03 0-19.925 0 0-.797 0-6.982 0-7.778.896 0 14.599 0 14.599 0 1.867 0 3.223-1.294 3.223-3.087v-.796c0-1.78-1.357-3.086-3.223-3.086 0 0-13.702 0-14.599 0 0-.796 0-7.193 0-7.99.896 0 18.917 0 18.917 0 1.867 0 3.224-1.294 3.224-3.074v-.809c0-1.78-1.357-3.074-3.224-3.074h-23.25"/><path d="m318.31 150.36c-3.037 0-5.513 2.365-5.513 5.289v11.512c0 2.962 2.389 5.376 5.327 5.376h7.442c2.937 0 5.339-2.414 5.339-5.376v-11.512c0-2.912-2.477-5.289-5.513-5.289h-7.081m-1.605 16.353v-10.504c0-1.232 1.01-2.24 2.24-2.24h5.799c1.207 0 2.24 1.021 2.24 2.24v10.504c0 1.232-1.01 2.24-2.24 2.24h-5.849c-1.232 0-2.19-.983-2.19-2.24"/><path d="m347.78 150.22c-2.153 0-3.759.772-5.065 1.394-.784.373-1.469.697-2 .697-.224 0-.436-.099-.548-.274l-.485-.946c-.112-.249-.61-.734-1.232-.734h-.722c-.697 0-1.269.623-1.269 1.406v29.18c0 .908.709 1.63 1.63 1.63h.635c.896 0 1.63-.734 1.63-1.63v-9.683c0-.286.187-.585.361-.585.535 0 1.22.299 2.02.672 1.294.585 2.912 1.331 5.065 1.331h.672c3.796 0 6.16-2.165 6.16-5.65v-11.139c0-3.435-2.414-5.662-6.16-5.662h-.684v-.012m-7.442 16.266v-10.04c0-1.381 1.083-2.464 2.464-2.464h5.426c1.381 0 2.464 1.083 2.464 2.464v10.04c0 1.357-1.095 2.464-2.464 2.464h-5.426c-1.357 0-2.464-1.108-2.464-2.464"/><path d="m365.65 150.36c-3.037 0-5.513 2.365-5.513 5.289v11.425c0 2.962 2.402 5.476 5.239 5.476h7.679c.946 0 1.63-.647 1.63-1.543v-.498c0-.896-.685-1.543-1.63-1.543h-6.297c-1.767 0-2.701-.859-2.701-2.514 0 0 0-2.875 0-3.335.51 0 11.375 0 11.375 0 1.817 0 2.912-1.12 2.912-3.01v-4.43c0-2.912-2.476-5.289-5.513-5.289h-7.168l-.013-.025m-1.605 5.8c0-1.22.958-2.19 2.19-2.19h5.986c1.232 0 2.19.958 2.19 2.19 0 0 0 3.099 0 3.559-.485 0-9.881 0-10.367 0 0-.46 0-3.559 0-3.559"/><path d="m394.18 150.22c-2.141 0-3.759.759-5.05 1.381-.809.373-1.506.709-2.066.709-.249 0-.349-.025-.535-.361l-.448-.821c-.249-.51-.684-.772-1.282-.772h-.635c-.759 0-1.307.585-1.307 1.406v19.14c0 .909.722 1.643 1.63 1.643h.635c.896 0 1.63-.734 1.63-1.643v-14.486c0-1.357 1.108-2.464 2.464-2.464h5.426c1.357 0 2.464 1.108 2.464 2.464v14.486c0 .909.722 1.643 1.631 1.643h.635c.896 0 1.63-.734 1.63-1.643v-15.02c0-3.435-2.414-5.662-6.16-5.662h-.684"/></g></g></svg>