<svg viewBox="0 0 168 168" xmlns="http://www.w3.org/2000/svg"><path d="m83.79.294c-46.2 0-83.65 37.45-83.65 83.65 0 46.2 37.455 83.65 83.65 83.65 46.19 0 83.65-37.451 83.65-83.65 0-46.2-37.455-83.65-83.65-83.65m.4 11.584c39.803 0 72.1 32.27 72.1 72.06 0 39.803-32.3 72.07-72.1 72.07-21.492 0-40.777-9.419-53.979-24.34 5.428-4.214 14.51-3.186 25.695-1.911 5.36.61 11.471 1.309 17.777 1.449 17.62.102 36.579-3.113 48.28-8.227 7.564-3.318 12.408-5.502 15.436-8.258 1.092-.895 1.664-2.391 2.248-3.943l.4-1.047c.49-1.254 1.195-3.951 1.51-5.423.141-.644.211-1.337-.246-1.694l-1.633.308c-5.135 3.079-17.961 8.942-29.979 9.182-14.891.312-44.902-14.991-48.03-16.606l-.308-.37c-.75-1.791-5.242-12.453-6.193-14.696 21.603 14.226 39.513 22.1 53.24 23.323 15.262 1.356 27.17-6.977 32.26-10.537.994-.678 1.752-1.21 2.064-1.325l.338-.555c-.844-5.363-8.852-31.32-14.881-37.557-1.672-1.71-3-3.375-5.699-4.96-21.824-12.72-73.64-20.381-76.07-20.735l-.401.124-.154.339c0 0-.194 10.76-.216 11.954-1.778-.588-7.292-2.394-15.189-4.56 10.306-12.751 26.1-24.06 53.734-24.06m19.04 38.14c.367-.006.738-.013 1.109 0 12.225.439 21.83 10.736 21.412 22.953-.217 5.91-2.709 11.371-7.03 15.405-4.328 4.055-9.953 6.169-15.896 5.977-12.205-.456-21.81-10.753-21.414-22.953.209-5.919 2.714-11.415 7.06-15.436 4.053-3.801 9.241-5.863 14.758-5.946m-.586 6.532c-3.561.217-6.92 1.663-9.551 4.129-2.998 2.814-4.768 6.625-4.898 10.753-.283 8.528 6.391 15.705 14.912 16.02 4.141.127 8.07-1.323 11.09-4.129 3.02-2.828 4.771-6.673 4.9-10.783.285-8.542-6.42-15.692-14.943-15.991-.515-.019-1-.031-1.51 0m4.067 7.733c3.787 0 6.84 2.058 6.84 4.591 0 2.521-3.053 4.591-6.84 4.591-3.799 0-6.871-2.074-6.871-4.591 0-2.533 3.072-4.591 6.871-4.591" fill="#bdbdbd"/></svg>