<svg enable-background="new -0.866 -0.866 285 285" viewBox="-.866 -.866 285 285" xmlns="http://www.w3.org/2000/svg"><path d="M283.465 141.734c0 78.273-63.457 141.73-141.734 141.73S0 220.008 0 141.734C0 63.455 63.453 0 141.73 0S283.465 63.455 283.465 141.734z" fill="#dd4814"/><path d="m45.36 122.81c-10.453 0-18.923 8.47-18.923 18.923 0 10.449 8.47 18.92 18.923 18.92 10.449 0 18.92-8.471 18.92-18.92 0-10.454-8.47-18.923-18.92-18.923m135.11 86c-9.05 5.225-12.149 16.793-6.926 25.84 5.226 9.05 16.793 12.151 25.844 6.926 9.05-5.224 12.148-16.792 6.923-25.842-5.224-9.05-16.793-12.148-25.841-6.924m-94-67.08c0-18.701 9.293-35.22 23.504-45.22l-13.834-23.17c-16.56 11.06-28.878 27.978-33.995 47.788 5.977 4.872 9.796 12.291 9.796 20.608 0 8.315-3.819 15.734-9.797 20.605 5.116 19.812 17.435 36.726 33.995 47.789l13.835-23.18c-14.211-10-23.504-26.517-23.504-45.22m55.28-55.28c28.877 0 52.56 22.14 55.05 50.37l26.968-.394c-1.327-20.844-10.432-39.562-24.425-53.32-7.194 2.718-15.505 2.306-22.688-1.842-7.192-4.152-11.705-11.156-12.941-18.757-6.992-1.935-14.351-2.99-21.96-2.99-13.09 0-25.449 3.072-36.431 8.512l13.146 23.56c7.08-3.293 14.963-5.143 23.284-5.143m0 110.55c-8.322 0-16.207-1.85-23.285-5.143l-13.148 23.562c10.983 5.438 23.347 8.511 36.433 8.511 7.609 0 14.968-1.055 21.961-2.99 1.236-7.601 5.75-14.605 12.943-18.76 7.183-4.146 15.494-4.558 22.688-1.839 13.992-13.758 23.1-32.476 24.422-53.32l-26.968-.394c-2.481 28.24-26.17 50.37-55.05 50.37m38.727-122.36c9.05 5.227 20.619 2.126 25.842-6.921 5.226-9.05 2.128-20.619-6.923-25.845-9.05-5.224-20.617-2.124-25.843 6.927-5.224 9.05-2.124 20.616 6.924 25.839" fill="#fff"/></svg>