<svg height="113.92" viewBox="0 0 113.927871 113.923303" width="113.93" xmlns="http://www.w3.org/2000/svg"><path d="m361 500.35l-49.745-49.739c-2.862-2.865-7.508-2.865-10.374 0l-10.329 10.33 13.1 13.1c3.046-1.028 6.537-.339 8.964 2.088 2.439 2.442 3.124 5.963 2.07 9.02l12.628 12.628c3.055-1.053 6.58-.373 9.02 2.071 3.411 3.41 3.411 8.935 0 12.345-3.411 3.412-8.936 3.412-12.349 0-2.565-2.566-3.199-6.334-1.9-9.494l-11.777-11.777v30.991c.832.412 1.616.961 2.309 1.651 3.41 3.409 3.41 8.933 0 12.348-3.411 3.409-8.938 3.409-12.345 0-3.41-3.415-3.41-8.939 0-12.348.843-.841 1.818-1.478 2.858-1.905v-31.28c-1.041-.425-2.01-1.057-2.859-1.905-2.583-2.581-3.205-6.372-1.88-9.544l-12.916-12.918-34.11 34.11c-2.866 2.867-2.866 7.513 0 10.378l49.742 49.739c2.864 2.865 7.508 2.865 10.376 0l49.51-49.5c2.865-2.866 2.865-7.514 0-10.379" fill="#f03c2e" transform="translate(-249.22 -448.46)"/></svg>