<svg height="48" version="1.1" viewBox="0 0 48 48" width="48" xmlns="http://www.w3.org/2000/svg"><g transform="translate(-284.101549 -940.688847)"><path d="m308.041926 944.688847l-18.8207 6.622959 2.973912 24.656731 15.865768 8.720309 15.947849-8.837966 2.973117-24.656135-18.939947-6.505899z" fill="#b2b2b2"/><path d="m325.105328 952.619843l-17.107424-5.834043 0 35.820405 14.337125-7.934474 2.770299-22.051887z" fill="#b52e31"/><path d="m291.333779 952.72488l2.548599 22.052384 14.115426 7.828245 0-35.820504-16.664025 5.939875z" fill="#e23237"/><path d="m311.963551 964.602443l-3.934444-8.215896-3.463519 8.215797 7.397963.000099 0 0zm1.499825 3.454377l-10.42822 0-2.33316 5.836031-4.339585.080193 11.635592-25.886462 12.041826 25.885866-4.02219 0-2.554263-5.915628z" fill="#f2f2f2"/><path d="m307.997904 948.086681l.031104 8.299866 3.930072 8.222157-3.952232 0-.008943 3.442949 5.465174.005267 2.554562 5.916522 4.152566.077113-12.172301-25.963873z" fill="#b2b2b2"/></g></svg>