<svg fill="#212121" height="48" version="1.1" viewBox="0 0 48 48" width="48" xmlns="http://www.w3.org/2000/svg"><path d="m38.855 25.95c.08-.64.14-1.29.14-1.95 0-.66-.06-1.31-.14-1.95L43.085 18.74c.38-.3.49-.84.24-1.28l-4-6.93C39.075 10.1 38.555 9.92 38.105 10.1L33.125 12.11c-1.03-.79-2.16-1.46-3.38-1.97l-.75-5.3c-.09-.47-.5-.84-1-.84l-8 0c-.5 0-.91.37-.99.84l-.75 5.3c-1.22.51-2.35 1.17-3.38 1.97L9.895 10.1c-.45-.17-.97 0-1.22.43L4.675 17.46c-.25.43-.14.97.24 1.28l4.22 3.31c-.08.64-.14 1.29-.14 1.95 0 .66.06 1.31.14 1.95L4.915 29.26C4.535 29.56 4.425 30.1 4.675 30.54L8.675 37.47c.25.43.77.61 1.22.43l4.98-2.01c1.03.79 2.16 1.46 3.38 1.97l.75 5.3c.08.47.49.84.99.84l8 0c .5 0 .91-.37.99-.84l.75-5.3c1.22-.51 2.35-1.17 3.38-1.97l4.98 2.01c.45.17.97 0 1.22-.43l4-6.93c.25-.43.14-.97-.24-1.28l-4.22-3.31zm-14.86 5.05c-3.87 0-7-3.13-7-7 0-3.87 3.13-7 7-7 3.87 0 7 3.13 7 7 0 3.87-3.13 7-7 7z"/></svg>