<svg fill="#8C776C" height="48" version="1.1" viewBox="0 0 48 48" width="48" xmlns="http://www.w3.org/2000/svg" xmlns:xlink="http://www.w3.org/1999/xlink"><defs><linearGradient id="a" gradientTransform="scale(1.0058652 .994169)" gradientUnits="userSpaceOnUse" x1="45.447727" x2="45.447727" y1="92.539597" y2="7.01654"><stop offset="0"/><stop offset="1" stop-opacity=".588235"/></linearGradient><filter id="b" color-interpolation-filters="sRGB"><feGaussianBlur stdDeviation="1.71"/></filter></defs><g display="none" transform="translate(97.171924 -29.544574)"><rect fill="url(#a)" filter="url(#b)" height="85" opacity=".9" rx="6" ry="6" width="86" x="5" y="7"/></g><path d="m35.124499 10.103528l0 5.594748c-5.58592.09815-6.95873 5.545665-6.95873 5.545665l4.213109 0 0 5.594745-6.532685 0C21.917115 38.96063 12.8755 37.880943 12.8755 37.880943l0-5.594744c0 0 5.737464 1.064341 8.662908-9.619033C25.197872 9.303236 35.1245 10.103528 35.1245 10.103528ZM10 6C7.79 6 6 7.79 6 10l0 28c0 2.21 1.79 4 4 4l28 0c2.21 0 4-1.79 4-4L42 10C42 7.79 40.21 6 38 6L10 6Z" fill="#d41818"/></svg>