<svg fill="#8C776C" height="48" version="1.1" viewBox="0 0 48 48" width="48" xmlns="http://www.w3.org/2000/svg"><g fill="#8C776C" transform="translate(-8)"/><path d="m28 2c-2.21 0-4 1.79-4 4l0 36c0 2.21 1.79 4 4 4l16 0c2.21 0 4-1.79 4-4L48 6C48 3.79 46.21 2 44 2L28 2Zm0 4l16 0 0 36-16 0 0-4 8 0 0-4-8 0 0-4 8 0 0-4-8 0 0-4 8 0 0-4-8 0 0-4 8 0 0-4-8 0 0-4zM4 4C1.79 4 .019531 5.79.019531 8L0 40c0 2.21 1.770468 4 3.980469 4L22.554688 44C22.211192 43.409609 22 42.732603 22 42L22 27.75 15.75 34 13 31.25 21.955078 22.294922C21.968283 22.281717 21.986257 22.27794 22 22.265625L22 18 18 18 18 7 22 11 22 6 20 4 4 4Zm7 29c1.655 0 3 1.345 3 3 0 2.21-1.79 4-4 4C8.495 40 6.92 39.22 6 38c .845 0 2-.69 2-2 0-1.655 1.345-3 3-3z" fill="#c99c00"/></svg>