<svg height="48" preserveAspectRatio="xMidYMid" version="1.1" width="48" xmlns="http://www.w3.org/2000/svg"><path d="M24 4A20 20 0 0 0 4 24 20 20 0 0 0  24 44 20 20 0 0 0  44 24 20 20 0 0 0  24 4Zm-5.451172 7.164063c1.180395-.085536 2.530196.512895 4.052734 1.761719.307929.256608.360123.719415.103516 1.027344-.256608.325036-.719415.35817-1.027344.101563-1.180395-.975109-2.239472-1.486868-2.992188-1.435547-.171072.017107-.326033.050712-.462891.119141-.838252.427679-1.179965 2.052871-.90625 4.328125.068429.530322.171265 1.07757.291016 1.625 1.094859-.171072 2.274143-.272897 3.505859-.324219 3.096399-3.968865 6.484373-6.536029 8.896484-6.638672C30.659838 11.711408 31.224124 11.848321 31.703125 12.15625c.90668.581644 1.846867 2.018489 1.179688 5.457031-.085536.393465-.460051.649989-.853516.564453-.410572-.085536-.667567-.460522-.582031-.871094.393465-2.004961.18678-3.485843-.548828-3.964844-.205286-.1437-.495276-.207288-.820313-.195313-1.556753.059875-4.260358 1.832069-7.048828 5.167969.410572.006843.838417.022683 1.283203.044922 3.660936.1916 7.083843.896359 9.632813 1.984375 1.283038.54743 2.291264 1.170212 3.009766 1.847656l-.089844.048828c.827987.795484 1.221243 1.640707 1.169922 2.523438-.051322 1.009323-.718262 2.445159-3.609375 3.560547-.085536.034214-.172277.052734-.257813.052734-.299376 0-.580951-.172069-.683594-.462891-.153965-.371226.033798-.795995.410156-.941406 1.66795-.646651 2.6462-1.479166 2.685547-2.283203.051322-.958002-1.179491-2.052304-3.300781-2.958984-2.395005-1.026431-5.644902-1.677055-9.134766-1.865234-.701394-.034214-1.368988-.050781-2.001953-.050781l-.359375 0c-.444787.615858-.906776 1.264932-1.351563 1.949219-.427679.675733-.838486 1.3499-1.214844 2.027344.307929.708237.643672 1.42017 1.009766 2.138672 1.584124 3.113506 3.505871 5.816557 5.421875 7.595703 1.679925 1.561885 3.191045 2.240179 4.029297 1.8125.804037-.410572 1.1638-1.931445.941406-4.052734-.244633-2.420665-1.180185-5.403954-2.617188-8.392578-.171072-.366094-.017454-.803538.341797-.974609.367804-.176204.803538-.024297.974609.341797 1.515696 3.137456 2.492166 6.290591 2.753906 8.878906.131725 1.31041.081297 2.4292570000000004-.158203 3.335938-.273715 1.060645-.803925 1.77841-1.556641 2.171875C29.967378 36.834663 29.556115 36.9375 29.111328 36.9375c-.479001 0-.999445-.119404-1.546875-.341797-.90668-.367804-1.881773-1.041029-2.908203-1.992188-2.035754-1.898897-4.071073-4.738389-5.730469-8.005859-.198443-.388333-.384828-.764738-.564453-1.158203-.829698 1.69361-1.437153 3.347869-1.779297 4.824219-.513215 2.24104-.34675 3.882043.445313 4.400391.740741.489265 2.205797.052001 3.90625-1.152344.330168-.2395.78589-.163426 1.025391.171875.227525.326747.153161.780031-.171875 1.019531-1.71756 1.226585-3.017078 1.625-3.992188 1.625-.66718 0-1.180283-.188234-1.556641-.427734-.735609-.479001-1.197598-1.300614-1.351563-2.429688-.130015-.964845-.034492-2.153651.273438-3.513672.444787-1.910872 1.283978-4.053951 2.447266-6.226563-.461894-1.141049-.838555-2.258185-1.146484-3.335938-3.216149.675733-5.114694 1.87288-5.166016 3.001953-.034214.804037.855827 1.727684 2.429688 2.548828.359251.171072.495291.615359.324219.974609-.188179.359251-.632937.496773-.992188.308594-2.754255-1.419896-3.268118-2.908645-3.216797-3.917969.051322-1.043538.787356-2.548661 3.917969-3.677734.718501-.256608 1.50644-.47979 2.378906-.667969-.136857-.581644-.222587-1.163508-.291016-1.710938C15.674631 15.868225 15.707765 14.688471 15.947266 13.730469 16.22098 12.618502 16.752132 11.848072 17.539063 11.4375c.307929-.153965.650515-.239223 1.009766-.273438zm1.484375 8.679687c-.718501.051322-1.395348.124176-2.035156.214844.181336.634676.393312 1.286929.632813 1.947266.218972-.364383.445319-.729125.679688-1.091797.236079-.364383.478024-.721326.722656-1.070313zm4.080078 2.730469c.88102 0 1.59375.714684 1.59375 1.595703 0 .88273-.71273 1.595703-1.59375 1.595703-.88102 0-1.595703-.712973-1.595703-1.595703 0-.88102.714684-1.595703 1.595703-1.595703z" fill="#42a674"/></svg>