<svg height="256" version="1.1" width="256" xmlns="http://www.w3.org/2000/svg" xmlns:xlink="http://www.w3.org/1999/xlink"><defs><linearGradient id="a"><stop offset="0" stop-color="#d7def0"/><stop offset=".5" stop-color="#fff"/><stop offset="1" stop-color="#d5def0"/></linearGradient><linearGradient id="b"><stop offset="0" stop-color="#b2cde9"/><stop offset="1" stop-color="#c4dbee"/></linearGradient><linearGradient id="c"><stop offset="0" stop-color="#d0e2f1"/><stop offset=".855809" stop-color="#cadef0"/><stop offset="1" stop-color="#95bee3"/></linearGradient><linearGradient id="d"><stop offset="0" stop-color="#658db6"/><stop offset=".767779" stop-color="#527fab"/><stop offset="1" stop-color="#4071a0"/></linearGradient><linearGradient id="e"><stop offset="0" stop-color="#96d0e1"/><stop offset=".678194" stop-color="#89b7e1"/><stop offset="1" stop-color="#699dd3"/></linearGradient><linearGradient id="f"><stop offset="0" stop-color="#3b79bc"/><stop offset="1" stop-color="#94b8e0"/></linearGradient><linearGradient id="g"><stop offset="0" stop-color="#fff"/><stop offset="1" stop-opacity="0"/></linearGradient><radialGradient id="h" cx="-118.77966" cy="121.49152" fx="-118.77966" fy="121.49152" gradientTransform="matrix(.02177942 -.95743591 .97872327 .02221687 -235.0993 5.068445)" gradientUnits="userSpaceOnUse" r="25.491526" xlink:href="#g"/><linearGradient id="i" gradientUnits="userSpaceOnUse" x1="-397.81323" x2="-397.55933" xlink:href="#f" y1="149.18764" y2="51.355946"/><radialGradient id="j" cx="-383.2746" cy="217.91029" fx="-383.2746" fy="217.91029" gradientTransform="matrix(-1.2861568 -.08596317 .11453678 -1.7136762 -425.01982 469.50099)" gradientUnits="userSpaceOnUse" r="59.401995" xlink:href="#e"/><radialGradient id="k" cx="-123.5" cy="-11.570732" fx="-123.5" fy="-11.570732" gradientTransform="matrix(-.00756512 .55751399 -1.0314585 -.01398286 113.23967 103.212)" gradientUnits="userSpaceOnUse" r="95.627118" xlink:href="#d"/><radialGradient id="l" cx="-94.87291" cy="165.27281" fx="-94.87291" fy="165.27281" gradientTransform="matrix(.81293878 1.6998003 -2.1519091 1.0291615 564.39485 118.47915)" gradientUnits="userSpaceOnUse" r="60.481357" xlink:href="#c"/><linearGradient id="m" gradientTransform="translate(3.391713 7.418629)" gradientUnits="userSpaceOnUse" x1="162.07127" x2="220.76114" xlink:href="#b" y1="85.239708" y2="78.875748"/><linearGradient id="n" gradientUnits="userSpaceOnUse" x1="-382.04123" x2="-381.39438" xlink:href="#a" y1="37.280548" y2="165.56691"/></defs><path d="m-92.745764 122.57627a25.491526 25.491526 0 1 1 -50.983056 0 25.491526 25.491526 0 1 1  50.983056 0z" fill="url(#h)" transform="matrix(4.680851 0 0 4.7978723 685.10478 -449.69946)"/><path d="m232.17258 88.120422c0 15.673918-19.79135 34.931518-45.84395 34.931518-26.0526 0-59.92241-16.08123-59.92241-31.755152 0-15.673924 21.11981-28.38015 47.17241-28.38015 19.90254 0 46.36122 18.293224 56.45971 20.3521.79179 1.710571 1.36862 2.925087 2.13424 4.851684z" fill="url(#m)"/><path d="m38.822019 65.971523c12.38148-9.610993 35.314514-1.245318 51.289554 19.334679 15.975027 20.579998 17.694937 51.065068 5.31349 60.676058-12.38147 9.61099-34.17571-5.29155-50.15074-25.87156-12.20392-15.72181-4.05062-41.19089-8.61646-50.430553.61589-1.122052 1.381696-2.456607 2.164156-3.708624z" fill="#2e5c91"/><path d="m230.04347 83.261765c-7.0081-.03265-61.07025.289575-107.66568.0654-17.371 5.108098-31.704627 13.258827-39.181777 29.154945-5.33639-4.54237-40.74576-42.215609-44.40678-46.440684 31.38983-41.648805 74.528017-45.559321 82.915257-45.559321 8.38724 0 70.64407-8.631855 108.33898 62.77966z" fill="url(#k)"/><path d="m117.12454 243.96815c-12.49835-9.45851-14.5752-36.93927 1.14635-57.71356 15.72155-20.77428 41.03582-34.94753 53.53417-25.48904 12.49834 9.4585 7.44792 38.96701-8.27364 59.74129-12.01027 15.87024-35.4911 16.88498-43.22681 23.69505-1.23894-.0455-1.95523-.0605-3.18007-.23374z" fill="#699dd3"/><path d="m120.3032 244.20103c3.58354-6.02268 28.85859-52.8991 52.69131-92.9389 4.41104-17.56095 5.34663-33.64185-4.5584-48.14993 6.62173-2.29412 58.23852-13.976353 63.73684-14.987686 19.9656 48.180076 1.44992 87.338276-2.80522 94.565966-4.25515 7.22768-28.40179 65.25666-109.06453 61.51055z" fill="url(#l)"/><path d="m36.696853 69.642524c3.46858 6.089612 30.72312 52.780196 53.77852 93.272576 13.094367 12.50527 27.684997 19.48512 45.191737 18.03328-1.2738 6.89113-16.62898 57.75037-18.4638 63.03126-51.756237-6.42158-76.669777-41.85476-80.854757-49.1233-4.18497-7.26855-42.72975-56.91452.3483-125.213816z" fill="url(#j)"/><path d="m-338.44068 101.42373c0 32.65032-26.46832 59.11864-59.11865 59.11864-32.65032 0-59.11864-26.46832-59.11864-59.11864 0-32.650327 26.46832-59.118646 59.11864-59.118646 32.65033 0 59.11865 26.468319 59.11865 59.118646z" fill="url(#i)" stroke="url(#n)" stroke-width="10.070136" transform="matrix(.77294737 0 0 .77619098 435.90647 53.275706)"/><path d="m163.54619 108.89582c18.52979 17.09836 16.03302 29.55794 10.0625 44-3.10892-22.25001-2.34478-32.42697-10.0625-44z" fill="#fff"/><path d="m101.42092 173.63924c-22.645593-14.47335-29.809884-45.71983-8.813354-62.99032-10.847561 19.77514-6.225429 32.39863 8.813354 62.99032z" fill="#fff"/></svg>