<svg height="256" version="1.0" width="256" xmlns="http://www.w3.org/2000/svg" xmlns:xlink="http://www.w3.org/1999/xlink"><defs><linearGradient id="a" gradientTransform="matrix(-.3937741 0 0 .393752 978.349691 416.981501)" gradientUnits="userSpaceOnUse" x1="541.335022" x2="606.912476" xlink:href="#b" y1="104.506653" y2="303.140289"/><linearGradient id="b" gradientTransform="translate(287 -83)" gradientUnits="userSpaceOnUse" x1="112.498543" x2="112.498528" y1="6.13721" y2="129.346802"><stop offset="0" stop-color="#fff" stop-opacity="0"/><stop offset="1" stop-color="#fff" stop-opacity=".27451"/></linearGradient></defs><g transform="translate(-269.517828 -73.601247)"><g transform="matrix(1.3473684 0 0 1.3473684 -632.88236 -513.34366)"><g><path d="m764.750151 435.623181c-8.457093 20.73453-13.591954 34.316644-23.007813 54.434814 5.773105 6.11949 12.86824 13.21966 24.376221 21.268311-12.372206-5.091092-20.806165-10.189124-27.113037-15.493164-12.050498 25.145231-30.942431 60.949469-69.255371 129.790039 30.105134-17.38022 53.443138-28.100458 75.192871-32.192383-.930525-4.011041-1.427601-8.370034-1.391602-12.895508l.023193-.950928c.477813-19.292407 10.516307-34.127444 22.404785-33.120117 11.888471 1.007319 21.143096 17.469068 20.665283 36.761475-.090005 3.633913-.51248 7.125609-1.229248 10.367432 21.515667 4.210548 44.633575 14.883027 74.334717 32.030029-5.857292-10.783702-11.103504-20.499093-16.096191-29.75708-7.864286-6.095356-16.063171-14.025436-32.79541-22.613525 11.500789 2.988381 19.743553 6.444043 26.162109 10.297852-50.762025-94.510032-54.863079-107.076967-72.270508-147.927246z" fill="#1793d1" fill-rule="evenodd" stroke-linecap="round" stroke-linejoin="round" stroke-miterlimit="10"/><path d="m818.226071 548.552771c-41.18143-55.89508-50.72685-100.94481-53.14467-111.70015 21.96737 50.6686 21.81733 51.28995 53.14467 111.70015z" fill="#fff" fill-opacity=".16568" fill-rule="evenodd" stroke-linejoin="round" stroke-miterlimit="10" stroke-width="36.099998"/><path d="m765.098051 436.434951c-1.05641 2.59705-2.08559 5.1172-3.06152 7.51465-1.08115 2.65585-2.10928 5.19128-3.13111 7.677-1.02174 2.48575-2.03439 4.91156-3.03833 7.30591-1.00398 2.39446-2.01068 4.76169-3.03833 7.14355-1.02758 2.38177-2.06156 4.78845-3.15429 7.23633-1.09273 2.44796-2.23335 4.94504-3.43262 7.53784-1.19937 2.59282-2.45641 5.27815-3.80371 8.09448-.18662.39008-.41312.83402-.60303 1.22925 5.75521 6.09563 12.84133 13.14976 24.28345 21.15234-12.34021-5.07792-20.76511-10.15751-27.06665-15.44677-.32717.66791-.61387 1.26431-.95093 1.94824-.44365.90024-.97632 1.92315-1.43799 2.85278-.80967 1.66032-1.65574 3.36576-2.52807 5.12574-.33524.66652-.62948 1.24283-.97413 1.92504-5.50733 11.05265-12.33962 24.28304-21.12915 40.72754 24.09557-13.57581 50.08533-33.16242 97.29615-16.30493-2.36708-4.48319-4.54319-8.68756-6.58692-12.64038-2.0437-3.95294-3.94246-7.6555-5.70556-11.15601-1.76297-3.50043-3.39212-6.80069-4.917-9.92675-1.52486-3.12599-2.93832-6.0765-4.26757-8.90625-1.32934-2.8297-2.58106-5.55264-3.75733-8.16407-1.17634-2.6114-2.29708-5.11315-3.36304-7.58422-1.06607-2.4712-2.08657-4.89718-3.08471-7.30591-.99823-2.4088-1.97267-4.81178-2.94556-7.23633-.34772-.86638-.69553-1.7689-1.0437-2.64404-2.66339-6.25269-5.3982-12.73163-8.55835-20.15503z" fill="url(#a)" fill-rule="evenodd" stroke-linecap="round" stroke-linejoin="round" stroke-miterlimit="10" stroke-width=".714167"/></g></g></g></svg>