<svg fill="#956449" height="48" version="1.1" viewBox="0 0 48 48" width="48" xmlns="http://www.w3.org/2000/svg"><path d="M10 6C7.79 6 6 7.79 6 10l0 28c0 2.21 1.79 4 4 4l28 0c2.21 0 4-1.79 4-4L42 10C42 7.79 40.21 6 38 6L10 6Zm13.96875 10a .700611.498501 0 0 1  .640625.253906l7.294922 8.998047a.700611.498501 0 0 1 -.609375.75l-14.591797 0A .700611.498501 0 0 1 16 25.486328a.700611.498501 0 0 1  .09375-.234375l7.296875-8.998047a.700611.498501 0 0 1  .515625-.25A.700611.498501 0 0 1 23.96875 16ZM17 28.001953l13.998047 0c .553923 0 1 .444197 1 .998047l0 2c0 .55385-.446077 1-1 1L17 32c-.553923 0-1-.44615-1-1l0-2c0-.55385.446077-.998047 1-.998047z" fill="#956449"/></svg>