<svg height="48" version="1.1" width="48" xmlns="http://www.w3.org/2000/svg"><g><path d="m26.712891 4.5c.760627.889777 1.315157 1.809283 1.679688 2.773438.364531.964154.539063 1.972956.539063 3.039063 0 1.0035-.141323 1.881944-.378906 2.65625-.237583.774306-.571457 1.443967-.955078 2.03125-.584785.895243-1.272105 1.560053-1.927734 2.144531A16.875 16.875 0 0 1 34.5 14.625a16.875 16.875 0 0 1 9 2.623047L43.5 8.5c0-2.216-1.784-4-4-4l-12.787109 0z" fill="#d50f25" stroke-width="3"/><path d="M34.5 14.625A16.875 16.875 0 0 0 17.625 31.5a16.875 16.875 0 0 0 2.609375 9L39.5 40.5c2.216 0 4-1.784 4-4l0-19.251953A16.875 16.875 0 0 0 34.5 14.625Z" fill="#009925" stroke-width="3"/><path d="m11.5 4.5c-2.216 0-4 1.784-4 4l0 6.529297c1.286423 2.92271 4.121239 5.332031 8.589844 5.332031l1.603516 0c0 0-.437203 1.060234-.439453 2.083984 0 1.50975.541359 2.357109 1.693359 3.662109C13.689088 26.427778 9.962741 27.622948 7.5 29.298828L7.5 36.5c0 2.216 1.784 4 4 4l1.560547 0c-2.626212-1.160749-4.300781-3.197331-4.300781-5.878906 0-3.582 2.980047-6.664547 11.154297-6.779297.6075 0 1.042969.050781 1.042969.050781 0 0 1.434297 1.022109 2.435547 1.787109 2.331 1.84275 3.783203 3.252969 3.783203 5.761719 0 2.121069-1.212904 3.956487-3.349609 5.058594l3.513672 0c2.362455-2.016139 3.574219-4.639279 3.574219-7.244141 0-3.7845-1.885656-5.86-6.660156-9.4375-1.404-1.09125-1.675781-1.784813-1.675781-2.601563 0-1.17.698578-1.943828.955078-2.236328.45225-.477 1.234844-1.022203 1.527344-1.283203 1.60425-1.359 3.871094-3.370766 3.871094-7.384766 0-2.132214-.697495-4.032946-2.21875-5.8125L21.234375 4.5c1.380855 1.560996 3.121094 4.651244 3.121094 8.369141 0 4.56975-3.551156 5.820313-5.472656 5.820313-.9405 0-2.067484-.263516-3.021484-.916016-2.1195-1.37475-4.222656-5.032969-4.222656-9.386719 0-1.613243.398782-2.910911 1.056641-3.886719L11.5 4.5Z" fill="#fff"/><path d="m19.914063 27.841797c-1.021781.014344-1.962414.075469-2.826172.177734-.863758.102265-1.650842.245236-2.365234.425781-.714393.180545-1.357957.399254-1.931641.648438-.573684.249183-1.077898.529711-1.519531.837891-.441633.30818-.820433.644418-1.138672 1.001953-.318239.357535-.575795.735564-.779297 1.132813-.203502.397248-.351796.812915-.449219 1.240234-.097422.42732-.144531.866703-.144531 1.314453 0 .540562.069246 1.054734.199219 1.541016.129973.486281.320156.944844.568359 1.373047.248203.428203.553512.827031.908203 1.193359.354691.366328.759547.701297 1.208984 1.001953.43291.2896.909804.544335 1.419922.769531l10.761719 0c .399336-.205987.770753-.43492 1.103516-.689453.361898-.27682.682381-.579363.960938-.90625.278556-.326887.514619-.677576.705078-1.046875.190459-.369299.335987-.758054.433594-1.162109.097607-.404055.146484-.82275.146484-1.253906 0-.313594-.022109-.61037-.066406-.892578C27.065078 34.26662 26.998453 33.999004 26.912109 33.742188 26.825766 33.485371 26.719891 33.239372 26.59375 33.001953 26.467609 32.764534 26.321891 32.534563 26.158203 32.310547c-.327375-.448031-.727344-.874305-1.191406-1.304688-.464063-.430383-.991469-.865484-1.574219-1.326172-1.00125-.765-2.435547-1.787109-2.435547-1.787109 0 0-.435469-.050781-1.042969-.050781z" fill="#eeb211" stroke-width="3"/><path d="M12.695313 4.5C12.638164 4.584699 12.578449 4.666219 12.525391 4.755859 12.339357 5.070156 12.178307 5.414859 12.046875 5.789063 11.915443 6.163266 11.813561 6.566875 11.744141 7c-.06942.433125-.105469.895656-.105469 1.386719 0 .544219.032086 1.078267.09375 1.597656.061664.51939.152406 1.023363.267578 1.511719.115172.488355.255492.960993.416016 1.412109.160523.451116.341344.881391.539063 1.289063.197719.407672.411914.792368.638672 1.150391.226758.358022.46525.69002.712891.992188.247641.302168.503305.574345.763672.814453.260367.240108.526078.447297.791016.619141.2385.163125.487656.301531.742188.417969.254531.116437.514125.211469.773438.285156.518625.147375 1.035609.212891 1.505859.212891.240187 0 .506132-.019368.787109-.0625.280978-.043132.577371-.110736.878906-.205078.301535-.094342.608296-.215512.910156-.369141.30186-.153628.598906-.339555.880859-.560547.281953-.220992.549202-.477004.791016-.773438.241813-.296433.45723-.631768.638672-1.011719.181441-.379951.328851-.803844.429688-1.275391.100837-.471546.15625-.991281.15625-1.5625 0-.529313-.035142-1.047509-.099609-1.548828C24.191392 10.818993 24.097293 10.33334 23.980469 9.865234 23.863645 9.397129 23.723476 8.947249 23.566406 8.517578 23.409337 8.087907 23.234031 7.678984 23.048828 7.292969 22.678422 6.520938 22.263789 5.841477 21.853516 5.275391 21.643454 4.985552 21.435654 4.727605 21.234375 4.5l-8.539063 0zM7.5 15.029297l0 14.269531C7.73028 29.14207 7.958028 28.983868 8.210938 28.835938 8.561071 28.631139 8.93387 28.434498 9.328125 28.248047c.788511-.372902 1.665457-.706547 2.636719-.996094.971262-.289547 2.0368560000000004-.53366 3.199219-.726563 1.162362-.192902 2.421391-.335 3.783203-.417969-.288-.32625-.537164-.623527-.75-.910156-.212836-.286629-.387563-.561797-.527344-.84375-.139781-.281953-.243664-.57059-.3125-.882813C17.288586 23.15848 17.253906 22.82275 17.253906 22.445313c.000563-.255937.027121-.514496.068359-.757813.041238-.243316.097641-.471516.152344-.667969.109406-.392906.21875-.658203.21875-.658203l-1.603516 0c-.395719 0-.77816-.018244-1.148438-.054688-.370278-.036444-.727334-.09185-1.072266-.162109-.689862-.14052-1.328926-.345453-1.917969-.605469-.589043-.260016-1.128208-.575105-1.617188-.933594C9.845005 18.24698 9.405297 17.844141 9.015625 17.408203 8.625953 16.972266 8.285261 16.504082 7.994141 16.011719 7.806022 15.69356 7.647209 15.363791 7.5 15.029297Z" fill="#3369e8" stroke-width="3"/></g></svg>