<svg fill="#956449" height="48" version="1.1" viewBox="0 0 48 48" width="48" xmlns="http://www.w3.org/2000/svg"><path d="m17.998333 26.66537c-2.206973 0-4.000556 1.793582-4.000556 4.000556 0 1.746909-1.540214 2.667037-2.667037 2.667037C12.557577 34.959856 14.657869 36 16.664815 36c2.947076 0 5.334074-2.386998 5.334074-5.334074 0-2.206973-1.793582-4.000556-4.000556-4.000556zm18.275872-12.495069l-1.780247-1.780247c-.520072-.520072-1.366857-.520072-1.886929 0l-11.941659 11.941659 3.667176 3.667176 11.941659-11.941659c.52674-.52674.52674-1.366857 0-1.886929zM6 6C3.79 6 2 7.79 2 10l0 28c0 2.21 1.79 4 4 4l36 0c2.21 0 4-1.79 4-4L46 10C46 7.79 44.21 6 42 6L6 6Zm0 3.970703l36 0 0 28.058594-36 0 0-28.058594z" fill="#956449"/></svg>