<svg fill="#bdbdbd" height="48" version="1.1" viewBox="0 0 48 48" width="48" xmlns="http://www.w3.org/2000/svg"><path d="m36 32.26c-1.52 0-2.89.59-3.93 1.54L17.82 25.49c.11-.45.18-.92.18-1.4C18 23.61 17.93 23.14 17.82 22.69l14.1-8.23c1.07 1 2.5 1.62 4.08 1.62 3.31 0 6-2.69 6-6 0-3.31-2.69-6-6-6-3.31 0-6 2.69-6 6 0 .48.07.95.18 1.4l-14.1 8.23c-1.07-1-2.5-1.62-4.08-1.62-3.31 0-6 2.69-6 6 0 3.31 2.69 6 6 6 1.58 0 3.01-.62 4.08-1.62l14.25 8.31c-.1.42-.16.86-.16 1.31C30.17 41.31 32.78 43.92 36 43.92c3.22 0 5.83-2.61 5.83-5.83 0-3.22-2.61-5.83-5.83-5.83z"/></svg>