<svg fill="#956449" viewBox="0 0 38 38" xmlns="http://www.w3.org/2000/svg"><path d="m8.417 6c-.831 0-1.616.335-2.215.877-.599.542-1.012 1.292-1.1 2.123l-2.102 20c-.007.066.053.103.051.168 0 .002.002.004.002.006.103 1.567 1.336 2.826 2.93 2.826h.297 25.404.299c1.596 0 2.832-1.262 2.932-2.832 0-.002.002-.004.002-.006.002-.061.055-.099.049-.162l-2.102-20c-.087-.831-.5-1.581-1.1-2.123-.599-.542-1.386-.877-2.217-.877h-21.13" fill="#bdbdbd"/><path d="m10.1 4c-.831 0-1.616.335-2.215.877-.599.542-1.012 1.292-1.1 2.123l-1.787 17c-.007.063.047.102.049.162 0 .002.002.004.002.006.1 1.57 1.335 2.832 2.932 2.832h.299 21.404.297c1.594 0 2.827-1.259 2.93-2.826 0-.002.002-.004.002-.006-.003-.065.058-.102.051-.168l-1.785-17c-.087-.831-.502-1.581-1.102-2.123-.599-.542-1.384-.877-2.215-.877h-17.762" fill="#424242"/><path d="m21.893 11.762c.034-.651-.144-1.158-.535-1.516-.391-.365-.959-.547-1.701-.547-.146 0-.018.019-.152.032.411.032.898.213 1.238.515.41.358.615.865.615 1.516zm-2.762 10.215c-1.094 0-2.079-.201-2.957-.598-.877-.404-1.536-.952-1.975-1.648-.432-.697-.624-1.504-.576-2.422h-.244c0 .918.234 1.725.703 2.422.475.697 1.162 1.245 2.061 1.648.898.397 1.895.598 2.988.598m-.059-2.332c-1.823-.021-2.754-.789-2.754-2.336h-.244c.041.785.306 1.371.795 1.764.489.392 1.203.588 2.141.588.027 0 .036-.015.063-.016m-.571-9.914c-.119-.011-.003-.031-.131-.031-.716 0-1.265.155-1.646.461-.381.299-.559.697-.533 1.191.024.462.275.848.754 1.16.485.313 1.188.605 2.107.879 1.693.501 2.94 1.125 3.74 1.867.4.371.707.788.922 1.25.215.462.336.97.365 1.523.032.615-.054 1.163-.262 1.646-.207.483-.535.9-.982 1.252-.447.348-.98.611-1.598.785-.618.174-1.32.262-2.107.262 1.576 0 2.829-.35 3.76-1.047.931-.703 1.396-1.668 1.396-2.898 0-1.107-.381-2.031-1.143-2.773-.762-.742-1.976-1.366-3.643-1.867-.905-.273-1.592-.566-2.061-.879-.462-.313-.693-.698-.693-1.16 0-.495.199-.892.596-1.191.316-.244.663-.38 1.158-.43m.524-2.217c-.681.036-1.369.121-1.959.361-.825.339-1.472.809-1.939 1.414-.461.599-.712 1.283-.752 2.051-.039.739.129 1.403.502 1.99.373.588.952 1.101 1.736 1.537.576.319 1.363.645 2.361.977.999.326 1.684.638 2.059.938.375.293.549.716.52 1.27-.027.508-.243.905-.648 1.191-.405.28-.956.418-1.652.418-.026 0-.031-.015-.057-.016-.027 0-.037.016-.064.016-.026 0-.033-.015-.059-.016-.027 0-.036.016-.063.016-.938 0-1.651-.196-2.141-.588-.489-.392-.754-.979-.795-1.764h-2.451c-.048.918.144 1.725.576 2.422.439.697 1.097 1.245 1.975 1.648.878.397 1.863.598 2.957.598.788 0 1.49-.088 2.107-.262.618-.174 1.15-.437 1.598-.785.447-.352.775-.769.982-1.252.207-.483.294-1.031.262-1.646-.029-.553-.151-1.061-.365-1.523-.215-.462-.522-.879-.922-1.25-.801-.742-2.047-1.366-3.74-1.867-.919-.273-1.622-.566-2.107-.879-.479-.313-.73-.698-.754-1.16-.026-.495.152-.892.533-1.191.381-.306.93-.411 1.646-.411.131-.019.317-.036.317-.036.133-.013.18-.011.326-.011.127 0 .149-.002.267.008.109.004.224.021.457.054.742 0 1.228.118 1.62.483.391.358.569.865.535 1.516h1.859c-.045-.853-.305-1.615-.783-2.285-.471-.671-1.114-1.19-1.928-1.555-.598-.273-1.301-.37-2.02-.408" fill="#ff8200"/></svg>