<svg fill="#956449" height="48" version="1.1" viewBox="0 0 48 48" width="48" xmlns="http://www.w3.org/2000/svg"><path d="m38.855 25.95c.08-.64.14-1.29.14-1.95 0-.66-.06-1.31-.14-1.95l4.23-3.31C43.465 18.44 43.575 17.9 43.325 17.46l-4-6.93c-.25-.43-.77-.61-1.22-.43l-4.98 2.01c-1.03-.79-2.16-1.46-3.38-1.97L28.995 4.84C28.905 4.37 28.495 4 27.995 4l-8 0c-.5 0-.91.37-.99.84L18.255 10.14c-1.22.51-2.35 1.17-3.38 1.97L9.895 10.1C9.445 9.93 8.925 10.1 8.675 10.53l-4 6.93c-.25.43-.14.97.24 1.28l4.22 3.31C9.055 22.69 8.995 23.34 8.995 24c0 .66.06 1.31.14 1.95l-4.22 3.31c-.38.3-.49.84-.24 1.28L8.675 37.47c.25.43.77.61 1.22.43L14.875 35.89c1.03.79 2.16 1.46 3.38 1.97l.75 5.3C19.085 43.63 19.495 44 19.995 44l8 0c .5 0 .91-.37.99-.84l.75-5.3c1.22-.51 2.35-1.17 3.38-1.97l4.98 2.01c.45.17.97 0 1.22-.43l4-6.93c.25-.43.14-.97-.24-1.28l-4.22-3.31zM23.995 31c-3.87 0-7-3.13-7-7 0-3.87 3.13-7 7-7 3.87 0 7 3.13 7 7 0 3.87-3.13 7-7 7z"/></svg>