<svg fill="#956449" height="48" version="1.1" viewBox="0 0 48 48" width="48" xmlns="http://www.w3.org/2000/svg" xmlns:xlink="http://www.w3.org/1999/xlink"><defs><linearGradient id="a"><stop offset="0" stop-color="#eeeeec"/><stop offset="1" stop-color="#eeeeec" stop-opacity="0"/></linearGradient><linearGradient id="b" gradientTransform="translate(-110.111885 -10.697609)" gradientUnits="userSpaceOnUse" x1="21.664345" x2="29" xlink:href="#a" y1="-.02548" y2="15.22452"/></defs><path d="m12 6c-2.216 0-4 1.784-4 4l0 12c0 2.216 1.784 4 4 4l8 0 0 12 0 2c0 1.108.892 2 2 2l4 0c1.108 0 2-.892 2-2l0-4 0-10 8 0c2.216 0 4-1.784 4-4L40 10C40 7.784 38.216 6 36 6L12 6Z" fill="#956449" stroke-width=".5"/><path d="m36 10.369141l-1.058594 1.111328c-1.106461 1.162727-1.954975 2.653717-3.279297 4.400391-.789681 1.041523-2.091857 1.860158-3.722656 2.501953 0 0 .171825 1.843108-.394531 3.273438-.607007 1.532989-2.076835 2.448124-2.580078 3.541016L24.59375 26 23.896484 25.408203c-.61628-.521886-2.116852-1.432603-3.119141-2.9375-.631879-.94874-.841827-2.242803-.75-3.685547C18.331325 18.305544 16.955908 17.593801 16.080078 16.595703 14.613207 14.924051 13.954502 12.966073 12.890625 11.701172L12 10.648438l1.416016.044922c2.408487.078942 5.009523.013356 7.429688.603516.628514.153262 1.206675.399936 1.785156.693359-.688382.441084-1.116707.891028-1.382813 1.246094-.00543.007246-.741099-.351842-1.148438-.451172-1.773409-.432446-2.620318-.026388000000000003-4.617188-.080078.80709 1.276158.672579 1.999737 1.630859 3.091797.727558.829128 2.481645 1.34331 4.054688 1.871094 1.573043.527784 3.912138.244832 4.207031.179688l-.050781 1.294922c-.389822.088246-.829772.160699-1.318359.185547-1.465764.074544-2.290621-.268066-2.386719-.310547-.056062 1.116797.203803 2.079393.701172 2.826172.621498.933154 2.078537 1.572966 2.255859 1.648438.699973-1.045633 1.341066-1.303707 1.814453-2.404297.286989-.667232.821078-1.66931.060547-4.041016-.473689-1.477196-1.084268-1.834534-1.707031-2.224609l1.15625-.882813c.372297.249714.795692.60284 1.138672 1.039063.860891 1.094931.801726 2.078309.791016 2.195313 0 0 1.622762-1.23644 2.289063-2.115234.864111-1.139687 1.180412-1.882266 1.982422-3.119141-1.7797.108973-2.939173-.299817-4.845703.285156-.51557.15819-1.590266.806521-2.867188 1.910156-1.27692 1.103637-1.908902 1.78435-2.240234 2.503906l-1.642578-.386719c.019099-.045967 1.91651-3.357657 3.820313-4.222656 1.903805-.864996 8.069966-1.476989 10.058594-1.578125L36 10.369141Z" fill="#212121" stroke-width=".5"/><path d="m-93.760041 3.62643c1.648156-2.324039 1.648156-6.324039 7.648156-6.324039 6 0 6 4 8 6-3 0-8 0-10-4-2-4 1-6 2-7 1 2 4 3 2 7-2 4-6 4-9.648156 4.324039z" display="none" fill="none" fill-rule="evenodd" stroke="url(#b)"/><path d="M20 26.876953L20 31.378906 28 36 28 31.496094 20 26.876953Z" fill="#212121" stroke-width=".5"/><path d="M-35.950115 12.049884H-32.049882V27.950117H-35.950115Z" fill="#212121" stroke="#212121" stroke-width=".099766" transform="matrix(0 -1 1 0 0 0)"/></svg>