<svg fill="#956449" height="48" version="1.1" viewBox="0 0 48 48" width="48" xmlns="http://www.w3.org/2000/svg"><path d="m25.125 16c0 0 .555 1.9875.555 3.6 0 1.545-1.0125 2.80125-2.56125 2.80125-1.54875 0-2.71875-1.2525-2.71875-2.80125l.01875-.27C18.91125 21.13375 18 23.45875 18 25.9975c0 3.315 2.685 6 6 6 3.315 0 6-2.685 6-6C30 21.95125 28.05375 18.34375 25.125 16Zm-1.3425 13.7475C22.4475 29.7475 21.36375 28.69375 21.36375 27.3925c0-1.21875.78375-2.07375 2.11125-2.34 1.3275-.26625 2.7-.90375 3.46125-1.93125C27.22875 24.08875 27.3825 25.10875 27.3825 26.1475c0 1.98375-1.6125 3.6-3.6 3.6zM18 6l0 4-4 0c-2.21 0-4 1.79-4 4l0 4-4 0 0 4 4 0 0 4-4 0 0 4 4 0 0 4c0 2.21 1.79 4 4 4l4 0 0 4 4 0 0-4 4 0 0 4 4 0 0-4 4 0c2.21 0 4-1.79 4-4l0-4 4 0 0-4-4 0 0-4 4 0 0-4-4 0 0-4c0-2.21-1.79-4-4-4l-4 0 0-4-4 0 0 4-4 0 0-4-4 0zm-4 8l20 0 0 20-20 0 0-20z" fill="#956449"/></svg>