<svg fill="#956449" height="48" version="1.1" viewBox="0 0 48 48" width="48" xmlns="http://www.w3.org/2000/svg"><path d="M10 6C7.79 6 6 7.79 6 10l0 28c0 2.21 1.79 4 4 4l28 0c2.21 0 4-1.79 4-4L42 10C42 7.79 40.21 6 38 6L10 6Zm22.1875 4.994141c.37019 0 .741732.140169 1.023438.421875l3.373047 3.373047c.563412.563412.563412 1.48151 0 2.044922l-2.644531 2.644531-5.417969-5.417969 2.644531-2.644531c.281706-.281706.651294-.421875 1.021484-.421875zm-5.197266 4.597656l5.417969 5.417969-15.984375 15.984375-5.417969 0 0-5.417969 15.984375-15.984375z" fill="#956449"/></svg>