<svg height="48" version="1.1" width="48" xmlns="http://www.w3.org/2000/svg"><path d="M6.551513 14.936825c.109157-.018261 2.830987 1.418435 4.660486 1.914918 3.262341.833693 6.240223 3.34289 7.679556 4.784252.106723.12336 1.236236-.845664 2.418299-.775869 1.614634.097795 6.610708 1.502637 7.278231.545989.404775-.561612.375761-1.250642.880765-1.532868.271879-.076085-1.010617-2.421749.352428-3.17327.971865-.485729 1.795413 2.233665 2.044974 2.538413.111795.136345.704855.16962.634654-.141012-.076085-.337414-1.035371-2.94684.141012-3.384686 1.910657-.756594 1.572027 3.338832 1.621736 3.455293.105708.247937 6.654331.439064 7.051395 3.384686.229677 1.621127-5.246446 3.716418-5.782087 4.089744-.535439.373326-.490802.970444-.282023 1.339915.240024.400717 1.835384 1.753211 1.621939 2.397401-.146693.372108-3.124169-.991748-3.314281-.705058-.433586.547612 2.167522 1.918367 1.269308 2.891044-.35608.232923-4.452925-1.71527-4.442578-1.692343-.109969.041796-5.788986 1.0374-10.154058-.282226-.153794-.043419-2.801567 2.557688-3.102663 2.468211-.411673-.150954.606857-2.262274.493642-2.679628-.18504-.232517-1.876977.944068-1.974366.35263099999999999-.116461-.777289 1.484782-1.670836 1.41032-2.185985-.41289-2.92655.184431-4.63553 1.198701-6.064111.338225-.525903-3.975109-3.783171-7.0978579999999999-5.06871-3.122546-1.285539-4.793179-2.375083-4.607531-2.476733z" fill="#956449" fill-rule="evenodd" stroke="#956449" stroke-width=".202894pt"/><path d="m34.614329 24.721899c-.034289-.119708 2.131001-1.429392 2.444473-1.128296.56425.204518-2.424589 1.280264-2.444473 1.128296z" fill="#fff" fill-rule="evenodd" stroke="#956449" stroke-width=".121737pt"/><path d="m35.648482 25.912889c-.190721-.115244 1.296293-1.84918 1.661097-1.661097.532598.529149-1.686053 1.702285-1.661097 1.661097z" fill="#fff" fill-rule="evenodd" stroke="#956449" stroke-width=".121737pt"/><path d="m41.50909 17.889833c-.180779-.149533-1.598403 2.087176-1.284931 2.319287.188489.141012 1.365683-2.239549 1.284931-2.319287z" fill="#956449" fill-rule="evenodd" stroke="#956449" stroke-width=".121737pt"/><ellipse cx="35.097393" cy="21.091187" fill="#fff" fill-rule="evenodd" rx=".565475" ry=".643824" stroke="#956449" stroke-width=".113158pt"/><path d="m39.879421 17.576436c-.089476-.103882-.56425 2.306505-.344718 2.413227.188489.141012.516772-2.287838.344718-2.413227z" fill="#956449" fill-rule="evenodd" stroke="#956449" stroke-width=".121737pt"/><path d="m33.828133 20.838498c-.562221.39747.308603 2.646759 1.740835 1.333423-1.125253.033072-1.500608-.296429-1.740835-1.333423z" fill="#fff" fill-rule="evenodd" stroke="#956449" stroke-width=".121737pt"/></svg>