<svg fill="#956449" height="48" version="1.1" viewBox="0 0 36 48" width="48" xmlns="http://www.w3.org/2000/svg"><path d="m .0025 34.4975l0 7.5 7.5 0L29.6325 19.8675 22.1325 12.3675.0025 34.4975ZM35.4125 14.0875c.78-.78.78-2.05 0-2.83l-4.67-4.67c-.78-.78-2.05-.78-2.83 0L24.2525 10.2475 31.7525 17.7475l3.66-3.66zM0 12l0 4 15.175781 0 4-4-19.175781 0zm0 10l0 4 5.173828 0 4.001953-4-9.175781 0zm30.824219 0l-4 4 9.175781 0 0-4-5.175781 0zm-10 10L16.826172 36 36 36l0-4-15.175781 0z" fill="#956449"/></svg>