<svg fill="#8C776C" height="48" version="1.1" viewBox="0 0 48 48" width="48" xmlns="http://www.w3.org/2000/svg"><g transform="translate(9 -6)"><path d="m4 12c-2.21 0-4 1.79-4 4l0 28c0 2.21 1.79 4 4 4l22 0c2.21 0 4-1.79 4-4l0-28c0-2.21-1.79-4-4-4L4 12Zm0 4l22 0 0 28-22 0 0-28z"/><g fill="#8C776C" transform="matrix(.275 0 0 .275 8.4 23.30375)"><path d="M24 42.7L21.1 40.07C10.8 30.72 4 24.55 4 17 4 10.83 8.83 6 15 6 18.48 6 21.82 7.62 24 10.17 26.18 7.62 29.52 6 33 6c6.17 0 11 4.83 11 11 0 7.55-6.8 13.72-17.1 23.07L24 42.7Z"/></g><text fill="#8C776C" font-family="Roboto" font-size="15" letter-spacing="0" line-height="125%" text-anchor="middle" word-spacing="0" x="7.358398" xml:space="preserve" y="22.332031"><tspan fill="#8C776C" font-family="Roboto" font-size="7.5" font-weight="900" line-height="125%" text-anchor="middle" x="7.358398" y="22.332031">A</tspan></text><text fill="#8C776C" font-family="Roboto" font-size="15" letter-spacing="0" line-height="125%" text-anchor="middle" word-spacing="0" x="22.601318" xml:space="preserve" y="43"><tspan fill="#8C776C" font-family="Roboto" font-size="7.5" font-weight="900" line-height="125%" text-anchor="middle" x="22.601318" y="43">A</tspan></text><g fill="#8C776C" transform="matrix(.118927 0 0 .118927 4.524292 22.618469)"><path d="M24 42.7L21.1 40.07C10.8 30.72 4 24.55 4 17 4 10.83 8.83 6 15 6 18.48 6 21.82 7.62 24 10.17 26.18 7.62 29.52 6 33 6c6.17 0 11 4.83 11 11 0 7.55-6.8 13.72-17.1 23.07L24 42.7Z"/></g><g fill="#8C776C" transform="matrix(.118927 0 0 .118927 19.767212 31.589786)"><path d="M24 42.7L21.1 40.07C10.8 30.72 4 24.55 4 17 4 10.83 8.83 6 15 6 18.48 6 21.82 7.62 24 10.17 26.18 7.62 29.52 6 33 6c6.17 0 11 4.83 11 11 0 7.55-6.8 13.72-17.1 23.07L24 42.7Z"/></g></g></svg>