<svg height="48" version="1.1" viewBox="0 0 47.999999 47.999999" width="48" xmlns="http://www.w3.org/2000/svg"><g transform="translate(-136.39816 -399.535729)"><path d="m159.017301 420.596276c.033155-.010555.050775.062673.091797.177734.050499.141646.334823.720524.625 1.287109 1.19505 2.333388 2.518944 3.894756 4.376953 5.173828.1262-.028521.374518-.073324.384766-.083984-.00028.000339.000309.001632 0 .001953-.010198.010609-.257659.055662-.382813.083984-.000751-.000518-.001202-.001436-.001953-.001953-.166591.03765-.243948.064344-.507813.111328-.791353.140911-1.629422.322038-2.472656.527344-.836914.203767-1.673653.430643-2.476563.671875-.227423.068178-.418285.141085-.638672.210938-.530476.168479-1.066673.337368-1.537109.509766-.651443.238276-1.228227.474115-1.703125.701172-.008777.0042-.022545.009479-.03125.013672-.000274.000564.000275.00139 0 .001953-.048506.023364-.110057.0472-.15625.070313-.000537.000269.000534-.002194 0-.001953.046193-.023113.107744-.046949.15625-.070313.077245-.158753.095338-.224154.216797-.441406 1.805309-3.229134 3.018789-5.838777 3.703125-7.988281.217093-.681891.298256-.937489.353516-.955078zm-12.619141-15.060547c-2.21 0-4 1.79-4 4l0 28c0 2.21 1.79 4 4 4l28 0c2.21 0 4-1.79 4-4l0-28c0-2.21-1.79-4-4-4l-28 0zm12.386719 3.998047c.485479 0 .791991.067404.972656.255859.030641.031735.052471.072438.076172.111328.010832.017962.025715.03122.035156.050781 0 0 .001953.001953.001953.001953.029825.062292.053451.1334.070313.212891 0 0 0 .001953 0 .001953.033824.160453.042312.357389.033203.597656 0 0 0 .001953 0 .001953-.003271.083187-.009701.11084-.013672.173828.002989.085305.017452.148331.013672.248047-.016619.438399-.03613.574219-.119141.574219-.084805-.712629-.411053-1.175952-.996094-1.34375-.059043.022569-.17807.237166-.269531.472656-.112888.290664-.183453.862754-.207031 1.517578-.001188.269641.005101.545671.017578.816406.01426.257706.032983.512862.0625.751953.00306.025099.002582.053329.005859.078125 0 0 0 .001953 0 .001953.077357.584906.165538 1.127889.242188 1.525391 0 0 0 .001953 0 .001953.076469.396067.142314.648438.175781.648438.162476-.645554.308067-1.325516.453125-2.023438.145078-.69779.289581-1.411849.449219-2.126953.000768.000473.0012.007176.001953.007813.04679.039534.058306.417059.052734.935547.000046.002115-.000045.001784 0 .003906-.00003.002777.000032.00698 0 .009766.024592 1.201713-.160192 4.189857-.361328 5.228516-.006565.033903-.001383.051137-.005859.080078 0 0 0 .001953 0 .001953.026743.128801.069657.267623.164063.523438 0 0 0 .001953 0 .001953.178674.484073.361064.939199.546875 1.369141 0 0 0 .001953 0 .001953.185809.429839.376382.834825.574219 1.216797 0 0 0 .001953 0 .001953.197847.381893.404376.739793.619141 1.080078 0 0 0 .001953 0 .001953.214792.340234.43918.661915.675781.966797 0 0 0 .001953 0 .001953.236648.304861.486648.591428.75.867188.791074.828346 1.713714 1.540134 2.833984 2.21875l.521484.316406 1.441406-.09375c1.623904-.106713 3.701642-.061457 4.578125.101563.812854.151187 1.437148.38978 1.808594.683594.123253.097493.220553.199651.285156.308594 0 0 0 .001953 0 .001953.001151.00194.000817.005824.001953.007813.04814.084254.078217.209726.097656.337891.003402.024011.005563.038702.007813.0625.015583.138851.012793.25756-.011719.332031.040857.241059.031471.498047-.050781.498047-.377999-1.297919-3.557373-1.360032-5.724609-1.068359.600896.246405 1.376713.546463 1.892578.708984 1.192534.351905 2.778346.960056 3.830078.466797l0 .001953c-.000003.052155-.135124.158083-.300781.261719 0 0-.001953.001953-.001953.001953-.166859.104158-.364955.206806-.494141.251953-.099804.03488-.25159.057979-.431641.072266.44616.034707.869822.004164 1.228516-.164063-.000006.104854-.538505.423378-.796875.513672-.410051.143306-1.631133.109389-2.568359-.074219-1.385731-.271472-3.276014-.932643-4.632813-1.613281l-.521484-.259766-1.03125.130859c-3.096265.374741-6.254577 1.014002-8.884766 1.806641-.658078.19832-1.246763.361329-1.302734.361328-.158841 0-.353932.258174-.976563 1.289063-1.920224 3.179313-3.646891 5.227605-4.951172 5.875-.670972.333044-1.070916.316704-1.859375-.083984-.347188-.176438-.445613-.372729-.357422-.777344 0 0 0-.001953 0-.001953-.030146-.089112-.039211-.193284-.019531-.322266.018922-.124012.055853-.268677.117188-.445313.003232-.009356.004453-.013902.007813-.023438 0 0 0-.001953 0-.001953.169399-.480112.529306-1.041177 1.009766-1.607422 0 0 0-.001953 0-.001953.240211-.282995.511499-.566455.804688-.841797.293901-.27601.608872-.544186.939453-.792969.983804-.740372 1.868008-1.233487 1.835938-1.085938-.010183.048563-.123238.168511-.365234.373047 0 0 0 .001953 0 .001953-.186142.157223-.367771.324428-.548828.492188.824808-.531231 1.278386-.686528.548828-.070313-1.745266 1.474126-3.314204 3.480343-3.568359 4.503906.03564.015524.092322.011047.208984-.007813.579331-.09365 1.253993-.546483 2.021484-1.359375.255521-.270637.522609-.581407.798828-.931641 0 0 0-.001953 0-.001953.552889-.701168 1.147877-1.560437 1.783203-2.580078 0 0 0-.001953 0-.001953.31756-.509699.646341-1.059276.984375-1.648438 0 0 0-.001953 0-.001953.33808-.589279.686444-1.218028 1.044922-1.886719 0 0 0-.001953 0-.001953.473179-.882692.910003-1.727858 1.310547-2.544922 0 0 0-.001953 0-.001953.80119-1.634437 1.464151-3.151814 2.013672-4.611328 0 0 0-.001953 0-.001953.274598-.729417.520708-1.44471.742188-2.152344l0-.001953.21875-.681641-.238281-.923828c-.471596-1.856392-.675443-3.282273-.677734-4.78125-.000107-.069378.006163-.125785.007813-.191406-.000072-.004548.000068-.009123 0-.013672 0 0 0-.001953 0-.001953-.001055-.071787-.007702-.142778-.007813-.214844l0-.001953c-.000556-.361733.012894-.696047.039063-.998047 0 0 0-.001953 0-.001953.026208-.301751.065951-.57146.117188-.806641 0 0 0-.001953 0-.001953.051262-.234872.114866-.4342.189453-.595703 0 0 0-.001953 0-.001953.074609-.161178.161577-.282255.257813-.363281 0 0 0-.001953 0-.001953.1942-.16278.29068-.185547.773438-.185547zm-.314453 1.474609c-.009768.067778-.021214.130601-.029297.205078.008755-.074578.018869-.137322.029297-.205078zm-.884766 3.818359c.023254.158404.055792.32744.083984.490234-.027801-.162632-.061127-.331987-.083984-.490234zm2.150391.507813c-.016835.253417-.028953.463612-.048828.707031.019047-.230673.032437-.467071.048828-.707031zm-.095703 1.238281c-.048532.50706-.100808.962456-.15625 1.253906.054822-.288274.107406-.750061.15625-1.253906zm-.738281 3.828125c-.036648.102072-.100883.30539-.160156.490234.05983-.186502.123378-.388268.160156-.490234zm5.570313 6.683594c.019193.02285.01844.036921.017578.050781.001608-.013656.001515-.027803-.017578-.050781zm3.400391.699219c.033457.03263.407326.180033.720703.308594-.312781-.128239-.679759-.274842-.716797-.308594-.00116.000224-.002747-.000224-.003906 0zm-5.197266.480469c-.226842.035873-.451915.074865-.677734.113281.226605-.038463.45013-.077369.677734-.113281zm-2.087891.371094c-.247076.04832-.494226.097332-.738281.148438.245112-.051235.4901-.100013.738281-.148438zm-2.248047.488281c-.15491.037164-.315928.069215-.46875.107422.153015-.038244.313602-.070232.46875-.107422zm-.541016.128906c-.660333.166172-1.305244.339374-1.916016.523438-.607797.183167-1.078778.311654-1.203125.333984-.041288.0896-.146484.28348-.146484.300781 0 .050185.024218.081654.054688.066406.782132-.391336 1.944378-.815588 3.210938-1.224609zm14.189453.587891c.044015.003318.087321.005112.130859.007813-.045754-.002762-.084578-.004365-.130859-.007813zm-21.792969 2.783203c-.350275.325719-.678874.669901-.994141 1.013672.317182-.346694.641206-.685532.994141-1.013672zm-1.580078 1.699219c-.173445.211171-.359661.424301-.507813.626953.148632-.203836.333648-.414549.507813-.626953zm-.695313.892578c-.06422.093419-.128344.187563-.185547.277344.057451-.090419.121-.183239.185547-.277344zm-.357422.568359c-.048913.085263-.101881.171842-.142578.251953.040685-.080296.093668-.166482.142578-.251953zm-.271484.546875c-.022927.057002-.055187.11904-.072266.171875.017063-.052776000000000006.049396-.114944.072266-.171875zm1.292969.998047c-.112152.052716-.219214.09568-.320313.126953.101482-.032.207542-.073812.320313-.126953zm-1.419922.048828c.012219.074236.0601.099198.207031.078125-.063765-.019399-.138288-.050862-.207031-.078125zm.316406.099609c.076517.018318.154021.038592.226563.044922-.072797-.006828-.149857-.026377-.226563-.044922zm.615234.019531c-.06817.013353-.137763.020478-.205078.023438.068093-.003462.136127-.009285.205078-.023438z" fill="#d41818"/></g></svg>