<svg height="48" preserveAspectRatio="xMidYMid" version="1.1" width="48" xmlns="http://www.w3.org/2000/svg"><g transform="matrix(.17107176 0 0 .17107176 2.150717 2.102815)"><circle cx="127.719986" cy="128" fill="#42a674" r="116.910004"/><path d="m100.310012 109.960004c-1.37 2.12-2.7 4.25-3.98 6.38-1.4-3.86-2.64-7.67-3.7-11.38 3.74-.53 7.7-.95 11.9-1.25-1.43 2.04-2.84 4.12-4.22 6.25zm103.14 7.47c-4.2-3.96-10.1-7.6-17.6-10.8-14.9-6.36-34.9-10.48-56.3-11.6-2.6-.13-5.1-.23-7.5-.27 16.3-19.5 32.1-29.85 41.2-30.2 1.9-.07 3.6.3 4.8 1.14 4.3 2.8 5.5 11.45 3.2 23.17-.5 2.4 1 4.6 3.4 5.1 2.3.5 4.5-1 5-3.3 3.9-20.1-1.6-28.5-6.9-31.9-2.8-1.8-6.1-2.6-9.9-2.5-14.1.6-33.9 15.6-52 38.8-7.2.3-14.1.9-20.5 1.9-.7-3.2-1.3-6.4-1.7-9.5-1.6-13.3.4-22.8 5.3-25.3.8-.4 1.7-.6 2.7-.7 4.4-.3 10.6 2.7 17.5 8.4 1.8 1.5 4.5 1.3 6-.6 1.5-1.8 1.2-4.5-.6-6-8.9-7.3-16.8-10.8-23.7-10.3-2.1.2-4.1.7-5.9 1.6-4.6 2.4-7.7 6.9-9.3 13.4-1.4 5.6-1.6 12.5-.6 20.6.4 3.2.9 6.6 1.7 10-5.1 1.1-9.7 2.4-13.9 3.9-18.3 6.6-22.6 15.4-22.9 21.5-.3 5.9 2.7 14.6 18.8 22.9 2.1 1.1 4.7.3 5.8-1.8 1-2.1.2-4.7-1.9-5.7-9.2-4.8-14.4-10.2-14.2-14.9.3-6.6 11.4-13.6 30.2-17.55 1.8 6.3 4 12.83 6.7 19.5-6.8 12.7-11.7 25.23-14.3 36.4-1.8 7.95-2.36 14.9-1.6 20.54.9 6.6 3.6 11.4 7.9 14.2 2.2 1.4 5.2 2.5 9.1 2.5 5.7 0 13.3-2.33 23.34-9.5 1.9-1.4 2.33-4.05 1-5.96-1.4-1.96-4.07-2.4-6-1-9.94 7.04-18.5 9.6-22.83 6.74-4.63-3.03-5.6-12.63-2.6-25.73 2-8.63 5.55-18.3 10.4-28.2 1.05 2.3 2.14 4.5 3.3 6.77 9.7 19.1 21.6 35.7 33.5 46.8 6 5.56 11.7 9.5 17 11.65 3.2 1.3 6.24 2 9.04 2 2.6 0 5-.6 7.28-1.7 4.4-2.3 7.5-6.5 9.1-12.7 1.4-5.3 1.7-11.84.93-19.5-1.53-15.13-7.24-33.56-16.1-51.9-1-2.14-3.55-3.03-5.7-2-2.1 1-3 3.56-2 5.7 8.4 17.47 13.87 34.9 15.3 49.05 1.3 12.4-.8 21.3-5.5 23.7-4.9 2.5-13.73-1.47-23.55-10.6-11.2-10.4-22.44-26.2-31.7-44.4-2.14-4.2-4.1-8.36-5.9-12.5 2.2-3.96 4.6-7.9 7.1-11.85 2.6-4 5.3-7.8 7.9-11.4l2.1 0c3.7 0 7.6.1 11.7.3 20.4 1.1 39.4 4.9 53.4 10.9 12.4 5.3 19.6 11.7 19.3 17.3-.23 4.7-5.95 9.57-15.7 13.35-2.2.85-3.3 3.33-2.4 5.5.6 1.7 2.25 2.7 4 2.7.5 0 1-.1 1.5-.3 16.9-6.52 20.8-14.92 21.1-20.82.3-5.16-2-10.1-6.84-14.75z" fill="#f2f8f6"/><path d="m119.060012 128.990004c0 5.16 4.17 9.33 9.32 9.33 5.15 0 9.32-4.17 9.32-9.33 0-5.15-4.17-9.33-9.32-9.33-5.15 0-9.33 4.18-9.33 9.33" fill="#f1f8f3"/></g></svg>