<svg enable-background="new 0 0 96 96" height="48" version="1.1" viewBox="0 0 48 48" width="48" x="0" xml:space="preserve" xmlns="http://www.w3.org/2000/svg" xmlns:xlink="http://www.w3.org/1999/xlink" y="0"><filter id="a" color-interpolation-filters="sRGB"><feGaussianBlur stdDeviation="1.71"/></filter><path d="M10.000279 6C7.784279 6 6 7.784279 6 10.000279L6 37.999721C6 40.215721 7.784279 42 10.000279 42l27.999442 0C40.215721 42 42 40.215721 42 37.999721L42 10.000279C42 7.784279 40.215721 6 37.999721 6L10.000279 6Zm13.524275 5.829241l5.206473 0 4.295759 23.456752-4.690848 0-.962612-5.671038-8.506138 0-2.612444 5.671038-3.970145 0 11.239955-23.456752zm1.614676 4.106585l-4.828125 10.413783 6.667132 0-1.839007-10.413783z" fill="#480062" stroke-width="2"/><g display="none" transform="translate(-6 -42)"><g display="inline" enable-background="new    " filter="url(#a)" opacity=".9"><linearGradient id="b" gradientTransform="matrix(1.0059 0 0 -.9942 9.9104 69.4184)" gradientUnits="userSpaceOnUse" x1="37.867699" x2="37.867699" y1="-22.7129" y2="62.785599"><stop offset="0"/><stop offset="1" stop-opacity=".5882"/></linearGradient><path d="m12 7l72 0c3.866 0 7 3.134 7 7l0 71c0 3.866-3.134 7-7 7L12 92C8.134 92 5 88.866 5 85L5 14C5 10.134 8.134 7 12 7Z" fill="url(#b)"/></g></g></svg>