<svg fill="#bdbdbd" height="48" version="1.1" viewBox="0 0 36 40" width="48" xmlns="http://www.w3.org/2000/svg"><path d="m29.666666 6.666667l-1.666667 0 0-3.333333-3.333333 0 0 3.333333-13.333333 0 0-3.333333-3.333333 0 0 3.333333-1.666667 0c-1.841667 0-3.316667 1.491667-3.316667 3.333333L3.000001 33.333333c0 1.841667 1.491667 3.333333 3.333333 3.333333l23.333332 0c1.841667 0 3.333333-1.491667 3.333333-3.333333l0-23.333332c0-1.841667-1.491667-3.333333-3.333333-3.333333zm0 26.666666l-23.333332 0 0-18.333333 23.333332 0 0 18.333333zM9.666667 18.333333l8.333333 0 0 8.333333-8.333333 0z" fill="#bdbdbd"/></svg>