<svg height="48" version="1.1" viewBox="0 0 47.999999 48" width="48" xmlns="http://www.w3.org/2000/svg" xmlns:xlink="http://www.w3.org/1999/xlink"><defs><clipPath id="a"><use height="100%" overflow="visible" width="100%" x="0" xlink:href="#b" y="0"/></clipPath><path id="b" d="M172.06 84C172.06 42.03 137.97 8 96 8 54.03 8 20 42.03 20 84 20 123.76 56.24 156 96 156l0 0 0 28C142.18 160.58 172.06 122.89 172.06 84Z"/></defs><g transform="matrix(.07998572 0 0 .07996178 3.99976 4.00088)"><path d="M57.42 0C55.381 0 53.359.112 51.36.328 49.384.513 47.538.816 45.714 1.23 41.801 2.062 38.013 3.307 34.407 4.923 33.734 5.225 33.069 5.541 32.409 5.868c-.042.021-.085.038-.127.059-.549.256-1.081.516-1.576.779-.638.339-1.297.737-1.967 1.16-.098.058-.197.117-.295.176-.122.074-.246.144-.367.219C20.122 13.123 13.396 19.951 8.675 28.261c-.235.404-.458.817-.686 1.229-.261.473-.522.946-.771 1.428-.498.915-.967 1.848-1.41 2.799-1.397 2.58-2.458 4.415-3.264 8.193l-2.01 5.588-.02 16.85c-.182 8.993-.297 22.565-.367 44.02 0 .036 0 .093 0 .129-.171 34.381-.114 86.32-.113 166.23 0 .376 0 .608 0 .984 0 .894 0 1.457 0 2.357l0 195.32-.031 26.777.004 0 0 .063 1.223-.229c0 0 .002.002.002.002.001 0 .05-.008.051-.008.001 0 .001.004.002.004.012 0 .257-.039.281-.041.038.025.076.045.115.045C3.038 500.001 226.311 462.601 320.121 446.651c9.951-1.691 16.84-2.944 22.04-4.254 1.897-.407 3.251-.73 3.873-.934.315-.103.669-.241 1.053-.404.022-.008.085-.022.104-.029.64-.243 1.275-.514 1.906-.799 4.23-1.692 7.154-3.798 10.561-6.998 1.052-.941 2.072-1.953 3.07-3.01 6.707-6.82 12.599-17.191 15.666-27.449.091-.261.195-.516.283-.777.121-.357.23-.74.336-1.168l1.521-4.332.02-12.971c.161-6.385.265-16.14.336-29.797.008-1.505.02-2.402.027-4.02 0-.076.002-.113.002-.189 0-.004 0-.01 0-.014.019-4.434.028-10.606.041-15.953.016-4.03.025-9.01.035-13.531C380.996 319.652 380.996 319.434 380.997 319.061c.001-.414-.001-1.267 0-1.686 0-.247 0-.564 0-.813.046-24.05.038-53.938.037-94.21l0-.441 0-.059 0-1.318c0-.504 0-.921 0-1.424l0-145.15L381.071 52.44l-.004 0 0-.26 0-.02-.033-.008 0-.121-2.25-.52C376.795 51.051 272.744 33.951 116.774 8.451c-10.347-1.692-19.473-3.133-27.465-4.352C87.782 3.851 83.494 3.148 82.249 2.947c-8.402-1.36-14.777-2.21-19.994-2.598-.035-.004-.237-.035-.264-.037-.278-.024-.556-.039-.834-.059-.677-.065-1.384-.137-1.914-.176-.117-.011-.164-.01-.268-.02-.189-.013-.393-.028-.561-.037-.147-.008-.387-.031-.484-.031-.096 0-.191.005-.287.006-.012 0-.058-.006-.068-.006-.03 0-.062.002-.092.002-.019 0-.05-.002-.068-.002" fill="#80c342"/><g fill="#fff"><path d="m147.53 93.56c3.282-.006 5.961.011 8.273.064 2.032.16 4.047.345 6.01.586 20.743 3.116 37.08 11.481 49.33 25.291 15.984 18.02 25.788 47.39 28.768 85.31.15 3.034.276 6.267.377 9.656.29 11.978.287 26.13-.018 38-1.655 30.891-6.411 55.13-14.504 73.61-1.042 2.317-2.127 4.583-3.287 6.768-2.074 3.906-4.268 7.477-6.602 10.754-6.614 8.885-17.436 18.14-26.49 22.525-.904.437-1.643.79-2.373 1.145l-3.271 1.525-1.889.699L181.881 369.661l-.666.311.029.113-.008.004L181.662 371.708c-.211 1.734.832 4.288 2.629 9.17.842 2.288 1.812 4.27 2.92 6 .03.047.062.092.092.139C187.602 387.476 187.912 387.916 188.233 388.337c.119.158.239.316.361.469.228.282.464.552.703.816.136.152.263.319.402.465.005.006.009.01.014.016.179.228.354.433.521.611.904.962 1.958 1.736 3.252 2.357 1.588.922 3.372 1.593 5.346 2.068.014.003.029.006.043.01.561.134 1.139.253 1.734.354.093.016.189.03.283.045.525.083 1.058.159 1.609.217.261.028.532.047.799.07.419.035.835.074 1.27.096.777.041 1.574.066 2.402.066l1.242 0 3.811.287 0 2.973-.219 12.137-.23 12.688c-.016.048-.028.102-.045.148-.324.894-.828 1.503-1.615 1.936-.021.011-.043.022-.064.033-.065.035-.138.065-.207.098l-.863.143c-1.788.293-6.77.988-11.07 1.545-1.382.179-2.717.32-4.03.441-1.707.136-3.369.244-4.959.299-.166.004-.332.009-.498.012-.611.018-1.21.026-1.805.031-.844.005-1.659-.005-2.475-.016-.397-.008-.806-.007-1.195-.021-.406-.015-.793-.045-1.191-.066-7.656-.511-14.255-2.405-20.662-5.82-10.676-5.69-19.229-19.517-24.49-39.594l-1.912-7.299-.514-2.453-.141-.043-.018-.064-7.266-2.256c-4.119-1.279-8.02-2.928-11.725-4.932-9.345-5.185-17.562-12.837-24.393-22.682-.014-.02-.027-.039-.041-.059-.162-.234-.32-.476-.48-.713-9.895-14.946-16.804-35.21-20.783-60.889-1.223-8.243-2.146-16.916-2.762-25.791-.916-17.83-.654-45.22.643-60.58.182-1.9.38-3.78.594-5.643 5.447-43.912 19.672-73.1 42.32-87.13.839-.52 1.693-1.01 2.555-1.488.399-.22.797-.443 1.201-.654.364-.191.732-.376 1.1-.561.746-.372 1.497-.738 2.26-1.082.004-.002.008-.004.012-.006.248-.112.502-.215.752-.324.59-.257 1.187-.504 1.787-.744.534-.213 1.071-.42 1.613-.619 4.874-1.697 10.18-2.87 15.73-3.521 2.675-.113 5.961-.151 10.598-.16"/><path d="m280.05 110.34c2.182.167 6.498.596 11.539 1.162 5.751.646 10.05 1.109 12.03 1.305l1.693.219c.086.111.17.707.246 1.678L305.8 136.618l0 .008.232 21.1 0 .002 0 3.01 0 .002 0 .021 0 .014 3.25.553c1.788.304 8.09.858 14 1.23l8.799.555 1.951.143 0 14.768 0 .09C334.031 191.555 333.881 192.782 332.282 192.466c-.962-.19-7.262-.576-14-.857l-11.43-.477-.82-.059 0 .023 0 .027 0 .563 0 .002 0 .006 0 .014 0 .021 0 .148 0 .053 0 .061 0 .066-.111-.006.111 22.631 0 35.619 0 2.521 0 .256c0 23.633-.005 38.838.236 48.916.127 6.294.316 10.186.604 12.529.022.262.046.425.068.576C307.059 316.487 307.187 317.559 307.336 317.997c.155.454.338.866.535 1.26.898 2.639 2.233 3.243 4.221 4.271.175.09.366.168.557.248 1.876 1.025 3.053 1.298 5.852.965.356-.03.741-.071 1.154-.127 3.553-.216 7.703-1.134 11.877-2.719 2.75-1.044 5.349-1.898 5.777-1.898.411 0 .626 5.52.508 12.383l-.008.387-.221 10.967-.041 1.914c-.061.268-.125.52-.201.715l-2.215.953-4.928 1.879c-4.03 1.537-11.752 3.697-17.16 4.799-2.296.468-4.468.824-6.58 1.121-.541.064-1.082.128-1.619.182-.798.065-1.596.122-2.383.172-.827.052-1.641.095-2.432.127-1.554.063-3.01.098-4.375.102-4.677-.081-8.789-.582-11.479-1.545-.918-.329-1.79-.691-2.639-1.07-2.452-1.098-4.635-2.415-6.572-3.996-2.954-2.545-5.403-5.811-7.416-9.838-2.638-5.278-4.01-8.595-4.721-19.301-.317-7.361-.475-22.453-.658-45.678l-.119-15.771-.002-.336c0-1.241-.004-2.128-.004-3.414l0-1.307c.001-13.591.013-24.01-.008-32.479l-.008-31.965-3.275 0c-1.156-.377-2.709 0-4.807 0l-2.627 0-2-.227c-.07-.083-.139-.169-.201-.264l-.088-4.717 0-10.668 0-.209 0-.023 0-.016 0-.006 0-.016 0-.453c0-9.08.151-13.462.594-15.12l8.322.475 8.555.488.377.029.473-1.779.445-1.613c.514-1.861 3.097-12.608 5.742-23.883 2.385-10.165 4.219-17.827 4.658-19.508.058-.214.079-.274.123-.428.243-.293.565-.512 1.012-.662.206-.026.455-.043.717-.059"/></g><path d="m156.1 129.02c-10.203.049-18.08 6.231-23.459 18.283-1.398 3-2.603 6.428-3.639 10.395-.003.013-.006.025-.01.037-.95 3.504-1.762 7.321-2.434 11.451-1.557 9.576-2.596 25.688-3.055 43.19-.031 1.041-.068 2.023-.096 3.092-.256 9.83-.275 19.249-.09 28.21.195 13.294.749 25.669 1.709 34.813 1.777 16.932 4.532 29.948 8.428 39.5.323.828.648 1.635.984 2.396.4.905.875 1.824 1.398 2.742 2.418 4.58 5.201 8.111 8.379 10.666.121.101.245.196.367.295.049.038.096.078.145.115 1.491 1.185 3.062 2.173 4.719 2.951.89.418 1.732.735 2.582.98 1.702.597 3.184.765 5.279.674 2.26.028 4.566-.307 6.838-.998.005-.001.009-.003.014-.004.324-.091.639-.2.957-.303 8.901-2.887 15.39-10.721 19.842-24.2.559-1.628 1.065-3.31 1.51-5.04.041-.161.08-.346.121-.51 1.931-7.349 3.386-16.07 4.404-26.26 2.769-27.733 2.239-84.51-.984-105.5-.755-4.915-1.665-9.442-2.732-13.582-.001-.005-.003-.009-.004-.014-1.902-8.284-4.399-14.387-7.758-19.344-5.846-9.413-13.639-14.09-23.416-14.04" fill="#80c342"/></g><path clip-path="url(#a)" d="M172.06 84C172.06 42.03 137.97 8 96 8 54.03 8 20 42.03 20 84 20 123.76 56.24 156 96 156l0 0 0 28C142.18 160.58 172.06 122.89 172.06 84Z" fill="#328930" transform="matrix(.11363636 0 0 .11363636 28.447727 27.090909)"/></svg>