<svg fill="#480062" height="44" version="1.1" viewBox="0 0 39.666668 44" width="39.666668" xmlns="http://www.w3.org/2000/svg"><path d="m26.444445 17c0-2.087222-1.690555-3.777778-3.777778-3.777778-2.087222 0-3.777778 1.690556-3.777778 3.777778 0 2.087222 1.690556 3.777778 3.777778 3.777778 2.087223 0 3.777778-1.690556 3.777778-3.777778z" fill="#480062"/><path d="M22.666667 0C13.278889 0 5.666667 7.612222 5.666667 17l-5.666667 0L7.555556 24.555556l7.555557-7.555556-5.666667 0c0-7.300555 5.921667-13.222222 13.222222-13.222222 7.300556 0 13.222223 5.921667 13.222223 13.222222 0 7.300556-5.921667 13.222222-13.222223 13.222222-2.861666 0-5.496666-.916111-7.668889-2.465l-2.672777 2.710556c2.871111 2.21 6.450555 3.532222 10.341666 3.532222 9.387778 0 17-7.612222 17-17C39.666667 7.612222 32.054445 0 22.666667 0Z" fill="#480062"/><path d="m27.833334 44l4 0 0-4-4 0 0 4z" fill="#480062"/><path d="m19.833334 44l4 0 0-4-4 0 0 4z" fill="#480062"/><path d="m11.833334 44l4 0 0-4-4 0 0 4z" fill="#480062"/></svg>