<svg fill="#480062" height="48" version="1.1" viewBox="0 0 48 48" width="48" xmlns="http://www.w3.org/2000/svg"><path d="m20 5l-4 4 0 4-8 0C5.79 13 4.019531 14.79 4.019531 17L4 39c0 2.21 1.79 4 4 4l32 0c2.21 0 4-1.79 4-4l0-22c0-2.21-1.79-4-4-4l-8 0 0-4-4-4-8 0zm0 4l8 0 0 4-8 0 0-4zm4 9c .0145.03403.024733.056174.039063.089844.327332.768953.612453 1.439165.888672 2.087891.00412.00966.007619.02165.011719.03125.034858.081779.076578.178606.111328.259766.071062.163417.171581.398143.238281.550781.723248 1.668228 1.523931 3.393907 3.03125 6.324219.06583.128399.14906.288299.21875.423828.805272 1.5574 1.781505 3.406837 3.068359 5.802734-.675638-.405663-1.543295-.769417-2.753906-1.083984 1.761288.90401 2.62335 1.739243 3.451172 2.380859C32.830232 35.841711 33.383442 36.864873 34 38c-3.126436-1.804948-5.559406-2.927877-7.824219-3.371094.075447-.341244.119406-.709279.128906-1.091797.050296-2.03078-.924363-3.763107-2.175781-3.869141-1.251418-.106034-2.307122 1.455549-2.357422 3.486328l-.003906.099609c-.003789.476366.048534.935206.146484 1.357422C19.624618 35.042056 17.168961 36.170503 14 38c1.962073-3.525447 3.407845-6.17558 4.554688-8.326172.800119-1.500808 1.445407-2.7472 1.974609-3.802734.267001-.532623.541942-1.07868.759766-1.533203.002.0017.003859.004159.005859.005859.118029.09907.253347.195179.386719.292969.053158.039017.098476.078348.154297.117188.052648.036595.116746.072925.171875.109375.150296.099522.300397.200178.470703.298828.0013.0008.002606.001185.003906.001953.232881.134777.48442.268628.759766.402344.276344.134081.575669.266676.900391.400391-.299821-.209768-.57054-.413857-.818359-.611328-.002-.0015-.003959-.002306-.005859-.003906-.745397-.594481-1.27637-1.132216-1.730469-1.613281-.0026-.0027-.007266-.005113-.009766-.007813C22.569268 21.612767 23.109779 20.182582 24 18Z" fill="#1793d1"/></svg>