<svg fill="#480062" height="48" version="1.1" viewBox="0 0 48 48" width="48" xmlns="http://www.w3.org/2000/svg"><circle cx="24" cy="-24" fill="#4b8cb5" r="18" stroke-width="3" transform="matrix(0 1 -1 0 0 0)"/><path d="m24.230898 36.132996c1.531669-.749876 4.10708-3.504786 5.109916-5.466063l.249638-.488224-.339441.104524c-.186692.057488-.531806.34296-.766919.634383-.235113.291422-.791681.876983-1.236818 1.301247-2.404726 2.291963-5.050648 1.949797-6.096365-.788373-.180044-.471439-.333222-.643292-.623753-.6998-1.013563-.197136-2.659617-.391061-2.765244-.325779-.201765.124698.079858 2.473185.3988 3.325634.413277 1.104581 1.153251 1.919846 2.239958 2.46787.809517.408238 1.024277.453849 1.933763.410699.76545-.036316 1.243057-.156222 1.896466-.476119zm10.298748-1.961674c.681461-.491858.959779-1.016761.948308-1.788493-.012594-.847258-.34298-1.380577-1.11826-1.80513-.477336-.261395-.528481-.35395-.614184-1.111467C33.09433 23.710576 27.197845 15.449147 22.501904 13.713078c-2.03413-.752009-4.091617-.411833-5.3032.876808-.629971.670038-.891548 1.23963-1.065596 2.320374-.259503 1.611365.321643 4.252523 1.488121 6.76313.522517 1.124612.62611 1.264848.742187 1.004711.096036-.215225.024002-.694325-.250007-1.662795-.508417-1.796976-.520947-3.253008-.036864-4.283631.395447-.841916.693123-1.141862 1.444989-1.456012 2.133894-.891598 5.795705.870539 8.715368 4.194009 1.884233 2.144834 3.722096 5.431617 4.456992 7.970766l.222852.769977-.573377.361957c-.700392.442138-1.020358 1.024062-1.019636 1.854416.001434 1.649965 1.90317 2.684817 3.205912 1.744536zm-6.275789-4.089992c1.535508-.320926 3.749241-.991056 3.85864-1.168068.0666-.107761-.810463-2.431975-.982737-2.604249-.04485-.04485-.430748.114773-.85755.354718-3.542895 1.991787-9.415407 2.71471-13.853164 1.705364l-1.027147-.23362 0-.577614c0-2.248769-2.680158-3.150159-3.90683-1.313943-1.201357 1.798322 1.011707 4.058725 2.866583 2.9279.494269-.301331.494623-.301335 1.169269-.013932.917818.390996 2.652575.897082 3.89034 1.134941 1.560507.299879 7.020718.169283 8.842596-.211496zm-7.600248-2.301402c0-2.161764 1.286563-6.524417 2.573692-8.727227.272601-.466533.495639-.872165.495639-.901403 0-.084915-1.316388-.564097-1.374607-.500375-.028964.031702-.361711.537837-.739437 1.124743-.879133 1.365988-2.291621 4.30074-2.786374 5.7893-.434809 1.308209-.967637 3.620948-.859205 3.72938.095159.095159 1.291305.259052 2.069117.283505l.621174.019529 0-.817453zm13.742928-.008021c1.496829-.997559 2.344898-2.363881 2.448596-3.944924.139187-2.122126-1.025245-3.588986-3.693066-4.652237-1.050088-.418509-3.325045-.9493-4.083276-.952706l-.427414-.00192.328563.349739c.180709.192356.701902.485955 1.158207.652441 2.745376 1.001674 3.933791 3.095397 2.807865 4.946834l-.278858.458545.418628.99828c.230246.549054.496968 1.310695.592716 1.692534.095748.381839.217417.694253.270374.694253.052957 0 .258906-.108378.457664-.24084zM28.652772 15.302235c.871974-.39583 1.240791-1.035651 1.167533-2.025425-.048782-.659083-.137655-.857876-.582315-1.302536-.44466-.44466-.643453-.533533-1.302536-.582315-.601198-.044498-.885941.010344-1.25414.24155-.664607.41733-1.057111 1.121628-1.057768 1.898026-.000345.408465-.09418.74967-.255054.927433-.243277.268818-.239395.293465.087958.55854.231667.187593.416156.236072.570237.149845.147802-.082714.437642-.032152.825534.144012.752449.341732 1.030746.340321 1.800551-.00913z" fill="#fff"/></svg>