<svg fill="#480062" height="48" version="1.1" viewBox="0 0 48 48" width="48" xmlns="http://www.w3.org/2000/svg"><path d="M44 11.58L34.81 3.87 32.24 6.93 41.43 14.64 44 11.58Zm-28.24-4.66l-2.57-3.06L4 11.57 6.57 14.63 15.76 6.92ZM25 16.14l-3 0 0 12 9.49 5.71 1.51-2.47-8-4.74 0-10.5zm-1.01-8C14.04 8.14 6 16.2 6 26.14 6 36.08 14.04 44.14 23.99 44.14c9.95 0 18.01-8.06 18.01-18 0-9.94-8.06-18-18.01-18zm .01 32c-7.73 0-14-6.27-14-14 0-7.73 6.27-14 14-14 7.73 0 14 6.27 14 14 0 7.73-6.26 14-14 14z"/></svg>