<svg version="1.1" viewBox="0 0 256 256" xmlns="http://www.w3.org/2000/svg" xmlns:xlink="http://www.w3.org/1999/xlink"><defs><linearGradient id="a" gradientTransform="translate(.2632 .41666)" gradientUnits="userSpaceOnUse" x1="164" x2="109" xlink:href="#b" y1="161" y2="217"/><linearGradient id="b" gradientUnits="userSpaceOnUse" x2="0" y1="140" y2="60"><stop offset="0%" stop-opacity=".15"/><stop offset="30%" stop-opacity=".06"/><stop offset="100%" stop-opacity=".03"/></linearGradient><linearGradient id="c" gradientTransform="translate(.2632 .41666)" gradientUnits="userSpaceOnUse" x1="139" x2="147" xlink:href="#b" y1="179" y2="100"/><linearGradient id="d" gradientTransform="translate(.2632 .41666)" gradientUnits="userSpaceOnUse" x2="0" xlink:href="#b" y1="140" y2="60"/></defs><circle cx="128.263199" cy="128.416656" fill="#fff" r="110"/><g fill-opacity=".1" transform="translate(.2632 .41666)"><path d="m198 148a70 70 0 0 0 -140 0l20 0a50 50 0 0 1 100 0"/><circle cx="133" cy="142" r="38"/></g><circle cx="128.263199" cy="128.416656" fill="#3369e8" r="41"/><path d="m228.2632 78.41666a112 112 0 0 0 -193-13l45 78A50 50 0 0 1 127.2632 78.41666" fill="#d50f25"/><path d="m35.2632 65.41666a112 112 0 0 0 84 174l47-80a50 50 0 0 1 -86-16" fill="#009925"/><path d="m119.2632 239.41666a112 112 0 0 0 109-161l-101 0a50 50 0 0 1 39 81" fill="#eeb211"/><path d="m35.2632 65.41666l45 78a50 50 0 0 1 2-34l-45-47" fill="url(#d)"/><path d="m119.2632 239.41666l47-80a50 50 0 0 1 -29 17l-20 63" fill="url(#a)"/><path d="m228.2632 78.41666l-101 0a50 50 0 0 1 39 19l64-16" fill="url(#c)"/><g fill="#480062" transform="translate(-135.732442 113.1357)"><path d="m8 16l8 0 0-8-8 0 0 8z" fill="#d50f25"/><path d="m20 40l8 0 0-8-8 0 0 8z" fill="#eeb211"/><path d="m8 40l8 0 0-8-8 0 0 8z" fill="#009925"/><path d="m8 28l8 0 0-8-8 0 0 8z" fill="#009925"/><path d="m20 28l8 0 0-8-8 0 0 8z" fill="#3369e8"/><path d="m32 8l0 8 8 0 0-8-8 0z" fill="#d50f25"/><path d="m20 16l8 0 0-8-8 0 0 8z" fill="#d50f25"/><path d="m32 28l8 0 0-8-8 0 0 8z" fill="#eeb211"/><path d="m32 40l8 0 0-8-8 0 0 8z" fill="#eeb211"/></g></svg>