<svg fill="#480062" height="48" version="1.1" viewBox="0 0 48 48" width="48" xmlns="http://www.w3.org/2000/svg"><path d="M28 4L12 4c-2.21 0-3.98 1.79-3.98 4L8 40c0 2.21 1.77 4 3.98 4L36 44c2.21 0 4-1.79 4-4L40 16 28 4Zm4 32l-16 0 0-4 16 0 0 4zm0-8l-16 0 0-4 16 0 0 4zM26 18L26 7 37 18 26 18Z" fill="#f89820"/><path d="m34.666016 10.666016l-2.222656 2.777344L37 18 28.798828 18 24 24l8 0 0 4-11.201172 0-3.199219 4L32 32l0 4-16 0 0-2-6.951172 8.689453C9.774806 43.489056 10.810892 44 11.980469 44L36 44c2.21 0 4-1.79 4-4l0-24-5.333984-5.333984z" fill="#5382a1"/></svg>