<svg fill="#480062" height="48" version="1.1" viewBox="0 0 48 48" width="48" xmlns="http://www.w3.org/2000/svg"><path d="m24 4c-3.21 0-6.3.5-9.2 1.44l0 6.21c0 .79-.46 1.47-1.12 1.8-1.95.98-3.74 2.23-5.33 3.7C7.99 17.5 7.5 17.72 6.95 17.72 6.4 17.72 5.9 17.5 5.54 17.13L.59 12.18C.22 11.81 0 11.31 0 10.76 0 10.21.22 9.71.59 9.34 6.68 3.55 14.93 0 24 0 33.07 0 41.32 3.55 47.41 9.34 47.78 9.7 48 10.21 48 10.76c0 .55-.22 1.05-.59 1.41l-4.95 4.95c-.36.36-.86.59-1.41.59-.54 0-1.04-.22-1.4-.57-1.59-1.47-3.38-2.72-5.33-3.7-.66-.33-1.12-1.01-1.12-1.8l0-6.21C30.3 4.5 27.21 4 24 4Z"/><g fill="#480062" transform="matrix(.9 0 0 .9 2.4 8.4)"><path d="M24 4C12.95 4 4 12.95 4 24 4 35.05 12.95 44 24 44 35.05 44 44 35.05 44 24 44 12.95 35.05 4 24 4ZM22 39.86C14.11 38.88 8 32.16 8 24 8 22.77 8.15 21.57 8.42 20.42L18 30l0 2c0 2.21 1.79 4 4 4l0 3.86zM35.79 34.79C35.28 33.17 33.78 32 32 32l-2 0 0-6c0-1.1-.9-2-2-2l-12 0 0-4 4 0c1.1 0 2-.9 2-2l0-4 4 0c2.21 0 4-1.79 4-4L30 9.17C35.86 11.54 40 17.28 40 24c0 4.16-1.6 7.94-4.21 10.79z"/></g></svg>