<svg fill="#480062" height="48" version="1.1" viewBox="0 0 48 48" width="48" xmlns="http://www.w3.org/2000/svg"><path d="M2.728516 25C1.217606 25 0 26.0035 0 27.25l0 13.5C0 41.9965 1.217606 43 2.728516 43L27.273438 43C28.784347 43 30 41.9965 30 40.75l0-13.5C30 26.0035 28.784347 25 27.273438 25L2.728516 25ZM4 29L26 29 26 39 4 39 4 29ZM20.728516 5C19.217606 5 18 6.0035 18 7.25l0 13.5C18 21.9965 19.217606 23 20.728516 23L45.273438 23C46.784347 23 48 21.9965 48 20.75L48 7.25C48 6.0035 46.784347 5 45.273438 5L20.728516 5ZM22 9L44 9 44 19 22 19 22 9Z" fill="#480062" stroke-width="4"/></svg>