<svg fill="#956449" height="38" version="1.1" viewBox="0 0 40 38" width="40" xmlns="http://www.w3.org/2000/svg"><g><path d="m36 14c2.21 0 4-1.79 4-4 0-2.21-1.79-4-4-4-2.21 0-4 1.79-4 4 0 2.21 1.79 4 4 4z" fill="#956449" opacity=".3"/><path d="m36 18c-2.21 0-4 1.79-4 4 0 2.21 1.79 4 4 4 2.21 0 4-1.79 4-4 0-2.21-1.79-4-4-4z" fill="#956449" opacity=".3"/><path d="M24.6 18C24.6 24 19.53 28.2 14 28.2 8.48 28.2 3.4 24 3.4 18L0 18c0 6.83 5.44 12.47 12 13.44L12 38l4 0 0-6.56C22.56 30.47 28 24.83 28 18l-3.4 0zM14 24c3.31 0 5.98-2.69 5.98-6L20 6C20 2.68 17.32 0 14 0 10.69 0 8 2.68 8 6L8 18C8 21.31 10.69 24 14 24Zm22 6c-2.21 0-4 1.79-4 4 0 2.21 1.79 4 4 4 2.21 0 4-1.79 4-4 0-2.21-1.79-4-4-4z" fill="#956449"/></g></svg>