<svg fill="#956449" height="48" version="1.1" viewBox="0 0 48 48" width="48" xmlns="http://www.w3.org/2000/svg"><path d="m40 10l-32 0c-2.21 0-3.98 1.79-3.98 4L4 34c0 2.21 1.79 4 4 4l32 0c2.21 0 4-1.79 4-4l0-20C44 11.79 42.21 10 40 10Zm-18 6l4 0 0 4-4 0 0-4zm0 6l4 0 0 4-4 0 0-4zm-6-6l4 0 0 4-4 0 0-4zm0 6l4 0 0 4-4 0 0-4zm-2 4l-4 0 0-4 4 0 0 4zm0-6l-4 0 0-4 4 0 0 4zm18 14l-16 0 0-4 16 0 0 4zm0-8l-4 0 0-4 4 0 0 4zm0-6l-4 0 0-4 4 0 0 4zm6 6l-4 0 0-4 4 0 0 4zm0-6l-4 0 0-4 4 0 0 4z" opacity=".3"/></svg>