<svg fill="#956449" height="48" version="1.1" viewBox="0 0 48 48" width="48" xmlns="http://www.w3.org/2000/svg"><path d="m22 2.069336c-5.512927.684749-10.147507 4.177396-12.445313 9l12.445313 0 0-9zm4 0l0 9 12.445313 0C36.147507 6.246732 31.512927 2.754085 26 2.069336Z" opacity=".3"/><path d="M9.554688 11.069336C8.563916 13.148754 8 15.472247 8 17.930664l14 0 0-6.861328-12.445313 0zm16.445313 0l0 6.861328 14 0c0-2.458418-.563916-4.78191-1.554688-6.861328l-12.445313 0zm-18 10.861328l0 8c0 8.84 7.16 16 16 16 8.84 0 16-7.16 16-16l0-8-32 0z"/></svg>