<svg fill="#956449" height="48" version="1.1" viewBox="0 0 48 48" width="48" xmlns="http://www.w3.org/2000/svg"><path d="M4.013672 20L4 34c0 2.21 1.79 4 4 4l32 0c2.21 0 4-1.79 4-4L44 20 4.013672 20Zm5.970703 2l4 0 0 4-4 0 0-4zm6 0l4 0 0 4-4 0 0-4zm6 0l4 0 0 4-4 0 0-4zm6 0l4 0 0 4-4 0 0-4zm6 0l4 0 0 4-4 0 0-4zm-18 8l16 0 0 4-16 0 0-4z"/><path d="M7.984375 10C5.774375 10 4.005859 11.79 4.005859 14L4 20l5.984375 0 0-4 4 0 0 4 2 0 0-4 4 0 0 4 2 0 0-4 4 0 0 4 2 0 0-4 4 0 0 4 2 0 0-4 4 0 0 4 6 0 0-6c0-2.21-1.79-4-4-4l-32 0z" opacity=".3"/></svg>