<svg height="24" version="1.0" width="24" xmlns="http://www.w3.org/2000/svg"><path d="M11.5 5C7.36 5 4 8.36 4 12.5c0 4.14 3.36 7.5 7.5 7.5 1.964788 0 3.756106-.76222 5.09375-2L22 18 18.65625 14.65625C18.864192 13.968633 19 13.255184 19 12.5 19 8.36 15.64 5 11.5 5zm0 3C13.984 8 16 10.016 16 12.5 16 14.984 13.984 17 11.5 17 9.016 17 7 14.984 7 12.5 7 10.016 9.016 8 11.5 8z" fill="#956449" fill-rule="evenodd" overflow="visible"/><path d="m13.262048 12.49928l-1.762048 0 0-2.499999" fill="none" stroke="#956449" stroke-linecap="round" stroke-linejoin="round"/><path d="M15.75 12.49928C15.750399 14.846772 13.847491 16.75 11.499999 16.75 9.152508 16.75 7.249602 14.846772 7.25 12.49928 7.249602 10.151788 9.152508 8.248559 11.499999 8.248559c2.347492 0 4.2504 1.903229 4.250001 4.250721z" fill="none" opacity=".3" overflow="visible" stroke="#fff" stroke-linecap="round" stroke-width=".5"/></svg>