<svg fill="#8C776C" height="40" version="1.1" viewBox="0 0 40 40" width="40" xmlns="http://www.w3.org/2000/svg"><path d="M12 0L12 15.169922 2.830078 6 0 8.830078 11.169922 20 0 31.169922 2.830078 34 12 24.830078 12 40 14 40 25.410156 28.589844 16.830078 20 25.410156 11.410156 14 0 12 0Zm4 7.660156l3.759766 3.759766L16 15.169922 16 7.660156ZM33 20c-2.76 0-5 2.24-5 5l0 3c-1.1 0-2 .9-2 2l0 8c0 1.1.9 2 2 2l10 0c1.1 0 2-.9 2-2l0-8c0-1.1-.9-2-2-2l0-3c0-2.76-2.24-5-5-5zm0 2c1.66 0 3 1.34 3 3l0 3-6 0 0-3c0-1.66 1.34-3 3-3zM16 24.820313L19.759766 28.589844 16 32.339844 16 24.820313Z"/></svg>