<svg fill="#8C776C" height="48" version="1.1" viewBox="0 0 48 48" width="48" xmlns="http://www.w3.org/2000/svg"><path d="M24.02 42.98L47.28 14c-.9-.68-9.85-8-23.28-8S1.62 13.32.72 14l23.26 28.98.02.02.02-.02z" fill-opacity=".3"/><path d="m42 32c-2.208 0-3.999653 1.68-4 3.75L38 38 37.714844 38C36.765354 38 36 38.742758 36 39.666016l0 6.666016C36 47.255288 36.765354 48 37.714844 48l8.572266 0C47.236599 48 48 47.255288 48 46.332031l0-6.666016C48 38.742758 47.236599 38 46.287109 38L46 38 46 35.75C46 33.68 44.208 32 42 32Zm0 2c1.106667 0 2 .893333 2 2l0 2-4 0 0-2c0-1.106667.893333-2 2-2zM7.07 21.91L23.99 42.98l.01.02.02-.02L40.94 21.91C40.08 21.25 33.62 16 24 16 14.37 16 7.92 21.25 7.07 21.91Z" fill="#8C776C"/></svg>