<svg fill="#956449" height="48" version="1.1" viewBox="0 0 48 48" width="48" xmlns="http://www.w3.org/2000/svg" xmlns:xlink="http://www.w3.org/1999/xlink"><defs><linearGradient id="a" gradientTransform="scale(1.0058652 .994169)" gradientUnits="userSpaceOnUse" x1="45.447727" x2="45.447727" y1="92.539597" y2="7.01654"><stop offset="0"/><stop offset="1" stop-opacity=".588235"/></linearGradient><filter id="b" color-interpolation-filters="sRGB"><feGaussianBlur stdDeviation="1.71"/></filter></defs><path d="M8.005859 28.982422L8 40C8 42.21 9.770469 44 11.980469 44l11.123047 0c0-4.022924-1.344492-7.181056-3.746094-10.375C16.930124 30.396876 13.364364 29.488726 8.005859 28.982422ZM26.714844 21.416016c-4.525202 3.233328-9.782058 5.586128-15.076172 6.294922 3.958852.916252 6.895847 2.150954 9.220703 4.816406 2.352514 2.697153 4.091797 7.461744 4.091797 11.472656l2.283203 0C25.622183 36.689873 25.409783 28.994611 26.714844 21.416016Zm9.34375-9.357422c-1.418626 2.098525-3.170618 4.130158-5.185547 6.005859-.01073 9.15883 2.407083 18.827033 7.947265 24.769531C39.548123 42.109697 40 41.108512 40 40L40 16 36.058594 12.058594ZM31.988281 7.988281C31.460191 10.326027 31.069763 12.813428 30.931641 15.408203c1.456027-1.50738 2.731508-3.087674 3.792968-4.683594L31.988281 7.988281ZM12 4C9.79 4 8.019531 5.79 8.019531 8L8.007813 26.09375C14.06497 26.241251 20.522596 23.693787 25.90625 19.796875 26.378336 19.455158 26.839525 19.118657 27.292969 18.757812 28.156631 14.837502 29.455732 10.948273 31.164062 7.164063L28 4 12 4Z" fill="#d81000"/><g display="none" transform="translate(-51.254237 6.838983)"><rect fill="url(#a)" filter="url(#b)" height="85" opacity=".9" rx="6" ry="6" width="86" x="5" y="7"/></g></svg>