<svg fill="#956449" height="48" version="1.1" viewBox="0 0 48 48" width="48" xmlns="http://www.w3.org/2000/svg"><path d="M41.09 10.45L38.32 7.09C37.76 6.43 36.93 6 36 6L12 6C11.07 6 10.24 6.43 9.69 7.09L6.92 10.45C6.34 11.15 6 12.03 6 13l0 25c0 2.21 1.79 4 4 4l28 0c2.21 0 4-1.79 4-4l0-25c0-.97-.34-1.85-.91-2.55z"/><path d="m10.25 10l1.63-2 24 0 1.87 2-27.5 0z" fill="#fff"/><text fill="#fff" x="23.966894" xml:space="preserve" y="33.6875"><tspan x="23.966894" y="33.6875"/></text><g fill="#fff" transform="matrix(.41664497 0 0 .41664497 14.000521 19.001041)"><path d="m12 36c0 1.1.9 2 2 2l2 0 0 7c0 1.66 1.34 3 3 3 1.66 0 3-1.34 3-3l0-7 4 0 0 7c0 1.66 1.34 3 3 3 1.66 0 3-1.34 3-3l0-7 2 0c1.1 0 2-.9 2-2l0-20-24 0 0 20zM7 16c-1.66 0-3 1.34-3 3l0 14c0 1.66 1.34 3 3 3 1.66 0 3-1.34 3-3L10 19C10 17.34 8.66 16 7 16Zm34 0c-1.66 0-3 1.34-3 3l0 14c0 1.66 1.34 3 3 3 1.66 0 3-1.34 3-3l0-14c0-1.66-1.34-3-3-3zM31.06 4.32L33.67 1.71c.39-.39.39-1.02 0-1.41-.39-.39-1.02-.39-1.41 0L29.3 3.25C27.7 2.46 25.91 2 24 2 22.08 2 20.28 2.46 18.67 3.26L15.7.29c-.39-.39-1.02-.39-1.41 0-.39.39-.39 1.02 0 1.41l2.62 2.62C13.94 6.51 12 10.03 12 14l24 0C36 10.02 34.05 6.5 31.06 4.32ZM20 10l-2 0 0-2 2 0 0 2zm10 0l-2 0 0-2 2 0 0 2z" fill="#fff"/></g></svg>