<svg fill="#956449" height="48" version="1.1" viewBox="0 0 48 48" width="48" xmlns="http://www.w3.org/2000/svg"><path d="m40 23l-3 0 0-8c0-2.21-1.79-4-4-4l-8 0 0-3C25 5.24 22.76 3 20 3 17.24 3 15 5.24 15 8l0 3-8 0C4.79 11 3.02 12.79 3.02 15L3.01 22.6 6 22.6C8.98 22.6 11.4 25.02 11.4 28 11.4 30.98 8.98 33.4 6 33.4L3.01 33.4 3 41c0 2.21 1.79 4 4 4l7.6 0 0-3c0-2.98 2.42-5.4 5.4-5.4 2.98 0 5.4 2.42 5.4 5.4l0 3 7.6 0c2.21 0 4-1.79 4-4l0-8 3 0c2.76 0 5-2.24 5-5 0-2.76-2.24-5-5-5z" fill="#18a303"/></svg>