<svg fill="#956449" height="48" version="1.1" viewBox="0 0 48 48" width="48" xmlns="http://www.w3.org/2000/svg"><path d="m28 2c-2.21 0-4 1.79-4 4l0 36c0 2.21 1.79 4 4 4l16 0c2.21 0 4-1.79 4-4L48 6C48 3.79 46.21 2 44 2L28 2Zm0 4l16 0 0 36-16 0 0-4 8 0 0-4-8 0 0-4 8 0 0-4-8 0 0-4 8 0 0-4-8 0 0-4 8 0 0-4-8 0 0-4zM4 4C1.79 4 .019531 5.79.019531 8L0 40c0 2.21 1.770469 4 3.980469 4L22 44l0-6-3 0 0-4 3 0 0-1-3 0 0-4 3 0 0-1-3 0 0-4 3 0 0-6-4 0 0-11 4 4L22 6 20 4 4 4Zm5 20l4 0 0 4-4 0 0-4zm5 0l4 0 0 4-4 0 0-4zm-5 5l4 0 0 4-4 0 0-4zm5 0l4 0 0 4-4 0 0-4zm-5 5l4 0 0 4-4 0 0-4zm5 0l4 0 0 4-4 0 0-4z" fill="#18a303"/></svg>