<svg fill="#956449" height="48" version="1.1" viewBox="0 0 48 48" width="48" xmlns="http://www.w3.org/2000/svg"><path d="M28 4L12 4c-2.21 0-3.98 1.79-3.98 4L8 40c0 2.21 1.77 4 3.98 4L36 44c2.21 0 4-1.79 4-4L40 16 28 4Zm4 32l-16 0 0-4 16 0 0 4zm0-8l-16 0 0-4 16 0 0 4zM26 18L26 7 37 18 26 18Z" fill="#3776ab"/><path d="M34.666016 10.666016L32.443359 13.443359 37 18 28.798828 18 24 24 32 24 32 28 20.798828 28 17.599609 32 32 32 32 36 16 36 16 34 9.048828 42.689453C9.774806 43.489056 10.810892 44 11.980469 44L36 44C38.21 44 40 42.21 40 40L40 16 34.666016 10.666016z" fill="#ffd343"/></svg>