<svg fill="#956449" height="48" version="1.1" viewBox="0 0 48 48" width="48" xmlns="http://www.w3.org/2000/svg"><path d="M28 2C25.79 2 24 3.79 24 6L24 42C24 44.21 25.79 46 28 46L44 46C46.21 46 48 44.21 48 42L48 6C48 3.79 46.21 2 44 2L28 2zM28 6L44 6 44 42 28 42 28 38 36 38 36 34 28 34 28 30 36 30 36 26 28 26 28 22 36 22 36 18 28 18 28 14 36 14 36 10 28 10 28 6z" fill="#00188f"/><path d="M4 4C1.79 4 .019531 5.79.019531 8L0 40C0 42.21 1.770469 44 3.980469 44L22 44 22 42 22 36 8 36 8 32 22 32 22 28 8 28 8 24 22 24 22 18 18 18 18 7 22 11 22 6 20 4 4 4z" fill="#00188f"/></svg>